<svg preserveAspectRatio="none" width="100%" height="100%" overflow="visible" style="display: block;" viewBox="0 0 19 19" fill="none" xmlns="http://www.w3.org/2000/svg">
<path d="M9.489 15.1152C9.7745 15.1152 10.0157 15.0168 10.2125 14.8198C10.4093 14.6226 10.5078 14.3812 10.5078 14.0955C10.5078 13.81 10.4092 13.5688 10.212 13.372C10.0148 13.1753 9.7735 13.077 9.488 13.077C9.2025 13.077 8.96133 13.1756 8.7645 13.3728C8.56767 13.5699 8.46925 13.8113 8.46925 14.0968C8.46925 14.3823 8.56783 14.6234 8.765 14.8203C8.96217 15.0169 9.2035 15.1152 9.489 15.1152ZM8.78075 11.5345H10.1885C10.2013 11.0423 10.2734 10.6491 10.4048 10.3548C10.5363 10.0606 10.8552 9.67058 11.3615 9.18475C11.8013 8.74492 12.1382 8.33875 12.372 7.96625C12.606 7.59392 12.723 7.15417 12.723 6.647C12.723 5.78617 12.4138 5.11375 11.7953 4.62975C11.1766 4.14592 10.4448 3.904 9.6 3.904C8.76533 3.904 8.07467 4.12675 7.528 4.57225C6.98117 5.01775 6.59108 5.54242 6.35775 6.14625L7.64225 6.6615C7.76408 6.3295 7.97242 6.00608 8.26725 5.69125C8.56208 5.37658 8.99992 5.21925 9.58075 5.21925C10.1718 5.21925 10.6086 5.38108 10.8913 5.70475C11.1741 6.02858 11.3155 6.38467 11.3155 6.773C11.3155 7.11283 11.2187 7.42375 11.025 7.70575C10.8315 7.98775 10.5848 8.26017 10.2848 8.523C9.62825 9.11533 9.2135 9.58783 9.0405 9.9405C8.86733 10.293 8.78075 10.8243 8.78075 11.5345ZM9.50175 19C8.18775 19 6.95267 18.7507 5.7965 18.252C4.64033 17.7533 3.63467 17.0766 2.7795 16.2218C1.92433 15.3669 1.24725 14.3617 0.74825 13.206C0.249416 12.0503 0 10.8156 0 9.50175C0 8.18775 0.249333 6.95267 0.748 5.7965C1.24667 4.64033 1.92342 3.63467 2.77825 2.7795C3.63308 1.92433 4.63833 1.24725 5.794 0.74825C6.94967 0.249416 8.18442 0 9.49825 0C10.8123 0 12.0473 0.249333 13.2035 0.748C14.3597 1.24667 15.3653 1.92342 16.2205 2.77825C17.0757 3.63308 17.7528 4.63833 18.2518 5.794C18.7506 6.94967 19 8.18442 19 9.49825C19 10.8123 18.7507 12.0473 18.252 13.2035C17.7533 14.3597 17.0766 15.3653 16.2218 16.2205C15.3669 17.0757 14.3617 17.7528 13.206 18.2518C12.0503 18.7506 10.8156 19 9.50175 19ZM9.5 17.5C11.7333 17.5 13.625 16.725 15.175 15.175C16.725 13.625 17.5 11.7333 17.5 9.5C17.5 7.26667 16.725 5.375 15.175 3.825C13.625 2.275 11.7333 1.5 9.5 1.5C7.26667 1.5 5.375 2.275 3.825 3.825C2.275 5.375 1.5 7.26667 1.5 9.5C1.5 11.7333 2.275 13.625 3.825 15.175C5.375 16.725 7.26667 17.5 9.5 17.5Z" fill="#ED5A20"/>
</svg>
