<svg preserveAspectRatio="none" width="100%" height="100%" overflow="visible" style="display: block;" viewBox="0 0 17 16.8078" fill="none" xmlns="http://www.w3.org/2000/svg">
<path id="Vector" d="M8.0635 14.6155H0V12.3923C0 11.9026 0.133 11.4491 0.399 11.0317C0.665 10.6144 1.0205 10.2936 1.4655 10.0692C2.45383 9.58475 3.45092 9.22133 4.45675 8.979C5.46258 8.73667 6.477 8.6155 7.5 8.6155V10.1155C6.58833 10.1155 5.68475 10.2248 4.78925 10.4433C3.89392 10.6619 3.01542 10.9834 2.15375 11.4078C1.95258 11.5168 1.79333 11.6574 1.676 11.8298C1.55867 12.0023 1.5 12.1898 1.5 12.3923V13.1155H7.60575C7.65275 13.378 7.71433 13.6343 7.7905 13.8843C7.86683 14.1343 7.95783 14.378 8.0635 14.6155ZM13.3462 16.8078C12.2321 16.5334 11.3446 15.9203 10.6837 14.9685C10.0227 14.0165 9.69225 12.9572 9.69225 11.7905V9.4505L13.3462 7.6155L17 9.4515V11.7925C17 12.9552 16.6695 14.0132 16.0085 14.9665C15.3477 15.9197 14.4602 16.5334 13.3462 16.8078ZM13.3462 15.2557C14.0307 14.9814 14.5624 14.5215 14.9413 13.876C15.3201 13.2305 15.5095 12.5353 15.5095 11.7905V10.375L13.3462 9.298L11.1828 10.375V11.7905C11.1828 12.5353 11.3722 13.2305 11.751 13.876C12.1298 14.5215 12.6616 14.9814 13.3462 15.2557ZM5.026 5.974C4.342 5.29017 4 4.4655 4 3.5C4 2.53467 4.342 1.71 5.026 1.026C5.71 0.341999 6.53467 0 7.5 0C8.46533 0 9.29 0.341999 9.974 1.026C10.658 1.71 11 2.53467 11 3.5C11 4.4655 10.658 5.29017 9.974 5.974C9.29 6.658 8.46533 7 7.5 7C6.53467 7 5.71 6.658 5.026 5.974ZM8.9125 4.9125C9.30417 4.52083 9.5 4.05 9.5 3.5C9.5 2.95 9.30417 2.47917 8.9125 2.0875C8.52083 1.69583 8.05 1.5 7.5 1.5C6.95 1.5 6.47917 1.69583 6.0875 2.0875C5.69583 2.47917 5.5 2.95 5.5 3.5C5.5 4.05 5.69583 4.52083 6.0875 4.9125C6.47917 5.30417 6.95 5.5 7.5 5.5C8.05 5.5 8.52083 5.30417 8.9125 4.9125Z" fill="var(--fill-0, #0C6EBF)" fill-opacity="0.5"/>
</svg>
