<svg preserveAspectRatio="none" width="100%" height="100%" overflow="visible" style="display: block;" viewBox="0 0 20.5 21.5" fill="none" xmlns="http://www.w3.org/2000/svg">
<path id="Vector" fill-rule="evenodd" clip-rule="evenodd" d="M8.6936 4.53204e-07H10.8064C12.6442 -1.95468e-05 14.0998 -2.96086e-05 15.239 0.15314C16.4114 0.31076 17.3604 0.64288 18.1088 1.39124C18.4016 1.68414 18.4016 2.15901 18.1088 2.4519C17.8159 2.7448 17.341 2.7448 17.0481 2.4519C16.6249 2.02869 16.0452 1.77502 15.0392 1.63976C14.0115 1.50159 12.6568 1.5 10.75 1.5H8.75C6.84318 1.5 5.48851 1.50159 4.46085 1.63976C3.45476 1.77502 2.87511 2.02869 2.4519 2.4519C2.02869 2.87511 1.77502 3.45476 1.63976 4.46085C1.50159 5.48851 1.5 6.84318 1.5 8.75V12.75C1.5 14.6568 1.50159 16.0115 1.63976 17.0392C1.77502 18.0452 2.02869 18.6249 2.4519 19.0481C2.87511 19.4713 3.45476 19.725 4.46085 19.8602C5.48851 19.9984 6.84318 20 8.75 20H10.75C12.6568 20 14.0115 19.9984 15.0392 19.8602C16.0452 19.725 16.6249 19.4713 17.0481 19.0481C17.744 18.3522 17.9548 17.2708 17.9914 14.7392C17.9974 14.325 18.338 13.9941 18.7522 14.0001C19.1663 14.0061 19.4972 14.3467 19.4912 14.7608C19.4561 17.1883 19.299 18.9185 18.1088 20.1088C17.3604 20.8571 16.4114 21.1892 15.239 21.3469C14.0998 21.5 12.6442 21.5 10.8064 21.5H8.6936C6.85583 21.5 5.40019 21.5 4.26098 21.3469C3.08856 21.1892 2.13961 20.8571 1.39124 20.1088C0.64288 19.3604 0.310761 18.4114 0.153141 17.239C-2.94894e-05 16.0998 -1.95468e-05 14.6442 4.53159e-07 12.8064V8.69358C-1.95468e-05 6.85582 -2.94894e-05 5.40019 0.153141 4.26098C0.310761 3.08856 0.64288 2.13961 1.39124 1.39124C2.13961 0.64288 3.08856 0.31076 4.26098 0.15314C5.40019 -2.96086e-05 6.85582 -1.95468e-05 8.6936 4.53204e-07ZM15.8631 5.79556C16.9239 4.73481 18.6437 4.73481 19.7044 5.79556C20.7652 6.8563 20.7652 8.57611 19.7044 9.6369L14.9491 14.3922C14.6904 14.651 14.5154 14.826 14.3193 14.9789C14.0887 15.1588 13.8392 15.313 13.5752 15.4389C13.3507 15.5458 13.1159 15.6241 12.7687 15.7397L10.6851 16.4343C10.2251 16.5876 9.7179 16.4679 9.375 16.125C9.0321 15.7821 8.9124 15.2749 9.0657 14.8149L9.7463 12.7732C9.751 12.7591 9.7556 12.7451 9.7602 12.7313C9.8759 12.3842 9.9542 12.1493 10.0611 11.9248C10.187 11.6608 10.3412 11.4113 10.5211 11.1807C10.674 10.9846 10.849 10.8096 11.1078 10.5509C11.1181 10.5406 11.1285 10.5302 11.1391 10.5196L15.8631 5.79556ZM18.6438 6.85622C18.1688 6.38126 17.3988 6.38126 16.9238 6.85622L16.742 7.038C16.7519 7.07149 16.7632 7.1071 16.7762 7.14452C16.8702 7.41565 17.0488 7.77427 17.3872 8.11276C17.7257 8.45125 18.0843 8.62975 18.3555 8.72382C18.3929 8.7368 18.4285 8.74812 18.462 8.758L18.6438 8.5762C19.1187 8.10124 19.1187 7.33118 18.6438 6.85622ZM17.3164 9.9036C16.9985 9.7366 16.6553 9.5021 16.3266 9.1734C15.9979 8.8447 15.7634 8.50146 15.5964 8.18357L12.1997 11.5803C11.8987 11.8814 11.793 11.9888 11.7038 12.1032C11.591 12.2479 11.4942 12.4045 11.4152 12.5702C11.3528 12.7011 11.3039 12.8436 11.1693 13.2476L10.769 14.4485L11.0515 14.731L12.2524 14.3307C12.6564 14.1961 12.7989 14.1472 12.9298 14.0848C13.0955 14.0058 13.2521 13.909 13.3968 13.7962C13.5112 13.707 13.6186 13.6013 13.9197 13.3003L17.3164 9.9036ZM5 7.75C5 7.33579 5.33579 7 5.75 7H12.25C12.6642 7 13 7.33579 13 7.75C13 8.16421 12.6642 8.5 12.25 8.5H5.75C5.33579 8.5 5 8.16421 5 7.75ZM5 11.75C5 11.3358 5.33579 11 5.75 11H8.25C8.6642 11 9 11.3358 9 11.75C9 12.1642 8.6642 12.5 8.25 12.5H5.75C5.33579 12.5 5 12.1642 5 11.75ZM5 15.75C5 15.3358 5.33579 15 5.75 15H7.25C7.66421 15 8 15.3358 8 15.75C8 16.1642 7.66421 16.5 7.25 16.5H5.75C5.33579 16.5 5 16.1642 5 15.75Z" fill="var(--fill-0, #0C6EBF)" fill-opacity="0.5"/>
</svg>
