<svg preserveAspectRatio="none" width="100%" height="100%" overflow="visible" style="display: block;" viewBox="0 0 99.999 100" fill="none" xmlns="http://www.w3.org/2000/svg">
<path id="Union" d="M50.5957 0.0410156C51.1114 0.250349 53.3997 1.15335 56.3057 3.9043C56.3217 3.91953 56.3383 3.93496 56.3545 3.9502C56.3864 3.98057 56.4181 4.01123 56.4502 4.04199C58.8959 6.37499 61.7529 9.98148 64.333 15.5C66.9996 21.1666 68.6664 27.667 69.333 34.667C69.6664 38.5003 69.833 42.5001 69.833 46.5C69.833 47.1646 69.8326 49.3518 69.6787 52.2266C71.3467 53.4096 78.333 59.2457 78.333 71.667V78.333C78.333 79.6663 77.6663 80.6664 76.5 81.333C76.0001 81.6663 75.4999 81.8329 75 81.833C74.3335 81.833 73.6665 81.6668 73 81.167L62.9688 74.1748C61.8821 75.0566 60.2129 76.1305 57.8691 76.9531C60.5553 80.2973 60.799 85.1469 58.333 89L51.5 99.333C51.0001 99.6662 50.4999 99.9999 50 100C49.5 100 48.9994 99.6664 48.666 99.333L41.666 89C39.2462 85.3701 39.435 80.642 41.9814 77.1826C39.5483 76.3549 37.8232 75.2527 36.708 74.3496L27.167 81C26.3338 81.5 25.6666 81.833 25 81.833C24.5 81.833 24 81.6666 23.5 81.5C22.3333 80.8334 21.6671 79.8333 21.667 78.5V71.833C21.6671 59.9837 28.0248 54.127 30.1631 52.5859C29.9998 49.5825 30 47.3 30 46.667C30 42.667 30.1666 38.6664 30.5 34.833C31.1666 27.8332 32.8335 21.3335 35.5 15.667C41.6666 2.66699 49.1666 0.166602 49.5 0H50.5C50.5161 0.00801538 50.5486 0.021738 50.5957 0.0410156ZM89.999 80C90.999 80 91.666 80.667 91.666 81.667V84.333L95.666 88.333H98.333C99.3327 88.3332 99.999 89.0002 99.999 90C99.999 90.9998 99.3327 91.6668 98.333 91.667H95.666L91.666 95.667V98.333C91.666 99.333 90.999 100 89.999 100C88.9992 99.9998 88.333 99.3329 88.333 98.333V95.667L84.333 91.667H81.666C80.6661 91.6669 80 90.9999 80 90C80 89.0001 80.6661 88.3331 81.666 88.333H84.333L88.333 84.333V81.667C88.333 80.6671 88.9992 80.0002 89.999 80ZM55.5 79.167C54.1032 82.7368 52.4165 84.7155 50.4414 84.9707C50.4316 84.9719 50.422 84.9744 50.4121 84.9756C50.36 84.982 50.3064 84.9854 50.2539 84.9893C50.2379 84.9904 50.2221 84.9932 50.2061 84.9941C50.1378 84.9982 50.069 85 50 85C49.9309 85 49.8613 84.9982 49.793 84.9941C49.7767 84.9932 49.7604 84.9904 49.7441 84.9893C49.6919 84.9856 49.6397 84.9818 49.5879 84.9756C49.5771 84.9742 49.5665 84.9721 49.5557 84.9707C47.8825 84.7529 46.4318 83.2947 45.3672 80.6797C45.1699 80.209 44.9867 79.7086 44.8184 79.1846C42.9992 81.3516 42.8377 84.6738 44.666 87.167L50.166 95.333L55.666 87.167C57.3327 84.6671 57.1666 81.3336 55.5 79.167ZM87.333 90L89.999 92.667L92.666 90L89.999 87.333L87.333 90ZM5 80C5.99995 80 6.66699 80.667 6.66699 81.667C6.66682 82.6667 5.99982 83.333 5 83.333C4.00013 83.333 3.33318 82.6668 3.33301 81.667C3.33301 80.667 4 80 5 80ZM49.916 55.0137C49.0113 55.2982 46.6661 59.9397 46.666 68.333C46.666 73.1805 47.4481 76.7758 48.2832 79.0039C49.09 81.0766 49.8816 81.667 50 81.667C50.1005 81.6665 50.679 81.2455 51.3418 79.9053C51.7486 79.0194 52.1678 77.8056 52.5166 76.2754C52.5065 76.1806 52.5 76.0872 52.5 76C53 73.6668 53.166 70.9996 53.166 68.333C53.166 59.9386 50.8205 55.2969 49.916 55.0137ZM69.5 56.667C68.8334 63.8332 67.4998 68.833 65.5 71.833L75 78.5V71.833C74.9999 63.8335 71.8333 59.0002 69.5 56.667ZM30.4551 56.5459C28.1262 58.8959 25 63.718 25 71.667V78.333L34.3516 71.7705C32.05 68.271 30.9656 61.9785 30.4551 56.5459ZM60.5527 15.5693C57.4895 17.3759 53.8058 18.333 50 18.333C46.1944 18.333 42.5096 17.376 39.4463 15.5693C39.1848 16.0816 38.925 16.6127 38.667 17.167C36.1671 22.5003 34.4996 28.6671 33.833 35.167C33.4996 38.8336 33.3336 42.8333 33.334 46.666C33.334 48.1918 33.3881 50.4823 33.5557 53.0635C33.6664 53.2113 33.667 53.3754 33.667 53.666C34.3338 62.1658 35.8335 68.3333 38 70.5L38.167 70.666L38.334 70.833C38.5079 71.007 38.6356 71.2274 38.7188 71.4688C39.553 72.1984 41.1463 73.2649 43.667 74C43.6184 73.5137 43.5699 72.9959 43.5254 72.4609C43.3971 71.0968 43.333 69.705 43.333 68.333C43.333 60.333 45.5 51.666 50 51.666C54.5 51.666 56.667 60.333 56.667 68.333C56.667 69.5555 56.6154 70.7935 56.5137 72.0137C56.4596 72.7489 56.3963 73.4698 56.333 74.166C59.3282 73.2925 61.0153 71.8589 61.6738 71.1934C61.7222 71.1251 61.7741 71.0589 61.833 71L62.166 70.667C65.9993 66.6671 66.666 52.0007 66.666 46.667C66.666 42.6671 66.4994 38.8335 66.166 35.167C65.4992 28.5005 63.9995 22.5003 61.333 17.167C61.075 16.6127 60.8145 16.0816 60.5527 15.5693ZM86.666 55C87.666 55 88.333 55.667 88.333 56.667C88.3329 57.6669 87.6659 58.333 86.666 58.333C85.6662 58.3329 85.0001 57.6668 85 56.667C85 55.667 85.6661 55.0001 86.666 55ZM50 21.667C57.3333 21.6671 63.333 27.6667 63.333 35C63.333 42.3333 57.3333 48.3329 50 48.333C42.6666 48.333 36.666 42.3334 36.666 35C36.6661 27.6666 42.6667 21.667 50 21.667ZM50 25C44.5 25 40 29.5 40 35C40 40.5 44.5 45 50 45C55.4999 44.9999 60 40.4999 60 35C60 29.5001 55.4999 25.0001 50 25ZM15 38.333C15.9999 38.3331 16.666 39 16.666 40C16.666 40.9999 15.9999 41.6669 15 41.667C14 41.667 13.333 41 13.333 40C13.333 39 14 38.333 15 38.333ZM50 28.333C53.6664 28.3332 56.666 31.3335 56.666 35C56.666 38.6665 53.6664 41.6668 50 41.667C46.3334 41.667 43.333 38.6666 43.333 35C43.333 31.3334 46.3334 28.333 50 28.333ZM50 31.667C48.1666 31.667 46.666 33.1666 46.666 35C46.666 36.8334 48.1666 38.333 50 38.333C51.8332 38.3328 53.333 36.8333 53.333 35C53.333 33.1667 51.8332 31.6672 50 31.667ZM94.999 15C95.999 15 96.666 15.667 96.666 16.667C96.6659 17.6669 95.999 18.333 94.999 18.333C93.9993 18.3328 93.3331 17.6665 93.333 16.667C93.333 15.6671 93.9993 15.0002 94.999 15ZM8.33301 0C9.333 0 10 0.666992 10 1.66699C10.0002 4.5002 12.1667 6.66699 15 6.66699C15.9998 6.66702 16.6668 7.33325 16.667 8.33301C16.667 9.33298 16 9.99997 15 10C12.1666 10 10 12.1666 10 15C10 16 9.333 16.667 8.33301 16.667C7.3331 16.6669 6.66699 15.9999 6.66699 15C6.66699 12.1667 4.50018 10.0002 1.66699 10C0.666997 10 0 9.33301 0 8.33301C0.000173839 7.33323 0.666932 6.66699 1.66699 6.66699C4.50015 6.66689 6.66679 4.50013 6.66699 1.66699C6.66699 0.667109 7.33321 0.000155762 8.33301 0ZM49.8574 3.57324C49.819 3.59313 49.7788 3.6143 49.7373 3.63672C49.7306 3.64036 49.7237 3.64382 49.7168 3.64746C49.0029 4.0332 47.8449 4.76097 46.4502 6.00879C44.8582 7.44297 42.9609 9.575 41.0527 12.6953C43.7062 14.1768 46.6885 15 50 15C53.3114 15 56.2938 14.1767 58.9473 12.6953C57.0391 9.5748 55.1408 7.44297 53.5488 6.00879C52.1543 4.76116 50.997 4.03336 50.2832 3.64746C50.2763 3.64381 50.2694 3.64037 50.2627 3.63672C50.2213 3.61454 50.1809 3.59329 50.1426 3.57324C50.0932 3.54749 50.0445 3.52225 50 3.5C49.9555 3.52227 49.9068 3.54746 49.8574 3.57324ZM8.33301 6.66699C7.83317 7.33334 7.33333 7.83316 6.66699 8.33301C7.33353 8.83297 7.83305 9.33348 8.33301 10C8.83301 9.3334 9.3334 8.83301 10 8.33301C9.33348 7.83305 8.83297 7.33354 8.33301 6.66699Z" fill="var(--fill-0, #0C6EBF)" fill-opacity="0.5"/>
</svg>
