<svg width="24" height="24" viewBox="0 0 24 24" fill="none" xmlns="http://www.w3.org/2000/svg">
  <path d="M8.86 7.62C8.66 7.17 8.44 7.16 8.25 7.15H7.73C7.55 7.15 7.26 7.22 7.01 7.49C6.76 7.76 6.06 8.42 6.06 9.76C6.06 11.1 7.03 12.39 7.16 12.57C7.3 12.75 9.04 15.59 11.8 16.68C14.1 17.58 14.57 17.4 15.07 17.36C15.57 17.31 16.69 16.7 16.92 16.06C17.15 15.43 17.15 14.88 17.08 14.76C17.01 14.66 16.83 14.59 16.56 14.45L14.71 13.55C14.44 13.41 14.24 13.35 14.04 13.68C13.84 14.02 13.27 14.68 13.09 14.88C12.91 15.08 12.74 15.1 12.44 14.96C12.14 14.82 11.19 14.5 10.07 13.5C9.19 12.72 8.6 11.76 8.43 11.47C8.26 11.17 8.41 11.01 8.56 10.87C8.69 10.74 8.86 10.52 9 10.35C9.15 10.17 9.2 10.05 9.3 9.85C9.4 9.65 9.35 9.48 9.27 9.33L8.86 7.62Z" fill="#FFFFFF"/>
</svg>
