<svg preserveAspectRatio="none" width="100%" height="100%" overflow="visible" style="display: block;" viewBox="0 0 11.4613 11.4615" fill="none" xmlns="http://www.w3.org/2000/svg">
<path id="Vector" d="M10.7588 11.4615L6.57167 7.27417C6.23833 7.54939 5.855 7.76478 5.42167 7.92033C4.98833 8.07589 4.54006 8.15367 4.07683 8.15367C2.93739 8.15367 1.97306 7.75917 1.18383 6.97017C0.394611 6.18117 0 5.21706 0 4.07783C0 2.93872 0.3945 1.97428 1.1835 1.1845C1.9725 0.394833 2.93661 0 4.07583 0C5.21494 0 6.17939 0.394611 6.96917 1.18383C7.75883 1.97306 8.15367 2.93739 8.15367 4.07683C8.15367 4.55294 8.07378 5.00767 7.914 5.441C7.75411 5.87433 7.54083 6.25122 7.27417 6.57167L11.4613 10.7588L10.7588 11.4615ZM4.07683 7.15383C4.93583 7.15383 5.66339 6.85572 6.2595 6.2595C6.85572 5.66339 7.15383 4.93583 7.15383 4.07683C7.15383 3.21783 6.85572 2.49028 6.2595 1.89417C5.66339 1.29794 4.93583 0.999833 4.07683 0.999833C3.21783 0.999833 2.49028 1.29794 1.89417 1.89417C1.29794 2.49028 0.999833 3.21783 0.999833 4.07683C0.999833 4.93583 1.29794 5.66339 1.89417 6.2595C2.49028 6.85572 3.21783 7.15383 4.07683 7.15383Z" fill="var(--fill-0, white)" fill-opacity="0.5"/>
</svg>
