<svg preserveAspectRatio="none" width="100%" height="100%" overflow="visible" style="display: block;" viewBox="0 0 101 20" fill="none" xmlns="http://www.w3.org/2000/svg">
<path id="Vector" d="M10.0114 10.4262C10.0114 11.9629 9.56285 13.2573 8.66251 14.3052C7.72295 15.4031 6.50208 15.9542 5.0076 15.9542C3.50914 15.9542 2.29224 15.4031 1.35264 14.3052C0.451932 13.2573 0 11.9629 0 10.4262C0 8.88524 0.451932 7.59124 1.35264 6.54718C2.30267 5.45955 3.52358 4.916 5.0076 4.916C6.50208 4.916 7.72295 5.45955 8.66251 6.54718C9.56285 7.59124 10.0114 8.88524 10.0114 10.4262ZM7.03587 10.4262C7.03587 9.73014 6.87232 9.14262 6.54489 8.66763C6.17854 8.12771 5.66585 7.8595 5.0076 7.8595C4.3491 7.8595 3.83661 8.12771 3.46989 8.66763C3.13907 9.14262 2.97536 9.73014 2.97536 10.4262C2.97536 11.1184 3.13907 11.7129 3.46989 12.2022C3.83661 12.7421 4.3491 13.0108 5.0076 13.0108C5.66585 13.0108 6.17854 12.7421 6.54489 12.2022C6.87232 11.7129 7.03587 11.1184 7.03587 10.4262ZM20.7701 10.4262C20.7701 11.8616 20.3643 13.1158 19.5492 14.1889C18.6773 15.3633 17.5527 15.9542 16.186 15.9542C15.2214 15.9542 14.4031 15.6679 13.734 15.1025C13.734 15.2327 13.7482 15.5482 13.7768 16.0525C13.8052 16.5594 13.8193 16.9728 13.8193 17.2991C13.8193 19.1012 13.2925 20 12.2394 20C11.8085 20 11.4564 19.8441 11.1751 19.5358C10.8976 19.2244 10.7587 18.8503 10.7587 18.4086V6.68865C10.7587 6.26085 10.9011 5.89094 11.1858 5.57949C11.4704 5.27126 11.8229 5.11574 12.2429 5.11574C12.8761 5.11574 13.3389 5.43765 13.6309 6.0798C14.2536 5.30403 15.1042 4.916 16.1825 4.916C17.5527 4.916 18.6737 5.4957 19.5492 6.65971C20.3608 7.73651 20.7701 8.99073 20.7701 10.4262ZM17.7945 10.4262C17.7945 9.73014 17.6277 9.14262 17.3002 8.66763C16.9333 8.12771 16.421 7.8595 15.7625 7.8595C15.1042 7.8595 14.5918 8.12771 14.225 8.66763C13.8976 9.14262 13.734 9.73014 13.734 10.4262C13.734 11.1184 13.8976 11.7129 14.225 12.2022C14.5918 12.7421 15.1042 13.0108 15.7625 13.0108C16.421 13.0108 16.9333 12.7421 17.3002 12.2022C17.6277 11.7129 17.7945 11.1184 17.7945 10.4262ZM31.5962 10.1003C31.5962 10.6072 31.4787 10.9553 31.2437 11.1514C31.009 11.3432 30.6425 11.4411 30.1477 11.4411H24.7772C24.7772 12.0212 25.0442 12.4669 25.578 12.7783C26.0087 13.0216 26.5354 13.1452 27.1581 13.1452C27.6425 13.1452 28.2224 12.9815 28.9022 12.6593C29.582 12.3328 30.0195 12.1731 30.2085 12.1731C30.5535 12.1731 30.8452 12.3001 31.0873 12.5611C31.3256 12.8187 31.4469 13.1303 31.4469 13.4894C31.4469 14.3191 30.8384 14.965 29.6208 15.4288C28.6921 15.7766 27.749 15.9542 26.7847 15.9542C25.233 15.9542 23.9802 15.4288 23.0229 14.3814C22.0653 13.3335 21.5852 12.0176 21.5852 10.4262C21.5852 8.91056 22.0833 7.61657 23.0797 6.53672C24.0725 5.45593 25.3078 4.916 26.781 4.916C28.1512 4.916 29.2971 5.42719 30.2156 6.44935C31.1334 7.47188 31.5962 8.68974 31.5962 10.1003ZM28.6211 9.33853C28.6067 8.87437 28.3968 8.45402 27.991 8.07307C27.5852 7.6927 27.1548 7.50445 26.6991 7.50445C26.2294 7.50445 25.7915 7.6927 25.3859 8.07307C24.9803 8.45402 24.7772 8.87437 24.7772 9.33853H28.6211ZM41.5931 14.1631C41.5931 14.6058 41.4545 14.9789 41.1772 15.2907C40.8958 15.5992 40.5433 15.7551 40.1128 15.7551C39.0736 15.7551 38.5538 14.914 38.5538 13.2356C38.5538 12.9129 38.5753 12.4056 38.6179 11.7059C38.6643 11.0097 38.6858 10.4987 38.6858 10.176C38.6858 8.39575 38.1198 7.50445 36.9916 7.50445C35.8633 7.50445 35.3011 8.39575 35.3011 10.176C35.3011 10.4987 35.3188 11.0097 35.3508 11.7059C35.3865 12.4056 35.4042 12.9129 35.4042 13.2356C35.4042 14.914 34.8918 15.7551 33.867 15.7551C33.4361 15.7551 33.084 15.5992 32.8062 15.2907C32.5251 14.9789 32.3863 14.6058 32.3863 14.1631V6.68544C32.3863 6.24599 32.5251 5.87327 32.8062 5.57225C33.084 5.26764 33.4399 5.11574 33.8705 5.11574C34.5822 5.11574 35.0768 5.43765 35.3543 6.0798C35.8349 5.30403 36.6853 4.916 37.9026 4.916C39.0308 4.916 39.9277 5.22024 40.5862 5.82563C41.2588 6.47504 41.5931 7.36639 41.5931 8.50124V14.1631ZM50.9281 13.841C50.9281 14.526 50.4911 15.0695 49.6151 15.4688C48.9215 15.791 48.1676 15.9566 47.4052 15.9542C45.9063 15.9542 44.6896 15.4031 43.7501 14.3052C42.8495 13.2573 42.3976 11.9629 42.3976 10.4262C42.3976 8.88524 42.8568 7.5842 43.7784 6.51827C44.7001 5.44909 45.9063 4.916 47.4052 4.916C48.2698 4.916 49.0136 5.04644 49.6333 5.30403C50.4976 5.65204 50.9281 6.19555 50.9281 6.93521C50.9281 7.30833 50.8145 7.63826 50.5865 7.9248C50.3589 8.2075 50.0667 8.35256 49.7113 8.35256C49.4688 8.35256 49.1199 8.26918 48.6648 8.10642C48.2092 7.93925 47.8466 7.8595 47.5798 7.8595C46.8712 7.8595 46.3194 8.11688 45.9245 8.63144C45.5579 9.0956 45.3727 9.69016 45.3727 10.4262C45.3727 11.1184 45.5364 11.7059 45.8679 12.1807C46.2337 12.7355 46.7503 13.0108 47.4084 13.0108C47.7007 13.0108 48.0989 12.9238 48.6078 12.7457C49.1171 12.5723 49.4838 12.4817 49.7113 12.4817C50.0424 12.4817 50.3266 12.6264 50.5691 12.9093C50.8076 13.1956 50.9281 13.5035 50.9281 13.841ZM61.7437 14.1631C61.7437 14.6058 61.6051 14.9789 61.3274 15.2907C61.0464 15.5992 60.6907 15.7551 60.2594 15.7551C59.6118 15.7551 59.1494 15.4322 58.8717 14.7906C58.2491 15.5666 57.3982 15.9542 56.3201 15.9542C54.9397 15.9542 53.8078 15.3633 52.9319 14.1889C52.1347 13.1158 51.7333 11.8616 51.7333 10.4262C51.7333 8.99073 52.1347 7.73651 52.9319 6.65971C53.822 5.4957 54.9498 4.916 56.3201 4.916C57.3982 4.916 58.2491 5.30403 58.8717 6.0798C59.1494 5.43765 59.6118 5.11574 60.2594 5.11574C60.6798 5.11574 61.0323 5.27126 61.3173 5.57949C61.6014 5.89094 61.7437 6.25723 61.7437 6.68544V14.1631ZM58.7686 10.4262C58.7686 9.73014 58.6053 9.14262 58.2774 8.66763C57.8967 8.12771 57.3841 7.8595 56.7401 7.8595C56.0816 7.8595 55.5695 8.12771 55.2024 8.66763C54.8718 9.14262 54.7085 9.73014 54.7085 10.4262C54.7085 11.1184 54.8677 11.7129 55.1842 12.2022C55.5622 12.7421 56.0816 13.0108 56.7401 13.0108C57.3982 13.0108 57.9108 12.7421 58.2774 12.2022C58.6053 11.7129 58.7686 11.1184 58.7686 10.4262ZM69.3352 6.4855C69.3352 7.13433 69.0256 7.58017 68.4063 7.82289C67.8335 8.01901 67.2635 8.21875 66.6944 8.4247C66.071 8.78757 65.7618 9.46172 65.7618 10.4407V14.1631C65.7618 14.6058 65.6191 14.9789 65.3422 15.2907C65.0605 15.5992 64.7047 15.7551 64.2742 15.7551C63.8405 15.7551 63.484 15.5992 63.2071 15.2907C62.9253 14.9789 62.7867 14.6058 62.7867 14.1631V6.68544C62.7867 6.24599 62.9253 5.87327 63.203 5.57225C63.484 5.26764 63.8405 5.11574 64.271 5.11574C64.9824 5.11574 65.4768 5.43765 65.7549 6.0798C66.392 5.30403 67.0756 4.916 67.8121 4.916C68.2317 4.916 68.5914 5.07156 68.8902 5.37975C69.1853 5.69161 69.3352 6.06132 69.3352 6.4855ZM77.0973 6.62335C77.0973 7.29746 76.8374 7.72164 76.322 7.90326C76.0685 7.99368 75.5378 8.04071 74.7301 8.04071V14.1631C74.7301 14.6058 74.5878 14.9789 74.3109 15.2907C74.0292 15.5992 73.6735 15.7551 73.2429 15.7551C72.8234 15.7551 72.4668 15.5992 72.1818 15.2907C71.8977 14.9789 71.7554 14.6058 71.7554 14.1631V8.04071C71.143 8.04071 70.6983 7.96095 70.4174 7.80543C70.0333 7.58783 69.8433 7.19259 69.8433 6.62335C69.8433 6.05448 70.0394 5.66649 70.4343 5.45955C70.7015 5.30725 71.143 5.22786 71.7554 5.22786V3.93004C71.7554 2.40398 72.2493 1.64283 73.2429 1.64283C74.2321 1.64283 74.7301 2.40398 74.7301 3.93004V5.22786C75.5378 5.22786 76.0685 5.27488 76.322 5.3653C76.8374 5.54655 77.0973 5.96748 77.0973 6.62335ZM101 4.7826C100.992 3.85209 99.3038 3.42972 94.9341 3.42972C84.6811 3.42972 82.0799 2.98364 79.2963 0C80.4674 1.79151 81.1081 5.15173 91.9452 4.98452C103.252 4.8071 96.3541 7.95411 94.3471 11.5096C97.9666 8.21916 100.989 6.05028 101 4.79606V4.7826ZM86.5923 14.3375C86.5919 15.2025 85.8934 15.914 85.0441 15.9142C84.1863 15.9142 83.4927 15.2078 83.4927 14.3375C83.4927 14.3371 83.4927 14.3367 83.4927 14.3363C83.4927 13.47 84.1924 12.757 85.0433 12.757C85.0437 12.757 85.0437 12.757 85.0441 12.757C85.8991 12.757 86.5923 13.4637 86.5923 14.3375ZM93.6531 14.3375C93.6527 15.2025 92.9541 15.914 92.1049 15.9142C91.2479 15.9142 90.5538 15.2078 90.5538 14.3375C90.5538 14.3371 90.5538 14.3367 90.5538 14.3363C90.5538 13.47 91.2535 12.757 92.104 12.757C92.1044 12.757 92.1044 12.757 92.1049 12.757C92.9598 12.757 93.6531 13.4637 93.6531 14.3375Z" fill="url(#paint0_linear_0_90)"/>
<defs>
<linearGradient id="paint0_linear_0_90" x1="50.5" y1="15.8208" x2="50.5" y2="4.14916e-05" gradientUnits="userSpaceOnUse">
<stop stop-color="#04B6F0"/>
<stop offset="1" stop-color="#3ECAF0"/>
</linearGradient>
</defs>
</svg>
