<svg preserveAspectRatio="none" width="100%" height="100%" overflow="visible" style="display: block;" viewBox="0 0 145.661 44.8955" fill="none" xmlns="http://www.w3.org/2000/svg">
<path id="Union" d="M26.791 0C35.2099 9.62141e-10 39.4196 0.000220115 42.0352 2.62988C44.6509 5.25981 44.6514 9.49251 44.6514 17.958V26.9375C44.6514 35.4027 44.6508 39.6358 42.0352 42.2656C39.4196 44.8952 35.2096 44.8955 26.791 44.8955H17.8604C9.44119 44.8955 5.23078 44.8956 2.61523 42.2656C-8.32816e-05 39.6357 9.44775e-10 35.4025 0 26.9375V17.958C0 9.49296 0.000116002 5.25984 2.61523 2.62988C5.23078 2.13031e-05 9.44119 0 17.8604 0H26.791ZM17.8604 2.49121C13.5808 2.49121 10.6198 2.49663 8.3916 2.79785C6.23503 3.08944 5.13873 3.61688 4.36816 4.3916C3.59764 5.16645 3.07319 6.26885 2.7832 8.4375C2.48362 10.678 2.47852 13.6549 2.47852 17.958V26.9375C2.47852 31.2404 2.48363 34.2176 2.7832 36.458C3.0732 38.6263 3.59769 39.7291 4.36816 40.5039C5.13871 41.2785 6.23531 41.8052 8.3916 42.0967C10.6198 42.3979 13.5808 42.4033 17.8604 42.4033H26.791C31.0701 42.4033 34.0307 42.3978 36.2588 42.0967C38.4155 41.8052 39.5126 41.2786 40.2832 40.5039C41.0538 39.7291 41.5781 38.6265 41.8682 36.458C42.1677 34.2176 42.1729 31.2405 42.1729 26.9375V17.958C42.1729 13.6549 42.1677 10.678 41.8682 8.4375C41.5782 6.26878 41.0538 5.16646 40.2832 4.3916C39.5126 3.61685 38.4156 3.08942 36.2588 2.79785C34.0307 2.49673 31.07 2.49121 26.791 2.49121H17.8604ZM115.054 15.1631C117.364 15.1633 118.853 16.2388 119.611 17.1113V15.4873H122.612V29.1123C122.612 31.0512 121.987 32.7244 120.75 33.9111C119.514 35.0968 117.699 35.7674 115.376 35.7676C112.744 35.7676 111.029 34.8995 109.948 33.9014C108.875 32.9109 108.439 31.8053 108.333 31.3359L108.257 30.9941H111.451L111.531 31.1328C111.616 31.2792 111.881 31.7272 112.466 32.1396C113.048 32.5508 113.967 32.9395 115.376 32.9395C116.767 32.9393 117.821 32.5736 118.523 31.9316C119.223 31.293 119.611 30.3477 119.611 29.1123V27.7549C118.859 28.6409 117.381 29.7429 115.054 29.7432C113.212 29.7432 111.501 29.0693 110.249 27.8145C108.996 26.5581 108.219 24.7352 108.219 22.4668C108.219 20.1987 108.995 18.3694 110.248 17.1064C111.499 15.8448 113.211 15.1631 115.054 15.1631ZM22.0176 30.7871C22.1864 30.7874 22.2915 30.9711 22.207 31.1182L20.1738 34.6602C20.1103 34.7704 19.9929 34.8389 19.8662 34.8389H7.18555C7.017 34.8384 6.91202 34.6548 6.99609 34.5078L9.0293 30.9658C9.09268 30.8554 9.21017 30.7872 9.33691 30.7871H22.0176ZM22.0898 8.21484C22.2265 7.9768 22.5683 7.97695 22.7051 8.21484L37.6826 34.3027C37.8193 34.5408 37.6483 34.8387 37.375 34.8389H24.9287C24.8021 34.8386 24.6844 34.7705 24.6211 34.6602L15.8672 19.4111C15.8041 19.3009 15.8041 19.165 15.8672 19.0547L22.0898 8.21484ZM65.6709 15.1631C67.9119 15.1632 69.3521 16.2141 70.0947 17.0762V15.4873H73.0957V29.3926H70.0947V27.7441C69.3754 28.6198 67.9784 29.7167 65.6709 29.7168C63.8555 29.7168 62.1635 29.0412 60.9258 27.7861C59.6869 26.5297 58.918 24.7069 58.918 22.4395C58.9181 17.9396 62.0208 15.1631 65.6709 15.1631ZM99.2354 15.1631C101.255 15.1633 103.022 15.9208 104.283 17.2559C105.544 18.5905 106.284 20.4867 106.284 22.7373V23.0166H95.2646C95.5094 25.2245 97.1367 26.8875 99.4766 26.8877C102.041 26.8876 102.98 25.5314 103.185 25.166L103.265 25.0244H106.173L106.119 25.3496C105.91 26.6108 104.08 29.7166 99.4766 29.7168C95.2359 29.7166 92.213 26.5074 92.2129 22.4395C92.2131 18.241 95.1785 15.1631 99.2354 15.1631ZM138.397 15.1631C142.499 15.1635 145.661 18.3128 145.661 22.4395C145.661 26.5663 142.499 29.7164 138.397 29.7168C134.268 29.7168 131.133 26.5658 131.133 22.4395C131.133 18.3133 134.268 15.1631 138.397 15.1631ZM79.1895 29.3926H76.1885V9.65234H79.1895V29.3926ZM85.2031 15.4873H90.5498V18.2617H85.2031V24.0146C85.2031 25.2024 85.2098 25.8045 85.584 26.1807C85.9657 26.564 86.5802 26.5635 87.8076 26.5635H90.5498V29.3926H87.1279C86.834 29.3926 86.5517 29.3791 86.2822 29.3535C84.7938 29.2779 83.8633 29.0534 83.2012 28.3877C82.5904 27.7735 82.3527 26.9305 82.2607 25.6289C82.2215 25.3212 82.2012 24.9963 82.2012 24.6553V11.5166L85.2031 9.65234V15.4873ZM128.759 29.3926H125.758V15.4873H128.759V29.3926ZM115.51 17.9912C114.227 17.9913 113.18 18.4758 112.453 19.2666C111.724 20.0597 111.301 21.1775 111.301 22.4668C111.301 24.9548 112.971 26.9149 115.51 26.915C117.993 26.9149 119.665 24.9571 119.665 22.4668C119.665 21.1807 119.245 20.0621 118.519 19.2656C117.792 18.4697 116.754 17.9913 115.51 17.9912ZM66.1279 17.9912C64.8733 17.9912 63.8467 18.4742 63.1318 19.2617C62.4154 20.0516 61.9991 21.1634 61.999 22.4395C61.9991 24.9582 63.6458 26.8877 66.1279 26.8877C68.5235 26.8874 70.1484 24.9641 70.1484 22.4395C70.1483 19.8891 68.5244 17.9915 66.1279 17.9912ZM138.397 17.9912C135.912 17.9912 134.215 19.9515 134.215 22.4395C134.215 24.9276 135.912 26.8877 138.397 26.8877C140.884 26.8873 142.579 24.9533 142.579 22.4395C142.579 19.9258 140.884 17.9916 138.397 17.9912ZM99.2354 17.8291C98.2286 17.8291 97.3899 18.1177 96.7451 18.6191C96.1862 19.0544 95.7612 19.6596 95.501 20.4043H102.906C102.616 19.6265 102.174 19.0176 101.618 18.5889C100.98 18.097 100.175 17.8292 99.2354 17.8291ZM127.269 9.97461C128.341 9.97489 129.21 10.8495 129.21 11.9277C129.21 13.0058 128.341 13.8796 127.269 13.8799C126.196 13.8799 125.326 13.0059 125.326 11.9277C125.326 10.8493 126.196 9.97461 127.269 9.97461Z" fill="var(--fill-0, #2B3134)"/>
</svg>
