<svg preserveAspectRatio="none" width="100%" height="100%" overflow="visible" style="display: block;" viewBox="0 0 82 40" fill="none" xmlns="http://www.w3.org/2000/svg">
<path id="path22" d="M42.5495 5.32142C40.9648 5.42709 39.1374 5.70497 37.6962 6.12244C37.4262 6.20071 36.3084 6.61166 36.024 6.74212C31.0063 9.06689 27.5107 14.1417 27.5107 20.0294C27.5107 28.1048 34.0793 34.6825 42.1582 34.6825C50.1655 34.6825 56.6897 28.217 56.8018 20.2329H62.0935C61.9813 31.134 53.0845 39.9687 42.1582 39.9687C31.1667 39.9687 22.2204 31.0257 22.2204 20.0294C22.2204 12.4484 26.4829 5.85499 32.7241 2.48655C33.851 1.89035 35.4684 1.27589 36.0175 1.1076C37.7966 0.577933 39.98 0.225694 41.9235 0.0782753C42.5834 0.0287009 44.8882 0.00260918 45.5599 0H82V5.27184H45.6212C45.1373 5.27184 43.023 5.29011 42.5495 5.32142ZM45.6212 13.599C45.2364 13.599 43.2239 13.6121 42.8521 13.6434C42.2221 13.6969 41.3091 13.7908 40.7222 13.9252C40.0596 14.1026 39.4374 14.3374 39.157 14.4914C37.1914 15.5546 35.8518 17.6341 35.8518 20.0294C35.8518 23.5139 38.6731 26.3396 42.1582 26.3396C45.5703 26.3396 48.3446 23.6248 48.4555 20.2329H53.5397C53.4328 26.4297 48.3825 31.4236 42.1582 31.4236C35.8649 31.4236 30.7637 26.3227 30.7637 20.0294C30.7637 15.5911 33.3071 11.7583 37.0114 9.88096C37.5814 9.54698 38.6535 9.19735 38.9587 9.11777C40.0048 8.8425 41.4096 8.65464 42.5495 8.57115C42.9708 8.53592 45.0343 8.52027 45.4699 8.51766V8.50983H81.9987V13.599H45.6212ZM18.9596 0.0195687H13.6328V34.6708H5.84857V40H18.9596V0.0195687ZM0 32.0081V26.8837H5.84857V0.0195687H10.9667V32.0081H0Z" fill="var(--fill-0, #D91920)"/>
</svg>
