<svg preserveAspectRatio="none" width="100%" height="100%" overflow="visible" style="display: block;" viewBox="0 0 159.232 28.3143" fill="none" xmlns="http://www.w3.org/2000/svg">
<g id="bitrix24-logo-ru">
<path id="Vector" d="M3.83626 17.7274V11.2439H5.38708C6.77466 11.2439 7.91738 11.408 8.7336 11.9005C9.54983 12.3929 10.0396 13.2136 10.0396 14.5267C10.0396 16.7425 8.7336 17.7274 5.63195 17.7274H3.83626ZM0.0816225 20.846H5.55033C11.672 20.846 13.8758 18.1377 13.8758 14.3625C13.8758 11.8184 12.8147 10.0949 10.9374 9.11011C9.46821 8.28942 7.59089 8.04321 5.30546 8.04321H3.83626V3.11906H12.0801L13.0596 0.0825019H0V20.846H0.0816225ZM16.4061 20.846H19.9975L24.65 14.1163C25.5478 12.8853 26.2008 11.6543 26.6089 10.9977H26.6905C26.6089 11.9005 26.5273 13.0494 26.5273 14.1984V20.7639H30.2003V5.99148H26.6089L21.9564 12.7212C21.1402 13.9522 20.4056 15.1832 19.9975 15.8398H19.9159C19.9975 14.937 20.0791 13.7881 20.0791 12.6391V6.07355H16.4061V20.846ZM36.4852 20.846H40.2399V9.11011H44.6475L45.627 5.99148H31.996V9.11011H36.4852V20.846ZM46.9329 28.3143H50.6059V20.846C51.3405 21.0922 52.0751 21.1743 52.8914 21.1743C57.5438 21.1743 60.5639 17.9736 60.5639 13.3777C60.5639 8.6177 57.7887 5.58114 52.4833 5.58114C50.4427 5.58114 48.4837 5.99148 46.8513 6.4839V28.3143H46.9329ZM50.6059 17.6453V8.94597C51.1773 8.78183 51.667 8.69976 52.32 8.69976C55.0135 8.69976 56.7276 10.177 56.7276 13.3777C56.7276 16.2501 55.34 18.0556 52.5649 18.0556C51.8303 18.0556 51.2589 17.8915 50.6059 17.6453ZM62.7677 20.846H66.3591L71.0115 14.1163C71.9094 12.8853 72.5624 11.6543 72.9705 10.9977H73.0521C72.9705 11.9005 72.8889 13.0494 72.8889 14.1984V20.7639H76.5619V5.99148H72.9705L68.318 12.7212C67.5018 13.9522 66.7672 15.1832 66.3591 15.8398H66.2774C66.3591 14.937 66.4407 13.7881 66.4407 12.6391V6.07355H62.7677V20.846ZM79.5003 20.846H83.2549V14.6908H85.4587C85.8668 14.6908 86.275 15.1012 86.7647 16.086L88.642 20.846H92.6415L89.948 15.1832C89.4582 14.1984 88.9685 13.6239 88.2339 13.3777V13.2956C89.4582 12.557 89.6215 10.4232 90.3561 9.35632C90.6009 9.02804 90.9274 8.8639 91.4172 8.8639C91.662 8.8639 91.9885 8.8639 92.2334 9.02804V5.82734C91.8253 5.66321 91.0907 5.58114 90.6826 5.58114C89.3766 5.58114 88.5604 6.07355 87.989 6.89424C86.7647 8.69976 86.7647 11.8184 84.969 11.8184H83.2549V5.99148H79.5003V20.846ZM100.967 21.1743C103.008 21.1743 104.885 20.5177 106.028 19.697L104.967 17.1529C103.905 17.7274 102.926 18.1377 101.538 18.1377C99.0081 18.1377 97.3756 16.4963 97.3756 13.4598C97.3756 10.7515 99.0081 8.61769 101.783 8.61769C103.252 8.61769 104.314 9.02804 105.375 9.76666V6.56597C104.558 6.07355 103.252 5.58114 101.375 5.58114C96.9675 5.58114 93.5393 8.8639 93.5393 13.5418C93.5393 17.8094 96.1513 21.1743 100.967 21.1743Z" fill="var(--fill-0, #0BBBEF)"/>
<path id="Union" d="M115.741 0C120.23 6.33115e-05 122.352 2.29841 122.352 5.41699C122.352 11.2439 114.353 12.3931 113.048 17.6455H122.515V20.8457H108.15C108.966 10.4232 118.352 10.0947 118.352 5.82715C118.352 3.93979 116.802 3.20125 115.17 3.20117C113.047 3.20117 111.333 3.85806 109.864 4.59668L108.884 1.6416C110.517 0.820928 112.966 0 115.741 0ZM135.82 12.6387H138.922V15.7578H135.82V20.8457H132.147V15.7578H122.923V13.2959L133.127 0H135.82V12.6387ZM151.084 0.264648C155.576 0.264791 159.232 3.94814 159.232 8.45312C159.232 12.9583 155.576 16.6424 151.084 16.6426C146.575 16.6426 143.026 12.9464 142.935 8.47168L142.934 8.46289V8.45312C142.934 3.94805 146.591 0.264648 151.084 0.264648ZM151.084 2.03418C147.577 2.03418 144.704 4.91582 144.704 8.45312C144.785 12.0129 147.599 14.873 151.084 14.873C154.59 14.8729 157.464 11.9905 157.464 8.45312C157.463 4.91591 154.59 2.03432 151.084 2.03418ZM127.087 12.8027C127.577 12.8027 128.963 12.7207 129.698 12.7207H132.147V9.7666C132.147 8.12523 132.31 6.31959 132.31 5.74512L127.087 12.8027ZM151.655 4.43262V8.45312H155.654V9.52051H150.593V4.43262H151.655Z" fill="var(--fill-0, #005893)"/>
</g>
</svg>
