<svg preserveAspectRatio="none" width="100%" height="100%" overflow="visible" style="display: block;" viewBox="0 0 15 18.9423" fill="none" xmlns="http://www.w3.org/2000/svg">
<path id="Vector" d="M7.5 18.9423C5.33717 18.3524 3.5465 17.0793 2.128 15.123C0.709333 13.1667 0 10.9795 0 8.5615V2.80775L7.5 0L15 2.80775V8.5615C15 10.9795 14.2907 13.1667 12.872 15.123C11.4535 17.0793 9.66283 18.3524 7.5 18.9423ZM7.5 17.3615C9.23333 16.8115 10.6667 15.7115 11.8 14.0615C12.9333 12.4115 13.5 10.5782 13.5 8.5615V3.8365L7.5 1.596L1.5 3.8365V8.5615C1.5 10.5782 2.06667 12.4115 3.2 14.0615C4.33333 15.7115 5.76667 16.8115 7.5 17.3615Z" fill="var(--fill-0, #0C6EBF)" fill-opacity="0.5"/>
</svg>
