<svg preserveAspectRatio="none" width="100%" height="100%" overflow="visible" style="display: block;" viewBox="0 0 16.5385 16.5385" fill="none" xmlns="http://www.w3.org/2000/svg">
<path id="Vector" d="M5.76925 10.7693V5.76925H10.7693V10.7693H5.76925ZM7.26925 9.26925H9.26925V7.26925H7.26925V9.26925ZM5.51925 16.5385V14.7693H3.577C3.07183 14.7693 2.64425 14.5943 2.29425 14.2443C1.94425 13.8943 1.76925 13.4667 1.76925 12.9615V11.0193H0V9.51925H1.76925V7.01925H0V5.51925H1.76925V3.577C1.76925 3.07183 1.94425 2.64425 2.29425 2.29425C2.64425 1.94425 3.07183 1.76925 3.577 1.76925H5.51925V0H7.01925V1.76925H9.51925V0H11.0193V1.76925H12.9615C13.4667 1.76925 13.8943 1.94425 14.2443 2.29425C14.5943 2.64425 14.7693 3.07183 14.7693 3.577V5.51925H16.5385V7.01925H14.7693V9.51925H16.5385V11.0193H14.7693V12.9615C14.7693 13.4667 14.5943 13.8943 14.2443 14.2443C13.8943 14.5943 13.4667 14.7693 12.9615 14.7693H11.0193V16.5385H9.51925V14.7693H7.01925V16.5385H5.51925ZM12.9615 13.2693C13.0385 13.2693 13.109 13.2372 13.173 13.173C13.2372 13.109 13.2693 13.0385 13.2693 12.9615V3.577C13.2693 3.5 13.2372 3.4295 13.173 3.3655C13.109 3.30133 13.0385 3.26925 12.9615 3.26925H3.577C3.5 3.26925 3.4295 3.30133 3.3655 3.3655C3.30133 3.4295 3.26925 3.5 3.26925 3.577V12.9615C3.26925 13.0385 3.30133 13.109 3.3655 13.173C3.4295 13.2372 3.5 13.2693 3.577 13.2693H12.9615Z" fill="var(--fill-0, #0C6EBF)" fill-opacity="0.5"/>
</svg>
