<svg preserveAspectRatio="none" width="100%" height="100%" overflow="visible" style="display: block;" viewBox="0 0 20.3075 14.6923" fill="none" xmlns="http://www.w3.org/2000/svg">
<path id="Vector" d="M11.9038 8.096C11.2051 8.096 10.6138 7.854 10.1298 7.37C9.64575 6.886 9.40375 6.29467 9.40375 5.596C9.40375 4.89733 9.64575 4.306 10.1298 3.822C10.6138 3.338 11.2051 3.096 11.9038 3.096C12.6024 3.096 13.1938 3.338 13.6778 3.822C14.1618 4.306 14.4038 4.89733 14.4038 5.596C14.4038 6.29467 14.1618 6.886 13.6778 7.37C13.1938 7.854 12.6024 8.096 11.9038 8.096ZM5.3075 11.1923C4.8105 11.1923 4.385 11.0153 4.031 10.6613C3.677 10.3073 3.5 9.88167 3.5 9.3845V1.8075C3.5 1.3105 3.677 0.885 4.031 0.531C4.385 0.177 4.8105 0 5.3075 0H18.4998C18.9969 0 19.4225 0.177 19.7765 0.531C20.1305 0.885 20.3075 1.3105 20.3075 1.8075V9.3845C20.3075 9.88167 20.1305 10.3073 19.7765 10.6613C19.4225 11.0153 18.9969 11.1923 18.4998 11.1923H5.3075ZM6.8075 9.69225H17C17 9.19358 17.177 8.76758 17.531 8.41425C17.885 8.06108 18.3105 7.8845 18.8075 7.8845V3.3075C18.3088 3.3075 17.8829 3.1305 17.5298 2.7765C17.1766 2.4225 17 1.997 17 1.5H6.8075C6.8075 1.99867 6.6305 2.42458 6.2765 2.77775C5.9225 3.13092 5.497 3.3075 5 3.3075V7.8845C5.49867 7.8845 5.92458 8.0615 6.27775 8.4155C6.63092 8.7695 6.8075 9.19508 6.8075 9.69225ZM17.3268 14.6923H1.80775C1.31058 14.6923 0.885 14.5153 0.531 14.1613C0.177 13.8073 0 13.3817 0 12.8845V2.98075H1.5V12.8845C1.5 12.9613 1.532 13.0318 1.596 13.096C1.66017 13.1602 1.73075 13.1923 1.80775 13.1923H17.3268V14.6923ZM5.3075 9.69225H5V1.5H5.3075C5.22417 1.5 5.15208 1.53042 5.09125 1.59125C5.03042 1.65208 5 1.72417 5 1.8075V9.3845C5 9.46783 5.03042 9.53992 5.09125 9.60075C5.15208 9.66175 5.22417 9.69225 5.3075 9.69225Z" fill="var(--fill-0, #0C6EBF)" fill-opacity="0.5"/>
</svg>
