<svg preserveAspectRatio="xMidYMid meet" width="100%" height="100%" overflow="visible" style="display: block;" viewBox="0 0 46.6717 48" fill="none" xmlns="http://www.w3.org/2000/svg">
<path id="Union" d="M27.8447 0C29.0616 8.82015e-05 30.0515 0.990081 30.0517 2.20703V4.10449C32.6629 4.98747 35.1158 6.40656 37.2001 8.24023L38.8505 7.28711C39.3611 6.99237 39.9558 6.91397 40.5253 7.06641C41.0948 7.21893 41.5713 7.58422 41.8661 8.09473L46.3749 15.9043C46.6698 16.4149 46.7482 17.0106 46.5956 17.5801C46.4431 18.1495 46.0769 18.6252 45.5663 18.9199L43.9179 19.8721C44.1912 21.2381 44.33 22.6243 44.33 24C44.33 25.356 44.1891 26.741 43.9111 28.124L45.5663 29.0801C46.6205 29.6887 46.9834 31.0415 46.3749 32.0957L41.8661 39.9053C41.2575 40.9591 39.9044 41.3214 38.8505 40.7129L37.1913 39.7549C35.0993 41.5957 32.649 43.0161 30.0517 43.8955V45.793C30.0515 47.0099 29.0616 47.9999 27.8447 48H18.8271C17.61 48 16.6193 47.01 16.6191 45.793V43.8955C14.0079 43.0124 11.5549 41.5933 9.47063 39.7598L7.82122 40.7129C6.76714 41.3214 5.41431 40.959 4.8056 39.9053L0.296807 32.0957C-0.311641 31.0416 0.0505139 29.6887 1.10442 29.0801L2.75384 28.1279C2.48049 26.7618 2.34173 25.3756 2.34173 24C2.34173 22.6439 2.48282 21.259 2.76067 19.876L1.10442 18.9199C0.593983 18.6252 0.228687 18.1494 0.0761037 17.5801C-0.0764442 17.0106 0.00194968 16.4149 0.296807 15.9043L4.8056 8.09473C5.10043 7.58439 5.57618 7.21904 6.14544 7.06641C6.71496 6.91376 7.3105 6.99225 7.82122 7.28711L9.4804 8.24512C11.5723 6.40436 14.022 4.98389 16.6191 4.10449V2.20703C16.6193 0.990027 17.61 0 18.8271 0H27.8447ZM18.8271 1.40918C18.3869 1.40918 18.0285 1.76695 18.0283 2.20703V4.61621C18.0283 4.92497 17.8271 5.19767 17.5322 5.28906C14.788 6.13924 12.2011 7.64019 10.0507 9.62891C9.82415 9.83847 9.48699 9.87611 9.21966 9.72168L7.11614 8.50781C6.93151 8.40126 6.71652 8.37253 6.51067 8.42773C6.30458 8.48287 6.13194 8.61513 6.02532 8.7998L1.51653 16.6094C1.41008 16.7939 1.38238 17.009 1.43743 17.2148C1.49266 17.4208 1.62483 17.5936 1.8095 17.7002L3.90813 18.9121C4.17514 19.0662 4.31084 19.3759 4.2431 19.6768C3.91602 21.1269 3.75091 22.5816 3.75091 24C3.75091 25.4426 3.91397 26.8987 4.23626 28.3271C4.30405 28.628 4.16826 28.9376 3.9013 29.0918L1.8095 30.2998C1.42841 30.5199 1.29667 31.0094 1.51653 31.3906L6.02532 39.2002C6.24539 39.5814 6.73478 39.7122 7.11614 39.4922L9.20989 38.2842C9.3197 38.2208 9.44163 38.1895 9.56243 38.1895C9.73567 38.1895 9.90752 38.2535 10.0409 38.377C12.1807 40.3566 14.7711 41.8555 17.5322 42.7109C17.827 42.8023 18.0283 43.075 18.0283 43.3838V45.793C18.0285 46.233 18.3869 46.5908 18.8271 46.5908H27.8447C28.2847 46.5907 28.6423 46.233 28.6425 45.793V43.3838C28.6425 43.0752 28.8439 42.8025 29.1386 42.7109C31.8829 41.8608 34.4706 40.3599 36.621 38.3711C36.8476 38.1615 37.1848 38.124 37.4521 38.2783L39.5546 39.4922C39.9359 39.7124 40.4253 39.5815 40.6454 39.2002L45.1542 31.3906C45.3744 31.0094 45.2433 30.52 44.8622 30.2998L42.7626 29.0879C42.496 28.9336 42.3601 28.6238 42.4277 28.3232C42.7547 26.8732 42.9208 25.4184 42.9208 24C42.9208 22.5571 42.7578 21.1012 42.4355 19.6729C42.3676 19.372 42.5034 19.0625 42.7704 18.9082L44.8622 17.7002C45.0469 17.5936 45.1791 17.4208 45.2343 17.2148C45.2895 17.0089 45.2608 16.794 45.1542 16.6094L40.6454 8.7998C40.5387 8.61521 40.367 8.48298 40.1611 8.42773C39.9552 8.3725 39.7394 8.4012 39.5546 8.50781L37.4609 9.71582C37.1936 9.87007 36.8573 9.83267 36.6308 9.62305C34.4908 7.64314 31.8998 6.14441 29.1386 5.28906C28.844 5.19754 28.6435 4.92482 28.6435 4.61621V2.20703C28.6433 1.76697 28.2848 1.40922 27.8447 1.40918H18.8271ZM10.8066 35.9268C11.0772 35.6473 11.5231 35.6404 11.8027 35.9111C14.5341 38.5564 18.1176 40.1922 21.8925 40.5176C22.2799 40.551 22.5672 40.8919 22.5341 41.2793C22.5025 41.6463 22.1947 41.9238 21.8329 41.9238C21.8127 41.9238 21.7919 41.9227 21.7714 41.9209C17.6747 41.5678 13.7866 39.7928 10.8232 36.9229C10.5437 36.6523 10.5361 36.2063 10.8066 35.9268ZM23.3359 9.76953C31.1828 9.76968 37.5663 16.1532 37.5663 24C37.5663 31.8468 31.1828 38.2303 23.3359 38.2305C15.4889 38.2305 9.10442 31.8469 9.10442 24C9.10442 16.1531 15.4889 9.76953 23.3359 9.76953ZM23.3359 11.1777C16.2659 11.1777 10.5136 16.93 10.5136 24C10.5136 31.07 16.2659 36.8223 23.3359 36.8223C30.4057 36.8221 36.1572 31.0699 36.1572 24C36.1572 16.9301 30.4057 11.1779 23.3359 11.1777ZM7.81536 31.6475C8.15681 31.4611 8.58505 31.5872 8.77142 31.9287C9.04072 32.4223 9.33858 32.908 9.65716 33.3721C9.87743 33.6928 9.7963 34.1313 9.47552 34.3516C9.35361 34.4352 9.21448 34.4756 9.07708 34.4756C8.85295 34.4755 8.63252 34.3686 8.49603 34.1699C8.1502 33.6663 7.82641 33.1393 7.53411 32.6035C7.34777 32.262 7.4739 31.8339 7.81536 31.6475ZM18.8271 20.29C19.1207 20.2901 19.3831 20.4722 19.4863 20.7471L21.7411 26.7588C21.8776 27.1229 21.693 27.5294 21.329 27.666C21.2476 27.6965 21.1632 27.7109 21.081 27.7109C20.7959 27.7108 20.5278 27.5357 20.4218 27.2529L20.0292 26.207H16.873L16.4804 27.2529C16.3438 27.617 15.9383 27.8023 15.5742 27.666C15.21 27.5294 15.0246 27.123 15.1611 26.7588L17.4159 20.7471C17.519 20.4721 17.7816 20.2902 18.0751 20.29H18.8271ZM25.9658 20.29C27.3902 20.29 28.5488 21.4486 28.5488 22.873C28.5486 24.2973 27.3901 25.4561 25.9658 25.4561H24.04V27.0059C24.04 27.3949 23.7249 27.7099 23.3359 27.71C22.9468 27.71 22.6318 27.3949 22.6318 27.0059V20.9941C22.6318 20.6051 22.9468 20.29 23.3359 20.29H25.9658ZM30.0986 20.29C30.4876 20.29 30.8036 20.6051 30.8036 20.9941V27.0059C30.8036 27.3949 30.4876 27.71 30.0986 27.71C29.7097 27.7097 29.3945 27.3948 29.3945 27.0059V20.9941C29.3945 20.6052 29.7097 20.2903 30.0986 20.29ZM17.4013 24.7988H19.5009L18.4511 21.999L17.4013 24.7988ZM24.04 24.0469H25.9658C26.6132 24.0469 27.1404 23.5204 27.1406 22.873C27.1406 22.2256 26.6132 21.6982 25.9658 21.6982H24.04V24.0469ZM32.4941 9.32227C32.7136 9.00126 33.1524 8.91919 33.4736 9.13867C37.0238 11.5651 39.5917 15.1765 40.705 19.3076C40.8062 19.6831 40.5844 20.0695 40.2089 20.1709C40.1476 20.1874 40.085 20.1953 40.0243 20.1953C39.7139 20.1951 39.4294 19.988 39.3447 19.6738C38.3186 15.8671 35.9515 12.5385 32.6786 10.3018C32.3575 10.0822 32.2745 9.64352 32.4941 9.32227ZM27.9179 7.31543C28.0361 6.94477 28.4331 6.74023 28.8036 6.8584C29.3343 7.02752 29.8634 7.22329 30.3759 7.44141C30.7339 7.59377 30.9003 8.00823 30.748 8.36621C30.6339 8.63396 30.3734 8.79492 30.0995 8.79492C30.0076 8.79491 29.9141 8.77656 29.8242 8.73828C29.3521 8.53731 28.8647 8.35601 28.3759 8.2002C28.0053 8.08205 27.8 7.68603 27.9179 7.31543Z" fill="var(--fill-0, #0C6EBF)" fill-opacity="0.5"/>
</svg>
