<svg preserveAspectRatio="none" width="100%" height="100%" overflow="visible" style="display: block;" viewBox="0 0 32.25 32.2496" fill="none" xmlns="http://www.w3.org/2000/svg">
<path id="Union" d="M21.6201 4.75525e-07C23.4122 -1.45223e-05 24.8375 -0.000232757 25.9805 0.108399C27.1525 0.219844 28.1436 0.454195 29.0264 0.995118C29.9345 1.55161 30.6984 2.31462 31.2549 3.22266C31.7959 4.10536 32.0301 5.09666 32.1416 6.26856C32.2504 7.41165 32.2502 8.83752 32.25 10.6299V11.8535C32.2502 13.1293 32.2496 14.1441 32.1934 14.9668C32.1359 15.8085 32.0166 16.5313 31.7363 17.208C31.0513 18.8619 29.7369 20.1763 28.083 20.8613C27.5145 21.0969 26.9083 21.2207 26.2217 21.2881C26.2137 21.497 26.2033 21.6958 26.1904 21.8848C26.1294 22.7787 26.0026 23.5407 25.708 24.252C24.9849 25.9977 23.5973 27.3843 21.8516 28.1074C20.9564 28.4782 19.9684 28.5872 18.7266 28.627C18.059 28.6484 17.632 28.6628 17.3076 28.7021C17.001 28.7396 16.8855 28.7902 16.8232 28.8271C16.7541 28.8679 16.6586 28.9427 16.4922 29.1719C16.3125 29.4195 16.1085 29.7609 15.7861 30.3057L15.3975 30.9629C14.3821 32.6784 11.8679 32.6784 10.8525 30.9629L10.4639 30.3057C10.1414 29.7609 9.93761 29.4195 9.75781 29.1719C9.59144 28.9428 9.49591 28.868 9.42676 28.8271C9.36454 28.7902 9.24912 28.7405 8.94238 28.7031C8.61804 28.6636 8.19116 28.6484 7.52344 28.627C6.28162 28.5872 5.29374 28.4782 4.39844 28.1074C2.65268 27.3843 1.26514 25.9977 0.541993 24.252C0.247415 23.5407 0.120581 22.7787 0.0595708 21.8848C-0.000139747 21.0097 4.90024e-07 19.9293 4.91916e-07 18.5664V17.2666C-1.45044e-05 15.3521 -0.000336553 13.8348 0.115235 12.6191C0.233578 11.3745 0.481269 10.3302 1.04981 9.40234C1.6373 8.44363 2.44363 7.63731 3.40234 7.04981C4.33019 6.48127 5.37449 6.23358 6.61914 6.11523C6.93539 6.08516 7.2721 6.06334 7.63086 6.04688C7.75088 4.96736 7.99039 4.0459 8.49414 3.22363C9.05062 2.31553 9.81462 1.55168 10.7227 0.995118C11.6054 0.454199 12.5966 0.219863 13.7686 0.108399C14.9116 -0.000276083 16.3375 -1.45245e-05 18.1299 4.75525e-07H21.6201ZM11.3252 8.25C9.33938 8.25 7.9288 8.25119 6.83203 8.35547C5.75204 8.45816 5.09305 8.65322 4.57813 8.96875C3.92218 9.37072 3.37072 9.92216 2.96875 10.5781C2.65321 11.0931 2.45816 11.752 2.35547 12.832C2.25119 13.9289 2.25 15.3394 2.25 17.3252V18.5254C2.25 19.9385 2.25083 20.9419 2.30469 21.7314C2.35788 22.5109 2.45899 22.9991 2.62109 23.3906C3.11588 24.5851 4.06526 25.5344 5.25977 26.0293C5.76095 26.2368 6.40677 26.3398 7.59473 26.3779L7.6416 26.3799C8.24953 26.3992 8.77836 26.4155 9.21484 26.4688C9.68025 26.5255 10.1377 26.6337 10.5723 26.8906C10.9997 27.1435 11.3086 27.4786 11.5781 27.8496C11.8275 28.1929 12.0847 28.6269 12.376 29.1191L12.7891 29.8174C12.8572 29.9324 12.9762 30 13.125 30C13.2738 30 13.3928 29.9324 13.4609 29.8174L13.874 29.1191C14.1652 28.627 14.4224 28.193 14.6719 27.8496C14.9414 27.4786 15.2502 27.1435 15.6777 26.8906C16.1121 26.6337 16.5699 26.5255 17.0352 26.4688C17.4717 26.4155 18.0005 26.3992 18.6084 26.3799L18.6553 26.3779C19.8433 26.3398 20.489 26.2368 20.9902 26.0293C22.1848 25.5344 23.1342 24.5851 23.6289 23.3906C23.791 22.9991 23.8921 22.5109 23.9453 21.7314C23.9992 20.9419 24 19.9385 24 18.5254V17.3252C24 15.3394 23.9988 13.9289 23.8945 12.832C23.7918 11.752 23.5967 11.0931 23.2813 10.5781C22.8793 9.92216 22.3278 9.37072 21.6719 8.96875C21.1569 8.65321 20.4981 8.45816 19.418 8.35547C18.3212 8.25119 16.9107 8.25 14.9248 8.25H11.3252ZM7.875 16.125C8.70344 16.125 9.375 16.7966 9.375 17.625C9.375 18.4535 8.70344 19.125 7.875 19.125C7.04658 19.125 6.375 18.4535 6.375 17.625C6.375 16.7966 7.04658 16.125 7.875 16.125ZM13.125 16.125C13.9535 16.125 14.625 16.7966 14.625 17.625C14.625 18.4535 13.9535 19.125 13.125 19.125C12.2966 19.125 11.625 18.4535 11.625 17.625C11.625 16.7966 12.2966 16.125 13.125 16.125ZM18.375 16.125C19.2035 16.125 19.875 16.7966 19.875 17.625C19.875 18.4535 19.2035 19.125 18.375 19.125C17.5466 19.125 16.875 18.4535 16.875 17.625C16.875 16.7966 17.5466 16.125 18.375 16.125ZM18.1875 2.25C16.3248 2.25 15.0064 2.2513 13.9824 2.34863C12.975 2.44441 12.3683 2.62516 11.8984 2.91309C11.2931 3.28408 10.7841 3.7931 10.4131 4.39844C10.1722 4.79147 10.0087 5.27546 9.90527 6.00195C10.3353 6.00016 10.7885 6 11.2666 6H14.9834C16.8981 5.99999 18.4152 5.99966 19.6309 6.11523C20.8755 6.23358 21.9198 6.48129 22.8477 7.04981C23.8063 7.63731 24.6128 8.44363 25.2002 9.40234C25.7688 10.3302 26.0164 11.3745 26.1348 12.6191C26.2502 13.8348 26.25 15.3519 26.25 17.2666V19.0205C26.663 18.967 26.964 18.8888 27.2217 18.7822C28.3243 18.3255 29.2005 17.4493 29.6572 16.3467C29.8049 15.9897 29.8996 15.5404 29.9492 14.8135C29.9995 14.0763 30 13.1382 30 11.8125V10.6875C30 8.82468 29.9988 7.50648 29.9014 6.48242C29.8057 5.47502 29.6248 4.86828 29.3369 4.39844C28.9659 3.79313 28.4569 3.28408 27.8516 2.91309C27.3818 2.62516 26.775 2.44441 25.7676 2.34863C24.7436 2.25129 23.4254 2.25 21.5625 2.25H18.1875Z" fill="var(--fill-0, #0C6EBF)" fill-opacity="0.5"/>
</svg>
