<svg preserveAspectRatio="xMidYMid meet" width="100%" height="100%" overflow="visible" style="display: block;" viewBox="0 0 48 43.4912" fill="none" xmlns="http://www.w3.org/2000/svg">
<path id="Union" d="M42.7861 15.7812C44.0033 15.7812 44.9941 16.7711 44.9941 17.9883V41.2842C44.9939 42.5012 44.0032 43.4912 42.7861 43.4912H30.0117C28.7947 43.4912 27.8049 42.5012 27.8047 41.2842V17.9883C27.8047 16.7711 28.7945 15.7812 30.0117 15.7812H42.7861ZM29.2129 41.2842C29.2131 41.7243 29.5716 42.082 30.0117 42.082H42.7861C43.2263 42.082 43.5847 41.7243 43.585 41.2842V40.4854H29.2129V41.2842ZM29.2129 39.0762H43.585V24.7041H29.2129V39.0762ZM45.793 0C47.0098 0.000219871 47.9998 0.990162 48 2.20703V30.7637C47.9997 31.1524 47.6846 31.4676 47.2959 31.4678C46.907 31.4678 46.5911 31.1525 46.5908 30.7637V2.20703C46.5906 1.76709 46.2329 1.4094 45.793 1.40918H2.20703C1.76709 1.4094 1.4094 1.76709 1.40918 2.20703V30.7637C1.40943 31.2036 1.76711 31.5613 2.20703 31.5615H25.5029C25.892 31.5615 26.207 31.8775 26.207 32.2666C26.2068 32.6555 25.8918 32.9707 25.5029 32.9707H18.5195L17.4189 36.8223H25.5029C25.892 36.8223 26.207 37.1373 26.207 37.5264C26.207 37.9154 25.892 38.2305 25.5029 38.2305H16.4883L16.4854 38.2314L16.4834 38.2305H12.7275C12.3387 38.2302 12.0234 37.9153 12.0234 37.5264C12.0235 37.1375 12.3387 36.8225 12.7275 36.8223H15.9541L17.0547 32.9707H2.20703C0.990182 32.9705 0.000252216 31.9805 0 30.7637V2.20703C0.000219583 0.990162 0.990162 0.000219677 2.20703 0H45.793ZM41.2832 36.0703C41.6723 36.0703 41.9883 36.3863 41.9883 36.7754C41.988 37.1643 41.6721 37.4795 41.2832 37.4795H31.5146C31.1257 37.4795 30.8108 37.1643 30.8105 36.7754C30.8105 36.3863 31.1256 36.0703 31.5146 36.0703H41.2832ZM40.5322 26.3018C41.3351 26.3018 41.9883 26.955 41.9883 27.7578V33.0176C41.9883 33.8204 41.3351 34.4736 40.5322 34.4736H32.2656C31.463 34.4734 30.8105 33.8203 30.8105 33.0176V27.7578C30.8105 26.9551 31.463 26.302 32.2656 26.3018H40.5322ZM33.5049 33.0645H39.2939L36.3994 31.2227L33.5049 33.0645ZM32.2188 32.2129L35.0869 30.3877L32.2188 28.5625V32.2129ZM37.7109 30.3877L40.5791 32.2129V28.5625L37.7109 30.3877ZM44.29 3.00586C44.6788 3.00609 44.9939 3.32122 44.9941 3.70996V13.4795C44.9941 13.8684 44.6789 14.1834 44.29 14.1836C43.901 14.1836 43.585 13.8685 43.585 13.4795V10.4268H4.41504V28.5557H25.5029C25.892 28.5557 26.207 28.8717 26.207 29.2607C26.2068 29.6496 25.8918 29.9648 25.5029 29.9648H3.70996C3.32123 29.9646 3.00611 29.6495 3.00586 29.2607V3.70996C3.00608 3.32121 3.32121 3.00608 3.70996 3.00586H44.29ZM36.3994 29.5527L39.2939 27.71H33.5049L36.3994 29.5527ZM19.4912 12.7754C20.2939 12.7754 20.947 13.4278 20.9473 14.2305V24C20.9473 24.8028 20.294 25.456 19.4912 25.4561H8.21875C7.41609 25.4558 6.76367 24.8027 6.76367 24V14.2305C6.76391 13.428 7.41623 12.7756 8.21875 12.7754H19.4912ZM25.5029 24.0469C25.892 24.0469 26.207 24.3629 26.207 24.752C26.2068 25.1408 25.8918 25.456 25.5029 25.4561H24C23.6111 25.4561 23.2962 25.1408 23.2959 24.752C23.2959 24.3629 23.6109 24.0469 24 24.0469H25.5029ZM9.33105 24.0469H18.3789L13.8555 20.0547L9.33105 24.0469ZM29.2129 23.2959H43.585V20.1953H29.2129V23.2959ZM8.17188 23.1904L12.79 19.1152L8.17188 15.041V23.1904ZM14.9199 19.1152L19.5381 23.1904V15.041L14.9199 19.1152ZM39.0293 21.041C39.4182 21.041 39.7331 21.3563 39.7334 21.7451C39.7334 22.1342 39.4183 22.4502 39.0293 22.4502H30.7627C30.3738 22.45 30.0586 22.1341 30.0586 21.7451C30.0589 21.3564 30.374 21.0412 30.7627 21.041H39.0293ZM42.0352 21.041C42.4241 21.041 42.74 21.3563 42.7402 21.7451C42.7402 22.1342 42.4242 22.4502 42.0352 22.4502H41.2842C40.8951 22.4502 40.5791 22.1342 40.5791 21.7451C40.5794 21.3563 40.8953 21.041 41.2842 21.041H42.0352ZM25.5029 20.29C25.892 20.2901 26.207 20.6051 26.207 20.9941C26.207 21.3832 25.892 21.6982 25.5029 21.6982H24C23.6109 21.6982 23.2959 21.3832 23.2959 20.9941C23.2959 20.6051 23.6109 20.29 24 20.29H25.5029ZM30.0117 17.1895C29.5715 17.1895 29.2129 17.548 29.2129 17.9883V18.7871H43.585V17.9883C43.585 17.548 43.2264 17.1895 42.7861 17.1895H30.0117ZM13.8555 18.1758L18.3789 14.1836H9.33105L13.8555 18.1758ZM25.5029 16.5322C25.8918 16.5323 26.2068 16.8475 26.207 17.2363C26.207 17.6254 25.892 17.9414 25.5029 17.9414H24C23.6109 17.9414 23.2959 17.6254 23.2959 17.2363C23.2961 16.8475 23.6111 16.5322 24 16.5322H25.5029ZM41.2832 12.7754C41.6723 12.7754 41.9883 13.0904 41.9883 13.4795C41.9883 13.8685 41.6723 14.1836 41.2832 14.1836H24C23.6109 14.1836 23.2959 13.8685 23.2959 13.4795C23.2959 13.0904 23.6109 12.7754 24 12.7754H41.2832ZM4.41504 9.01758H43.585V4.41504H4.41504V9.01758ZM6.71582 6.01172C6.90087 6.01172 7.0833 6.08724 7.21387 6.21875C7.34523 6.34921 7.42078 6.53095 7.4209 6.71582C7.4209 6.90086 7.34537 7.0833 7.21387 7.21387C7.0833 7.34537 6.90087 7.4209 6.71582 7.4209C6.53094 7.42079 6.34922 7.34523 6.21875 7.21387C6.08724 7.0833 6.01172 6.90087 6.01172 6.71582C6.01183 6.53092 6.08734 6.34922 6.21875 6.21875C6.34922 6.08734 6.53091 6.01183 6.71582 6.01172ZM8.9707 6.01172C9.15666 6.01174 9.3382 6.08726 9.46875 6.21875C9.59996 6.34919 9.67469 6.53013 9.6748 6.71582C9.6748 6.90075 9.6001 7.08332 9.46875 7.21387C9.3382 7.34535 9.15572 7.42087 8.9707 7.4209C8.78565 7.4209 8.60322 7.34537 8.47266 7.21387C8.34125 7.08331 8.2666 6.90079 8.2666 6.71582C8.26672 6.53009 8.34139 6.3492 8.47266 6.21875C8.60322 6.08724 8.78471 6.01172 8.9707 6.01172ZM11.2246 6.01172C11.4106 6.01172 11.5921 6.08724 11.7227 6.21875C11.854 6.34921 11.9296 6.53095 11.9297 6.71582C11.9297 6.90086 11.8542 7.0833 11.7227 7.21387C11.5921 7.34537 11.4106 7.4209 11.2246 7.4209C11.0397 7.42079 10.858 7.34523 10.7275 7.21387C10.596 7.0833 10.5205 6.90087 10.5205 6.71582C10.5206 6.53092 10.5961 6.34922 10.7275 6.21875C10.858 6.08734 11.0397 6.01183 11.2246 6.01172ZM36.7744 6.01172C37.1633 6.01172 37.4793 6.32694 37.4795 6.71582C37.4795 7.10489 37.1635 7.4209 36.7744 7.4209H14.2305C13.8416 7.42068 13.5264 7.10476 13.5264 6.71582C13.5266 6.32708 13.8417 6.01193 14.2305 6.01172H36.7744ZM41.2842 6.01172C41.673 6.0119 41.9881 6.32705 41.9883 6.71582C41.9883 7.10478 41.6731 7.42072 41.2842 7.4209H39.7812C39.3922 7.4209 39.0762 7.10489 39.0762 6.71582C39.0764 6.32694 39.3923 6.01172 39.7812 6.01172H41.2842Z" fill="var(--fill-0, white)" fill-opacity="0.8"/>
</svg>
