<svg preserveAspectRatio="xMidYMid meet" width="100%" height="100%" overflow="visible" style="display: block;" viewBox="0 0 48 31.7419" fill="none" xmlns="http://www.w3.org/2000/svg">
<path id="Vector" d="M42.5806 15.4839H36.401C38.1755 15.4815 39.8477 14.8227 41.1515 13.6003C42.552 12.288 43.3548 10.4346 43.3548 8.51613V5.39226C43.3548 2.41935 40.9355 0 37.9626 0H34.8116C31.9448 0 29.6005 2.25058 29.4356 5.07639C29.1027 4.87974 28.7326 4.73961 28.3355 4.68C27.6766 3.69368 26.575 3.09677 25.3657 3.09677H22.0537C20.6702 3.09677 19.416 3.65884 18.5071 4.56697C18.096 1.98348 15.8586 0 13.1613 0H10.0645C7.07613 0 4.64516 2.43097 4.64516 5.41935V8.304C4.64516 12.0852 7.50271 15.233 11.1507 15.4692C11.3032 15.4792 11.4557 15.4839 11.6067 15.4839H5.41935C2.43097 15.4839 0 17.9148 0 20.9032V28.6452H12.3871V31.7419H35.6129V28.6452H48V20.9032C48 17.9148 45.569 15.4839 42.5806 15.4839ZM37.8735 17.0323L36.3871 18.8895L34.9006 17.0323H37.8735ZM34.8116 1.54839H37.9626C40.0258 1.54839 41.7012 3.18503 41.7894 5.22658C38.239 4.47174 34.5345 4.47174 30.984 5.22658C31.073 3.18581 32.7484 1.54839 34.8116 1.54839ZM30.9677 7.74194V6.81445C34.5205 6.00465 38.2514 6.00465 41.8065 6.81445V8.51613C41.8065 10.0305 41.1979 11.4348 40.0924 12.4707C38.9884 13.5058 37.5414 14.0222 36.0248 13.9239C33.1889 13.7404 30.9677 11.2715 30.9677 8.304V7.74194ZM30.8741 12.6929C32.0578 14.273 33.8648 15.336 35.9257 15.4692C36.0774 15.4792 36.2299 15.4839 36.3809 15.4839H30.1935C30.048 15.4839 29.9063 15.5063 29.7631 15.5179C30.3352 14.671 30.713 13.7048 30.8741 12.6929ZM18.5806 8.51613V8.11742C18.5806 6.20284 20.1383 4.64516 22.0529 4.64516H25.3649C26.1375 4.64516 26.8328 5.07484 27.1781 5.76542L27.3925 6.19355H27.871C28.7249 6.19355 29.4194 6.888 29.4194 7.74194V8.304V9.93832C28.7025 9.69987 28.1195 9.13626 27.871 8.38994L27.655 7.74194H26.0021L25.0785 8.66555C24.6759 9.06813 24.1394 9.29032 23.5695 9.29032H18.5806V8.51613ZM18.5806 10.8387H23.5695C24.5535 10.8387 25.4772 10.4555 26.1732 9.76026L26.5897 9.34374C27.1355 10.4849 28.1892 11.2854 29.4194 11.5277V11.6129C29.4194 13.1272 28.8108 14.5316 27.7053 15.5675C26.6013 16.6026 25.1535 17.1166 23.6377 17.0206C20.8018 16.8372 18.5806 14.3683 18.5806 11.4008V10.8387ZM25.3308 20.129L24.9437 21.6774H23.0563L22.6692 20.129H25.3308ZM22.6173 18.4343C22.9177 18.4963 23.2235 18.5458 23.5378 18.5659C23.6903 18.576 23.8428 18.5806 23.9938 18.5806H22.6823C22.6591 18.5326 22.6413 18.4815 22.6173 18.4343ZM25.3177 18.5806H24.0139C24.4777 18.5799 24.9337 18.5326 25.3788 18.4436C25.3564 18.4877 25.3394 18.5357 25.3177 18.5806ZM17.1538 12.7254C17.3404 13.7505 17.7414 14.6981 18.3043 15.5234C18.1386 15.5079 17.9752 15.4839 17.8065 15.4839H11.6268C13.4013 15.4815 15.0735 14.8227 16.3773 13.6003C16.6637 13.3316 16.9185 13.0351 17.1538 12.7254ZM6.19355 5.41935C6.19355 3.2849 7.93006 1.54839 10.0645 1.54839H13.1613C15.2957 1.54839 17.0323 3.2849 17.0323 5.41935V6.84155C16.3154 6.6031 15.7324 6.03948 15.4839 5.29316L15.2679 4.64516H13.615L12.6914 5.56877C12.2888 5.97136 11.7523 6.19355 11.1825 6.19355H6.19355V5.41935ZM11.2506 13.9239C8.41471 13.7404 6.19355 11.2715 6.19355 8.304V7.74194H11.1825C12.1665 7.74194 13.0901 7.35871 13.7861 6.66348L14.2026 6.24697C14.7484 7.38813 15.8021 8.18864 17.0323 8.43097V8.51613C17.0323 10.0305 16.4237 11.4348 15.3182 12.4707C14.2142 13.5058 12.7665 14.0222 11.2506 13.9239ZM13.793 17.0323C13.4725 17.9311 12.6209 18.5806 11.6129 18.5806C10.6049 18.5806 9.75329 17.9311 9.43277 17.0323H13.793ZM12.3871 27.0968H6.19355V21.6774H4.64516V27.0968H1.54839V20.9032C1.54839 18.7688 3.2849 17.0323 5.41935 17.0323H7.82013C8.18013 18.7966 9.74323 20.129 11.6129 20.129C13.4826 20.129 15.0457 18.7966 15.4057 17.0323H17.8065C19.0405 17.0323 20.177 17.6253 20.8955 18.5806H17.8065C14.8181 18.5806 12.3871 21.0116 12.3871 24V27.0968ZM18.5806 30.1935V24.7742H17.0323V30.1935H13.9355V24C13.9355 21.8655 15.672 20.129 17.8065 20.129H21.0728L21.6635 22.4926L20.8421 28.2441L23.7662 30.1935H18.5806ZM22.5128 27.497L23.1228 23.2258H24.8772L25.4872 27.4978L24 28.4888L22.5128 27.497ZM34.0645 30.1935H30.9677V24.7742H29.4194V30.1935H24.2338L27.1579 28.2441L26.3365 22.4926L26.9272 20.129H30.1935C32.328 20.129 34.0645 21.8655 34.0645 24V30.1935ZM46.4516 27.0968H43.3548V21.6774H41.8065V27.0968H35.6129V24C35.6129 21.0116 33.1819 18.5806 30.1935 18.5806H27.1045C27.823 17.6253 28.9595 17.0323 30.1935 17.0323H32.9187L36.3871 21.3685L39.8555 17.0323H42.5806C44.7151 17.0323 46.4516 18.7688 46.4516 20.9032V27.0968Z" fill="var(--fill-0, #0C6EBF)" fill-opacity="0.5"/>
</svg>
