<svg preserveAspectRatio="none" width="100%" height="100%" overflow="visible" style="display: block;" viewBox="0 0 46.5 46.5" fill="none" xmlns="http://www.w3.org/2000/svg">
<path id="Union" d="M16.1465 0C18.3417 0 20.3321 1.1385 21.4443 3H30C30.8273 3 31.5 3.67275 31.5 4.5V6C31.5 6.82725 30.8273 7.5 30 7.5V14.5527C30.6929 14.3608 31.4203 14.25 32.1738 14.25C34.3577 14.25 36.4109 15.1002 37.9551 16.6436L38.6406 17.3291C40.6287 17.9231 41.9998 19.7487 42 21.8418V28.5C42 30.1545 40.6545 31.5 39 31.5H38.5586C38.1701 32.4562 37.5426 33.2891 36.75 33.9258V35.4355L42.7051 37.1533C44.9393 37.7983 46.5 39.8725 46.5 42.1982V46.5H19.5V42.1982C19.5 39.8725 21.0607 37.7983 23.2949 37.1533L29.25 35.4355V33.9258C28.4574 33.2891 27.8299 32.4562 27.4414 31.5H27C25.3455 31.5 24 30.1545 24 28.5V27H16.5V35.3564C17.7908 35.6917 18.75 36.8558 18.75 38.25C18.75 39.9045 17.4045 41.25 15.75 41.25C14.0955 41.25 12.75 39.9045 12.75 38.25C12.75 36.8558 13.7092 35.6917 15 35.3564V27H1.5V7.5C0.67275 7.5 0 6.82725 0 6V4.5C0 3.67275 0.67275 3 1.5 3H10.0566C11.1688 1.13864 13.1577 0.000167432 15.3535 0H16.1465ZM23.7109 38.5947C22.1149 39.056 21 40.5377 21 42.1982V45H24V40.5H25.5V45H32.25V40.5605L28.9482 43.2012L26.6152 37.7568L23.7109 38.5947ZM37.0508 43.2012L33.75 40.5605V45H40.5V40.5H42V45H45V42.1982C45 40.5378 43.8857 39.0555 42.2891 38.5957L39.3838 37.7568L37.0508 43.2012ZM28.0674 37.3369L29.5508 40.7988L31.877 38.9375L29.7822 36.8428L28.0674 37.3369ZM34.1221 38.9385L36.4482 40.7988L37.9316 37.3379L36.2168 36.8438L34.1221 38.9385ZM15.75 36.75C14.9227 36.75 14.25 37.4227 14.25 38.25C14.25 39.0773 14.9227 39.75 15.75 39.75C16.5773 39.75 17.25 39.0773 17.25 38.25C17.25 37.4227 16.5773 36.75 15.75 36.75ZM35.25 34.8086C34.5548 35.0913 33.7957 35.25 33 35.25C32.2043 35.25 31.4452 35.0913 30.75 34.8086V35.6895L33 37.9395L35.25 35.6895V34.8086ZM35.6689 24.75C35.4726 24.75 35.2772 24.7816 35.0898 24.8438L33 25.54L30.9102 24.8438C30.7228 24.7815 30.5282 24.75 30.3311 24.75C29.3216 24.75 28.5 25.5716 28.5 26.5811V29.25C28.5 31.7318 30.5182 33.75 33 33.75C35.4818 33.75 37.5 31.7318 37.5 29.25V26.5811C37.5 25.5717 36.679 24.7502 35.6689 24.75ZM27 27C26.1727 27 25.5 27.6727 25.5 28.5C25.5 29.3273 26.1727 30 27 30H27.0518C27.021 29.754 27 29.5042 27 29.25V27ZM39 29.25C39 29.5042 38.979 29.754 38.9482 30H39C39.8273 30 40.5 29.3273 40.5 28.5C40.5 27.6727 39.8273 27 39 27V29.25ZM32.1738 15.75C28.4939 15.7502 25.5002 18.7439 25.5 22.4238V25.917C25.9432 25.659 26.451 25.5 27 25.5H27.1953C27.6468 24.195 28.8746 23.25 30.3311 23.25C30.69 23.25 31.0445 23.3078 31.3848 23.4209L33 23.96L34.6152 23.4209C34.9556 23.3078 35.3099 23.25 35.6689 23.25C37.1252 23.2502 38.3532 24.1951 38.8047 25.5H39C39.549 25.5 40.0568 25.659 40.5 25.917V21.8418C40.4998 20.366 39.5 19.0858 38.0684 18.7266L37.8662 18.6768L36.8936 17.7041C35.6329 16.4444 33.9564 15.75 32.1738 15.75ZM3 25.5H24V22.4248C24.0001 19.2396 25.8353 16.4813 28.5 15.1328V7.5H3V25.5ZM9 22.5V24H4.5V22.5H9ZM15.75 9C19.8855 9 23.25 12.3645 23.25 16.5C23.25 20.6355 19.8855 24 15.75 24C11.6145 24 8.25 20.6355 8.25 16.5C8.25 12.3645 11.6145 9 15.75 9ZM18.3535 20.1641C17.6178 20.6883 16.7205 21 15.75 21C14.7795 21 13.8822 20.6876 13.1465 20.1641L12.0762 21.2344C13.0924 22.0249 14.3655 22.5 15.75 22.5C17.1345 22.5 18.4076 22.0246 19.4238 21.2334L18.3535 20.1641ZM11.0156 12.8271C10.2252 13.8434 9.75 15.1156 9.75 16.5C9.75 17.8844 10.2252 19.1566 11.0156 20.1729L12.0859 19.1035C11.5617 18.3678 11.25 17.4705 11.25 16.5C11.25 15.5295 11.5617 14.6322 12.0859 13.8965L11.0156 12.8271ZM19.4141 13.8965C19.9383 14.6322 20.25 15.5295 20.25 16.5C20.25 17.4705 19.9383 18.3678 19.4141 19.1035L20.4844 20.1729C21.2748 19.1566 21.75 17.8844 21.75 16.5C21.75 15.1156 21.2748 13.8434 20.4844 12.8271L19.4141 13.8965ZM15.75 13.5C14.0955 13.5 12.75 14.8455 12.75 16.5C12.75 18.1545 14.0955 19.5 15.75 19.5C17.4045 19.5 18.75 18.1545 18.75 16.5C18.75 14.8455 17.4045 13.5 15.75 13.5ZM15.75 10.5C14.3655 10.5 13.0924 10.9754 12.0762 11.7666L13.1465 12.8359C13.8822 12.3117 14.7795 12 15.75 12C16.7205 12 17.6178 12.3124 18.3535 12.8359L19.4238 11.7656C18.4076 10.9751 17.1345 10.5 15.75 10.5ZM9 10.5H4.5V9H9V10.5ZM15.3535 1.5C13.5711 1.50018 11.9681 2.49083 11.1709 4.08496L10.9639 4.5H1.5V6H30V4.5H20.5361L20.3291 4.08496C19.5325 2.49069 17.9291 1.5 16.1465 1.5H15.3535ZM18 4.5H13.5V3H18V4.5Z" fill="var(--fill-0, #0C6EBF)" fill-opacity="0.5"/>
</svg>
