<svg preserveAspectRatio="xMidYMid meet" width="100%" height="100%" overflow="visible" style="display: block;" viewBox="0 0 19 17" fill="none" xmlns="http://www.w3.org/2000/svg">
<path id="Vector" d="M8.88475 17V15.5H16.1923C16.2756 15.5 16.3477 15.4743 16.4087 15.423C16.4696 15.3718 16.5 15.3046 16.5 15.2212V8.227C16.5 6.31533 15.816 4.706 14.448 3.399C13.0802 2.092 11.4308 1.4385 9.5 1.4385C7.56917 1.4385 5.91983 2.092 4.552 3.399C3.184 4.706 2.5 6.31533 2.5 8.227V14.1152H1.75C1.2705 14.1152 0.859 13.9483 0.5155 13.6145C0.171833 13.2805 0 12.8737 0 12.3942V10.452C0 10.1277 0.0923334 9.8305 0.277 9.5605C0.461667 9.29067 0.702667 9.07375 1 8.90975L1.04625 7.63275C1.12825 6.54425 1.41092 5.53592 1.89425 4.60775C2.37758 3.67958 2.99742 2.87158 3.75375 2.18375C4.51025 1.49592 5.38333 0.959999 6.373 0.575999C7.36283 0.191999 8.40517 0 9.5 0C10.5948 0 11.6346 0.191999 12.6193 0.575999C13.6039 0.959999 14.477 1.49333 15.2385 2.176C16 2.85867 16.6198 3.66408 17.098 4.59225C17.5762 5.52058 17.8614 6.52892 17.9538 7.61725L18 8.86925C18.291 9.00642 18.5304 9.20258 18.7182 9.45775C18.9061 9.71292 19 9.9975 19 10.3115V12.5442C19 12.8582 18.9061 13.1428 18.7182 13.398C18.5304 13.6532 18.291 13.8493 18 13.9865V15.2212C18 15.7134 17.8234 16.1329 17.4703 16.4798C17.1169 16.8266 16.6909 17 16.1923 17H8.88475ZM6.06625 10.0203C5.89392 9.85425 5.80775 9.64875 5.80775 9.40375C5.80775 9.15892 5.89392 8.95192 6.06625 8.78275C6.23875 8.61342 6.44742 8.52875 6.69225 8.52875C6.93725 8.52875 7.14592 8.61342 7.31825 8.78275C7.49075 8.95192 7.577 9.15892 7.577 9.40375C7.577 9.64875 7.49075 9.85425 7.31825 10.0203C7.14592 10.1863 6.93725 10.2692 6.69225 10.2692C6.44742 10.2692 6.23875 10.1863 6.06625 10.0203ZM11.6818 10.0203C11.5093 9.85425 11.423 9.64875 11.423 9.40375C11.423 9.15892 11.5093 8.95192 11.6818 8.78275C11.8541 8.61342 12.0628 8.52875 12.3078 8.52875C12.5526 8.52875 12.7612 8.61342 12.9337 8.78275C13.1061 8.95192 13.1923 9.15892 13.1923 9.40375C13.1923 9.64875 13.1061 9.85425 12.9337 10.0203C12.7612 10.1863 12.5526 10.2692 12.3078 10.2692C12.0628 10.2692 11.8541 10.1863 11.6818 10.0203ZM3.87125 8.7C3.76742 7.068 4.27508 5.6715 5.39425 4.5105C6.51342 3.34967 7.89867 2.76925 9.55 2.76925C10.9372 2.76925 12.1612 3.19842 13.222 4.05675C14.283 4.91508 14.9269 6.02625 15.1538 7.39025C13.7333 7.37358 12.4208 7.00058 11.2163 6.27125C10.0118 5.54175 9.08708 4.54175 8.44225 3.27125C8.18842 4.51475 7.65642 5.61408 6.84625 6.56925C6.03592 7.52442 5.04425 8.23467 3.87125 8.7Z" fill="var(--fill-0, #ED5A20)" fill-opacity="0.5"/>
</svg>
