<svg preserveAspectRatio="none" width="100%" height="100%" overflow="visible" style="display: block;" viewBox="0 0 17 17" fill="none" xmlns="http://www.w3.org/2000/svg">
<path id="Vector" d="M1.80775 17C1.30258 17 0.875 16.825 0.525 16.475C0.175 16.125 0 15.6974 0 15.1923V1.80775C0 1.30258 0.175 0.875 0.525 0.525C0.875 0.175 1.30258 0 1.80775 0H12.2885L17 4.7115V15.1923C17 15.6974 16.825 16.125 16.475 16.475C16.125 16.825 15.6974 17 15.1923 17H1.80775ZM1.80775 15.5H15.1923C15.2821 15.5 15.3558 15.4712 15.4135 15.4135C15.4712 15.3558 15.5 15.2821 15.5 15.1923V5.5H11.5V1.5H1.80775C1.71792 1.5 1.64417 1.52883 1.5865 1.5865C1.52883 1.64417 1.5 1.71792 1.5 1.80775V15.1923C1.5 15.2821 1.52883 15.3558 1.5865 15.4135C1.64417 15.4712 1.71792 15.5 1.80775 15.5ZM3.75 13H13.25V11.5H3.75V13ZM3.75 5.5H8.5V4H3.75V5.5ZM3.75 9.25H13.25V7.75H3.75V9.25Z" fill="var(--fill-0, #0C6EBF)"/>
</svg>
