<svg preserveAspectRatio="none" width="100%" height="100%" overflow="visible" style="display: block;" viewBox="0 0 20.9704 23.9981" fill="none" xmlns="http://www.w3.org/2000/svg">
<g id="Group 2">
<path id="Vector" fill-rule="evenodd" clip-rule="evenodd" d="M1.90237 0.00225067C0.851625 0.00225067 0 0.854626 0 1.905V22.0954C0 23.1465 0.851625 23.9981 1.90237 23.9981H19.0676C20.118 23.9981 20.9704 23.1465 20.9704 22.0954V7.6185L13.8821 0.00225067H1.90237Z" fill="var(--fill-0, #8FB93A)"/>
<path id="Vector_2" fill-rule="evenodd" clip-rule="evenodd" d="M13.8788 0V5.46037C13.8788 6.08137 14.2928 7.632 16.1678 7.632H20.9682L13.8788 0Z" fill="var(--fill-0, white)" fill-opacity="0.5"/>
<path id="Vector_3" d="M7.2712 20.2267C7.1902 20.2267 7.11557 20.193 7.0687 20.1255L5.6707 18.2617L4.26632 20.1255C4.21907 20.193 4.14482 20.2267 4.06382 20.2267C3.91532 20.2267 3.79382 20.112 3.79382 19.9567C3.79382 19.9027 3.80695 19.842 3.84782 19.7947L5.30657 17.8706L3.94945 16.0609C3.9157 16.0136 3.89507 15.9596 3.89507 15.9056C3.89507 15.7774 4.00307 15.6356 4.16545 15.6356C4.24645 15.6356 4.32745 15.6761 4.38145 15.7436L5.6707 17.4791L6.95995 15.7369C7.00757 15.6694 7.08145 15.6356 7.16282 15.6356C7.30457 15.6356 7.43957 15.7504 7.43957 15.9056C7.43957 15.9596 7.42607 16.0136 7.39195 16.0609L6.03482 17.8639L7.49395 19.7947C7.5277 19.842 7.54082 19.896 7.54082 19.95C7.54082 20.0985 7.41932 20.2267 7.2712 20.2267ZM11.0171 20.1795H8.97145C8.74832 20.1795 8.56607 19.9972 8.56607 19.7745V15.9056C8.56607 15.7571 8.68757 15.6356 8.85632 15.6356C9.00482 15.6356 9.1267 15.7571 9.1267 15.9056V19.68H11.0171C11.1517 19.68 11.2601 19.788 11.2601 19.923C11.2601 20.0715 11.1517 20.1795 11.0171 20.1795ZM13.6353 20.2605C12.9671 20.2605 12.4398 20.0377 12.0554 19.6999C11.9947 19.6459 11.9677 19.5716 11.9677 19.4974C11.9677 19.3624 12.0689 19.2139 12.2309 19.2139C12.2849 19.2139 12.3457 19.2274 12.3933 19.2679C12.7038 19.5446 13.1358 19.7606 13.6559 19.7606C14.4596 19.7606 14.7157 19.3286 14.7157 18.984C14.7157 17.8226 12.0491 18.4642 12.0491 16.857C12.0491 16.1145 12.7106 15.6079 13.5952 15.6079C14.1757 15.6079 14.6756 15.7834 15.0401 16.0871C15.1008 16.1411 15.1349 16.2154 15.1349 16.2896C15.1349 16.4246 15.0198 16.5596 14.8713 16.5596C14.8169 16.5596 14.7562 16.5394 14.7093 16.4989C14.3782 16.2289 13.9668 16.1074 13.5547 16.1074C13.0147 16.1074 12.6296 16.3976 12.6296 16.8232C12.6296 17.8361 15.2966 17.2552 15.2966 18.9367C15.2966 19.5922 14.8511 20.2605 13.6353 20.2605Z" fill="var(--fill-0, white)"/>
</g>
</svg>
