<svg preserveAspectRatio="none" width="100%" height="100%" overflow="visible" style="display: block;" viewBox="0 0 19.5 21.5" fill="none" xmlns="http://www.w3.org/2000/svg">
<path id="Vector" d="M0 4.5V0H4.5V1.5H1.5V4.5H0ZM18 4.5V1.5H15V0H19.5V4.5H18ZM0 21.5V17H1.5V20H4.5V21.5H0ZM15 21.5V20H18V17H19.5V21.5H15ZM4.5 16.6923C4.5 16.7693 4.53208 16.8398 4.59625 16.9038C4.66025 16.9679 4.73075 17 4.80775 17H14.6923C14.7693 17 14.8398 16.9679 14.9038 16.9038C14.9679 16.8398 15 16.7693 15 16.6923V4.80775C15 4.73075 14.9679 4.66025 14.9038 4.59625C14.8398 4.53208 14.7693 4.5 14.6923 4.5H4.80775C4.73075 4.5 4.66025 4.53208 4.59625 4.59625C4.53208 4.66025 4.5 4.73075 4.5 4.80775V16.6923ZM4.80775 18.5C4.30258 18.5 3.875 18.325 3.525 17.975C3.175 17.625 3 17.1974 3 16.6923V4.80775C3 4.30258 3.175 3.875 3.525 3.525C3.875 3.175 4.30258 3 4.80775 3H14.6923C15.1974 3 15.625 3.175 15.975 3.525C16.325 3.875 16.5 4.30258 16.5 4.80775V16.6923C16.5 17.1974 16.325 17.625 15.975 17.975C15.625 18.325 15.1974 18.5 14.6923 18.5H4.80775ZM7 8.5H12.5V7H7V8.5ZM7 11.5H12.5V10H7V11.5ZM7 14.5H12.5V13H7V14.5ZM4.5 16.6923V4.5V17V16.6923Z" fill="var(--fill-0, #0C6EBF)"/>
</svg>
