<svg preserveAspectRatio="none" width="100%" height="100%" overflow="visible" style="display: block;" viewBox="0 0 15 16.8845" fill="none" xmlns="http://www.w3.org/2000/svg">
<path id="Vector" d="M2.80775 16.8845C2.30258 16.8845 1.875 16.7095 1.525 16.3595C1.175 16.0095 1 15.5819 1 15.0768V2.3845H0V0.8845H4.5V0H10.5V0.8845H15V2.3845H14V15.0768C14 15.5819 13.825 16.0095 13.475 16.3595C13.125 16.7095 12.6974 16.8845 12.1923 16.8845H2.80775ZM12.5 2.3845H2.5V15.0768C2.5 15.1538 2.53208 15.2243 2.59625 15.2883C2.66025 15.3524 2.73075 15.3845 2.80775 15.3845H12.1923C12.2693 15.3845 12.3398 15.3524 12.4038 15.2883C12.4679 15.2243 12.5 15.1538 12.5 15.0768V2.3845Z" fill="var(--fill-0, #EC3A2D)"/>
</svg>
