<svg preserveAspectRatio="none" width="100%" height="100%" overflow="visible" style="display: block;" viewBox="0 0 15 15" fill="none" xmlns="http://www.w3.org/2000/svg">
<path id="Vector" d="M6.75 11.2885V2.8885L4.28475 5.35375L3.23075 4.26925L7.5 0L11.7693 4.26925L10.7152 5.35375L8.25 2.8885V11.2885H6.75ZM1.80775 15C1.30258 15 0.875 14.825 0.525 14.475C0.175 14.125 0 13.6974 0 13.1923V10.4808H1.5V13.1923C1.5 13.2693 1.53208 13.3398 1.59625 13.4038C1.66025 13.4679 1.73075 13.5 1.80775 13.5H13.1923C13.2693 13.5 13.3398 13.4679 13.4038 13.4038C13.4679 13.3398 13.5 13.2693 13.5 13.1923V10.4808H15V13.1923C15 13.6974 14.825 14.125 14.475 14.475C14.125 14.825 13.6974 15 13.1923 15H1.80775Z" fill="var(--fill-0, #0C6EBF)" fill-opacity="0.5"/>
</svg>
