<svg preserveAspectRatio="none" width="100%" height="100%" overflow="visible" style="display: block;" viewBox="0 0 11.6537 19" fill="none" xmlns="http://www.w3.org/2000/svg">
<path id="Vector" d="M11.6537 13.1443C11.6537 14.7686 11.0887 16.1506 9.9585 17.2902C8.8285 18.4301 7.4545 19 5.8365 19C4.21217 19 2.83333 18.4301 1.7 17.2902C0.566666 16.1506 0 14.7686 0 13.1443V4.15375C0 2.99992 0.400667 2.01917 1.202 1.2115C2.00317 0.403834 2.98067 0 4.1345 0C5.28833 0 6.26592 0.403834 7.06725 1.2115C7.86858 2.01917 8.26925 2.99992 8.26925 4.15375V12.6635C8.26925 13.3403 8.033 13.9182 7.5605 14.397C7.08817 14.8758 6.5135 15.1152 5.8365 15.1152C5.15967 15.1152 4.58183 14.8775 4.103 14.402C3.62417 13.9263 3.38475 13.3468 3.38475 12.6635V3.88475H4.8845V12.6635C4.8845 12.9315 4.97458 13.1572 5.15475 13.3405C5.33492 13.5238 5.559 13.6155 5.827 13.6155C6.09483 13.6155 6.31883 13.5238 6.499 13.3405C6.67917 13.1572 6.76925 12.9315 6.76925 12.6635V4.14425C6.75892 3.40575 6.50183 2.78042 5.998 2.26825C5.49417 1.75608 4.873 1.5 4.1345 1.5C3.39617 1.5 2.7725 1.75767 2.2635 2.273C1.7545 2.7885 1.5 3.41542 1.5 4.15375V13.1443C1.48967 14.3533 1.90758 15.3814 2.75375 16.2288C3.59992 17.0763 4.6275 17.5 5.8365 17.5C7.02883 17.5 8.04133 17.0763 8.874 16.2288C9.70667 15.3814 10.1332 14.3533 10.1537 13.1443V3.88475H11.6537V13.1443Z" fill="var(--fill-0, #84878C)"/>
</svg>
