<svg preserveAspectRatio="none" width="100%" height="100%" overflow="visible" style="display: block;" viewBox="0 0 20.677 18.6152" fill="none" xmlns="http://www.w3.org/2000/svg">
<path id="Vector" d="M10.2078 18.6152L14.6615 7.11525H16.223L20.677 18.6152H19.0865L17.954 15.5652H12.9307L11.798 18.6152H10.2078ZM2.31725 15.673L1.2635 14.619L6.2365 9.6365C5.65967 9.05317 5.11133 8.36083 4.5915 7.5595C4.0715 6.75817 3.64358 5.94342 3.30775 5.11525H4.898C5.1865 5.72042 5.5375 6.32558 5.951 6.93075C6.3645 7.53575 6.811 8.08633 7.2905 8.5825C8.00067 7.86583 8.67242 6.99567 9.30575 5.972C9.93908 4.94833 10.3866 3.99608 10.6482 3.11525H0V1.61525H6.55775V0H8.05775V1.61525H14.6155V3.11525H12.1673C11.8429 4.23825 11.326 5.41225 10.6165 6.63725C9.90683 7.86225 9.14942 8.87225 8.34425 9.66725L10.8115 12.194L10.2442 13.7345L7.2905 10.7055L2.31725 15.673ZM13.4115 14.2383H17.473L15.4423 8.7825L13.4115 14.2383Z" fill="var(--fill-0, #0C6EBF)"/>
</svg>
