<svg preserveAspectRatio="none" width="100%" height="100%" overflow="visible" style="display: block;" viewBox="0 0 2 9.69233" fill="none" xmlns="http://www.w3.org/2000/svg">
<path id="Vector" d="M1 9.69233C0.725 9.69233 0.489611 9.59439 0.293833 9.3985C0.0979445 9.20272 0 8.96733 0 8.69233C0 8.41733 0.0979445 8.18189 0.293833 7.986C0.489611 7.79022 0.725 7.69233 1 7.69233C1.275 7.69233 1.51039 7.79022 1.70617 7.986C1.90206 8.18189 2 8.41733 2 8.69233C2 8.96733 1.90206 9.20272 1.70617 9.3985C1.51039 9.59439 1.275 9.69233 1 9.69233ZM1 5.84617C0.725 5.84617 0.489611 5.74822 0.293833 5.55233C0.0979445 5.35656 0 5.12117 0 4.84617C0 4.57117 0.0979445 4.33578 0.293833 4.14C0.489611 3.94411 0.725 3.84617 1 3.84617C1.275 3.84617 1.51039 3.94411 1.70617 4.14C1.90206 4.33578 2 4.57117 2 4.84617C2 5.12117 1.90206 5.35656 1.70617 5.55233C1.51039 5.74822 1.275 5.84617 1 5.84617ZM1 2C0.725 2 0.489611 1.90211 0.293833 1.70633C0.0979445 1.51044 0 1.275 0 1C0 0.725 0.0979445 0.489611 0.293833 0.293833C0.489611 0.0979445 0.725 0 1 0C1.275 0 1.51039 0.0979445 1.70617 0.293833C1.90206 0.489611 2 0.725 2 1C2 1.275 1.90206 1.51044 1.70617 1.70633C1.51039 1.90211 1.275 2 1 2Z" fill="var(--fill-0, #84878C)"/>
</svg>
