<svg preserveAspectRatio="none" width="100%" height="100%" overflow="visible" style="display: block;" viewBox="0 0 19 19" fill="none" xmlns="http://www.w3.org/2000/svg">
<path id="Vector" d="M12.973 14.027L14.027 12.973L10.25 9.196V4.5H8.75V9.80375L12.973 14.027ZM9.50175 19C8.18775 19 6.95267 18.7507 5.7965 18.252C4.64033 17.7533 3.63467 17.0766 2.7795 16.2218C1.92433 15.3669 1.24725 14.3617 0.74825 13.206C0.249416 12.0503 0 10.8156 0 9.50175C0 8.18775 0.249333 6.95267 0.748 5.7965C1.24667 4.64033 1.92342 3.63467 2.77825 2.7795C3.63308 1.92433 4.63833 1.24725 5.794 0.74825C6.94967 0.249416 8.18442 0 9.49825 0C10.8123 0 12.0473 0.249333 13.2035 0.748C14.3597 1.24667 15.3653 1.92342 16.2205 2.77825C17.0757 3.63308 17.7528 4.63833 18.2518 5.794C18.7506 6.94967 19 8.18442 19 9.49825C19 10.8123 18.7507 12.0473 18.252 13.2035C17.7533 14.3597 17.0766 15.3653 16.2218 16.2205C15.3669 17.0757 14.3617 17.7528 13.206 18.2518C12.0503 18.7506 10.8156 19 9.50175 19ZM9.5 17.5C11.7167 17.5 13.6042 16.7208 15.1625 15.1625C16.7208 13.6042 17.5 11.7167 17.5 9.5C17.5 7.28333 16.7208 5.39583 15.1625 3.8375C13.6042 2.27917 11.7167 1.5 9.5 1.5C7.28333 1.5 5.39583 2.27917 3.8375 3.8375C2.27917 5.39583 1.5 7.28333 1.5 9.5C1.5 11.7167 2.27917 13.6042 3.8375 15.1625C5.39583 16.7208 7.28333 17.5 9.5 17.5Z" fill="var(--fill-0, #84878C)"/>
</svg>
