<svg preserveAspectRatio="none" width="100%" height="100%" overflow="visible" style="display: block;" viewBox="0 0 11.3333 11.3333" fill="none" xmlns="http://www.w3.org/2000/svg">
<path id="Vector" d="M1.20517 11.3333C0.868389 11.3333 0.583333 11.2167 0.35 10.9833C0.116667 10.75 0 10.4649 0 10.1282V1.20517C0 0.868389 0.116667 0.583333 0.35 0.35C0.583333 0.116667 0.868389 0 1.20517 0H8.19233L11.3333 3.141V10.1282C11.3333 10.4649 11.2167 10.75 10.9833 10.9833C10.75 11.2167 10.4649 11.3333 10.1282 11.3333H1.20517ZM1.20517 10.3333H10.1282C10.1881 10.3333 10.2372 10.3141 10.2757 10.2757C10.3141 10.2372 10.3333 10.1881 10.3333 10.1282V3.66667H7.66667V1H1.20517C1.14528 1 1.09611 1.01922 1.05767 1.05767C1.01922 1.09611 1 1.14528 1 1.20517V10.1282C1 10.1881 1.01922 10.2372 1.05767 10.2757C1.09611 10.3141 1.14528 10.3333 1.20517 10.3333ZM2.5 8.66667H8.83333V7.66667H2.5V8.66667ZM2.5 3.66667H5.66667V2.66667H2.5V3.66667ZM2.5 6.16667H8.83333V5.16667H2.5V6.16667Z" fill="var(--fill-0, #0C6EBF)" fill-opacity="0.5"/>
</svg>
