<svg preserveAspectRatio="none" width="100%" height="100%" overflow="visible" style="display: block;" viewBox="0 0 10 10" fill="none" xmlns="http://www.w3.org/2000/svg">
<path id="Vector" d="M4.5 7.52567V1.92567L2.8565 3.56917L2.15383 2.84617L5 0L7.84617 2.84617L7.1435 3.56917L5.5 1.92567V7.52567H4.5ZM1.20517 10C0.868389 10 0.583333 9.88333 0.35 9.65C0.116667 9.41667 0 9.13161 0 8.79483V6.98717H1V8.79483C1 8.84617 1.02139 8.89317 1.06417 8.93583C1.10683 8.97861 1.15383 9 1.20517 9H8.79483C8.84617 9 8.89317 8.97861 8.93583 8.93583C8.97861 8.89317 9 8.84617 9 8.79483V6.98717H10V8.79483C10 9.13161 9.88333 9.41667 9.65 9.65C9.41667 9.88333 9.13161 10 8.79483 10H1.20517Z" fill="var(--fill-0, #0C6EBF)" fill-opacity="1"/>
</svg>
