<svg preserveAspectRatio="none" width="100%" height="100%" overflow="visible" style="display: block;" viewBox="0 0 10 11.2563" fill="none" xmlns="http://www.w3.org/2000/svg">
<path id="Vector" d="M1.87183 11.2563C1.53506 11.2563 1.25 11.1397 1.01667 10.9063C0.783333 10.673 0.666667 10.3879 0.666667 10.0512V1.58967H0V0.589667H3V0H7V0.589667H10V1.58967H9.33333V10.0512C9.33333 10.3879 9.21667 10.673 8.98333 10.9063C8.75 11.1397 8.46494 11.2563 8.12817 11.2563H1.87183ZM8.33333 1.58967H1.66667V10.0512C1.66667 10.1025 1.68806 10.1495 1.73083 10.1922C1.7735 10.2349 1.8205 10.2563 1.87183 10.2563H8.12817C8.1795 10.2563 8.2265 10.2349 8.26917 10.1922C8.31194 10.1495 8.33333 10.1025 8.33333 10.0512V1.58967Z" fill="var(--fill-0, #EC3A2D)"/>
</svg>
