<svg preserveAspectRatio="none" width="100%" height="100%" overflow="visible" style="display: block;" viewBox="0 0 17 19.1152" fill="none" xmlns="http://www.w3.org/2000/svg">
<path id="Vector" d="M1.80775 19.1152C1.30258 19.1152 0.875 18.9402 0.525 18.5902C0.175 18.2402 0 17.8127 0 17.3075V3.923C0 3.41783 0.175 2.99025 0.525 2.64025C0.875 2.29025 1.30258 2.11525 1.80775 2.11525H3.19225V0H4.73075V2.11525H12.3078V0H13.8078V2.11525H15.1923C15.6974 2.11525 16.125 2.29025 16.475 2.64025C16.825 2.99025 17 3.41783 17 3.923V17.3075C17 17.8127 16.825 18.2402 16.475 18.5902C16.125 18.9402 15.6974 19.1152 15.1923 19.1152H1.80775ZM1.80775 17.6152H15.1923C15.2693 17.6152 15.3398 17.5832 15.4038 17.519C15.4679 17.455 15.5 17.3845 15.5 17.3075V7.923H1.5V17.3075C1.5 17.3845 1.53208 17.455 1.59625 17.519C1.66025 17.5832 1.73075 17.6152 1.80775 17.6152ZM1.5 6.423H15.5V3.923C15.5 3.846 15.4679 3.7755 15.4038 3.7115C15.3398 3.64733 15.2693 3.61525 15.1923 3.61525H1.80775C1.73075 3.61525 1.66025 3.64733 1.59625 3.7115C1.53208 3.7755 1.5 3.846 1.5 3.923V6.423Z" fill="var(--fill-0, #212020)"/>
</svg>
