<svg preserveAspectRatio="none" width="100%" height="100%" overflow="visible" style="display: block;" viewBox="0 0 9.68899 10" fill="none" xmlns="http://www.w3.org/2000/svg">
<path id="Vector" d="M4.43433 10C4.26677 10 4.12661 9.94356 4.01383 9.83067C3.90094 9.71789 3.8445 9.57772 3.8445 9.41017V5.55133L0.112495 0.810333C-0.0157271 0.639333 -0.0343384 0.461556 0.0566616 0.277C0.147773 0.0923333 0.301439 0 0.517662 0H9.17133C9.38755 0 9.54122 0.0923333 9.63233 0.277C9.72333 0.461556 9.70472 0.639333 9.57649 0.810333L5.8445 5.55133V9.41017C5.8445 9.57772 5.78805 9.71789 5.67516 9.83067C5.56238 9.94356 5.42222 10 5.25466 10H4.43433ZM4.8445 5.2L8.1445 1H1.5445L4.8445 5.2Z" fill="var(--fill-0, #ED5A20)"/>
</svg>
