<svg preserveAspectRatio="none" width="100%" height="100%" overflow="visible" style="display: block;" viewBox="0 0 18.423 16.6923" fill="none" xmlns="http://www.w3.org/2000/svg">
<path id="Vector" d="M13.2115 4.5V1.5H5.2115V4.5H3.7115V0H14.7115V4.5H13.2115ZM15.0193 8.5C15.3026 8.5 15.5401 8.40417 15.7318 8.2125C15.9234 8.02083 16.0193 7.78333 16.0193 7.5C16.0193 7.21667 15.9234 6.97917 15.7318 6.7875C15.5401 6.59583 15.3026 6.5 15.0193 6.5C14.7359 6.5 14.4984 6.59583 14.3068 6.7875C14.1151 6.97917 14.0193 7.21667 14.0193 7.5C14.0193 7.78333 14.1151 8.02083 14.3068 8.2125C14.4984 8.40417 14.7359 8.5 15.0193 8.5ZM13.2115 15.1923V10.923H5.2115V15.1923H13.2115ZM14.7115 16.6923H3.7115V12.6923H0V7C0 6.29167 0.242 5.69792 0.726 5.21875C1.21 4.73958 1.80133 4.5 2.5 4.5H15.923C16.6313 4.5 17.2251 4.73958 17.7043 5.21875C18.1834 5.69792 18.423 6.29167 18.423 7V12.6923H14.7115V16.6923ZM16.923 11.1923V7C16.923 6.71667 16.8272 6.47917 16.6355 6.2875C16.4438 6.09583 16.2063 6 15.923 6H2.5C2.21667 6 1.97917 6.09583 1.7875 6.2875C1.59583 6.47917 1.5 6.71667 1.5 7V11.1923H3.7115V9.423H14.7115V11.1923H16.923Z" fill="var(--fill-0, #ED5A20)"/>
</svg>
