<svg preserveAspectRatio="none" width="100%" height="100%" overflow="visible" style="display: block;" viewBox="0 0 19 18" fill="none" xmlns="http://www.w3.org/2000/svg">
<path id="Vector" d="M0 18V16.5H8.75V5.38275C8.2975 5.26475 7.90167 5.041 7.5625 4.7115C7.22333 4.382 6.99158 3.97817 6.86725 3.5H3.55775L6.5 10.6058C6.48083 11.3558 6.15517 11.9936 5.523 12.5192C4.891 13.0449 4.13333 13.3078 3.25 13.3078C2.36667 13.3078 1.609 13.0449 0.977 12.5192C0.345 11.9936 0.0193333 11.3558 0 10.6058L2.94225 3.5H1V2H6.86725C7.02242 1.4295 7.34067 0.953584 7.822 0.57225C8.3035 0.19075 8.86283 0 9.5 0C10.1372 0 10.6965 0.19075 11.178 0.57225C11.6593 0.953584 11.9776 1.4295 12.1328 2H18V3.5H16.0578L19 10.6058C18.9807 11.3558 18.655 11.9936 18.023 12.5192C17.391 13.0449 16.6333 13.3078 15.75 13.3078C14.8667 13.3078 14.109 13.0449 13.477 12.5192C12.8448 11.9936 12.5192 11.3558 12.5 10.6058L15.4423 3.5H12.1328C12.0084 3.97817 11.7767 4.382 11.4375 4.7115C11.0983 5.041 10.7025 5.26475 10.25 5.38275V16.5H19V18H0ZM13.8078 10.5578H17.6923L15.75 5.87125L13.8078 10.5578ZM1.30775 10.5578H5.19225L3.25 5.87125L1.30775 10.5578ZM9.5 4C9.8475 4 10.1427 3.8785 10.3855 3.6355C10.6285 3.39267 10.75 3.0975 10.75 2.75C10.75 2.4025 10.6285 2.10733 10.3855 1.8645C10.1427 1.6215 9.8475 1.5 9.5 1.5C9.1525 1.5 8.85733 1.6215 8.6145 1.8645C8.3715 2.10733 8.25 2.4025 8.25 2.75C8.25 3.0975 8.3715 3.39267 8.6145 3.6355C8.85733 3.8785 9.1525 4 9.5 4Z" fill="var(--fill-0, #0C6EBF)"/>
</svg>
