<svg preserveAspectRatio="none" width="100%" height="100%" overflow="visible" style="display: block;" viewBox="0 0 19.154 15" fill="none" xmlns="http://www.w3.org/2000/svg">
<path id="Vector" d="M15.5385 8.26925V6.76925H19.154V8.26925H15.5385ZM16.6808 15L13.7885 12.8307L14.7 11.6348L17.5923 13.8038L16.6808 15ZM14.6615 3.3655L13.75 2.16925L16.6423 0L17.554 1.19625L14.6615 3.3655ZM2.827 14V10.0963H1.80775C1.30908 10.0963 0.883167 9.91958 0.53 9.56625C0.176667 9.21308 0 8.78717 0 8.2885V6.75C0 6.25133 0.176667 5.82542 0.53 5.47225C0.883167 5.11892 1.30908 4.94225 1.80775 4.94225H5.67325L10.154 2.26925V12.7693L5.67325 10.0963H4.327V14H2.827ZM8.654 10.104V4.9345L6.0885 6.44225H1.80775C1.73092 6.44225 1.66042 6.47433 1.59625 6.5385C1.53208 6.60267 1.5 6.67317 1.5 6.75V8.2885C1.5 8.36533 1.53208 8.43583 1.59625 8.5C1.66042 8.56417 1.73092 8.59625 1.80775 8.59625H6.0885L8.654 10.104ZM11.5385 10.6385V4.4C11.9308 4.75517 12.2468 5.20258 12.4865 5.74225C12.7263 6.28208 12.8463 6.87442 12.8463 7.51925C12.8463 8.16408 12.7263 8.75642 12.4865 9.29625C12.2468 9.83592 11.9308 10.2833 11.5385 10.6385Z" fill="var(--fill-0, #0C6EBF)" fill-opacity="0.5"/>
</svg>
