<svg preserveAspectRatio="none" width="100%" height="100%" overflow="visible" style="display: block;" viewBox="0 0 12.6667 12" fill="none" xmlns="http://www.w3.org/2000/svg">
<path id="Vector" d="M0 12V11H5.83333V3.5885C5.53167 3.50983 5.26778 3.36067 5.04167 3.141C4.81556 2.92133 4.66106 2.65211 4.57817 2.33333H2.37183L4.33333 7.0705C4.32056 7.5705 4.10344 7.99572 3.682 8.34617C3.26067 8.69661 2.75556 8.87183 2.16667 8.87183C1.57778 8.87183 1.07267 8.69661 0.651333 8.34617C0.23 7.99572 0.0128889 7.5705 0 7.0705L1.9615 2.33333H0.666667V1.33333H4.57817C4.68161 0.953 4.89378 0.635722 5.21467 0.3815C5.53567 0.127167 5.90856 0 6.33333 0C6.75811 0 7.131 0.127167 7.452 0.3815C7.77289 0.635722 7.98506 0.953 8.0885 1.33333H12V2.33333H10.7052L12.6667 7.0705C12.6538 7.5705 12.4367 7.99572 12.0153 8.34617C11.594 8.69661 11.0889 8.87183 10.5 8.87183C9.91111 8.87183 9.406 8.69661 8.98467 8.34617C8.56322 7.99572 8.34611 7.5705 8.33333 7.0705L10.2948 2.33333H8.0885C8.00561 2.65211 7.85111 2.92133 7.625 3.141C7.39889 3.36067 7.135 3.50983 6.83333 3.5885V11H12.6667V12H0ZM9.20517 7.0385H11.7948L10.5 3.91417L9.20517 7.0385ZM0.871833 7.0385H3.4615L2.16667 3.91417L0.871833 7.0385ZM6.33333 2.66667C6.565 2.66667 6.76178 2.58567 6.92367 2.42367C7.08567 2.26178 7.16667 2.065 7.16667 1.83333C7.16667 1.60167 7.08567 1.40489 6.92367 1.243C6.76178 1.081 6.565 1 6.33333 1C6.10167 1 5.90489 1.081 5.743 1.243C5.581 1.40489 5.5 1.60167 5.5 1.83333C5.5 2.065 5.581 2.26178 5.743 2.42367C5.90489 2.58567 6.10167 2.66667 6.33333 2.66667Z" fill="var(--fill-0, #0C6EBF)" fill-opacity="0.5"/>
</svg>
