<svg preserveAspectRatio="none" width="100%" height="100%" overflow="visible" style="display: block;" viewBox="0 0 12.7693 10" fill="none" xmlns="http://www.w3.org/2000/svg">
<path id="Vector" d="M10.359 5.51283V4.51283H12.7693V5.51283H10.359ZM11.1205 10L9.19233 8.55383L9.8 7.7565L11.7282 9.2025L11.1205 10ZM9.77433 2.24367L9.16667 1.44617L11.0948 0L11.7027 0.797501L9.77433 2.24367ZM1.88467 9.33333V6.73083H1.20517C0.872722 6.73083 0.588778 6.61306 0.353333 6.3775C0.117778 6.14206 0 5.85811 0 5.52567V4.5C0 4.16756 0.117778 3.88361 0.353333 3.64817C0.588778 3.41261 0.872722 3.29483 1.20517 3.29483H3.78217L6.76933 1.51283V8.51283L3.78217 6.73083H2.88467V9.33333H1.88467ZM5.76933 6.736V3.28967L4.059 4.29483H1.20517C1.15394 4.29483 1.10694 4.31622 1.06417 4.359C1.02139 4.40178 1 4.44878 1 4.5V5.52567C1 5.57689 1.02139 5.62389 1.06417 5.66667C1.10694 5.70945 1.15394 5.73083 1.20517 5.73083H4.059L5.76933 6.736ZM7.69233 7.09233V2.93333C7.95389 3.17011 8.16456 3.46839 8.32433 3.82817C8.48422 4.18806 8.56417 4.58295 8.56417 5.01283C8.56417 5.44272 8.48422 5.83761 8.32433 6.1975C8.16456 6.55728 7.95389 6.85556 7.69233 7.09233Z" fill="var(--fill-0, white)" fill-opacity="0.5"/>
</svg>
