<svg preserveAspectRatio="none" width="100%" height="100%" overflow="visible" style="display: block;" viewBox="0 0 11.3333 12.7435" fill="none" xmlns="http://www.w3.org/2000/svg">
<path id="Vector" d="M1.20517 12.7435C0.868389 12.7435 0.583333 12.6268 0.35 12.3935C0.116667 12.1602 0 11.8751 0 11.5383V2.61533C0 2.27856 0.116667 1.9935 0.35 1.76017C0.583333 1.52683 0.868389 1.41017 1.20517 1.41017H2.12817V0H3.15383V1.41017H8.20517V0H9.20517V1.41017H10.1282C10.4649 1.41017 10.75 1.52683 10.9833 1.76017C11.2167 1.9935 11.3333 2.27856 11.3333 2.61533V11.5383C11.3333 11.8751 11.2167 12.1602 10.9833 12.3935C10.75 12.6268 10.4649 12.7435 10.1282 12.7435H1.20517ZM1.20517 11.7435H10.1282C10.1795 11.7435 10.2265 11.7221 10.2692 11.6793C10.3119 11.6367 10.3333 11.5897 10.3333 11.5383V5.282H1V11.5383C1 11.5897 1.02139 11.6367 1.06417 11.6793C1.10683 11.7221 1.15383 11.7435 1.20517 11.7435ZM1 4.282H10.3333V2.61533C10.3333 2.564 10.3119 2.517 10.2692 2.47433C10.2265 2.43156 10.1795 2.41017 10.1282 2.41017H1.20517C1.15383 2.41017 1.10683 2.43156 1.06417 2.47433C1.02139 2.517 1 2.564 1 2.61533V4.282Z" fill="var(--fill-0, white)" fill-opacity="0.5"/>
</svg>
