<svg preserveAspectRatio="none" width="100%" height="100%" overflow="visible" style="display: block;" viewBox="0 0 36.75 31.3037" fill="none" xmlns="http://www.w3.org/2000/svg">
<g id="Union">
<path fill-rule="evenodd" clip-rule="evenodd" d="M17.9927 13.8926H7.20483V3.0813H11.8857L17.9927 13.8926ZM9.48706 11.6111H14.083L10.5542 5.36279H9.48706V11.6111Z" fill="var(--fill-0, #84878C)" fill-opacity="0.8"/>
<path fill-rule="evenodd" clip-rule="evenodd" d="M13.3542 0.18457L23.3606 17.1482V3.7207H25.6421V21.939H36.75V24.2212H26.1475C26.2948 24.7174 26.3745 25.2425 26.3745 25.7856C26.3744 28.8287 23.8988 31.3037 20.8557 31.3037C17.9388 31.3035 15.5451 29.0293 15.3516 26.1606H11.0229C10.8294 29.0294 8.43509 31.3037 5.51807 31.3037C2.47507 31.3036 9.05469e-05 28.8287 0 25.7856C0 24.7884 0.266859 23.8518 0.731689 23.0435V18.5061L0.736816 18.3186C0.834789 16.393 2.43159 14.8572 4.38135 14.8572H4.64502V0H13.2451L13.3542 0.18457ZM5.51807 22.5491C3.73411 22.5492 2.28223 24.0015 2.28223 25.7856L2.28662 25.9519C2.37356 27.6589 3.78985 29.0214 5.51807 29.0215C7.30224 29.0215 8.75463 27.5695 8.75464 25.7856C8.75464 24.0015 7.30213 22.5491 5.51807 22.5491ZM20.8564 22.5491C19.0724 22.5491 17.6199 24.0015 17.6199 25.7856L17.6243 25.9519C17.7112 27.6589 19.1281 29.0215 20.8564 29.0215L21.0227 29.0171C22.7297 28.9301 24.0923 27.5137 24.0923 25.7856C24.0923 24.0573 22.7297 22.6405 21.0227 22.5535L20.8564 22.5491ZM6.92651 17.1387H4.38135C3.6277 17.1387 3.01394 17.7527 3.01392 18.5061V20.8689C3.76585 20.4843 4.61727 20.2669 5.51807 20.2668C7.89195 20.2668 9.91782 21.7733 10.6956 23.8784H15.6782C16.4559 21.7733 18.482 20.2669 20.8557 20.2668C21.5234 20.2668 22.1639 20.3868 22.7571 20.6052L11.9451 2.28223H6.92651V17.1387Z" fill="var(--fill-0, #84878C)" fill-opacity="0.8"/>
<path fill-rule="evenodd" clip-rule="evenodd" d="M34.8611 13.2576C35.7695 13.2576 36.5076 13.9957 36.5076 14.9041V19.894C36.5076 20.8023 35.7696 21.5405 34.8611 21.5405H27.8254C26.9171 21.5405 26.179 20.8023 26.179 19.894V14.9041C26.179 13.9958 26.9171 13.2576 27.8254 13.2576H34.8611ZM28.4604 19.259H34.2261V15.5391H28.4604V19.259Z" fill="var(--fill-0, #84878C)" fill-opacity="0.8"/>
<path fill-rule="evenodd" clip-rule="evenodd" d="M34.8611 4.78418C35.7695 4.78418 36.5076 5.52238 36.5076 6.43066V11.4207C36.5076 12.3289 35.7696 13.0671 34.8611 13.0671H27.8254C26.9171 13.0671 26.179 12.3289 26.179 11.4207V6.43066C26.179 5.52238 26.9171 4.78418 27.8254 4.78418H34.8611ZM28.4604 10.7856H34.2261V7.06567H28.4604V10.7856Z" fill="var(--fill-0, #84878C)" fill-opacity="0.8"/>
</g>
</svg>
