<svg preserveAspectRatio="none" width="100%" height="100%" overflow="visible" style="display: block;" viewBox="0 0 19 17" fill="none" xmlns="http://www.w3.org/2000/svg">
<path id="Vector" d="M5.25 11.096H6.44225V7.59625H5.25V8.75H3.75V9.94225H5.25V11.096ZM7.44225 9.94225H15.25V8.75H7.44225V9.94225ZM12.5578 7.40375H13.75V6.25H15.25V5.05775H13.75V3.904H12.5578V7.40375ZM3.75 6.25H11.5578V5.05775H3.75V6.25ZM6 17V15H1.80775C1.30258 15 0.875 14.825 0.525 14.475C0.175 14.125 0 13.6974 0 13.1923V1.80775C0 1.30258 0.175 0.875 0.525 0.525C0.875 0.175 1.30258 0 1.80775 0H17.1923C17.6974 0 18.125 0.175 18.475 0.525C18.825 0.875 19 1.30258 19 1.80775V13.1923C19 13.6974 18.825 14.125 18.475 14.475C18.125 14.825 17.6974 15 17.1923 15H13V17H6ZM1.80775 13.5H17.1923C17.2693 13.5 17.3398 13.4679 17.4038 13.4038C17.4679 13.3398 17.5 13.2693 17.5 13.1923V1.80775C17.5 1.73075 17.4679 1.66025 17.4038 1.59625C17.3398 1.53208 17.2693 1.5 17.1923 1.5H1.80775C1.73075 1.5 1.66025 1.53208 1.59625 1.59625C1.53208 1.66025 1.5 1.73075 1.5 1.80775V13.1923C1.5 13.2693 1.53208 13.3398 1.59625 13.4038C1.66025 13.4679 1.73075 13.5 1.80775 13.5Z" fill="var(--fill-0, #8FB93A)"/>
</svg>
