<svg preserveAspectRatio="none" width="100%" height="100%" overflow="visible" style="display: block;" viewBox="0 0 36.4937 36.4937" fill="none" xmlns="http://www.w3.org/2000/svg">
<path id="Union" fill-rule="evenodd" clip-rule="evenodd" d="M20.8813 0C26.2142 0.000189445 30.6032 4.03587 31.1638 9.21973H33.9507L34.262 7.50879C34.3732 6.89762 34.9589 6.49241 35.5701 6.60352C36.1813 6.71471 36.5865 7.30037 36.4753 7.91162L33.8416 22.3989C33.7561 22.8689 33.3831 23.2343 32.9114 23.3093L9.73096 26.9971C9.71859 26.999 9.70603 27.0006 9.6936 27.0022C9.21776 27.0617 8.83522 27.4919 8.83521 27.9932C8.83522 28.5571 9.25344 28.9753 9.81738 28.9753H32.7349C33.356 28.9755 33.8598 29.4792 33.8599 30.1003C33.8599 30.7216 33.3561 31.2252 32.7349 31.2253H32.2266C32.4293 31.6872 32.5422 32.1974 32.5422 32.7341C32.5422 34.8103 30.8588 36.4937 28.7827 36.4937C26.7069 36.4933 25.0239 34.81 25.0239 32.7341C25.024 32.1974 25.1376 31.6872 25.3403 31.2253H15.1047C15.3075 31.6872 15.4203 32.1974 15.4204 32.7341C15.4204 34.8103 13.737 36.4937 11.6609 36.4937C9.58503 36.4933 7.9021 34.8101 7.9021 32.7341C7.90219 32.0668 8.07684 31.4404 8.38184 30.8972C7.31067 30.3753 6.58522 29.2815 6.58521 27.9932C6.58522 26.3995 7.76495 24.9956 9.3772 24.7749L10.385 24.6145L5.33569 10.7285C5.3329 10.7208 5.33099 10.7128 5.32837 10.7051C5.32103 10.6834 5.31463 10.6614 5.30859 10.6392C5.30475 10.625 5.30089 10.6109 5.29761 10.5967C5.29289 10.5761 5.28873 10.5554 5.28516 10.5344C5.28185 10.5152 5.27866 10.4959 5.27637 10.4766C5.27418 10.4579 5.27323 10.4391 5.27197 10.4202C5.27073 10.4018 5.26939 10.3836 5.26904 10.3652C5.26892 10.3584 5.26831 10.3516 5.26831 10.3447C5.26831 10.3296 5.26992 10.3143 5.27051 10.2993C5.27118 10.2825 5.27127 10.2656 5.27271 10.2488C5.27453 10.2271 5.27772 10.2057 5.28076 10.1843C5.2834 10.166 5.286 10.1476 5.28955 10.1294C5.29366 10.1082 5.29818 10.0872 5.30347 10.0664C5.30709 10.0522 5.311 10.038 5.31519 10.0239C5.32489 9.99123 5.33635 9.95935 5.34888 9.92798C5.35051 9.92389 5.35159 9.9196 5.35327 9.91553C5.36897 9.8775 5.38566 9.84 5.40527 9.8042L6.43579 7.8728C7.39318 5.84153 5.94039 3.56689 3.75879 3.56689H1.125C0.50368 3.56689 0 3.06321 0 2.44189C2.89936e-05 1.8206 0.503698 1.31689 1.125 1.31689H3.75879C7.63134 1.31689 10.1275 5.35469 8.4624 8.85205C8.45507 8.86745 8.44699 8.88314 8.43896 8.89819L8.26758 9.21973H10.5974C11.158 4.03615 15.5475 0.00139026 20.8799 0.000732422L20.8813 0ZM11.6609 31.2253C10.8278 31.2257 10.1524 31.9011 10.1521 32.7341C10.1521 33.5674 10.8277 34.2433 11.6609 34.2437C12.4944 34.2437 13.1704 33.5676 13.1704 32.7341C13.1701 31.9009 12.4942 31.2253 11.6609 31.2253ZM28.7827 31.2253C27.9497 31.2257 27.2742 31.9011 27.2739 32.7341C27.2739 33.5674 27.9496 34.2433 28.7827 34.2437C29.6162 34.2437 30.2922 33.5676 30.2922 32.7341C30.292 31.9009 29.616 31.2253 28.7827 31.2253ZM7.99878 11.4697L12.6482 24.2542L31.7695 21.2124L33.5413 11.4697H31.1638C30.603 16.6533 26.214 20.6885 20.8813 20.6887C15.5485 20.6887 11.1583 16.6534 10.5974 11.4697H7.99878ZM22.0056 11.5796L24.0366 9.54932C24.476 9.10998 25.1888 9.10998 25.6282 9.54932C26.067 9.98863 26.0672 10.7009 25.6282 11.1401L21.6768 15.0916C21.6333 15.135 21.5859 15.1724 21.5376 15.2073C21.5271 15.2148 21.5169 15.2228 21.5061 15.23C21.4211 15.287 21.3302 15.3305 21.2358 15.3618C21.2273 15.3647 21.2189 15.368 21.2102 15.3706C21.1901 15.3767 21.1698 15.3817 21.1494 15.3867C21.1331 15.3907 21.1169 15.3952 21.1003 15.3984C21.0799 15.4025 21.0594 15.4051 21.0388 15.408C21.0235 15.4101 21.0082 15.413 20.9927 15.4146C20.9554 15.4182 20.918 15.4197 20.8806 15.4197C20.8769 15.4197 20.8733 15.4197 20.8696 15.4197C20.8364 15.4193 20.8032 15.4178 20.77 15.4146C20.7517 15.4128 20.7338 15.4091 20.7158 15.4065C20.6975 15.4038 20.6791 15.4021 20.6609 15.3984C20.642 15.3947 20.6237 15.3892 20.6052 15.3845C20.5881 15.3802 20.5709 15.3765 20.554 15.3713C20.5403 15.3672 20.5271 15.3621 20.5137 15.3574C20.4906 15.3495 20.4674 15.342 20.4448 15.3325C20.4406 15.3307 20.4366 15.3285 20.4324 15.3267C20.4031 15.3139 20.3742 15.3002 20.3459 15.2849C20.3351 15.2791 20.325 15.2721 20.3145 15.2659C20.2958 15.255 20.2769 15.2443 20.2588 15.2322C20.2414 15.2206 20.2249 15.208 20.2083 15.1956C20.1659 15.1638 20.1244 15.13 20.0859 15.0916L16.1345 11.1401C15.6952 10.7008 15.6953 9.98866 16.1345 9.54932C16.5739 9.10998 17.286 9.10998 17.7253 9.54932L19.7556 11.5796V2.3291C15.818 2.87703 12.7866 6.25627 12.7866 10.3447C12.7868 14.815 16.411 18.4387 20.8813 18.4387C25.3515 18.4385 28.9752 14.8149 28.9753 10.3447C28.9753 6.25596 25.9436 2.87664 22.0056 2.3291V11.5796Z" fill="var(--fill-0, #84878C)" fill-opacity="0.8"/>
</svg>
