<svg preserveAspectRatio="none" width="100%" height="100%" overflow="visible" style="display: block;" viewBox="0 0 17 17" fill="none" xmlns="http://www.w3.org/2000/svg">
<path id="Vector" d="M4.19225 17V15.5H7.75V12.073C6.90133 11.9025 6.15133 11.5455 5.5 11.002C4.84867 10.4583 4.38583 9.78075 4.1115 8.96925C2.95767 8.83208 1.984 8.34233 1.1905 7.5C0.396833 6.65767 0 5.65767 0 4.5V3.5C0 3.091 0.14775 2.73875 0.44325 2.44325C0.73875 2.14775 1.091 2 1.5 2H3.827V0H13.173V2H15.5C15.909 2 16.2613 2.14775 16.5568 2.44325C16.8523 2.73875 17 3.091 17 3.5V4.5C17 5.65767 16.6032 6.65767 15.8095 7.5C15.016 8.34233 14.0423 8.83208 12.8885 8.96925C12.6142 9.78075 12.1513 10.4583 11.5 11.002C10.8487 11.5455 10.0987 11.9025 9.25 12.073V15.5H12.8078V17H4.19225ZM3.827 7.35775V3.5H1.5V4.5C1.5 5.1975 1.71858 5.81 2.15575 6.3375C2.59292 6.865 3.15 7.20508 3.827 7.35775ZM8.5 10.6348C9.37817 10.6348 10.1233 10.3286 10.7355 9.71625C11.3477 9.10408 11.6538 8.35892 11.6538 7.48075V1.5H5.34625V7.48075C5.34625 8.35892 5.65233 9.10408 6.2645 9.71625C6.87667 10.3286 7.62183 10.6348 8.5 10.6348ZM13.173 7.35775C13.85 7.20508 14.4071 6.865 14.8443 6.3375C15.2814 5.81 15.5 5.1975 15.5 4.5V3.5H13.173V7.35775Z" fill="var(--fill-0, #0C6EBF)"/>
</svg>
