<svg xmlns="http://www.w3.org/2000/svg">
  <symbol id="icon-chevron" viewBox="0 0 24 24">
    <path d="M15 18 9 12l6-6" fill="none" stroke="currentColor" stroke-width="1.8" stroke-linecap="round" stroke-linejoin="round"/>
  </symbol>
  <symbol id="icon-nav-chevron" viewBox="0 0 24 24">
    <g transform="translate(8.347 6.346)">
      <path d="M4.6 5.65375L0 1.05375L1.05375 0L6.7075 5.65375L1.05375 11.3075L0 10.2538L4.6 5.65375Z" fill="currentColor"/>
    </g>
  </symbol>
  <symbol id="icon-nav-widget" viewBox="0 0 24 24">
    <g transform="translate(3.5 5.5)">
      <path d="M0 11.1923V1.80775C0 1.31058 0.18075 0.885 0.54225 0.531C0.903917 0.177 1.33858 0 1.84625 0H15.1538C15.6614 0 16.0961 0.177 16.4578 0.531C16.8193 0.885 17 1.31058 17 1.80775V11.1923C17 11.6894 16.8193 12.115 16.4578 12.469C16.0961 12.823 15.6614 13 15.1538 13H1.84625C1.33858 13 0.903917 12.823 0.54225 12.469C0.18075 12.115 0 11.6894 0 11.1923ZM6.63275 5.75H15.5V1.80775C15.5 1.73075 15.4648 1.66025 15.3943 1.59625C15.3238 1.53208 15.2436 1.5 15.1538 1.5H6.63275V5.75ZM11.8193 11.5H15.1538C15.2436 11.5 15.3238 11.4679 15.3943 11.4038C15.4648 11.3398 15.5 11.2693 15.5 11.1923V7.25H11.8193V11.5ZM6.63275 11.5H10.3193V7.25H6.63275V11.5ZM1.84625 11.5H5.13275V1.5H1.84625C1.75642 1.5 1.67625 1.53208 1.60575 1.59625C1.53525 1.66025 1.5 1.73075 1.5 1.80775V11.1923C1.5 11.2693 1.53525 11.3398 1.60575 11.4038C1.67625 11.4679 1.75642 11.5 1.84625 11.5Z" fill="currentColor"/>
    </g>
  </symbol>
  <symbol id="icon-nav-email" viewBox="0 0 24 24">
    <g transform="translate(2.5 4.5)">
      <path d="M1.80775 15C1.30258 15 0.875 14.825 0.525 14.475C0.175 14.125 0 13.6974 0 13.1923V1.80775C0 1.30258 0.175 0.875 0.525 0.525C0.875 0.175 1.30258 0 1.80775 0H17.1923C17.6974 0 18.125 0.175 18.475 0.525C18.825 0.875 19 1.30258 19 1.80775V13.1923C19 13.6974 18.825 14.125 18.475 14.475C18.125 14.825 17.6974 15 17.1923 15H1.80775ZM9.5 8.05775L1.5 2.94225V13.1923C1.5 13.2821 1.52883 13.3558 1.5865 13.4135C1.64417 13.4712 1.71792 13.5 1.80775 13.5H17.1923C17.2821 13.5 17.3558 13.4712 17.4135 13.4135C17.4712 13.3558 17.5 13.2821 17.5 13.1923V2.94225L9.5 8.05775ZM9.5 6.5L17.3462 1.5H1.65375L9.5 6.5ZM1.5 2.94225V1.5V13.1923C1.5 13.2821 1.52883 13.3558 1.5865 13.4135C1.64417 13.4712 1.71792 13.5 1.80775 13.5H1.5V2.94225Z" fill="currentColor"/>
    </g>
  </symbol>
  <symbol id="icon-nav-docs" viewBox="0 0 24 24">
    <g transform="translate(3.5 3.5)">
      <path d="M1.80775 17C1.30258 17 0.875 16.825 0.525 16.475C0.175 16.125 0 15.6974 0 15.1923V1.80775C0 1.30258 0.175 0.875 0.525 0.525C0.875 0.175 1.30258 0 1.80775 0H12.2885L17 4.7115V15.1923C17 15.6974 16.825 16.125 16.475 16.475C16.125 16.825 15.6974 17 15.1923 17H1.80775ZM1.80775 15.5H15.1923C15.2821 15.5 15.3558 15.4712 15.4135 15.4135C15.4712 15.3558 15.5 15.2821 15.5 15.1923V5.5H11.5V1.5H1.80775C1.71792 1.5 1.64417 1.52883 1.5865 1.5865C1.52883 1.64417 1.5 1.71792 1.5 1.80775V15.1923C1.5 15.2821 1.52883 15.3558 1.5865 15.4135C1.64417 15.4712 1.71792 15.5 1.80775 15.5ZM3.75 13H13.25V11.5H3.75V13ZM3.75 5.5H8.5V4H3.75V5.5ZM3.75 9.25H13.25V7.75H3.75V9.25Z" fill="currentColor"/>
    </g>
  </symbol>
  <symbol id="icon-nav-sliders" viewBox="0 0 24 24">
    <g transform="translate(1.5 1.5)">
      <path d="M1.952 21V16.6845C1.38783 16.5102 0.9215 16.1912 0.553 15.7277C0.184333 15.2644 0 14.7234 0 14.1048V4.5865H1.952V0.75C1.952 0.5375 2.02392 0.359417 2.16775 0.21575C2.31158 0.0719168 2.48975 0 2.70225 0C2.91492 0 3.093 0.0719168 3.2365 0.21575C3.38017 0.359417 3.452 0.5375 3.452 0.75V4.5865H5.40375V14.1048C5.40375 14.7234 5.2195 15.2644 4.851 15.7277C4.48233 16.1912 4.016 16.5102 3.452 16.6845V21H1.952ZM9.75 21V16.6845C9.18583 16.5102 8.7195 16.1912 8.351 15.7277C7.98233 15.2644 7.798 14.7234 7.798 14.1048V4.5865H9.75V0.75C9.75 0.5375 9.82192 0.359417 9.96575 0.21575C10.1096 0.0719168 10.2878 0 10.5003 0C10.7129 0 10.891 0.0719168 11.0345 0.21575C11.1782 0.359417 11.25 0.5375 11.25 0.75V4.5865H13.202V14.1048C13.202 14.7234 13.0177 15.2644 12.649 15.7277C12.2805 16.1912 11.8142 16.5102 11.25 16.6845V21H9.75ZM17.548 21V16.6845C16.984 16.5102 16.5177 16.1912 16.149 15.7277C15.7805 15.2644 15.5962 14.7234 15.5962 14.1048V4.5865H17.548V0.75C17.548 0.5375 17.6199 0.359417 17.7637 0.21575C17.9076 0.0719168 18.0858 0 18.2985 0C18.511 0 18.6891 0.0719168 18.8328 0.21575C18.9763 0.359417 19.048 0.5375 19.048 0.75V4.5865H21V14.1048C21 14.7234 20.8157 15.2644 20.447 15.7277C20.0785 16.1912 19.6122 16.5102 19.048 16.6845V21H17.548ZM1.5 6.0865V10.4328H3.904V6.0865H1.5ZM9.298 6.0865V10.4328H11.702V6.0865H9.298ZM17.096 6.0865V10.4328H19.5V6.0865H17.096ZM2.702 15.3078C3.0365 15.3078 3.32042 15.1925 3.55375 14.962C3.78725 14.7317 3.904 14.4462 3.904 14.1057V11.9328H1.5V14.1057C1.5 14.4462 1.61667 14.7317 1.85 14.962C2.08333 15.1925 2.36733 15.3078 2.702 15.3078ZM10.5 15.3078C10.8347 15.3078 11.1187 15.1925 11.352 14.962C11.5853 14.7317 11.702 14.4462 11.702 14.1057V11.9328H9.298V14.1057C9.298 14.4462 9.41467 14.7317 9.648 14.962C9.88133 15.1925 10.1653 15.3078 10.5 15.3078ZM18.298 15.3078C18.6327 15.3078 18.9167 15.1925 19.15 14.962C19.3833 14.7317 19.5 14.4462 19.5 14.1057V11.9328H17.096V14.1057C17.096 14.4462 17.2127 14.7317 17.4462 14.962C17.6796 15.1925 17.9635 15.3078 18.298 15.3078Z" fill="currentColor"/>
    </g>
  </symbol>
  <symbol id="icon-nav-stats" viewBox="0 0 24 24">
    <g transform="translate(2.5 3.5)">
      <path d="M1.5 15.5H5.8365V7.5H1.5V15.5ZM7.3365 15.5H11.6635V1.5H7.3365V15.5ZM13.1635 15.5H17.5V9.5H13.1635V15.5ZM0 17V6H5.8365V0H13.1635V8H19V17H0Z" fill="currentColor"/>
    </g>
  </symbol>
  <symbol id="icon-nav-verify" viewBox="0 0 24 24">
    <g transform="translate(1.673 2.135)">
      <path d="M7.13825 19.7305L5.35375 16.723L1.96525 15.9805L2.296 12.4922L0 9.86525L2.296 7.23825L1.96525 3.75L5.35375 3.0075L7.13825 0L10.3268 1.35375L13.5153 0L15.2998 3.0075L18.6883 3.75L18.3575 7.23825L20.6535 9.86525L18.3575 12.4922L18.6883 15.9805L15.2998 16.723L13.5153 19.7305L10.3268 18.3768L7.13825 19.7305ZM7.77675 17.8152L10.3268 16.7345L12.9075 17.8152L14.3268 15.4152L17.0768 14.7845L16.8268 11.9652L18.6768 9.86525L16.8268 7.7345L17.0768 4.91525L14.3268 4.31525L12.8768 1.91525L10.3268 2.996L7.746 1.91525L6.32675 4.31525L3.57675 4.91525L3.82675 7.7345L1.97675 9.86525L3.82675 11.9652L3.57675 14.8152L6.32675 15.4152L7.77675 17.8152ZM9.27675 13.069L14.5805 7.76525L13.5268 6.68075L9.27675 10.9307L7.12675 8.8115L6.073 9.86525L9.27675 13.069Z" fill="currentColor"/>
    </g>
  </symbol>
  <symbol id="icon-nav-template" viewBox="0 0 24 24">
    <g transform="translate(3.5 2.548)">
      <path d="M7.75 17.0213V9.88275L1.5 6.2635V13.229C1.5 13.2802 1.51283 13.3283 1.5385 13.3733C1.56417 13.4181 1.60258 13.4565 1.65375 13.4885L7.75 17.0213ZM9.25 17.0213L15.3462 13.4885C15.3974 13.4565 15.4358 13.4181 15.4615 13.3733C15.4872 13.3283 15.5 13.2802 15.5 13.229V6.2635L9.25 9.88275V17.0213ZM8.5 8.5905L14.675 5.02125L8.65375 1.5385C8.60258 1.5065 8.55133 1.4905 8.5 1.4905C8.44867 1.4905 8.39742 1.5065 8.34625 1.5385L2.325 5.02125L8.5 8.5905ZM0.904 14.8057C0.619333 14.6417 0.3975 14.4226 0.2385 14.1483C0.0794998 13.8738 0 13.5724 0 13.2443V5.65975C0 5.33158 0.0794998 5.03025 0.2385 4.75575C0.3975 4.48142 0.619333 4.26225 0.904 4.09825L7.59625 0.246251C7.88075 0.0820843 8.182 0 8.5 0C8.818 0 9.11925 0.0820843 9.40375 0.246251L16.096 4.09825C16.3807 4.26225 16.6025 4.48142 16.7615 4.75575C16.9205 5.03025 17 5.33158 17 5.65975V13.2443C17 13.5724 16.9205 13.8738 16.7615 14.1483C16.6025 14.4226 16.3807 14.6417 16.096 14.8057L9.40375 18.6578C9.11925 18.8219 8.818 18.904 8.5 18.904C8.182 18.904 7.88075 18.8219 7.59625 18.6578L0.904 14.8057Z" fill="currentColor"/>
    </g>
  </symbol>
  <symbol id="icon-template-advertising" viewBox="0 0 24 24">
    <g transform="translate(2.423 4.48)">
      <path d="M15.5385 8.26925V6.76925H19.154V8.26925H15.5385ZM16.6808 15L13.7885 12.8307L14.7 11.6348L17.5923 13.8038L16.6808 15ZM14.6615 3.3655L13.75 2.16925L16.6423 0L17.554 1.19625L14.6615 3.3655ZM2.827 14V10.0963H1.80775C1.30908 10.0963 0.883167 9.91958 0.53 9.56625C0.176667 9.21308 0 8.78717 0 8.2885V6.75C0 6.25133 0.176667 5.82542 0.53 5.47225C0.883167 5.11892 1.30908 4.94225 1.80775 4.94225H5.67325L10.154 2.26925V12.7693L5.67325 10.0963H4.327V14H2.827ZM8.654 10.104V4.9345L6.0885 6.44225H1.80775C1.73092 6.44225 1.66042 6.47433 1.59625 6.5385C1.53208 6.60267 1.5 6.67317 1.5 6.75V8.2885C1.5 8.36533 1.53208 8.43583 1.59625 8.5C1.66042 8.56417 1.73092 8.59625 1.80775 8.59625H6.0885L8.654 10.104ZM11.5385 10.6385V4.4C11.9308 4.75517 12.2468 5.20258 12.4865 5.74225C12.7263 6.28208 12.8463 6.87442 12.8463 7.51925C12.8463 8.16408 12.7263 8.75642 12.4865 9.29625C12.2468 9.83592 11.9308 10.2833 11.5385 10.6385Z" fill="currentColor"/>
    </g>
  </symbol>
  <symbol id="icon-nav-burger" viewBox="0 0 24 24">
    <g transform="translate(3.5 6.365)">
      <path d="M0 11.269V9.76925H17V11.269H0ZM0 6.3845V4.8845H17V6.3845H0ZM0 1.49975V0H17V1.49975H0Z" fill="currentColor"/>
    </g>
  </symbol>
  <symbol id="icon-nav-money" viewBox="0 0 24 24">
    <g transform="translate(1.846 4.615)">
      <path d="M11.9038 8.096C11.2051 8.096 10.6138 7.854 10.1298 7.37C9.64575 6.886 9.40375 6.29467 9.40375 5.596C9.40375 4.89733 9.64575 4.306 10.1298 3.822C10.6138 3.338 11.2051 3.096 11.9038 3.096C12.6024 3.096 13.1938 3.338 13.6778 3.822C14.1618 4.306 14.4038 4.89733 14.4038 5.596C14.4038 6.29467 14.1618 6.886 13.6778 7.37C13.1938 7.854 12.6024 8.096 11.9038 8.096ZM5.3075 11.1923C4.8105 11.1923 4.385 11.0153 4.031 10.6613C3.677 10.3073 3.5 9.88167 3.5 9.3845V1.8075C3.5 1.3105 3.677 0.885 4.031 0.531C4.385 0.177 4.8105 0 5.3075 0H18.4998C18.9969 0 19.4225 0.177 19.7765 0.531C20.1305 0.885 20.3075 1.3105 20.3075 1.8075V9.3845C20.3075 9.88167 20.1305 10.3073 19.7765 10.6613C19.4225 11.0153 18.9969 11.1923 18.4998 11.1923H5.3075ZM6.8075 9.69225H17C17 9.19358 17.177 8.76758 17.531 8.41425C17.885 8.06108 18.3105 7.8845 18.8075 7.8845V3.3075C18.3088 3.3075 17.8829 3.1305 17.5298 2.7765C17.1766 2.4225 17 1.997 17 1.5H6.8075C6.8075 1.99867 6.6305 2.42458 6.2765 2.77775C5.9225 3.13092 5.497 3.3075 5 3.3075V7.8845C5.49867 7.8845 5.92458 8.0615 6.27775 8.4155C6.63092 8.7695 6.8075 9.19508 6.8075 9.69225ZM17.3268 14.6923H1.80775C1.31058 14.6923 0.885 14.5153 0.531 14.1613C0.177 13.8073 0 13.3817 0 12.8845V2.98075H1.5V12.8845C1.5 12.9613 1.532 13.0318 1.596 13.096C1.66017 13.1602 1.73075 13.1923 1.80775 13.1923H17.3268V14.6923ZM5.3075 9.69225H5V1.5H5.3075C5.22417 1.5 5.15208 1.53042 5.09125 1.59125C5.03042 1.65208 5 1.72417 5 1.8075V9.3845C5 9.46783 5.03042 9.53992 5.09125 9.60075C5.15208 9.66175 5.22417 9.69225 5.3075 9.69225Z" fill="currentColor"/>
    </g>
  </symbol>
  <symbol id="icon-nav-memory" viewBox="0 0 24 24">
    <g transform="translate(3.731 3.731)">
      <path d="M5.76925 10.7693V5.76925H10.7693V10.7693H5.76925ZM7.26925 9.26925H9.26925V7.26925H7.26925V9.26925ZM5.51925 16.5385V14.7693H3.577C3.07183 14.7693 2.64425 14.5943 2.29425 14.2443C1.94425 13.8943 1.76925 13.4667 1.76925 12.9615V11.0193H0V9.51925H1.76925V7.01925H0V5.51925H1.76925V3.577C1.76925 3.07183 1.94425 2.64425 2.29425 2.29425C2.64425 1.94425 3.07183 1.76925 3.577 1.76925H5.51925V0H7.01925V1.76925H9.51925V0H11.0193V1.76925H12.9615C13.4667 1.76925 13.8943 1.94425 14.2443 2.29425C14.5943 2.64425 14.7693 3.07183 14.7693 3.577V5.51925H16.5385V7.01925H14.7693V9.51925H16.5385V11.0193H14.7693V12.9615C14.7693 13.4667 14.5943 13.8943 14.2443 14.2443C13.8943 14.5943 13.4667 14.7693 12.9615 14.7693H11.0193V16.5385H9.51925V14.7693H7.01925V16.5385H5.51925ZM12.9615 13.2693C13.0385 13.2693 13.109 13.2372 13.173 13.173C13.2372 13.109 13.2693 13.0385 13.2693 12.9615V3.577C13.2693 3.5 13.2372 3.4295 13.173 3.3655C13.109 3.30133 13.0385 3.26925 12.9615 3.26925H3.577C3.5 3.26925 3.4295 3.30133 3.3655 3.3655C3.30133 3.4295 3.26925 3.5 3.26925 3.577V12.9615C3.26925 13.0385 3.30133 13.109 3.3655 13.173C3.4295 13.2372 3.5 13.2693 3.577 13.2693H12.9615Z" fill="currentColor"/>
    </g>
  </symbol>
  <symbol id="icon-nav-protect" viewBox="0 0 24 24">
    <g transform="translate(4.5 2.529)">
      <path d="M7.5 18.9423C5.33717 18.3524 3.5465 17.0793 2.128 15.123C0.709333 13.1667 0 10.9795 0 8.5615V2.80775L7.5 0L15 2.80775V8.5615C15 10.9795 14.2907 13.1667 12.872 15.123C11.4535 17.0793 9.66283 18.3524 7.5 18.9423ZM7.5 17.3615C9.23333 16.8115 10.6667 15.7115 11.8 14.0615C12.9333 12.4115 13.5 10.5782 13.5 8.5615V3.8365L7.5 1.596L1.5 3.8365V8.5615C1.5 10.5782 2.06667 12.4115 3.2 14.0615C4.33333 15.7115 5.76667 16.8115 7.5 17.3615Z" fill="currentColor"/>
    </g>
  </symbol>
  <symbol id="icon-nav-question" viewBox="0 0 24 24">
    <g transform="translate(2.5 2.5)">
      <path d="M9.489 15.1152C9.7745 15.1152 10.0157 15.0168 10.2125 14.8198C10.4093 14.6226 10.5078 14.3812 10.5078 14.0955C10.5078 13.81 10.4092 13.5688 10.212 13.372C10.0148 13.1753 9.7735 13.077 9.488 13.077C9.2025 13.077 8.96133 13.1756 8.7645 13.3728C8.56767 13.5699 8.46925 13.8113 8.46925 14.0968C8.46925 14.3823 8.56783 14.6234 8.765 14.8203C8.96217 15.0169 9.2035 15.1152 9.489 15.1152ZM8.78075 11.5345H10.1885C10.2013 11.0423 10.2734 10.6491 10.4048 10.3548C10.5363 10.0606 10.8552 9.67058 11.3615 9.18475C11.8013 8.74492 12.1382 8.33875 12.372 7.96625C12.606 7.59392 12.723 7.15417 12.723 6.647C12.723 5.78617 12.4138 5.11375 11.7953 4.62975C11.1766 4.14592 10.4448 3.904 9.6 3.904C8.76533 3.904 8.07467 4.12675 7.528 4.57225C6.98117 5.01775 6.59108 5.54242 6.35775 6.14625L7.64225 6.6615C7.76408 6.3295 7.97242 6.00608 8.26725 5.69125C8.56208 5.37658 8.99992 5.21925 9.58075 5.21925C10.1718 5.21925 10.6086 5.38108 10.8913 5.70475C11.1741 6.02858 11.3155 6.38467 11.3155 6.773C11.3155 7.11283 11.2187 7.42375 11.025 7.70575C10.8315 7.98775 10.5848 8.26017 10.2848 8.523C9.62825 9.11533 9.2135 9.58783 9.0405 9.9405C8.86733 10.293 8.78075 10.8243 8.78075 11.5345ZM9.50175 19C8.18775 19 6.95267 18.7507 5.7965 18.252C4.64033 17.7533 3.63467 17.0766 2.7795 16.2218C1.92433 15.3669 1.24725 14.3617 0.74825 13.206C0.249416 12.0503 0 10.8156 0 9.50175C0 8.18775 0.249333 6.95267 0.748 5.7965C1.24667 4.64033 1.92342 3.63467 2.77825 2.7795C3.63308 1.92433 4.63833 1.24725 5.794 0.74825C6.94967 0.249416 8.18442 0 9.49825 0C10.8123 0 12.0473 0.249333 13.2035 0.748C14.3597 1.24667 15.3653 1.92342 16.2205 2.77825C17.0757 3.63308 17.7528 4.63833 18.2518 5.794C18.7506 6.94967 19 8.18442 19 9.49825C19 10.8123 18.7507 12.0473 18.252 13.2035C17.7533 14.3597 17.0766 15.3653 16.2218 16.2205C15.3669 17.0757 14.3617 17.7528 13.206 18.2518C12.0503 18.7506 10.8156 19 9.50175 19ZM9.5 17.5C11.7333 17.5 13.625 16.725 15.175 15.175C16.725 13.625 17.5 11.7333 17.5 9.5C17.5 7.26667 16.725 5.375 15.175 3.825C13.625 2.275 11.7333 1.5 9.5 1.5C7.26667 1.5 5.375 2.275 3.825 3.825C2.275 5.375 1.5 7.26667 1.5 9.5C1.5 11.7333 2.275 13.625 3.825 15.175C5.375 16.725 7.26667 17.5 9.5 17.5Z" fill="currentColor"/>
    </g>
  </symbol>
  <symbol id="icon-nav-phone" viewBox="0 0 24 24">
    <g transform="translate(20.5 3.5) scale(-1 1)">
      <path d="M1.05975 17C0.756917 17 0.504583 16.9 0.30275 16.7C0.100917 16.5 0 16.25 0 15.95V12.7078C0 12.4654 0.0798334 12.2488 0.2395 12.0578C0.399167 11.8668 0.60525 11.7379 0.85775 11.6713L3.6345 11.1058C3.87433 11.0724 4.10542 11.0884 4.32775 11.1538C4.55025 11.2193 4.73975 11.3334 4.89625 11.4963L7.14025 13.7598C7.85692 13.3546 8.52425 12.9168 9.14225 12.4463C9.76025 11.9758 10.3436 11.4661 10.8923 10.9173C11.4488 10.3648 11.9657 9.785 12.4432 9.178C12.9209 8.57083 13.3456 7.92692 13.7173 7.24625L11.4078 4.998C11.2616 4.86467 11.1603 4.69992 11.1038 4.50375C11.0474 4.30758 11.0391 4.073 11.0788 3.8L11.652 0.85775C11.7045 0.615417 11.8273 0.411917 12.0203 0.24725C12.2133 0.082417 12.436 0 12.6885 0H15.95C16.25 0 16.5 0.100916 16.7 0.30275C16.9 0.504583 17 0.756917 17 1.05975C17 2.94425 16.5618 4.83583 15.6855 6.7345C14.8092 8.63333 13.5746 10.3808 11.9818 11.977C10.3888 13.573 8.64133 14.8092 6.7395 15.6855C4.8375 16.5618 2.94425 17 1.05975 17ZM14.4115 5.827C14.7205 5.12567 14.9612 4.42242 15.1337 3.71725C15.3061 3.01225 15.4179 2.31808 15.4693 1.63475C15.4693 1.59625 15.4564 1.56417 15.4307 1.5385C15.4051 1.51283 15.373 1.5 15.3345 1.5H13.2115C13.1602 1.5 13.1185 1.51283 13.0865 1.5385C13.0545 1.56417 13.0321 1.60258 13.0193 1.65375L12.5693 3.8885C12.5564 3.927 12.5548 3.96867 12.5645 4.0135C12.574 4.05833 12.5948 4.09358 12.627 4.11925L14.4115 5.827ZM5.7115 14.4385L3.94625 12.6538C3.91408 12.6218 3.88358 12.6009 3.85475 12.5913C3.82592 12.5818 3.79225 12.5834 3.75375 12.5963L1.65375 13.0385C1.60258 13.0513 1.56417 13.0737 1.5385 13.1057C1.51283 13.1377 1.5 13.1794 1.5 13.2307V15.3345C1.5 15.373 1.51283 15.4051 1.5385 15.4307C1.56417 15.4564 1.59625 15.4693 1.63475 15.4693C2.26025 15.4384 2.93042 15.3362 3.64525 15.1625C4.35992 14.9888 5.04867 14.7475 5.7115 14.4385Z" fill="currentColor"/>
    </g>
  </symbol>
  <symbol id="icon-nav-sun" viewBox="0 0 20 20">
    <g transform="translate(1.042 1.042)">
      <path d="M10.7292 10.7292C11.2153 10.2431 11.4583 9.65278 11.4583 8.95833C11.4583 8.26389 11.2153 7.67361 10.7292 7.1875C10.2431 6.70139 9.65278 6.45833 8.95833 6.45833C8.26389 6.45833 7.67361 6.70139 7.1875 7.1875C6.70139 7.67361 6.45833 8.26389 6.45833 8.95833C6.45833 9.65278 6.70139 10.2431 7.1875 10.7292C7.67361 11.2153 8.26389 11.4583 8.95833 11.4583C9.65278 11.4583 10.2431 11.2153 10.7292 10.7292ZM6.30292 11.6137C5.57319 10.884 5.20833 9.99889 5.20833 8.95833C5.20833 7.91778 5.57319 7.03264 6.30292 6.30292C7.03264 5.57319 7.91778 5.20833 8.95833 5.20833C9.99889 5.20833 10.884 5.57319 11.6137 6.30292C12.3435 7.03264 12.7083 7.91778 12.7083 8.95833C12.7083 9.99889 12.3435 10.884 11.6137 11.6137C10.884 12.3435 9.99889 12.7083 8.95833 12.7083C7.91778 12.7083 7.03264 12.3435 6.30292 11.6137ZM3.125 9.58333H0V8.33333H3.125V9.58333ZM17.9167 9.58333H14.7917V8.33333H17.9167V9.58333ZM8.33333 3.125V0H9.58333V3.125H8.33333ZM8.33333 17.9167V14.7917H9.58333V17.9167H8.33333ZM4.43583 5.2725L2.48396 3.38792L3.36708 2.46312L5.24687 4.39417L4.43583 5.2725ZM14.5496 15.4535L12.6571 13.5096L13.4808 12.6442L15.4327 14.5287L14.5496 15.4535ZM12.6442 4.43583L14.5287 2.48396L15.4535 3.36708L13.5225 5.24687L12.6442 4.43583ZM2.46312 14.5496L4.40708 12.6571L5.25646 13.4808L3.37979 15.4406L2.46312 14.5496Z" fill="currentColor"/>
    </g>
  </symbol>
  <symbol id="icon-nav-moon" viewBox="0 0 20 20">
    <g transform="translate(4.375 2.083)">
      <path d="M3.33333 14.5833C5.18056 14.5833 6.75347 13.934 8.05208 12.6354C9.35069 11.3368 10 9.76389 10 7.91667C10 6.06944 9.35069 4.49653 8.05208 3.19792C6.75347 1.89931 5.18056 1.25 3.33333 1.25H2.89583C2.75694 1.25 2.625 1.26389 2.5 1.29167C3.29167 2.20833 3.90625 3.23264 4.34375 4.36458C4.78125 5.49653 5 6.68056 5 7.91667C5 9.15278 4.78125 10.3368 4.34375 11.4687C3.90625 12.6007 3.29167 13.625 2.5 14.5417C2.625 14.5694 2.75694 14.5833 2.89583 14.5833H3.33333ZM3.33333 15.8333C2.74611 15.8333 2.17278 15.7676 1.61333 15.6362C1.05389 15.5049 0.516111 15.3024 0 15.0287C1.17417 14.22 2.09271 13.1915 2.75562 11.9431C3.41854 10.6947 3.75 9.3525 3.75 7.91667C3.75 6.48083 3.41854 5.13868 2.75562 3.89021C2.09271 2.64187 1.17417 1.61333 0 0.804583C0.516111 0.530972 1.05389 0.328473 1.61333 0.197084C2.17278 0.0656949 2.74611 0 3.33333 0C4.42847 0 5.45764 0.207777 6.42083 0.623333C7.38403 1.03889 8.22187 1.60285 8.93437 2.31521C9.64687 3.02757 10.2109 3.86528 10.6265 4.82833C11.0422 5.79139 11.25 6.82035 11.25 7.91521C11.25 9.01021 11.0422 10.0394 10.6265 11.0029C10.2109 11.9664 9.64687 12.8044 8.93437 13.5171C8.22187 14.2297 7.38403 14.794 6.42083 15.2098C5.45764 15.6255 4.42847 15.8333 3.33333 15.8333Z" fill="currentColor"/>
    </g>
  </symbol>
  <symbol id="icon-nav-logout" viewBox="0 0 24 24">
    <g transform="translate(3.5 3.5)">
      <path d="M1.80775 17C1.30258 17 0.875 16.825 0.525 16.475C0.175 16.125 0 15.6974 0 15.1923V1.80775C0 1.30258 0.175 0.875 0.525 0.525C0.875 0.175 1.30258 0 1.80775 0H8.5095V1.5H1.80775C1.73075 1.5 1.66025 1.53208 1.59625 1.59625C1.53208 1.66025 1.5 1.73075 1.5 1.80775V15.1923C1.5 15.2693 1.53208 15.3398 1.59625 15.4038C1.66025 15.4679 1.73075 15.5 1.80775 15.5H8.5095V17H1.80775ZM12.7307 12.7692L11.6923 11.6845L14.127 9.25H5.59625V7.75H14.127L11.6923 5.3155L12.7307 4.23075L17 8.5L12.7307 12.7692Z" fill="currentColor"/>
    </g>
  </symbol>
  <symbol id="icon-nav-close" viewBox="0 0 24 24">
    <path d="M6.5 6.5 17.5 17.5M17.5 6.5 6.5 17.5" fill="none" stroke="currentColor" stroke-width="1.6" stroke-linecap="round" stroke-linejoin="round"/>
  </symbol>
  <symbol id="icon-template-testing" viewBox="0 0 16 16">
    <g transform="translate(1.6667 1.7307)">
      <path d="M1.20517 12.5383C0.868389 12.5383 0.583333 12.4217 0.35 12.1883C0.116667 11.955 0 11.6699 0 11.3332V5.7435C0 5.40672 0.116667 5.12167 0.35 4.88833C0.583333 4.65511 0.868389 4.5385 1.20517 4.5385H2.66667V1.20517C2.66667 0.868389 2.78333 0.583333 3.01667 0.35C3.25 0.116667 3.53506 0 3.87183 0H11.4615C11.7983 0 12.0833 0.116667 12.3167 0.35C12.55 0.583333 12.6667 0.868389 12.6667 1.20517V6.79483C12.6667 7.13161 12.55 7.41667 12.3167 7.65C12.0833 7.88322 11.7983 7.99983 11.4615 7.99983H10V11.3332C10 11.6699 9.88333 11.955 9.65 12.1883C9.41667 12.4217 9.13161 12.5383 8.79483 12.5383H1.20517ZM1.20517 11.5383H8.79483C8.84617 11.5383 8.89317 11.517 8.93583 11.4743C8.97861 11.4316 9 11.3845 9 11.3332V6.87167H1V11.3332C1 11.3845 1.02139 11.4316 1.06417 11.4743C1.10683 11.517 1.15383 11.5383 1.20517 11.5383ZM10 7H11.4615C11.5128 7 11.5598 6.97861 11.6025 6.93583C11.6453 6.89306 11.6667 6.84606 11.6667 6.79483V2.33333H3.66667V4.5385H8.79483C9.13161 4.5385 9.41667 4.65511 9.65 4.88833C9.88333 5.12167 10 5.40672 10 5.7435V7Z" fill="currentColor"/>
    </g>
  </symbol>
  <symbol id="icon-modal-close" viewBox="0 0 24 24">
    <g transform="translate(5.34625 5.34625)">
      <path d="M1.05375 13.3075L0 12.2538L5.6 6.65375L0 1.05375L1.05375 0L6.65375 5.6L12.2538 0L13.3075 1.05375L7.7075 6.65375L13.3075 12.2538L12.2538 13.3075L6.65375 7.7075L1.05375 13.3075Z" fill="currentColor"/>
    </g>
  </symbol>
  <symbol id="icon-table-sort" viewBox="0 0 16 16">
    <path d="M8 11.3333L4 8.6667H12L8 11.3333Z" fill="currentColor"/>
    <path d="M8 4.6667L4 7.3334H12L8 4.6667Z" fill="currentColor"/>
  </symbol>
  <symbol id="icon-action-download" viewBox="0 0 15 15">
    <path d="M7.5 11.2885L3.23075 7.01925L4.28475 5.93475L6.75 8.4V0H8.25V8.4L10.7152 5.93475L11.7693 7.01925L7.5 11.2885ZM1.80775 15C1.30258 15 0.875 14.825 0.525 14.475C0.175 14.125 0 13.6974 0 13.1923V10.4808H1.5V13.1923C1.5 13.2693 1.53208 13.3398 1.59625 13.4038C1.66025 13.4679 1.73075 13.5 1.80775 13.5H13.1923C13.2693 13.5 13.3398 13.4679 13.4038 13.4038C13.4679 13.3398 13.5 13.2693 13.5 13.1923V10.4808H15V13.1923C15 13.6974 14.825 14.125 14.475 14.475C14.125 14.825 13.6974 15 13.1923 15H1.80775Z" fill="currentColor"/>
  </symbol>
  <symbol id="icon-action-plus" viewBox="0 0 13 13">
    <path d="M5.75 7.25H0V5.75H5.75V0H7.25V5.75H13V7.25H7.25V13H5.75V7.25Z" fill="currentColor"/>
  </symbol>
  <symbol id="icon-action-help" viewBox="0 0 19 19">
    <path d="M9.489 15.1152C9.7745 15.1152 10.0157 15.0168 10.2125 14.8198C10.4093 14.6226 10.5078 14.3812 10.5078 14.0955C10.5078 13.81 10.4092 13.5688 10.212 13.372C10.0148 13.1753 9.7735 13.077 9.488 13.077C9.2025 13.077 8.96133 13.1756 8.7645 13.3728C8.56767 13.5699 8.46925 13.8113 8.46925 14.0968C8.46925 14.3823 8.56783 14.6234 8.765 14.8203C8.96217 15.0169 9.2035 15.1152 9.489 15.1152ZM8.78075 11.5345H10.1885C10.2013 11.0423 10.2734 10.6491 10.4048 10.3548C10.5363 10.0606 10.8552 9.67058 11.3615 9.18475C11.8013 8.74492 12.1382 8.33875 12.372 7.96625C12.606 7.59392 12.723 7.15417 12.723 6.647C12.723 5.78617 12.4138 5.11375 11.7953 4.62975C11.1766 4.14592 10.4448 3.904 9.6 3.904C8.76533 3.904 8.07467 4.12675 7.528 4.57225C6.98117 5.01775 6.59108 5.54242 6.35775 6.14625L7.64225 6.6615C7.76408 6.3295 7.97242 6.00608 8.26725 5.69125C8.56208 5.37658 8.99992 5.21925 9.58075 5.21925C10.1718 5.21925 10.6086 5.38108 10.8913 5.70475C11.1741 6.02858 11.3155 6.38467 11.3155 6.773C11.3155 7.11283 11.2187 7.42375 11.025 7.70575C10.8315 7.98775 10.5848 8.26017 10.2848 8.523C9.62825 9.11533 9.2135 9.58783 9.0405 9.9405C8.86733 10.293 8.78075 10.8243 8.78075 11.5345ZM9.50175 19C8.18775 19 6.95267 18.7507 5.7965 18.252C4.64033 17.7533 3.63467 17.0766 2.7795 16.2218C1.92433 15.3669 1.24725 14.3617 0.74825 13.206C0.249416 12.0503 0 10.8156 0 9.50175C0 8.18775 0.249333 6.95267 0.748 5.7965C1.24667 4.64033 1.92342 3.63467 2.77825 2.7795C3.63308 1.92433 4.63833 1.24725 5.794 0.74825C6.94967 0.249416 8.18442 0 9.49825 0C10.8123 0 12.0473 0.249333 13.2035 0.748C14.3597 1.24667 15.3653 1.92342 16.2205 2.77825C17.0757 3.63308 17.7528 4.63833 18.2518 5.794C18.7506 6.94967 19 8.18442 19 9.49825C19 10.8123 18.7507 12.0473 18.252 13.2035C17.7533 14.3597 17.0766 15.3653 16.2218 16.2205C15.3669 17.0757 14.3617 17.7528 13.206 18.2518C12.0503 18.7506 10.8156 19 9.50175 19ZM9.5 17.5C11.7333 17.5 13.625 16.725 15.175 15.175C16.725 13.625 17.5 11.7333 17.5 9.5C17.5 7.26667 16.725 5.375 15.175 3.825C13.625 2.275 11.7333 1.5 9.5 1.5C7.26667 1.5 5.375 2.275 3.825 3.825C2.275 5.375 1.5 7.26667 1.5 9.5C1.5 11.7333 2.275 13.625 3.825 15.175C5.375 16.725 7.26667 17.5 9.5 17.5Z" fill="currentColor"/>
  </symbol>
  <symbol id="icon-action-translit" viewBox="0 0 20.677 18.6152">
    <path d="M10.2078 18.6152L14.6615 7.11525H16.223L20.677 18.6152H19.0865L17.954 15.5652H12.9307L11.798 18.6152H10.2078ZM2.31725 15.673L1.2635 14.619L6.2365 9.6365C5.65967 9.05317 5.11133 8.36083 4.5915 7.5595C4.0715 6.75817 3.64358 5.94342 3.30775 5.11525H4.898C5.1865 5.72042 5.5375 6.32558 5.951 6.93075C6.3645 7.53575 6.811 8.08633 7.2905 8.5825C8.00067 7.86583 8.67242 6.99567 9.30575 5.972C9.93908 4.94833 10.3866 3.99608 10.6482 3.11525H0V1.61525H6.55775V0H8.05775V1.61525H14.6155V3.11525H12.1673C11.8429 4.23825 11.326 5.41225 10.6165 6.63725C9.90683 7.86225 9.14942 8.87225 8.34425 9.66725L10.8115 12.194L10.2442 13.7345L7.2905 10.7055L2.31725 15.673ZM13.4115 14.2383H17.473L15.4423 8.7825L13.4115 14.2383Z" fill="currentColor"/>
  </symbol>
  <symbol id="icon-action-clear" viewBox="0 0 19.3473 15.8798">
    <path d="M14.6358 14.3798H19.3473V15.8798H13.1358L14.6358 14.3798ZM2.30879 15.8798L0.53979 14.1105C0.188456 13.7592 0.00862295 13.3323 0.00028962 12.8298C-0.00804371 12.3273 0.163456 11.892 0.51479 11.524L11.0915 0.547041C11.4429 0.179207 11.8672 -0.00312612 12.3645 4.05436e-05C12.862 0.00320721 13.2865 0.180458 13.6378 0.531791L18.1703 5.06454C18.5216 5.41571 18.6989 5.84421 18.702 6.35004C18.7052 6.85571 18.5312 7.28421 18.18 7.63554L10.1358 15.8798H2.30879ZM9.49729 14.3798L17.126 6.55104C17.1774 6.49971 17.203 6.42596 17.203 6.32979C17.203 6.23362 17.1774 6.15987 17.126 6.10854L12.6088 1.59129C12.5576 1.54012 12.4855 1.51454 12.3925 1.51454C12.2995 1.51454 12.2274 1.54337 12.176 1.60104L1.56854 12.5585C1.51721 12.6162 1.49154 12.6915 1.49154 12.7845C1.49154 12.8775 1.51721 12.9497 1.56854 13.001L2.94729 14.3798H9.49729Z" fill="currentColor"/>
  </symbol>
  <symbol id="icon-action-arrow-left" viewBox="0 0 15.404 11.3075">
    <path d="M5.654 11.3075L0 5.65375L5.654 0L6.70775 1.0845L2.8885 4.90375H15.404V6.40375H2.8885L6.70775 10.223L5.654 11.3075Z" fill="currentColor"/>
  </symbol>
  <symbol id="icon-payment-bank" viewBox="0 0 27.6922 28.4134">
    <path d="M4.47113 23.1634V11.9134H6.72113V23.1634H4.47113ZM12.7211 23.1634V11.9134H14.9711V23.1634H12.7211ZM0 28.4134V26.1634H27.6922V28.4134H0ZM20.9711 23.1634V11.9134H23.2211V23.1634H20.9711ZM0 8.91338V6.77888L13.8461 0L27.6922 6.77888V8.91338H0ZM5.319 6.66338H22.3733L13.8461 2.53838L5.319 6.66338Z" fill="currentColor"/>
  </symbol>
  <symbol id="icon-payment-card" viewBox="0 0 28.5 22.5">
    <path d="M28.5 2.71163V19.7884C28.5 20.5461 28.2375 21.1875 27.7125 21.7125C27.1875 22.2375 26.5461 22.5 25.7884 22.5H2.71163C1.95387 22.5 1.3125 22.2375 0.7875 21.7125C0.2625 21.1875 0 20.5461 0 19.7884V2.71163C0 1.95387 0.2625 1.3125 0.7875 0.7875C1.3125 0.2625 1.95387 0 2.71163 0H25.7884C26.5461 0 27.1875 0.2625 27.7125 0.7875C28.2375 1.3125 28.5 1.95387 28.5 2.71163ZM2.25 5.856H26.25V2.71163C26.25 2.59613 26.2019 2.49037 26.1056 2.39437C26.0096 2.29812 25.9039 2.25 25.7884 2.25H2.71163C2.59613 2.25 2.49038 2.29812 2.39438 2.39437C2.29813 2.49037 2.25 2.59613 2.25 2.71163V5.856ZM2.25 10.644V19.7884C2.25 19.9039 2.29813 20.0096 2.39438 20.1056C2.49038 20.2019 2.59613 20.25 2.71163 20.25H25.7884C25.9039 20.25 26.0096 20.2019 26.1056 20.1056C26.2019 20.0096 26.25 19.9039 26.25 19.7884V10.644H2.25Z" fill="currentColor"/>
  </symbol>
  <symbol id="icon-payment-phone" viewBox="0 0 17 17">
    <path d="M1.05975 17C0.756917 17 0.504583 16.9 0.30275 16.7C0.100917 16.5 0 16.25 0 15.95V12.7078C0 12.4654 0.0798334 12.2488 0.2395 12.0578C0.399167 11.8668 0.60525 11.7379 0.85775 11.6713L3.6345 11.1058C3.87433 11.0724 4.10542 11.0884 4.32775 11.1538C4.55025 11.2193 4.73975 11.3334 4.89625 11.4963L7.14025 13.7598C7.85692 13.3546 8.52425 12.9168 9.14225 12.4463C9.76025 11.9758 10.3436 11.4661 10.8923 10.9173C11.4488 10.3648 11.9657 9.785 12.4432 9.178C12.9209 8.57083 13.3456 7.92692 13.7173 7.24625L11.4078 4.998C11.2616 4.86467 11.1603 4.69992 11.1038 4.50375C11.0474 4.30758 11.0391 4.073 11.0788 3.8L11.652 0.85775C11.7045 0.615417 11.8273 0.411917 12.0203 0.24725C12.2133 0.082417 12.436 0 12.6885 0H15.95C16.25 0 16.5 0.100916 16.7 0.30275C16.9 0.504583 17 0.756917 17 1.05975C17 2.94425 16.5618 4.83583 15.6855 6.7345C14.8092 8.63333 13.5746 10.3808 11.9818 11.977C10.3888 13.573 8.64133 14.8092 6.7395 15.6855C4.8375 16.5618 2.94425 17 1.05975 17ZM14.4115 5.827C14.7205 5.12567 14.9612 4.42242 15.1337 3.71725C15.3061 3.01225 15.4179 2.31808 15.4693 1.63475C15.4693 1.59625 15.4564 1.56417 15.4307 1.5385C15.4051 1.51283 15.373 1.5 15.3345 1.5H13.2115C13.1602 1.5 13.1185 1.51283 13.0865 1.5385C13.0545 1.56417 13.0321 1.60258 13.0193 1.65375L12.5693 3.8885C12.5564 3.927 12.5548 3.96867 12.5645 4.0135C12.574 4.05833 12.5948 4.09358 12.627 4.11925L14.4115 5.827ZM5.7115 14.4385L3.94625 12.6538C3.91408 12.6218 3.88358 12.6009 3.85475 12.5913C3.82592 12.5818 3.79225 12.5834 3.75375 12.5963L1.65375 13.0385C1.60258 13.0513 1.56417 13.0737 1.5385 13.1057C1.51283 13.1377 1.5 13.1794 1.5 13.2307V15.3345C1.5 15.373 1.51283 15.4051 1.5385 15.4307C1.56417 15.4564 1.59625 15.4693 1.63475 15.4693C2.26025 15.4384 2.93042 15.3362 3.64525 15.1625C4.35992 14.9888 5.04867 14.7475 5.7115 14.4385Z" fill="currentColor"/>
  </symbol>
  <symbol id="icon-header-support" viewBox="0 0 24 24">
    <g transform="translate(2.5 3.5) scale(1.5)">
      <path d="M5.92317 11.3333V10.3333H10.7948C10.8504 10.3333 10.8985 10.3162 10.9392 10.282C10.9797 10.2479 11 10.2031 11 10.1475V5.48467C11 4.21022 10.544 3.13733 9.632 2.266C8.72011 1.39467 7.62056 0.959 6.33333 0.959C5.04611 0.959 3.94656 1.39467 3.03467 2.266C2.12267 3.13733 1.66667 4.21022 1.66667 5.48467V9.41017H1.16667C0.847 9.41017 0.572667 9.29889 0.343667 9.07633C0.114556 8.85367 0 8.5825 0 8.26283V6.968C0 6.75178 0.0615556 6.55367 0.184667 6.37367C0.307778 6.19378 0.468444 6.04917 0.666667 5.93983L0.6975 5.0885C0.752167 4.36283 0.940611 3.69061 1.26283 3.07183C1.58506 2.45306 1.99828 1.91439 2.5025 1.45583C3.00683 0.997277 3.58889 0.64 4.24867 0.384C4.90856 0.128 5.60344 0 6.33333 0C7.06322 0 7.75639 0.128 8.41283 0.384C9.06928 0.64 9.65133 0.995555 10.159 1.45067C10.6667 1.90578 11.0799 2.44272 11.3987 3.0615C11.7174 3.68039 11.9076 4.35261 11.9692 5.07817L12 5.91283C12.194 6.00428 12.3536 6.13506 12.4788 6.30517C12.6041 6.47528 12.6667 6.665 12.6667 6.87433V8.36283C12.6667 8.57217 12.6041 8.76189 12.4788 8.932C12.3536 9.10211 12.194 9.23289 12 9.32433V10.1475C12 10.4756 11.8823 10.7553 11.6468 10.9865C11.4113 11.2177 11.1273 11.3333 10.7948 11.3333H5.92317ZM4.04417 6.68017C3.92928 6.5695 3.87183 6.4325 3.87183 6.26917C3.87183 6.10594 3.92928 5.96794 4.04417 5.85517C4.15917 5.74228 4.29828 5.68583 4.4615 5.68583C4.62483 5.68583 4.76394 5.74228 4.87883 5.85517C4.99383 5.96794 5.05133 6.10594 5.05133 6.26917C5.05133 6.4325 4.99383 6.5695 4.87883 6.68017C4.76394 6.79083 4.62483 6.84617 4.4615 6.84617C4.29828 6.84617 4.15917 6.79083 4.04417 6.68017ZM7.78783 6.68017C7.67283 6.5695 7.61533 6.4325 7.61533 6.26917C7.61533 6.10594 7.67283 5.96794 7.78783 5.85517C7.90272 5.74228 8.04183 5.68583 8.20517 5.68583C8.36839 5.68583 8.5075 5.74228 8.6225 5.85517C8.73739 5.96794 8.79483 6.10594 8.79483 6.26917C8.79483 6.4325 8.73739 6.5695 8.6225 6.68017C8.5075 6.79083 8.36839 6.84617 8.20517 6.84617C8.04183 6.84617 7.90272 6.79083 7.78783 6.68017ZM2.58083 5.8C2.51161 4.712 2.85006 3.781 3.59617 3.007C4.34228 2.23311 5.26578 1.84617 6.36667 1.84617C7.29144 1.84617 8.10744 2.13228 8.81467 2.7045C9.522 3.27672 9.95128 4.0175 10.1025 4.92683C9.1555 4.91572 8.2805 4.66705 7.4775 4.18083C6.6745 3.6945 6.05806 3.02783 5.62817 2.18083C5.45894 3.00983 5.10428 3.74272 4.56417 4.3795C4.02394 5.01628 3.36283 5.48978 2.58083 5.8Z" fill="currentColor"/>
    </g>
  </symbol>
  <symbol id="icon-header-chat" viewBox="0 0 24 24">
    <g transform="translate(2.6928 2.5008) scale(1.5)">
      <path d="M12.4103 12.1025L10.0513 9.7435H3.5385C3.21417 9.7435 2.9365 9.628 2.7055 9.397C2.4745 9.16611 2.359 8.88844 2.359 8.564V8.15383H9.6155C9.94683 8.15383 10.2305 8.03583 10.4665 7.79983C10.7025 7.56383 10.8205 7.28011 10.8205 6.94867V2.33333H11.2308C11.5552 2.33333 11.8328 2.44883 12.0638 2.67983C12.2948 2.91083 12.4103 3.1885 12.4103 3.51283V12.1025ZM1 6.76417L1.94367 5.8205H8.28217C8.34194 5.8205 8.39106 5.80128 8.4295 5.76283C8.46794 5.72439 8.48717 5.67522 8.48717 5.61533V1.20517C8.48717 1.14528 8.46794 1.09611 8.4295 1.05767C8.39106 1.01922 8.34194 1 8.28217 1H1.20517C1.14539 1 1.09622 1.01922 1.05767 1.05767C1.01922 1.09611 1 1.14528 1 1.20517V6.76417ZM0 9.1795V1.20517C0 0.873722 0.118 0.59 0.354 0.354C0.59 0.118 0.873722 0 1.20517 0H8.28217C8.6135 0 8.89717 0.118 9.13317 0.354C9.36917 0.59 9.48717 0.873722 9.48717 1.20517V5.61533C9.48717 5.94678 9.36917 6.2305 9.13317 6.4665C8.89717 6.7025 8.6135 6.8205 8.28217 6.8205H2.359L0 9.1795Z" fill="currentColor"/>
    </g>
  </symbol>
  <symbol id="icon-header-login" viewBox="0 0 24 24">
    <g transform="translate(4.5 2.5392) scale(1.5)">
      <path d="M5 6.80767C4.39144 6.80767 3.87822 6.59867 3.46033 6.18067C3.04233 5.76278 2.83333 5.24956 2.83333 4.641C2.83333 4.03245 3.04233 3.51922 3.46033 3.10133C3.87822 2.68333 4.39144 2.47433 5 2.47433C5.60856 2.47433 6.12178 2.68333 6.53967 3.10133C6.95767 3.51922 7.16667 4.03245 7.16667 4.641C7.16667 5.24956 6.95767 5.76278 6.53967 6.18067C6.12178 6.59867 5.60856 6.80767 5 6.80767ZM5 5.80767C5.33167 5.80767 5.609 5.69611 5.832 5.473C6.05511 5.25 6.16667 4.97267 6.16667 4.641C6.16667 4.30933 6.05511 4.032 5.832 3.809C5.609 3.58589 5.33167 3.47433 5 3.47433C4.66833 3.47433 4.391 3.58589 4.168 3.809C3.94489 4.032 3.83333 4.30933 3.83333 4.641C3.83333 4.97267 3.94489 5.25 4.168 5.473C4.391 5.69611 4.66833 5.80767 5 5.80767ZM5 12.6282C3.55811 12.2349 2.36433 11.3862 1.41867 10.082C0.472889 8.77778 0 7.31967 0 5.70767V1.87183L5 0L10 1.87183V5.70767C10 7.31967 9.52711 8.77778 8.58133 10.082C7.63567 11.3862 6.44189 12.2349 5 12.6282ZM5 1.064L1 2.55767V5.70767C1 6.34189 1.09083 6.95517 1.2725 7.5475C1.45406 8.13972 1.70639 8.69228 2.0295 9.20517C2.47906 8.97606 2.94978 8.797 3.44167 8.668C3.93356 8.53889 4.453 8.47433 5 8.47433C5.547 8.47433 6.06644 8.53889 6.55833 8.668C7.05022 8.797 7.52094 8.97606 7.9705 9.20517C8.29361 8.69228 8.54595 8.13972 8.7275 7.5475C8.90917 6.95517 9 6.34189 9 5.70767V2.55767L5 1.064ZM5 9.47433C4.57011 9.47433 4.15667 9.52089 3.75967 9.614C3.36267 9.70722 2.98767 9.838 2.63467 10.0063C2.96544 10.3739 3.32933 10.6917 3.72633 10.9597C4.12333 11.2276 4.54789 11.4324 5 11.5743C5.45211 11.4324 5.87561 11.2276 6.2705 10.9597C6.66539 10.6917 7.02822 10.3739 7.359 10.0063C7.006 9.838 6.63206 9.70722 6.23717 9.614C5.84228 9.52089 5.42989 9.47433 5 9.47433Z" fill="currentColor"/>
    </g>
  </symbol>
  <symbol id="icon-header-demo" viewBox="0 0 24 24">
    <g transform="translate(2.5 2.596)">
      <path d="M1.80775 18.8075C1.30258 18.8075 0.875 18.6325 0.525 18.2825C0.175 17.9325 0 17.5049 0 16.9998V8.61525C0 8.11008 0.175 7.6825 0.525 7.3325C0.875 6.98267 1.30258 6.80775 1.80775 6.80775H4V1.80775C4 1.30258 4.175 0.875 4.525 0.525C4.875 0.175 5.30258 0 5.80775 0H17.1923C17.6974 0 18.125 0.175 18.475 0.525C18.825 0.875 19 1.30258 19 1.80775V10.1923C19 10.6974 18.825 11.125 18.475 11.475C18.125 11.8248 17.6974 11.9998 17.1923 11.9998H15V16.9998C15 17.5049 14.825 17.9325 14.475 18.2825C14.125 18.6325 13.6974 18.8075 13.1923 18.8075H1.80775ZM1.80775 17.3075H13.1923C13.2693 17.3075 13.3398 17.2755 13.4038 17.2115C13.4679 17.1473 13.5 17.0768 13.5 16.9998V10.3075H1.5V16.9998C1.5 17.0768 1.53208 17.1473 1.59625 17.2115C1.66025 17.2755 1.73075 17.3075 1.80775 17.3075ZM15 10.5H17.1923C17.2693 10.5 17.3398 10.4679 17.4038 10.4038C17.4679 10.3396 17.5 10.2691 17.5 10.1923V3.5H5.5V6.80775H13.1923C13.6974 6.80775 14.125 6.98267 14.475 7.3325C14.825 7.6825 15 8.11008 15 8.61525V10.5Z" fill="currentColor"/>
    </g>
  </symbol>
  <symbol id="icon-header-menu" viewBox="0 0 24 24">
    <g transform="translate(3.5 6.365) scale(1.5)">
      <path d="M0 7.51267V6.51283H11.3333V7.51267H0ZM0 4.25633V3.25633H11.3333V4.25633H0ZM0 0.999833V0H11.3333V0.999833H0Z" fill="currentColor"/>
    </g>
  </symbol>
  <symbol id="icon-header-wallet" viewBox="0 0 24 24">
    <g transform="translate(3.5 3.5) scale(1.5)">
      <path d="M1 9.66667V10.3333V1V9.66667ZM1.20517 11.3333C0.872722 11.3333 0.588722 11.2156 0.353167 10.9802C0.117722 10.7446 0 10.4606 0 10.1282V1.20517C0 0.872722 0.117722 0.588722 0.353167 0.353167C0.588722 0.117722 0.872722 0 1.20517 0H10.1282C10.4606 0 10.7446 0.117722 10.9802 0.353167C11.2156 0.588722 11.3333 0.872722 11.3333 1.20517V3.01933H10.3333V1.20517C10.3333 1.14528 10.3141 1.09611 10.2757 1.05767C10.2372 1.01922 10.1881 1 10.1282 1H1.20517C1.14528 1 1.09611 1.01922 1.05767 1.05767C1.01922 1.09611 1 1.14528 1 1.20517V10.1282C1 10.1881 1.01922 10.2372 1.05767 10.2757C1.09611 10.3141 1.14528 10.3333 1.20517 10.3333H10.1282C10.1881 10.3333 10.2372 10.3141 10.2757 10.2757C10.3141 10.2372 10.3333 10.1881 10.3333 10.1282V8.314H11.3333V10.1282C11.3333 10.4606 11.2156 10.7446 10.9802 10.9802C10.7446 11.2156 10.4606 11.3333 10.1282 11.3333H1.20517ZM6.5385 8.66667C6.20606 8.66667 5.92206 8.54894 5.6865 8.3135C5.45106 8.07794 5.33333 7.79394 5.33333 7.4615V3.87183C5.33333 3.53939 5.45106 3.25539 5.6865 3.01983C5.92206 2.78439 6.20606 2.66667 6.5385 2.66667H10.7948C11.1273 2.66667 11.4113 2.78439 11.6468 3.01983C11.8823 3.25539 12 3.53939 12 3.87183V7.4615C12 7.79394 11.8823 8.07794 11.6468 8.3135C11.4113 8.54894 11.1273 8.66667 10.7948 8.66667H6.5385ZM10.7948 7.66667C10.8547 7.66667 10.9039 7.64744 10.9423 7.609C10.9808 7.57056 11 7.52139 11 7.4615V3.87183C11 3.81194 10.9808 3.76278 10.9423 3.72433C10.9039 3.68589 10.8547 3.66667 10.7948 3.66667H6.5385C6.47861 3.66667 6.42945 3.68589 6.391 3.72433C6.35256 3.76278 6.33333 3.81194 6.33333 3.87183V7.4615C6.33333 7.52139 6.35256 7.57056 6.391 7.609C6.42945 7.64744 6.47861 7.66667 6.5385 7.66667H10.7948ZM8.33333 6.66667C8.61111 6.66667 8.84722 6.56944 9.04167 6.375C9.23611 6.18056 9.33333 5.94444 9.33333 5.66667C9.33333 5.38889 9.23611 5.15278 9.04167 4.95833C8.84722 4.76389 8.61111 4.66667 8.33333 4.66667C8.05556 4.66667 7.81944 4.76389 7.625 4.95833C7.43056 5.15278 7.33333 5.38889 7.33333 5.66667C7.33333 5.94444 7.43056 6.18056 7.625 6.375C7.81944 6.56944 8.05556 6.66667 8.33333 6.66667Z" fill="currentColor"/>
    </g>
  </symbol>
  <symbol id="icon-header-bell" viewBox="0 0 24 24">
    <g transform="translate(4.5 2.5) scale(1.5)">
      <path d="M0 10.923V9.92317H1.20517V4.94867C1.20517 4.05211 1.48189 3.25939 2.03533 2.5705C2.58867 1.88161 3.29911 1.441 4.16667 1.24867V0.833333C4.16667 0.601889 4.24761 0.405111 4.4095 0.243C4.57139 0.0810003 4.76794 0 4.99917 0C5.2305 0 5.42733 0.0810003 5.58967 0.243C5.75211 0.405111 5.83333 0.601889 5.83333 0.833333V1.24867C6.70089 1.441 7.41133 1.88161 7.96467 2.5705C8.51811 3.25939 8.79483 4.05211 8.79483 4.94867V9.92317H10V10.923H0ZM4.99883 12.7948C4.66717 12.7948 4.38361 12.6768 4.14817 12.4408C3.91261 12.2048 3.79483 11.9211 3.79483 11.5897H6.20517C6.20517 11.9222 6.08706 12.2062 5.85083 12.4417C5.61461 12.6771 5.33061 12.7948 4.99883 12.7948ZM2.20517 9.92317H7.79483V4.94867C7.79483 4.17689 7.522 3.51817 6.97633 2.9725C6.43056 2.42672 5.77178 2.15383 5 2.15383C4.22822 2.15383 3.56944 2.42672 3.02367 2.9725C2.478 3.51817 2.20517 4.17689 2.20517 4.94867V9.92317Z" fill="currentColor"/>
    </g>
  </symbol>
  <symbol id="icon-header-chevron" viewBox="0 0 24 24">
    <path d="M8.5 9.75L12 13.25L15.5 9.75" fill="none" stroke="currentColor" stroke-width="1.2" stroke-linecap="round" stroke-linejoin="round"/>
  </symbol>
  <symbol id="icon-header-demo-avatar" viewBox="0 0 48 48">
    <g transform="translate(3 7.2)">
      <path d="M26.5418 30.7562C26.0626 30.064 25.7113 28.9291 26.4517 24.5066C27.7169 23.24 28.7636 22.0668 29.0062 21.792L29.0715 21.718L29.2827 20.5489C31.0938 16.6088 36.6977 2.26144 23.3227 0.20503C8.1927 -2.12214 8.33189 16.0162 13.8143 21.4584L13.8611 21.7179L13.9271 21.7919C14.1694 22.0667 15.2164 23.2406 16.4826 24.5073C17.1113 28.2701 16.9509 29.6541 16.5821 30.421C10.8606 31.5932 1.47759 34.4482 0 41H20.9999H42C39.5965 35.0021 31.9225 32.1037 26.5418 30.7562ZM16.788 23.8158C16.6711 23.6985 16.5555 23.5805 16.4406 23.4623C15.7391 22.743 15.0713 22.0234 14.5149 21.3947L13.8163 17.5314C13.7793 17.3086 13.7479 17.0927 13.7141 16.8747C13.7401 13.1868 14.2469 8.65639 16.578 8.60386L21.8585 12.6711V11.3449L24.8115 12.6711L24.2744 10.1955L25.5273 10.6375L25.975 9.22295L24.9012 6.48203L29.6404 11.5109C29.6705 13.2618 29.4969 15.2683 29.1181 17.5273L28.418 21.3947C27.8616 22.0228 27.1945 22.743 26.4931 23.4623C26.3783 23.5805 26.2622 23.6985 26.1457 23.8158C26.0282 23.9346 25.9095 24.052 25.7905 24.1697C24.0304 25.9123 22.2126 27.47 21.4668 27.47C20.7205 27.47 18.9033 25.9123 17.143 24.1697C17.0238 24.0521 16.9056 23.9346 16.788 23.8158ZM21.4669 37.5228C17.9774 37.5228 15.1375 35.8965 15.1375 33.8976C15.1375 33.2505 15.4554 32.6078 16.0566 32.0395L16.1363 31.9636C16.2842 31.8321 16.4471 31.7051 16.6229 31.5848L16.7278 31.478C16.979 31.158 17.234 30.8341 17.4032 30.2593C17.6517 29.4165 17.7142 28.0268 17.3188 25.3266C18.8719 26.8049 20.5584 28.1788 21.4655 28.1788C22.3724 28.1788 24.059 26.8049 25.6119 25.3266C25.171 28.3329 25.3011 29.7145 25.6265 30.5377C25.7931 30.9584 26.0114 31.2353 26.2294 31.5123L26.3073 31.5863C26.4891 31.7104 26.6568 31.8404 26.8044 31.975L26.8747 32.0415C27.4753 32.6091 27.7935 33.2523 27.7935 33.8996C27.7956 35.8966 24.9566 37.5228 21.4669 37.5228Z" fill="currentColor" fill-opacity=".2"/>
    </g>
  </symbol>
  <symbol id="icon-chat" viewBox="0 0 24 24">
    <path d="M5 6.5h14v8.25H9.5L5 18.5v-12Z" fill="none" stroke="currentColor" stroke-width="1.55" stroke-linejoin="round"/>
    <path d="M8.5 10h7M8.5 12.8h4.5" fill="none" stroke="currentColor" stroke-width="1.55" stroke-linecap="round"/>
  </symbol>
  <symbol id="icon-sms-figma" viewBox="0 0 24 24">
    <path d="M15.6631 1.250000300416C16.8578 1.2499903017454 17.8084 1.2498446 18.5703 1.3222659C19.3517 1.396566 20.0131 1.552436 20.6016 1.913086C21.2069 2.2841 21.716 2.7931 22.0869 3.39844C22.4476 3.98698 22.6034 4.6483 22.6777 5.42969C22.7502 6.19169 22.7501 7.14219 22.75 8.33691V9.15234C22.7501 10.00265 22.7504 10.67913 22.7129 11.22754C22.6746 11.7886 22.594 12.2706 22.4072 12.7217C21.9505 13.8243 21.0743 14.7005 19.9717 15.1572C19.5926 15.3143 19.1883 15.3975 18.7305 15.4424C18.7252 15.5815 18.7186 15.714 18.71 15.8398C18.6693 16.4358 18.5851 16.9438 18.3887 17.418C17.9066 18.5818 16.9813 19.5062 15.8174 19.9883C15.2206 20.2354 14.5622 20.3085 13.7344 20.335C13.2891 20.3493 13.0043 20.3585 12.7881 20.3848C12.5843 20.4097 12.5074 20.4432 12.4658 20.4678C12.4197 20.495 12.3561 20.5454 12.2451 20.6982C12.1253 20.8633 11.9893 21.0909 11.7744 21.4541L11.5146 21.8926C10.8377 23.0359 9.16236 23.0358 8.48535 21.8926L8.22559 21.4541C8.01063 21.0909 7.87474 20.8633 7.75488 20.6982C7.64391 20.5454 7.58029 20.495 7.53418 20.4678C7.49263 20.4432 7.41585 20.4096 7.21191 20.3848C6.99566 20.3584 6.7109 20.3493 6.26563 20.335C5.43785 20.3085 4.77943 20.2354 4.18262 19.9883C3.01876 19.5062 2.093435 18.5818 1.611328 17.418C1.414946 16.9438 1.3307134 16.4358 1.2900392 15.8398C1.250229243 15.2564 1.250000180304 14.5357 1.250000180304 13.627V12.7617C1.24999018184 11.4854 1.25012404 10.47352 1.3271486 9.66309C1.40604 8.83335 1.571211 8.1371 1.950195 7.51855C2.34186 6.87941 2.87941 6.34187 3.51855 5.9502C4.13709 5.57121 4.83336 5.40604 5.66309 5.32715C5.87392 5.30711 6.09873 5.29222 6.33789 5.28125C6.41792 4.56141 6.5771 3.94671 6.91309 3.39844C7.28409 2.7931 7.7931 2.28409 8.39844 1.913086C8.98697 1.552436 9.64828 1.396566 10.42969 1.3222659C11.19162 1.249853967 12.1422 1.24999030217 13.3369 1.250000300416H15.6631ZM8.7998 6.75C7.47603 6.75 6.53583 6.7508 5.80469 6.82031C5.08473 6.88877 4.64503 7.01818 4.30176 7.22852C3.86446 7.4965 3.4965 7.86445 3.22852 8.30176C3.01818 8.64504 2.88877 9.08473 2.82031 9.80469C2.7508 10.53587 2.75 11.476 2.75 12.7998V13.5996C2.75 14.5416 2.75024 15.211 2.78613 15.7373C2.82159 16.2569 2.88903 16.5828 2.99707 16.8438C3.32687 17.6399 3.95972 18.2726 4.75586 18.6025C5.09004 18.7409 5.52122 18.8096 6.31348 18.835L6.34473 18.8359C6.75 18.8488 7.10259 18.861 7.39355 18.8965C7.70367 18.9343 8.0083 19.0056 8.29785 19.1768C8.58288 19.3453 8.78905 19.569 8.96875 19.8164C9.13501 20.0453 9.3068 20.3349 9.50098 20.6631L9.77637 21.1279C9.82178 21.2046 9.90076 21.25 10 21.25C10.09921 21.25 10.17824 21.2046 10.22363 21.1279L10.49902 20.6631C10.69312 20.335 10.86495 20.0453 11.03125 19.8164C11.21094 19.569 11.4171 19.3453 11.7021 19.1768C11.9916 19.0056 12.2964 18.9343 12.6064 18.8965C12.8975 18.861 13.25 18.8488 13.6553 18.8359L13.6865 18.835C14.4788 18.8096 14.9099 18.7409 15.2441 18.6025C16.0403 18.2726 16.6732 17.6399 17.0029 16.8438C17.111 16.5828 17.1784 16.2569 17.2139 15.7373C17.2497 15.211 17.25 14.5416 17.25 13.5996V12.7998C17.25 11.476 17.2492 10.53587 17.1797 9.80469C17.1112 9.08472 16.9818 8.64504 16.7715 8.30176C16.5035 7.86445 16.1355 7.4965 15.6982 7.22852C15.355 7.01817 14.9154 6.88877 14.1953 6.82031C13.4641 6.7508 12.524 6.75 11.2002 6.75H8.7998ZM6.5 12C7.05229 12 7.5 12.4477 7.5 13C7.5 13.5523 7.05229 14 6.5 14C5.94772 14 5.5 13.5523 5.5 13C5.5 12.4477 5.94772 12 6.5 12ZM10 12C10.5523 12 11 12.4477 11 13C11 13.5523 10.5523 14 10 14C9.44772 14 9 13.5523 9 13C9 12.4477 9.44772 12 10 12ZM13.5 12C14.0523 12 14.5 12.4477 14.5 13C14.5 13.5523 14.0523 14 13.5 14C12.9477 14 12.5 13.5523 12.5 13C12.5 12.4477 12.9477 12 13.5 12ZM13.375 2.75C12.133 2.75 11.254 2.75051 10.57129 2.81543C9.89966 2.87928 9.49585 3.00043 9.18262 3.19238C8.77899 3.43974 8.43975 3.77899 8.19238 4.18262C8.03185 4.44459 7.9225 4.76679 7.85352 5.25098C8.14024 5.24978 8.44293 5.25 8.76172 5.25H11.23828C12.5147 5.24999 13.5265 5.25012 14.3369 5.32715C15.1666 5.40604 15.8629 5.57122 16.4814 5.9502C17.1205 6.34187 17.6582 6.87941 18.0498 7.51855C18.4288 8.13709 18.594 8.83336 18.6729 9.66309C18.7498 10.47352 18.75 11.4853 18.75 12.7617V13.9297C19.0253 13.894 19.2267 13.8426 19.3984 13.7715C20.1332 13.467 20.717 12.8832 21.0215 12.1484C21.12 11.9105 21.1827 11.6107 21.2158 11.126C21.2493 10.63448 21.25 10.00887 21.25 9.125V8.375C21.25 7.13295 21.2496 6.25403 21.1846 5.57129C21.1208 4.89969 20.9995 4.49585 20.8076 4.18262C20.5602 3.77901 20.221 3.43974 19.8174 3.19238C19.5042 3.00044 19.1003 2.87928 18.4287 2.81543C17.746 2.75051 16.867 2.75 15.625 2.75H13.375Z" fill="currentColor"/>
  </symbol>
  <symbol id="icon-support" viewBox="0 0 24 24">
    <path d="M4.5 13v-1a7.5 7.5 0 0 1 15 0v1" fill="none" stroke="currentColor" stroke-width="1.55" stroke-linecap="round"/>
    <path d="M5.5 12.5h2.25v5H5.5a2 2 0 0 1-2-2v-1a2 2 0 0 1 2-2ZM16.25 12.5h2.25a2 2 0 0 1 2 2v1a2 2 0 0 1-2 2h-2.25v-5Z" fill="none" stroke="currentColor" stroke-width="1.55" stroke-linejoin="round"/>
    <path d="M14.5 19h1.75c1.25 0 2.25-.9 2.25-2" fill="none" stroke="currentColor" stroke-width="1.55" stroke-linecap="round"/>
  </symbol>
  <symbol id="icon-bell" viewBox="0 0 24 24">
    <path d="M6.75 17.25h10.5l-1.35-2.1V11a3.9 3.9 0 0 0-7.8 0v4.15l-1.35 2.1Z" fill="none" stroke="currentColor" stroke-width="1.55" stroke-linejoin="round"/>
    <path d="M10.25 19.25a2 2 0 0 0 3.5 0" fill="none" stroke="currentColor" stroke-width="1.55" stroke-linecap="round"/>
  </symbol>
  <symbol id="icon-wallet" viewBox="0 0 24 24">
    <path d="M4 7.5h15.5v10H4a2 2 0 0 1-2-2v-6a2 2 0 0 1 2-2Z" fill="none" stroke="currentColor" stroke-width="1.55" stroke-linejoin="round"/>
    <path d="M5 7.5V6.25c0-.9.7-1.55 1.6-1.35l9.5 2.1" fill="none" stroke="currentColor" stroke-width="1.55" stroke-linecap="round"/>
    <path d="M15 11.25h5v2.5h-5a1.25 1.25 0 0 1 0-2.5Z" fill="none" stroke="currentColor" stroke-width="1.55" stroke-linejoin="round"/>
  </symbol>
  <symbol id="icon-stats" viewBox="0 0 24 24">
    <path d="M5 19V9.5h3V19M10.5 19V5h3v14M16 19v-7h3v7M3.5 19h17" fill="none" stroke="currentColor" stroke-width="1.55" stroke-linecap="round" stroke-linejoin="round"/>
  </symbol>
  <symbol id="icon-stats-figma" viewBox="0 0 24 24">
    <path d="M4 19H8.3365V11H4V19ZM9.8365 19H14.1635V5H9.8365V19ZM15.6635 19H20V13H15.6635V19ZM2.5 20.5V9.5H8.3365V3.5H15.6635V11.5H21.5V20.5H2.5Z" fill="currentColor"/>
  </symbol>
  <symbol id="icon-speed-figma" viewBox="0 0 38 30">
    <path d="M18.952 22.704C20.071 22.668 20.8922 22.2642 21.4155 21.4925L32.269 5.7695L16.5075 16.5845C15.7232 17.1078 15.2995 17.9123 15.2365 18.998C15.1738 20.084 15.4975 20.9822 16.2075 21.6925C16.9178 22.4025 17.8327 22.7397 18.952 22.704ZM19 0C20.9027 0 22.6853 0.249334 24.348 0.748001C26.011 1.24667 27.6168 2.00117 29.1655 3.0115L26.346 4.8345C25.2077 4.2295 24.0277 3.7725 22.806 3.4635C21.584 3.1545 20.3153 3 19 3C14.5667 3 10.7917 4.55833 7.675 7.675C4.55833 10.7917 3 14.5667 3 19C3 20.4 3.19167 21.7833 3.575 23.15C3.95833 24.5167 4.5 25.8 5.2 27H32.8C33.5667 25.7333 34.125 24.4167 34.475 23.05C34.825 21.6833 35 20.2667 35 18.8C35 17.6 34.852 16.3853 34.556 15.156C34.2597 13.9263 33.8025 12.759 33.1845 11.654L35.0075 8.8345C35.9948 10.4525 36.7353 12.0712 37.229 13.6905C37.7223 15.3098 37.9793 16.9925 38 18.7385C38.0203 20.5488 37.8165 22.2597 37.3885 23.871C36.9602 25.4827 36.3153 27.059 35.454 28.6C35.1897 29.0333 34.8178 29.375 34.3385 29.625C33.8588 29.875 33.346 30 32.8 30H5.2C4.66667 30 4.1635 29.8718 3.6905 29.6155C3.2175 29.3588 2.836 28.9947 2.546 28.523C1.782 27.1897 1.16667 25.7358 0.7 24.1615C0.233333 22.5872 0 20.8667 0 19C0 16.3873 0.496167 13.9303 1.4885 11.629C2.48083 9.32767 3.834 7.3135 5.548 5.5865C7.26233 3.8595 9.27833 2.49667 11.596 1.498C13.914 0.499334 16.382 0 19 0Z" fill="currentColor"/>
  </symbol>
  <symbol id="icon-referral" viewBox="0 0 24 24">
    <rect x="3.5" y="6" width="17" height="12" rx="2" fill="none" stroke="currentColor" stroke-width="1.55"/>
    <circle cx="9" cy="12" r="2" fill="none" stroke="currentColor" stroke-width="1.35"/>
    <path d="M6.5 16c.6-1.25 1.45-2 2.5-2s1.9.75 2.5 2M13.5 10h4M13.5 13h3" fill="none" stroke="currentColor" stroke-width="1.35" stroke-linecap="round"/>
  </symbol>
  <symbol id="icon-referral-figma" viewBox="0 0 24 24">
    <g transform="translate(1.25 3.25)">
      <path d="M12.8066 3.88491e-07C14.6443 -1.96095e-05 16.1001 0.000157364 17.2393 0.153321C18.4115 0.310954 19.3601 0.643316 20.1084 1.3916C20.8566 2.13992 21.189 3.08844 21.3467 4.26074C21.4998 5.39991 21.5 6.85573 21.5 8.69336V8.80664C21.5 10.6443 21.4998 12.1001 21.3467 13.2393C21.189 14.4115 20.8566 15.3601 20.1084 16.1084C19.3601 16.8566 18.4115 17.189 17.2393 17.3467C16.1001 17.4998 14.6443 17.5 12.8066 17.5H8.69336C6.85573 17.5 5.39989 17.4998 4.26074 17.3467C3.08844 17.189 2.13992 16.8566 1.3916 16.1084C0.643316 15.3601 0.310954 14.4115 0.153321 13.2393C0.000157345 12.1001 -1.96097e-05 10.6443 3.88327e-07 8.80664V8.69336C-1.96096e-05 6.85567 0.000157419 5.3999 0.153321 4.26074C0.310955 3.08844 0.643297 2.13992 1.3916 1.3916C2.13992 0.643297 3.08844 0.310955 4.26074 0.153321C5.39991 0.000156833 6.85571 -1.96097e-05 8.69336 3.88491e-07H12.8066ZM8.75 1.5C6.84324 1.5 5.48859 1.50149 4.46094 1.63965C3.45485 1.77492 2.87536 2.02894 2.45215 2.45215C2.02894 2.87536 1.77492 3.45485 1.63965 4.46094C1.50149 5.48859 1.5 6.84326 1.5 8.75C1.5 10.6567 1.5015 12.0114 1.63965 13.0391C1.77492 14.0451 2.02894 14.6247 2.45215 15.0479C2.87536 15.4711 3.45485 15.7252 4.46094 15.8604C5.48859 15.9985 6.84325 16 8.75 16H12.75C14.6567 16 16.0114 15.9985 17.0391 15.8604C18.0451 15.7252 18.6247 15.4711 19.0479 15.0479C19.4711 14.6247 19.7252 14.0451 19.8604 13.0391C19.9985 12.0114 20 10.6567 20 8.75C20 6.84327 19.9985 5.48859 19.8604 4.46094C19.7252 3.45485 19.4711 2.87536 19.0479 2.45215C18.6247 2.02894 18.0451 1.77492 17.0391 1.63965C16.0114 1.5015 14.6567 1.5 12.75 1.5H8.75ZM7.75 9C8.9458 9 10.0657 9.24074 10.9141 9.66504C11.7176 10.0669 12.5 10.7607 12.5 11.75V11.8125C12.5016 12.3228 12.5039 13.1819 11.6895 13.7715C11.3115 14.0449 10.8131 14.2199 10.1953 14.3311C9.57182 14.4433 8.77279 14.5 7.75 14.5C6.72722 14.5 5.92819 14.4433 5.30469 14.3311C4.68693 14.2199 4.18849 14.045 3.81055 13.7715C2.99608 13.1819 2.99847 12.3228 3 11.8125V11.75C3 10.7607 3.78243 10.0669 4.58594 9.66504C5.43438 9.24074 6.55425 9 7.75 9ZM7.75 10.5C6.73663 10.5 5.8561 10.7072 5.25684 11.0068C4.61291 11.3289 4.5 11.6348 4.5 11.75C4.5 12.3542 4.53838 12.4472 4.68945 12.5566C4.8115 12.6449 5.06315 12.7632 5.57031 12.8545C6.0718 12.9447 6.7728 13 7.75 13C8.72721 13 9.42819 12.9447 9.92969 12.8545C10.4369 12.7632 10.6885 12.6449 10.8105 12.5566C10.9616 12.4472 11 12.3542 11 11.75C11 11.6348 10.8871 11.3289 10.2432 11.0068C9.64386 10.7072 8.7634 10.5 7.75 10.5ZM17.75 11C18.1642 11 18.5 11.3358 18.5 11.75C18.5 12.1642 18.1642 12.5 17.75 12.5H14.75C14.3358 12.5 14 12.1642 14 11.75C14 11.3358 14.3358 11 14.75 11H17.75ZM17.75 8C18.1642 8 18.5 8.3358 18.5 8.75C18.5 9.1642 18.1642 9.5 17.75 9.5H13.75C13.3358 9.5 13 9.1642 13 8.75C13 8.3358 13.3358 8 13.75 8H17.75ZM7.75 3C9.2688 3 10.5 4.23122 10.5 5.75C10.5 7.2688 9.2688 8.5 7.75 8.5C6.23122 8.5 5 7.2688 5 5.75C5 4.23122 6.23122 3 7.75 3ZM7.75 4.5C7.05965 4.5 6.5 5.05965 6.5 5.75C6.5 6.44036 7.05965 7 7.75 7C8.44036 7 9 6.44036 9 5.75C9 5.05965 8.44036 4.5 7.75 4.5ZM17.75 5C18.1642 5 18.5 5.33579 18.5 5.75C18.5 6.16422 18.1642 6.5 17.75 6.5H12.75C12.3358 6.5 12 6.16422 12 5.75C12 5.33579 12.3358 5 12.75 5H17.75Z" fill="currentColor"/>
    </g>
  </symbol>
  <symbol id="icon-widget" viewBox="0 0 24 24">
    <path d="M4.5 5h6v6h-6V5ZM13.5 5h6v6h-6V5ZM4.5 14h6v5h-6v-5ZM13.5 14h6v5h-6v-5Z" fill="none" stroke="currentColor" stroke-width="1.55" stroke-linejoin="round"/>
  </symbol>
  <symbol id="icon-email" viewBox="0 0 24 24">
    <path d="M4 6.5h16v11H4v-11Z" fill="none" stroke="currentColor" stroke-width="1.55" stroke-linejoin="round"/>
    <path d="m4.75 7.25 7.25 5.5 7.25-5.5" fill="none" stroke="currentColor" stroke-width="1.55" stroke-linecap="round" stroke-linejoin="round"/>
  </symbol>
  <symbol id="icon-docs" viewBox="0 0 24 24">
    <path d="M7 4.5h7l3 3V19.5H7v-15Z" fill="none" stroke="currentColor" stroke-width="1.55" stroke-linejoin="round"/>
    <path d="M14 4.5v3h3M9.5 11h5M9.5 14h5M9.5 17h3" fill="none" stroke="currentColor" stroke-width="1.55" stroke-linecap="round" stroke-linejoin="round"/>
  </symbol>
  <symbol id="icon-sliders" viewBox="0 0 24 24">
    <path d="M6 4v16M12 4v16M18 4v16M3.5 8h5M9.5 15h5M15.5 10h5" fill="none" stroke="currentColor" stroke-width="1.55" stroke-linecap="round"/>
    <circle cx="6" cy="8" r="1.75" fill="none" stroke="currentColor" stroke-width="1.35"/>
    <circle cx="12" cy="15" r="1.75" fill="none" stroke="currentColor" stroke-width="1.35"/>
    <circle cx="18" cy="10" r="1.75" fill="none" stroke="currentColor" stroke-width="1.35"/>
  </symbol>
  <symbol id="icon-verify" viewBox="0 0 24 24">
    <path d="m12 3.75 7 3v4.9c0 4.15-2.7 7-7 8.6-4.3-1.6-7-4.45-7-8.6v-4.9l7-3Z" fill="none" stroke="currentColor" stroke-width="1.55" stroke-linejoin="round"/>
    <path d="m8.75 12.25 2.2 2.1 4.4-5" fill="none" stroke="currentColor" stroke-width="1.55" stroke-linecap="round" stroke-linejoin="round"/>
  </symbol>
  <symbol id="icon-template" viewBox="0 0 24 24">
    <path d="M7 4.5h10v15H7v-15Z" fill="none" stroke="currentColor" stroke-width="1.55" stroke-linejoin="round"/>
    <path d="M9.5 8h5M9.5 11.5h5M9.5 15h3" fill="none" stroke="currentColor" stroke-width="1.55" stroke-linecap="round"/>
  </symbol>
  <symbol id="icon-money" viewBox="0 0 24 24">
    <path d="M3.5 7h17v10h-17V7Z" fill="none" stroke="currentColor" stroke-width="1.55" stroke-linejoin="round"/>
    <circle cx="12" cy="12" r="2.5" fill="none" stroke="currentColor" stroke-width="1.35"/>
    <path d="M6.5 10v4M17.5 10v4" fill="none" stroke="currentColor" stroke-width="1.55" stroke-linecap="round"/>
  </symbol>
  <symbol id="icon-memory" viewBox="0 0 24 24">
    <rect x="6" y="6" width="12" height="12" rx="1.5" fill="none" stroke="currentColor" stroke-width="1.55"/>
    <rect x="9" y="9" width="6" height="6" rx="1" fill="none" stroke="currentColor" stroke-width="1.35"/>
    <path d="M8 3.5v2.5M12 3.5v2.5M16 3.5v2.5M8 18v2.5M12 18v2.5M16 18v2.5M3.5 8H6M3.5 12H6M3.5 16H6M18 8h2.5M18 12h2.5M18 16h2.5" fill="none" stroke="currentColor" stroke-width="1.35" stroke-linecap="round"/>
  </symbol>
  <symbol id="icon-question" viewBox="0 0 24 24">
    <circle cx="12" cy="12" r="8" fill="none" stroke="currentColor" stroke-width="1.55"/>
    <path d="M9.75 9.4a2.4 2.4 0 0 1 4.65.85c0 1.85-2.4 1.95-2.4 3.7M12 16.7v.05" fill="none" stroke="currentColor" stroke-width="1.55" stroke-linecap="round"/>
  </symbol>
  <symbol id="icon-phone" viewBox="0 0 24 24">
    <path d="M7.2 4.5 9.4 8 7.9 9.8c1.1 2.35 3.05 4.25 5.4 5.35l1.75-1.5 3.55 2.2-.45 2.55c-.15.75-.8 1.3-1.58 1.3C9.8 19.7 4.3 14.2 4.3 7.43c0-.78.55-1.43 1.3-1.58l1.6-.35Z" fill="none" stroke="currentColor" stroke-width="1.55" stroke-linecap="round" stroke-linejoin="round"/>
  </symbol>
  <symbol id="icon-phone-footer" viewBox="0 0 24 24">
    <g transform="translate(20.5 3.5) scale(-1 1)">
      <path d="M1.05975 17C0.756917 17 0.504583 16.9 0.30275 16.7C0.100917 16.5 0 16.25 0 15.95V12.7078C0 12.4654 0.0798334 12.2488 0.2395 12.0578C0.399167 11.8668 0.60525 11.7379 0.85775 11.6713L3.6345 11.1058C3.87433 11.0724 4.10542 11.0884 4.32775 11.1538C4.55025 11.2193 4.73975 11.3334 4.89625 11.4963L7.14025 13.7598C7.85692 13.3546 8.52425 12.9168 9.14225 12.4463C9.76025 11.9758 10.3436 11.4661 10.8923 10.9173C11.4488 10.3648 11.9657 9.785 12.4432 9.178C12.9209 8.57083 13.3456 7.92692 13.7173 7.24625L11.4078 4.998C11.2616 4.86467 11.1603 4.69992 11.1038 4.50375C11.0474 4.30758 11.0391 4.073 11.0788 3.8L11.652 0.85775C11.7045 0.615417 11.8273 0.411917 12.0203 0.24725C12.2133 0.082417 12.436 0 12.6885 0H15.95C16.25 0 16.5 0.100916 16.7 0.30275C16.9 0.504583 17 0.756917 17 1.05975C17 2.94425 16.5618 4.83583 15.6855 6.7345C14.8092 8.63333 13.5746 10.3808 11.9818 11.977C10.3888 13.573 8.64133 14.8092 6.7395 15.6855C4.8375 16.5618 2.94425 17 1.05975 17ZM14.4115 5.827C14.7205 5.12567 14.9612 4.42242 15.1337 3.71725C15.3061 3.01225 15.4179 2.31808 15.4693 1.63475C15.4693 1.59625 15.4564 1.56417 15.4307 1.5385C15.4051 1.51283 15.373 1.5 15.3345 1.5H13.2115C13.1602 1.5 13.1185 1.51283 13.0865 1.5385C13.0545 1.56417 13.0321 1.60258 13.0193 1.65375L12.5693 3.8885C12.5564 3.927 12.5548 3.96867 12.5645 4.0135C12.574 4.05833 12.5948 4.09358 12.627 4.11925L14.4115 5.827ZM5.7115 14.4385L3.94625 12.6538C3.91408 12.6218 3.88358 12.6009 3.85475 12.5913C3.82592 12.5818 3.79225 12.5834 3.75375 12.5963L1.65375 13.0385C1.60258 13.0513 1.56417 13.0737 1.5385 13.1057C1.51283 13.1377 1.5 13.1794 1.5 13.2307V15.3345C1.5 15.373 1.51283 15.4051 1.5385 15.4307C1.56417 15.4564 1.59625 15.4693 1.63475 15.4693C2.26025 15.4384 2.93042 15.3362 3.64525 15.1625C4.35992 14.9888 5.04867 14.7475 5.7115 14.4385Z" fill="currentColor"/>
    </g>
  </symbol>
  <symbol id="icon-logout" viewBox="0 0 24 24">
    <path d="M10 5H5.5v14H10M13 8l4 4-4 4M8.5 12h8.25" fill="none" stroke="currentColor" stroke-width="1.55" stroke-linecap="round" stroke-linejoin="round"/>
  </symbol>
  <symbol id="icon-sun" viewBox="0 0 24 24">
    <circle cx="12" cy="12" r="3.3" fill="none" stroke="currentColor" stroke-width="1.45"/>
    <path d="M12 4v2M12 18v2M4 12h2M18 12h2M6.35 6.35l1.4 1.4M16.25 16.25l1.4 1.4M17.65 6.35l-1.4 1.4M7.75 16.25l-1.4 1.4" fill="none" stroke="currentColor" stroke-width="1.45" stroke-linecap="round"/>
  </symbol>
  <symbol id="icon-moon" viewBox="0 0 24 24">
    <path d="M17.75 15.75A7.5 7.5 0 0 1 8.25 6.25 7.2 7.2 0 1 0 17.75 15.75Z" fill="none" stroke="currentColor" stroke-width="1.55" stroke-linejoin="round"/>
  </symbol>
  <symbol id="icon-arrow-action" viewBox="0 0 24 24">
    <path d="M2.25 5.75V1.25H6.75V2.75H3.75V5.75H2.25ZM20.25 5.75V2.75H17.25V1.25H21.75V5.75H20.25ZM2.25 22.75V18.25H3.75V21.25H6.75V22.75H2.25ZM17.25 22.75V21.25H20.25V18.25H21.75V22.75H17.25ZM6.75 17.9423C6.75 18.0193 6.78208 18.0898 6.84625 18.1538C6.91025 18.2179 6.98075 18.25 7.05775 18.25H16.9423C17.0193 18.25 17.0898 18.2179 17.1538 18.1538C17.2179 18.0898 17.25 18.0193 17.25 17.9423V6.05775C17.25 5.98075 17.2179 5.91025 17.1538 5.84625C17.0898 5.78208 17.0193 5.75 16.9423 5.75H7.05775C6.98075 5.75 6.91025 5.78208 6.84625 5.84625C6.78208 5.91025 6.75 5.98075 6.75 6.05775V17.9423ZM7.05775 19.75C6.55258 19.75 6.125 19.575 5.775 19.225C5.425 18.875 5.25 18.4474 5.25 17.9423V6.05775C5.25 5.55258 5.425 5.125 5.775 4.775C6.125 4.425 6.55258 4.25 7.05775 4.25H16.9423C17.4474 4.25 17.875 4.425 18.225 4.775C18.575 5.125 18.75 5.55258 18.75 6.05775V17.9423C18.75 18.4474 18.575 18.875 18.225 19.225C17.875 19.575 17.4474 19.75 16.9423 19.75H7.05775ZM9.25 9.75H14.75V8.25H9.25V9.75ZM9.25 12.75H14.75V11.25H9.25V12.75ZM9.25 15.75H14.75V14.25H9.25V15.75ZM6.75 17.9423V5.75V18.25V17.9423Z" fill="currentColor"/>
  </symbol>
  <symbol id="icon-burger" viewBox="0 0 24 24">
    <path d="M5 7h14M5 12h14M5 17h14" fill="none" stroke="currentColor" stroke-width="1.7" stroke-linecap="round"/>
  </symbol>
</svg>
