<svg preserveAspectRatio="none" width="100%" height="100%" overflow="visible" style="display: block;" viewBox="0 0 15 18.9423" fill="none" xmlns="http://www.w3.org/2000/svg">
<path id="Vector" d="M7.5 10.2115C6.58717 10.2115 5.81733 9.898 5.1905 9.271C4.5635 8.64417 4.25 7.87433 4.25 6.9615C4.25 6.04867 4.5635 5.27883 5.1905 4.652C5.81733 4.025 6.58717 3.7115 7.5 3.7115C8.41283 3.7115 9.18267 4.025 9.8095 4.652C10.4365 5.27883 10.75 6.04867 10.75 6.9615C10.75 7.87433 10.4365 8.64417 9.8095 9.271C9.18267 9.898 8.41283 10.2115 7.5 10.2115ZM7.5 8.7115C7.9975 8.7115 8.4135 8.54417 8.748 8.2095C9.08267 7.875 9.25 7.459 9.25 6.9615C9.25 6.464 9.08267 6.048 8.748 5.7135C8.4135 5.37883 7.9975 5.2115 7.5 5.2115C7.0025 5.2115 6.5865 5.37883 6.252 5.7135C5.91733 6.048 5.75 6.464 5.75 6.9615C5.75 7.459 5.91733 7.875 6.252 8.2095C6.5865 8.54417 7.0025 8.7115 7.5 8.7115ZM7.5 18.9423C5.33717 18.3524 3.5465 17.0793 2.128 15.123C0.709333 13.1667 0 10.9795 0 8.5615V2.80775L7.5 0L15 2.80775V8.5615C15 10.9795 14.2907 13.1667 12.872 15.123C11.4535 17.0793 9.66283 18.3524 7.5 18.9423ZM7.5 1.596L1.5 3.8365V8.5615C1.5 9.51283 1.63625 10.4328 1.90875 11.3213C2.18108 12.2096 2.55958 13.0384 3.04425 13.8078C3.71858 13.4641 4.42467 13.1955 5.1625 13.002C5.90033 12.8083 6.6795 12.7115 7.5 12.7115C8.3205 12.7115 9.09967 12.8083 9.8375 13.002C10.5753 13.1955 11.2814 13.4641 11.9557 13.8078C12.4404 13.0384 12.8189 12.2096 13.0913 11.3213C13.3638 10.4328 13.5 9.51283 13.5 8.5615V3.8365L7.5 1.596ZM7.5 14.2115C6.85517 14.2115 6.235 14.2813 5.6395 14.421C5.044 14.5608 4.4815 14.757 3.952 15.0095C4.44817 15.5608 4.994 16.0375 5.5895 16.4395C6.185 16.8413 6.82183 17.1487 7.5 17.3615C8.17817 17.1487 8.81342 16.8413 9.40575 16.4395C9.99808 16.0375 10.5423 15.5608 11.0385 15.0095C10.509 14.757 9.94808 14.5608 9.35575 14.421C8.76342 14.2813 8.14483 14.2115 7.5 14.2115Z" fill="var(--fill-0, white)" fill-opacity="0.5"/>
</svg>
