<svg preserveAspectRatio="none" width="100%" height="100%" overflow="visible" style="display: block;" viewBox="0 0 12.6667 11.3333" fill="none" xmlns="http://www.w3.org/2000/svg">
<path d="M3.5 7.39733H4.29483V5.06417H3.5V5.83333H2.5V6.62817H3.5V7.39733ZM4.9615 6.62817H10.1667V5.83333H4.9615V6.62817ZM8.37183 4.93583H9.16667V4.16667H10.1667V3.37183H9.16667V2.60267H8.37183V4.93583ZM2.5 4.16667H7.70517V3.37183H2.5V4.16667ZM4 11.3333V10H1.20517C0.868389 10 0.583333 9.88333 0.35 9.65C0.116667 9.41667 0 9.13161 0 8.79483V1.20517C0 0.868389 0.116667 0.583333 0.35 0.35C0.583333 0.116667 0.868389 0 1.20517 0H11.4615C11.7983 0 12.0833 0.116667 12.3167 0.35C12.55 0.583333 12.6667 0.868389 12.6667 1.20517V8.79483C12.6667 9.13161 12.55 9.41667 12.3167 9.65C12.0833 9.88333 11.7983 10 11.4615 10H8.66667V11.3333H4ZM1.20517 9H11.4615C11.5128 9 11.5598 8.97861 11.6025 8.93583C11.6453 8.89317 11.6667 8.84617 11.6667 8.79483V1.20517C11.6667 1.15383 11.6453 1.10683 11.6025 1.06417C11.5598 1.02139 11.5128 1 11.4615 1H1.20517C1.15383 1 1.10683 1.02139 1.06417 1.06417C1.02139 1.10683 1 1.15383 1 1.20517V8.79483C1 8.84617 1.02139 8.89317 1.06417 8.93583C1.10683 8.97861 1.15383 9 1.20517 9Z" fill="var(--fill-0, white)" fill-opacity="0.5"/>
</svg>
