<svg preserveAspectRatio="none" width="100%" height="100%" overflow="visible" style="display: block;" viewBox="0 0 12.6667 11.3333" fill="none" xmlns="http://www.w3.org/2000/svg">
<path d="M5.92317 11.3333V10.3333H10.7948C10.8504 10.3333 10.8985 10.3162 10.9392 10.282C10.9797 10.2479 11 10.2031 11 10.1475V5.48467C11 4.21022 10.544 3.13733 9.632 2.266C8.72011 1.39467 7.62056 0.959 6.33333 0.959C5.04611 0.959 3.94656 1.39467 3.03467 2.266C2.12267 3.13733 1.66667 4.21022 1.66667 5.48467V9.41017H1.16667C0.847 9.41017 0.572667 9.29889 0.343667 9.07633C0.114556 8.85367 0 8.5825 0 8.26283V6.968C0 6.75178 0.0615556 6.55367 0.184667 6.37367C0.307778 6.19378 0.468444 6.04917 0.666667 5.93983L0.6975 5.0885C0.752167 4.36283 0.940611 3.69061 1.26283 3.07183C1.58506 2.45306 1.99828 1.91439 2.5025 1.45583C3.00683 0.997277 3.58889 0.64 4.24867 0.384C4.90856 0.128 5.60344 0 6.33333 0C7.06322 0 7.75639 0.128 8.41283 0.384C9.06928 0.64 9.65133 0.995555 10.159 1.45067C10.6667 1.90578 11.0799 2.44272 11.3987 3.0615C11.7174 3.68039 11.9076 4.35261 11.9692 5.07817L12 5.91283C12.194 6.00428 12.3536 6.13506 12.4788 6.30517C12.6041 6.47528 12.6667 6.665 12.6667 6.87433V8.36283C12.6667 8.57217 12.6041 8.76189 12.4788 8.932C12.3536 9.10211 12.194 9.23289 12 9.32433V10.1475C12 10.4756 11.8823 10.7553 11.6468 10.9865C11.4113 11.2177 11.1273 11.3333 10.7948 11.3333H5.92317ZM4.04417 6.68017C3.92928 6.5695 3.87183 6.4325 3.87183 6.26917C3.87183 6.10594 3.92928 5.96794 4.04417 5.85517C4.15917 5.74228 4.29828 5.68583 4.4615 5.68583C4.62483 5.68583 4.76394 5.74228 4.87883 5.85517C4.99383 5.96794 5.05133 6.10594 5.05133 6.26917C5.05133 6.4325 4.99383 6.5695 4.87883 6.68017C4.76394 6.79083 4.62483 6.84617 4.4615 6.84617C4.29828 6.84617 4.15917 6.79083 4.04417 6.68017ZM7.78783 6.68017C7.67283 6.5695 7.61533 6.4325 7.61533 6.26917C7.61533 6.10594 7.67283 5.96794 7.78783 5.85517C7.90272 5.74228 8.04183 5.68583 8.20517 5.68583C8.36839 5.68583 8.5075 5.74228 8.6225 5.85517C8.73739 5.96794 8.79483 6.10594 8.79483 6.26917C8.79483 6.4325 8.73739 6.5695 8.6225 6.68017C8.5075 6.79083 8.36839 6.84617 8.20517 6.84617C8.04183 6.84617 7.90272 6.79083 7.78783 6.68017ZM2.58083 5.8C2.51161 4.712 2.85006 3.781 3.59617 3.007C4.34228 2.23311 5.26578 1.84617 6.36667 1.84617C7.29144 1.84617 8.10744 2.13228 8.81467 2.7045C9.522 3.27672 9.95128 4.0175 10.1025 4.92683C9.1555 4.91572 8.2805 4.66705 7.4775 4.18083C6.6745 3.6945 6.05806 3.02783 5.62817 2.18083C5.45894 3.00983 5.10428 3.74272 4.56417 4.3795C4.02394 5.01628 3.36283 5.48978 2.58083 5.8Z" fill="var(--fill-0, #0C6EBF)" fill-opacity="0.5"/>
</svg>
