<svg preserveAspectRatio="none" width="100%" height="100%" overflow="visible" style="display: block;" viewBox="0 0 12.4103 12.1025" fill="none" xmlns="http://www.w3.org/2000/svg">
<path d="M12.4103 12.1025L10.0513 9.7435H3.5385C3.21417 9.7435 2.9365 9.628 2.7055 9.397C2.4745 9.16611 2.359 8.88844 2.359 8.564V8.15383H9.6155C9.94683 8.15383 10.2305 8.03583 10.4665 7.79983C10.7025 7.56383 10.8205 7.28011 10.8205 6.94867V2.33333H11.2308C11.5552 2.33333 11.8328 2.44883 12.0638 2.67983C12.2948 2.91083 12.4103 3.1885 12.4103 3.51283V12.1025ZM1 6.76417L1.94367 5.8205H8.28217C8.34194 5.8205 8.39106 5.80128 8.4295 5.76283C8.46794 5.72439 8.48717 5.67522 8.48717 5.61533V1.20517C8.48717 1.14528 8.46794 1.09611 8.4295 1.05767C8.39106 1.01922 8.34194 1 8.28217 1H1.20517C1.14539 1 1.09622 1.01922 1.05767 1.05767C1.01922 1.09611 1 1.14528 1 1.20517V6.76417ZM0 9.1795V1.20517C0 0.873722 0.118 0.59 0.354 0.354C0.59 0.118 0.873722 0 1.20517 0H8.28217C8.6135 0 8.89717 0.118 9.13317 0.354C9.36917 0.59 9.48717 0.873722 9.48717 1.20517V5.61533C9.48717 5.94678 9.36917 6.2305 9.13317 6.4665C8.89717 6.7025 8.6135 6.8205 8.28217 6.8205H2.359L0 9.1795Z" fill="var(--fill-0, #0C6EBF)" fill-opacity="0.5"/>
</svg>
