<svg preserveAspectRatio="none" width="100%" height="100%" overflow="visible" style="display: block;" viewBox="0 0 21.5 21.5" fill="none" xmlns="http://www.w3.org/2000/svg">
<path id="Union" d="M14.4131 3.00413e-07C15.6078 -9.69827e-06 16.5584 -0.000155394 17.3203 0.0722659C18.1017 0.146566 18.7631 0.302436 19.3516 0.663086C19.9569 1.0341 20.466 1.5431 20.8369 2.14844C21.1976 2.73698 21.3534 3.3983 21.4277 4.17969C21.5002 4.94169 21.5001 5.89219 21.5 7.08691V7.90234C21.5001 8.75265 21.5004 9.42913 21.4629 9.97754C21.4246 10.5386 21.344 11.0206 21.1572 11.4717C20.7005 12.5743 19.8243 13.4505 18.7217 13.9072C18.3426 14.0643 17.9383 14.1475 17.4805 14.1924C17.4752 14.3315 17.4686 14.464 17.46 14.5898C17.4193 15.1858 17.3351 15.6938 17.1387 16.168C16.6566 17.3318 15.7313 18.2562 14.5674 18.7383C13.9706 18.9854 13.3122 19.0585 12.4844 19.085C12.0391 19.0993 11.7543 19.1085 11.5381 19.1348C11.3343 19.1597 11.2574 19.1932 11.2158 19.2178C11.1697 19.245 11.1061 19.2954 10.9951 19.4482C10.8753 19.6133 10.7393 19.8409 10.5244 20.2041L10.2646 20.6426C9.5877 21.7859 7.91236 21.7858 7.23535 20.6426L6.97559 20.2041C6.76063 19.8409 6.62474 19.6133 6.50488 19.4482C6.39391 19.2954 6.33029 19.245 6.28418 19.2178C6.24263 19.1932 6.16585 19.1596 5.96191 19.1348C5.74566 19.1084 5.4609 19.0993 5.01563 19.085C4.18785 19.0585 3.52943 18.9854 2.93262 18.7383C1.76876 18.2562 0.843435 17.3318 0.361328 16.168C0.164946 15.6938 0.0807134 15.1858 0.0400392 14.5898C0.000229243 14.0064 1.80306e-07 13.2857 1.80306e-07 12.377V11.5117C-9.81816e-06 10.2354 0.000124036 9.22352 0.0771486 8.41309C0.15604 7.58335 0.321211 6.8871 0.700195 6.26855C1.09186 5.62941 1.62941 5.09187 2.26855 4.7002C2.88709 4.32121 3.58336 4.15604 4.41309 4.07715C4.62392 4.05711 4.84873 4.04222 5.08789 4.03125C5.16792 3.31141 5.3271 2.69671 5.66309 2.14844C6.03409 1.5431 6.5431 1.03409 7.14844 0.663086C7.73697 0.302436 8.39828 0.146566 9.17969 0.0722659C9.94162 -0.000146038 10.8922 -9.69784e-06 12.0869 3.00413e-07H14.4131ZM7.5498 5.5C6.22603 5.5 5.28583 5.5008 4.55469 5.57031C3.83473 5.63877 3.39503 5.76818 3.05176 5.97852C2.61446 6.2465 2.2465 6.61445 1.97852 7.05176C1.76818 7.39504 1.63877 7.83473 1.57031 8.55469C1.5008 9.28587 1.5 10.226 1.5 11.5498V12.3496C1.5 13.2916 1.50024 13.961 1.53613 14.4873C1.57159 15.0069 1.63903 15.3328 1.74707 15.5938C2.07687 16.3899 2.70972 17.0226 3.50586 17.3525C3.84004 17.4909 4.27122 17.5596 5.06348 17.585L5.09473 17.5859C5.5 17.5988 5.85259 17.611 6.14355 17.6465C6.45367 17.6843 6.7583 17.7556 7.04785 17.9268C7.33288 18.0953 7.53905 18.319 7.71875 18.5664C7.88501 18.7953 8.0568 19.0849 8.25098 19.4131L8.52637 19.8779C8.57178 19.9546 8.65076 20 8.75 20C8.84921 20 8.92824 19.9546 8.97363 19.8779L9.24902 19.4131C9.44312 19.085 9.61495 18.7953 9.78125 18.5664C9.96094 18.319 10.1671 18.0953 10.4521 17.9268C10.7416 17.7556 11.0464 17.6843 11.3564 17.6465C11.6475 17.611 12 17.5988 12.4053 17.5859L12.4365 17.585C13.2288 17.5596 13.6599 17.4909 13.9941 17.3525C14.7903 17.0226 15.4232 16.3899 15.7529 15.5938C15.861 15.3328 15.9284 15.0069 15.9639 14.4873C15.9997 13.961 16 13.2916 16 12.3496V11.5498C16 10.226 15.9992 9.28587 15.9297 8.55469C15.8612 7.83472 15.7318 7.39504 15.5215 7.05176C15.2535 6.61445 14.8855 6.2465 14.4482 5.97852C14.105 5.76817 13.6654 5.63877 12.9453 5.57031C12.2141 5.5008 11.274 5.5 9.9502 5.5H7.5498ZM5.25 10.75C5.80229 10.75 6.25 11.1977 6.25 11.75C6.25 12.3023 5.80229 12.75 5.25 12.75C4.69772 12.75 4.25 12.3023 4.25 11.75C4.25 11.1977 4.69772 10.75 5.25 10.75ZM8.75 10.75C9.3023 10.75 9.75 11.1977 9.75 11.75C9.75 12.3023 9.3023 12.75 8.75 12.75C8.19772 12.75 7.75 12.3023 7.75 11.75C7.75 11.1977 8.19772 10.75 8.75 10.75ZM12.25 10.75C12.8023 10.75 13.25 11.1977 13.25 11.75C13.25 12.3023 12.8023 12.75 12.25 12.75C11.6977 12.75 11.25 12.3023 11.25 11.75C11.25 11.1977 11.6977 10.75 12.25 10.75ZM12.125 1.5C10.883 1.5 10.004 1.50051 9.32129 1.56543C8.64966 1.62928 8.24585 1.75043 7.93262 1.94238C7.52899 2.18974 7.18975 2.52899 6.94238 2.93262C6.78185 3.19459 6.6725 3.51679 6.60352 4.00098C6.89024 3.99978 7.19293 4 7.51172 4H9.98828C11.2647 3.99999 12.2765 4.00012 13.0869 4.07715C13.9166 4.15604 14.6129 4.32122 15.2314 4.7002C15.8705 5.09187 16.4082 5.62941 16.7998 6.26855C17.1788 6.88709 17.344 7.58336 17.4229 8.41309C17.4998 9.22352 17.5 10.2353 17.5 11.5117V12.6797C17.7753 12.644 17.9767 12.5926 18.1484 12.5215C18.8832 12.217 19.467 11.6332 19.7715 10.8984C19.87 10.6605 19.9327 10.3607 19.9658 9.87598C19.9993 9.38448 20 8.75887 20 7.875V7.125C20 5.88295 19.9996 5.00403 19.9346 4.32129C19.8708 3.64969 19.7495 3.24585 19.5576 2.93262C19.3102 2.52901 18.971 2.18974 18.5674 1.94238C18.2542 1.75044 17.8503 1.62928 17.1787 1.56543C16.496 1.50051 15.617 1.5 14.375 1.5H12.125Z" fill="var(--fill-0, #ED5A20)"/>
</svg>
