<svg preserveAspectRatio="none" width="100%" height="100%" overflow="visible" style="display: block;" viewBox="0 0 21.5 21.5" fill="none" xmlns="http://www.w3.org/2000/svg">
<path id="Union" d="M10.75 0C16.687 5.40765e-06 21.5 4.81294 21.5 10.75C21.5 16.687 16.687 21.5 10.75 21.5C4.81294 21.5 5.40781e-06 16.687 0 10.75C4.95061e-06 4.81294 4.81294 4.94804e-06 10.75 0ZM10.75 1.5C5.64137 1.5 1.5 5.64137 1.5 10.75C1.50001 15.8586 5.64137 20 10.75 20C15.8586 20 20 15.8586 20 10.75C20 5.64137 15.8586 1.50001 10.75 1.5ZM12.7412 4.95312C13.0168 4.89153 13.3679 4.89571 13.6807 5.10938C13.9937 5.32322 14.1256 5.64898 14.168 5.92871C14.2098 6.20479 14.1771 6.49711 14.1084 6.77832V6.78027L13.3379 9.89258L14.2646 10.123C14.724 10.2395 15.3214 10.538 15.4404 11.1924C15.5591 11.8457 15.1061 12.3345 14.7197 12.6045L14.7168 12.6064L9.53906 16.1953C9.30167 16.3609 9.04078 16.4967 8.76855 16.5576C8.49306 16.6191 8.14176 16.6139 7.8291 16.4004C7.51626 16.1865 7.38418 15.8607 7.3418 15.5811C7.30005 15.3052 7.33272 15.0134 7.40137 14.7324L8.17188 11.6172L7.24902 11.3877C7.24803 11.3874 7.24709 11.387 7.24609 11.3867C6.78679 11.2704 6.18848 10.9728 6.06934 10.3184C5.9505 9.66474 6.40451 9.17522 6.79102 8.90527L6.79297 8.90332L11.9727 5.31348C12.2096 5.14848 12.4696 5.01383 12.7412 4.95312ZM7.85449 9.99316L9.26074 10.3418C9.66245 10.4416 9.90702 10.8482 9.80762 11.25L8.93164 14.791L13.6553 11.5176L12.249 11.168C11.8474 11.0681 11.6028 10.6615 11.7021 10.2598L12.5781 6.71973L7.85449 9.99316Z" fill="var(--fill-0, #0C6EBF)"/>
</svg>
