<svg width="24" height="24" viewBox="0 0 24 24" fill="none" xmlns="http://www.w3.org/2000/svg">
<path d="M4 18.5V17.35C4 16.67 4.36 16.12 5.08 15.7C5.8 15.28 6.73 15.07 7.88 15.07C8.07 15.07 8.26 15.08 8.45 15.09C8.64 15.1 8.83 15.13 9.03 15.16C8.83 15.47 8.68 15.8 8.58 16.13C8.48 16.47 8.43 16.82 8.43 17.17V18.5H4ZM10 18.5V17.2C10 16.73 10.13 16.3 10.39 15.91C10.66 15.52 11.04 15.18 11.53 14.89C12.03 14.6 12.61 14.39 13.28 14.24C13.96 14.1 14.7 14.03 15.5 14.03C16.31 14.03 17.06 14.1 17.73 14.24C18.41 14.39 18.99 14.6 19.48 14.89C19.98 15.18 20.36 15.52 20.61 15.91C20.87 16.3 21 16.73 21 17.2V18.5H10ZM12.05 17H18.94C18.78 16.6 18.42 16.27 17.86 16.03C17.29 15.78 16.5 15.66 15.5 15.66C14.5 15.66 13.72 15.78 13.16 16.03C12.59 16.27 12.22 16.6 12.05 17ZM7.88 14.1C7.4 14.1 6.99 13.93 6.65 13.59C6.32 13.25 6.15 12.85 6.15 12.38C6.15 11.9 6.32 11.5 6.66 11.16C7 10.83 7.4 10.66 7.88 10.66C8.36 10.66 8.77 10.83 9.1 11.16C9.43 11.5 9.6 11.9 9.6 12.38C9.6 12.85 9.43 13.25 9.1 13.59C8.77 13.93 8.36 14.1 7.88 14.1ZM19.25 14.1C18.78 14.1 18.38 13.93 18.04 13.59C17.71 13.25 17.54 12.85 17.54 12.38C17.54 11.9 17.71 11.5 18.04 11.16C18.38 10.83 18.78 10.66 19.25 10.66C19.73 10.66 20.14 10.83 20.47 11.16C20.8 11.5 20.96 11.9 20.96 12.38C20.96 12.85 20.8 13.25 20.47 13.59C20.14 13.93 19.73 14.1 19.25 14.1ZM15.5 13.28C14.78 13.28 14.17 13.03 13.66 12.52C13.16 12.02 12.9 11.41 12.9 10.69C12.9 9.95 13.16 9.34 13.66 8.84C14.17 8.34 14.78 8.09 15.5 8.09C16.24 8.09 16.85 8.34 17.35 8.84C17.85 9.34 18.1 9.95 18.1 10.69C18.1 11.41 17.85 12.02 17.35 12.52C16.85 13.03 16.24 13.28 15.5 13.28ZM15.5 11.78C15.81 11.78 16.07 11.67 16.28 11.46C16.49 11.25 16.6 10.99 16.6 10.69C16.6 10.38 16.49 10.12 16.28 9.91C16.07 9.7 15.81 9.59 15.5 9.59C15.2 9.59 14.94 9.7 14.73 9.91C14.51 10.12 14.4 10.38 14.4 10.69C14.4 10.99 14.51 11.25 14.73 11.46C14.94 11.67 15.2 11.78 15.5 11.78Z" fill="#0C6EBF"/>
</svg>
