<svg preserveAspectRatio="none" width="100%" height="100%" overflow="visible" style="display: block;" viewBox="0 0 23.0586 22.4549" fill="none" xmlns="http://www.w3.org/2000/svg">
<path id="Union" d="M11.7646 0.173696C13.4973 -0.482658 15.3495 0.802937 15.3496 2.65514V5.70495H17.4902C19.9743 5.70507 22 7.73157 22 10.2157V11.0585C22.6223 11.3335 23.0586 11.9499 23.0586 12.6756V14.7352C23.0586 15.4609 22.6221 16.0763 22 16.3514V16.9452C22 19.4293 19.9743 21.4548 17.4902 21.4549H7.65234C6.84917 22.0892 5.841 22.4549 4.75 22.4549C3.0179 22.4549 1.50931 21.5294 0.688477 20.1532C0.248464 19.4374 0 18.5933 0 17.7049C7.64897e-05 16.3447 0.571924 15.11 1.5 14.244V6.54577C1.5 5.04544 2.42215 3.70458 3.8252 3.1737L11.7646 0.173696ZM4.75 14.4549C3.98854 14.4549 3.28183 14.7222 2.71777 15.1717C2.71651 15.1727 2.71416 15.1727 2.71289 15.1737C1.96922 15.765 1.50008 16.6807 1.5 17.7049C1.5 18.3046 1.66498 18.8703 1.9541 19.3485L1.96875 19.3719L1.97461 19.3817C2.53442 20.3228 3.56413 20.9549 4.75 20.9549C5.57269 20.9549 6.31414 20.6547 6.87793 20.1473L6.8877 20.1395C6.89099 20.1367 6.89509 20.1335 6.89844 20.1307C7.14131 19.927 7.35549 19.6738 7.52246 19.3876L7.53125 19.3719C7.82911 18.8889 8 18.3143 8 17.7049C7.99985 15.9093 6.54569 14.455 4.75 14.4549ZM6.00977 7.20495C4.35409 7.20507 3.00001 8.55999 3 10.2157V13.2909C3.01712 13.2841 3.03454 13.278 3.05176 13.2714C3.0942 13.255 3.13669 13.2387 3.17969 13.2235C3.20908 13.2131 3.23891 13.204 3.26855 13.1942C3.30391 13.1825 3.3393 13.1709 3.375 13.16C3.40966 13.1495 3.44452 13.1395 3.47949 13.1298C3.51224 13.1206 3.54511 13.1118 3.57812 13.1034C3.61349 13.0943 3.6489 13.0853 3.68457 13.077C3.71632 13.0697 3.74829 13.0632 3.78027 13.0565C3.81988 13.0482 3.85946 13.0394 3.89941 13.0321C3.93148 13.0262 3.96381 13.0217 3.99609 13.0165C4.02922 13.0111 4.06236 13.0055 4.0957 13.0008C4.14075 12.9946 4.18602 12.9892 4.23145 12.9842C4.2581 12.9813 4.28474 12.9779 4.31152 12.9755C4.35885 12.9711 4.4064 12.9677 4.4541 12.9647C4.47945 12.9631 4.50482 12.961 4.53027 12.9598C4.60311 12.9565 4.67639 12.9549 4.75 12.9549L4.99414 12.9618C7.5047 13.0888 9.49986 15.1627 9.5 17.7049C9.5 17.811 9.49526 17.9167 9.48828 18.0214C9.48719 18.0377 9.48563 18.0539 9.48438 18.0702C9.47747 18.1597 9.46794 18.2485 9.45605 18.3368C9.45152 18.3705 9.44568 18.4039 9.44043 18.4374C9.42945 18.5074 9.41836 18.5772 9.4043 18.6464C9.39676 18.6834 9.38732 18.7199 9.37891 18.7567C9.36482 18.8183 9.35048 18.8796 9.33398 18.9403C9.32205 18.9842 9.30907 19.0277 9.2959 19.0712C9.28036 19.1224 9.26334 19.173 9.24609 19.2235C9.23076 19.2684 9.21489 19.313 9.19824 19.3573C9.17589 19.4168 9.15263 19.4757 9.12793 19.534C9.1141 19.5667 9.10049 19.5994 9.08594 19.6317C9.06191 19.685 9.03671 19.7377 9.01074 19.7899C8.98907 19.8335 8.96733 19.877 8.94434 19.9198C8.93814 19.9313 8.93305 19.9435 8.92676 19.9549H17.4902C19.1459 19.9548 20.5 18.6009 20.5 16.9452V16.5057H19.3486C17.9379 16.5056 16.5687 15.4728 16.4414 13.9481L16.4316 13.787C16.4063 13.0409 16.6843 12.3474 17.1543 11.8329C17.1878 11.7961 17.2224 11.7603 17.2578 11.7255C17.7694 11.2037 18.4709 10.9052 19.2285 10.9051H20.5V10.2157C20.5 8.55999 19.1459 7.20507 17.4902 7.20495H6.00977ZM5.80176 16.1737C6.10585 15.8924 6.58106 15.9116 6.8623 16.2157C7.1433 16.5198 7.12431 16.9941 6.82031 17.2753L4.69043 19.245C4.39481 19.5184 3.93624 19.51 3.65137 19.2255L2.66113 18.2352C2.36829 17.9424 2.36836 17.4676 2.66113 17.1747C2.95403 16.8818 3.42879 16.8818 3.72168 17.1747L4.20215 17.6542L5.80176 16.1737ZM19.0977 12.412C18.995 12.422 18.8967 12.4442 18.8037 12.4764C18.7581 12.4922 18.7138 12.5104 18.6709 12.5311C18.6304 12.5507 18.5915 12.5728 18.5537 12.5965C18.5322 12.6101 18.5108 12.6237 18.4902 12.6385C18.4321 12.6804 18.3773 12.7267 18.3271 12.7782C18.3227 12.7827 18.318 12.7874 18.3135 12.7919C18.0517 13.0475 17.9035 13.41 17.9346 13.7958L17.9375 13.8231C17.9905 14.4579 18.6008 15.0046 19.3496 15.0048H21.25C21.2565 15.0048 21.263 15.0056 21.2695 15.0057H21.29C21.4525 14.996 21.5586 14.8688 21.5586 14.7352V12.6756C21.5586 12.5421 21.4525 12.4149 21.29 12.4051H19.2305L19.0977 12.412ZM13.75 9.95495C14.1641 9.95495 14.4999 10.2909 14.5 10.7049C14.5 11.1192 14.1642 11.4549 13.75 11.4549H6.75C6.33579 11.4549 6 11.1192 6 10.7049C6.00015 10.2909 6.33588 9.95495 6.75 9.95495H13.75ZM13.8496 2.65514C13.8495 1.84772 13.042 1.29385 12.2949 1.57702L4.35547 4.57702C3.53854 4.88615 3 5.66611 3 6.54577V6.8612C3.7992 6.14307 4.85496 5.705 6.00977 5.70495H13.8496V2.65514Z" fill="var(--fill-0, #0C6EBF)"/>
</svg>
