<svg preserveAspectRatio="xMidYMid meet" width="100%" height="100%" overflow="visible" style="display: block;" viewBox="0 0 28.5 22.5" fill="none" xmlns="http://www.w3.org/2000/svg">
<path id="Vector" d="M28.5 2.71163V19.7884C28.5 20.5461 28.2375 21.1875 27.7125 21.7125C27.1875 22.2375 26.5461 22.5 25.7884 22.5H2.71163C1.95387 22.5 1.3125 22.2375 0.7875 21.7125C0.2625 21.1875 0 20.5461 0 19.7884V2.71163C0 1.95387 0.2625 1.3125 0.7875 0.7875C1.3125 0.2625 1.95387 0 2.71163 0H25.7884C26.5461 0 27.1875 0.2625 27.7125 0.7875C28.2375 1.3125 28.5 1.95387 28.5 2.71163ZM2.25 5.856H26.25V2.71163C26.25 2.59613 26.2019 2.49037 26.1056 2.39437C26.0096 2.29812 25.9039 2.25 25.7884 2.25H2.71163C2.59613 2.25 2.49038 2.29812 2.39438 2.39437C2.29813 2.49037 2.25 2.59613 2.25 2.71163V5.856ZM2.25 10.644V19.7884C2.25 19.9039 2.29813 20.0096 2.39438 20.1056C2.49038 20.2019 2.59613 20.25 2.71163 20.25H25.7884C25.9039 20.25 26.0096 20.2019 26.1056 20.1056C26.2019 20.0096 26.25 19.9039 26.25 19.7884V10.644H2.25Z" fill="var(--fill-0, #0C6EBF)" fill-opacity="0.5"/>
</svg>
