<svg preserveAspectRatio="none" width="100%" height="100%" overflow="visible" style="display: block;" viewBox="0 0 83.7477 24" fill="none" xmlns="http://www.w3.org/2000/svg">
<g id="Group 1159">
<path id="Vector" d="M16.6449 0H7.31905C2.47904 0 0 2.2463 0 6.6601V10.9163C0.393497 10.2069 0.865695 9.53695 1.49529 8.98522C3.18733 7.29064 5.50896 6.42364 8.3815 6.42364C11.2147 6.42364 13.5363 7.29064 15.2284 8.98522C16.9597 10.6404 17.7861 12.8867 17.7861 15.6847C17.7861 18.4828 16.9597 20.7291 15.2284 22.3842C14.5594 23.0542 13.7724 23.6059 12.9067 24H16.6449C21.4849 24 23.9639 21.7536 23.9639 17.3399V6.6601C23.9639 2.2463 21.4849 0 16.6449 0ZM12.8674 15.6847C12.8674 17.3793 12.4739 18.7192 11.6475 19.6256C10.8605 20.5714 9.75874 21.0444 8.34216 21.0444C5.50896 21.0444 3.85628 19.074 3.85628 15.6847C3.85628 12.2956 5.50896 10.2857 8.34216 10.2857C11.1753 10.2857 12.8674 12.2956 12.8674 15.6847Z" fill="var(--fill-0, #CC0000)"/>
<path id="Vector_2" d="M32.332 18.1285C32.332 18.2253 32.2838 18.322 32.2355 18.3704C32.1872 18.4187 32.0907 18.4187 31.9458 18.4187H30.2563C30.1114 18.4187 30.0149 18.4187 29.9666 18.3704C29.9183 18.322 29.8701 18.2253 29.8701 18.1285V10.7271C29.8701 10.3401 29.9666 10.0499 30.0632 9.80802C30.208 9.56614 30.4976 9.421 30.9321 9.32427C31.0286 9.27589 31.1735 9.27589 31.3666 9.22751C31.5114 9.22751 31.7527 9.22751 31.9458 9.17913C32.1872 9.17913 32.3803 9.17913 32.6219 9.13075C32.815 9.13075 33.0081 9.13075 33.2012 9.13075C33.877 9.13075 34.4563 9.17913 34.9873 9.32427C35.4702 9.421 35.9047 9.66288 36.2909 9.95313C36.6771 9.66288 37.1116 9.46938 37.6426 9.32427C38.1738 9.17913 38.7048 9.13075 39.2358 9.13075C39.9599 9.13075 40.5875 9.22751 41.1187 9.421C41.6014 9.6145 42.0359 9.90476 42.3738 10.2917C42.6635 10.6788 42.9048 11.1141 43.0497 11.6463C43.1945 12.1784 43.291 12.7589 43.291 13.3877V18.1285C43.291 18.2253 43.291 18.322 43.2427 18.3704C43.1945 18.4187 43.0979 18.4187 42.9048 18.4187H41.2152C41.1187 18.4187 41.0221 18.4187 40.9739 18.3704C40.8771 18.322 40.8771 18.2253 40.8771 18.1285V13.678C40.8771 12.8556 40.7323 12.2751 40.4427 11.8398C40.2013 11.4528 39.7185 11.2592 38.9462 11.2592C38.7531 11.2592 38.5117 11.2592 38.1738 11.3076C37.8839 11.4044 37.6426 11.4528 37.4495 11.5495C37.546 11.8398 37.6426 12.13 37.6426 12.4686C37.6908 12.8073 37.7391 13.1459 37.7391 13.5329V18.1285C37.7391 18.2253 37.6908 18.322 37.6426 18.3704C37.5943 18.4187 37.4977 18.4187 37.3529 18.4187H35.6633C35.5185 18.4187 35.422 18.4187 35.3737 18.3704C35.3252 18.322 35.2769 18.2253 35.2769 18.1285V13.4361C35.2769 13.0975 35.2769 12.7589 35.2287 12.4686C35.1804 12.2267 35.0838 11.9849 34.939 11.7914C34.7942 11.5979 34.6011 11.4528 34.3597 11.356C34.0701 11.2592 33.7805 11.1625 33.3943 11.1625C33.2494 11.1625 33.1046 11.2109 32.8632 11.2109C32.6702 11.2109 32.4769 11.2592 32.332 11.2592V18.1285ZM71.0988 18.0801C71.0988 18.2736 71.1471 18.3704 71.1954 18.3704C71.2436 18.4187 71.3402 18.4187 71.485 18.4187H73.1748C73.2714 18.4187 73.3679 18.4187 73.4162 18.3704C73.5127 18.322 73.5127 18.2253 73.5127 18.1285C73.5127 14.1134 73.5127 10.0983 73.5127 6.08313C73.5127 5.98639 73.5127 5.88963 73.4162 5.84125C73.3679 5.7929 73.2714 5.7929 73.1748 5.7929H71.485C71.3402 5.7929 71.2436 5.7929 71.1954 5.84125C71.1471 5.84125 71.0988 5.93801 71.0988 6.13151C71.0988 10.0983 71.0988 14.1134 71.0988 18.0801ZM79.837 9.13075C81.1406 9.13075 82.1061 9.46938 82.7819 10.1466C83.4097 10.8239 83.7476 11.7914 83.7476 13.0491C83.7476 13.6296 83.6511 14.065 83.4097 14.2585C83.2166 14.5004 82.8787 14.5971 82.4923 14.5971H78.244C78.244 14.9841 78.2923 15.2744 78.3888 15.5162C78.4853 15.7581 78.6302 15.9516 78.8233 16.0968C79.0164 16.2419 79.2095 16.3386 79.4508 16.387C79.6922 16.4837 79.9336 16.4837 80.2234 16.4837C80.5613 16.4837 80.8992 16.4354 81.2372 16.387C81.5751 16.2903 81.8647 16.1935 82.1544 16.0484C82.2992 16 82.3957 16 82.444 16C82.4923 16.0484 82.5406 16.0968 82.5888 16.1935L83.12 17.4512C83.1683 17.548 83.1683 17.5964 83.12 17.6931C83.12 17.7415 83.0235 17.7899 82.9752 17.8382C82.5406 18.1285 82.0578 18.322 81.5268 18.4187C80.9958 18.5639 80.4648 18.6122 79.9818 18.6122C78.5336 18.6122 77.4716 18.2253 76.7473 17.4996C76.0714 16.7256 75.6853 15.5646 75.6853 13.9199C75.6853 13.1943 75.7818 12.517 75.9749 11.8881C76.168 11.3076 76.4576 10.8239 76.8438 10.3885C77.1817 9.95313 77.6164 9.66288 78.1474 9.46938C78.6302 9.22751 79.2095 9.13075 79.837 9.13075ZM79.8853 11.2109C79.4508 11.2109 79.0646 11.356 78.775 11.6946C78.4853 12.0333 78.3405 12.4686 78.2922 13.0008H81.382C81.382 12.7105 81.382 12.517 81.3337 12.2751C81.2854 12.0333 81.1889 11.8881 81.0923 11.6946C80.9958 11.5495 80.8027 11.4528 80.6096 11.356C80.4648 11.2592 80.1751 11.2109 79.8853 11.2109ZM68.4436 7.00227C68.4436 7.38926 68.347 7.72788 68.0574 8.01813C67.7677 8.26001 67.4298 8.40514 67.0436 8.40514C66.6574 8.40514 66.3678 8.26001 66.0779 8.01813C65.7883 7.72788 65.6917 7.38926 65.6917 7.00227C65.6917 6.7604 65.6917 6.56688 65.7883 6.42176C65.8366 6.22827 65.9331 6.08313 66.0779 5.93801C66.223 5.84125 66.3678 5.74452 66.5126 5.64776C66.7057 5.59938 66.8505 5.55102 67.0436 5.55102C67.2367 5.55102 67.4298 5.59938 67.6229 5.64776C67.7677 5.74452 67.9125 5.84125 68.0574 5.93801C68.2022 6.08313 68.2987 6.22827 68.347 6.42176C68.4436 6.56688 68.4436 6.7604 68.4436 7.00227ZM68.2505 18.1285C68.2505 18.2253 68.2022 18.322 68.2022 18.3704C68.1539 18.4187 68.0574 18.4187 67.8643 18.4187H66.1747C66.0297 18.4187 65.9814 18.4187 65.8848 18.3704C65.8366 18.322 65.8366 18.2253 65.8366 18.1285V9.66288C65.8366 9.51776 65.8366 9.46938 65.8848 9.421C65.9814 9.37263 66.0297 9.37263 66.1747 9.37263H67.8643C68.0574 9.37263 68.1539 9.37263 68.2022 9.421C68.2022 9.46938 68.2505 9.51776 68.2505 9.66288V18.1285ZM63.6642 13.8231C63.6642 14.5004 63.5677 15.1293 63.4229 15.7097C63.278 16.2903 62.9882 16.774 62.6503 17.2094C62.3124 17.6447 61.8296 17.9834 61.2986 18.2253C60.7193 18.5155 60.0433 18.6122 59.2709 18.6122C58.6916 18.6122 58.0641 18.5639 57.4363 18.4671C56.8087 18.3704 56.2294 18.1769 55.6984 17.935C55.5536 17.8866 55.5053 17.8382 55.4571 17.7415C55.4088 17.6447 55.4088 17.548 55.4088 17.4512V6.13151C55.4088 5.98639 55.4571 5.88963 55.5053 5.84125C55.5536 5.7929 55.6502 5.7929 55.795 5.7929H57.4846C57.6294 5.7929 57.6777 5.7929 57.7261 5.84125C57.8227 5.88963 57.8227 5.98639 57.8227 6.13151L57.871 9.37263C58.1606 9.27589 58.4502 9.22751 58.7882 9.17913C59.1261 9.13075 59.464 9.13075 59.8019 9.13075C60.478 9.13075 61.1055 9.22751 61.5883 9.46938C62.071 9.71126 62.4572 10.0499 62.7468 10.4853C63.0847 10.8723 63.3263 11.4044 63.4711 11.9849C63.616 12.517 63.6642 13.1459 63.6642 13.8231ZM61.1538 13.8715C61.1538 13.0008 60.9607 12.3235 60.6711 11.9365C60.3329 11.5011 59.8985 11.2592 59.3192 11.2592C59.1261 11.2592 58.933 11.3076 58.6433 11.3076C58.3537 11.356 58.1123 11.4044 57.8227 11.5011V16.3386C58.0641 16.387 58.3054 16.4354 58.5468 16.4837C58.7882 16.4837 58.9813 16.4837 59.1261 16.4837C59.7536 16.4837 60.2364 16.2903 60.6228 15.9033C60.9607 15.5162 61.1538 14.839 61.1538 13.8715ZM53.5742 13.8715C53.5742 15.3711 53.2363 16.5321 52.5122 17.3545C51.8361 18.2253 50.7258 18.6122 49.3259 18.6122C47.8774 18.6122 46.8154 18.2253 46.1394 17.3545C45.4636 16.5321 45.1256 15.3711 45.1256 13.8715C45.1256 13.1459 45.2222 12.4686 45.4153 11.8881C45.6084 11.3076 45.898 10.7755 46.2359 10.3885C46.6223 10.0015 47.0568 9.66288 47.5878 9.46938C48.1188 9.22751 48.6981 9.13075 49.3259 9.13075C50.7258 9.13075 51.7878 9.56614 52.5122 10.3885C53.2363 11.2109 53.5742 12.3719 53.5742 13.8715ZM51.0637 13.9199C51.0637 13.5329 51.0155 13.1459 50.9672 12.8073C50.9189 12.517 50.8224 12.2268 50.6775 11.9849C50.5327 11.7914 50.3879 11.5979 50.1465 11.4528C49.9534 11.3076 49.6638 11.2592 49.3741 11.2592C48.7947 11.2592 48.3602 11.5011 48.0705 11.9365C47.7809 12.4202 47.6361 13.0491 47.6361 13.8715C47.6361 14.6939 47.7809 15.3711 48.0223 15.8065C48.3119 16.2903 48.7464 16.4837 49.3259 16.4837C49.6155 16.4837 49.9052 16.4354 50.0982 16.2902C50.3396 16.1451 50.5327 16 50.6775 15.7581C50.7741 15.5162 50.8706 15.226 50.9672 14.9358C51.0155 14.5971 51.0637 14.2585 51.0637 13.9199Z" fill="var(--fill-0, #CC0000)"/>
</g>
</svg>
