<svg preserveAspectRatio="none" width="100%" height="100%" overflow="visible" style="display: block;" viewBox="0 0 28.5 28.5" fill="none" xmlns="http://www.w3.org/2000/svg">
<path id="Vector" d="M12.1211 20.6306L22.2056 10.5461L20.625 8.9655L12.1211 17.4694L7.84613 13.1944L6.2655 14.775L12.1211 20.6306ZM14.2526 28.5C12.2816 28.5 10.429 28.126 8.69475 27.378C6.9605 26.63 5.452 25.6149 4.16925 24.3326C2.8865 23.0504 1.87087 21.5425 1.12237 19.809C0.374125 18.0755 0 16.2234 0 14.2526C0 12.2816 0.374 10.429 1.122 8.69475C1.87 6.9605 2.88513 5.452 4.16738 4.16925C5.44963 2.8865 6.9575 1.87087 8.691 1.12237C10.4245 0.374125 12.2766 0 14.2474 0C16.2184 0 18.071 0.373999 19.8053 1.122C21.5395 1.87 23.048 2.88513 24.3308 4.16738C25.6135 5.44963 26.6291 6.9575 27.3776 8.691C28.1259 10.4245 28.5 12.2766 28.5 14.2474C28.5 16.2184 28.126 18.071 27.378 19.8053C26.63 21.5395 25.6149 23.048 24.3326 24.3308C23.0504 25.6135 21.5425 26.6291 19.809 27.3776C18.0755 28.1259 16.2234 28.5 14.2526 28.5ZM14.25 26.25C17.6 26.25 20.4375 25.0875 22.7625 22.7625C25.0875 20.4375 26.25 17.6 26.25 14.25C26.25 10.9 25.0875 8.0625 22.7625 5.7375C20.4375 3.4125 17.6 2.25 14.25 2.25C10.9 2.25 8.0625 3.4125 5.7375 5.7375C3.4125 8.0625 2.25 10.9 2.25 14.25C2.25 17.6 3.4125 20.4375 5.7375 22.7625C8.0625 25.0875 10.9 26.25 14.25 26.25Z" fill="var(--fill-0, #0C6EBF)" fill-opacity="0.5"/>
</svg>
