<svg preserveAspectRatio="none" width="100%" height="100%" overflow="visible" style="display: block;" viewBox="0 0 23.956 24" fill="none" xmlns="http://www.w3.org/2000/svg">
<path id="Vector" d="M2.29089 24C1.65071 24 1.10885 23.7782 0.665312 23.3347C0.221771 22.8911 0 22.3493 0 21.7091V4.74747C0 4.10729 0.221771 3.56543 0.665312 3.12189C1.10885 2.67835 1.65071 2.45658 2.29089 2.45658H13.26L11.3591 4.35747H2.29089C2.19331 4.35747 2.10397 4.39813 2.02286 4.47945C1.94155 4.56055 1.90089 4.64989 1.90089 4.74747V21.7091C1.90089 21.8067 1.94155 21.896 2.02286 21.9771C2.10397 22.0585 2.19331 22.0991 2.29089 22.0991H19.2525C19.3501 22.0991 19.4395 22.0585 19.5206 21.9771C19.6019 21.896 19.6425 21.8067 19.6425 21.7091V12.5604L21.5434 10.6596V21.7091C21.5434 22.3493 21.3216 22.8911 20.8781 23.3347C20.4346 23.7782 19.8927 24 19.2525 24H2.29089ZM7.60356 16.3964V12.0463L19.0846 0.565514C19.281 0.368877 19.4971 0.225465 19.7328 0.135279C19.9683 0.045092 20.2079 0 20.4517 0C20.7003 0 20.939 0.045092 21.168 0.135279C21.3972 0.225465 21.6059 0.364758 21.7943 0.553158L23.3857 2.13977C23.5692 2.3364 23.7102 2.55332 23.8086 2.7905C23.9069 3.02769 23.956 3.26816 23.956 3.51189C23.956 3.75563 23.9141 3.99197 23.8305 4.22093C23.7469 4.45009 23.6067 4.66288 23.4101 4.85931L11.8926 16.3964H7.60356ZM9.50445 14.4956H11.0838L18.982 6.59704L18.1925 5.80754L17.3469 4.99364L9.50445 12.8361V14.4956Z" fill="var(--fill-0, white)" fill-opacity="0.5"/>
</svg>
