<svg preserveAspectRatio="none" width="100%" height="100%" overflow="visible" style="display: block;" viewBox="0 0 39 43" fill="none" xmlns="http://www.w3.org/2000/svg">
<path id="Union" d="M19.5 0C21.3749 0 23.1651 0.613524 26.0527 1.60254L27.5078 2.10059C30.4703 3.11461 32.7568 3.89663 34.3936 4.56152C35.218 4.89646 35.9272 5.22125 36.498 5.55273C37.0473 5.87165 37.5983 6.26948 37.9727 6.80273C38.3427 7.32997 38.5341 7.97858 38.6543 8.60254C38.7793 9.2512 38.8547 10.0294 38.9033 10.9229C38.9999 12.6969 39 15.1271 39 18.2793V21.4824C39 33.6841 29.7844 39.5344 24.3037 41.9287L24.249 41.9531C23.5698 42.25 22.931 42.5288 22.1973 42.7168C21.4223 42.9152 20.5986 43 19.5 43C18.4014 43 17.5777 42.9152 16.8027 42.7168C16.069 42.5288 15.4304 42.25 14.751 41.9531L14.6963 41.9287C9.21563 39.5344 0 33.6841 0 21.4824V18.2793C0 15.1272 8.66289e-05 12.6968 0.0966797 10.9229C0.145318 10.0294 0.220712 9.2512 0.345703 8.60254C0.465943 7.97858 0.657284 7.32997 1.02734 6.80273C1.40172 6.26947 1.95277 5.87166 2.50195 5.55273C3.07273 5.22126 3.78196 4.89646 4.60645 4.56152C6.24315 3.89663 8.52982 3.1146 11.4922 2.10059L12.9473 1.60254C15.8349 0.613528 17.6251 0 19.5 0ZM19.5 3C18.1846 3 16.8901 3.423 13.6611 4.52832L12.5156 4.9209C9.49046 5.95643 7.28437 6.71252 5.73535 7.3418C4.96217 7.6559 4.40201 7.9191 4.00879 8.14746C3.81474 8.26015 3.68113 8.35318 3.5918 8.42578C3.51606 8.48734 3.48656 8.52226 3.48242 8.52734C3.47796 8.53465 3.45333 8.57634 3.41895 8.67285C3.37897 8.78505 3.33417 8.94604 3.29102 9.16992C3.20368 9.62318 3.13752 10.2461 3.0918 11.0859C3.00021 12.7682 3 15.1165 3 18.333V21.4824C3 31.8325 10.7397 36.9266 15.8975 39.1797C16.6403 39.5042 17.0694 39.6883 17.5469 39.8105C18.0031 39.9273 18.56 40 19.5 40C20.44 40 20.9969 39.9273 21.4531 39.8105C21.9306 39.6883 22.3597 39.5042 23.1025 39.1797C28.2603 36.9266 36 31.8325 36 21.4824V18.333C36 15.1165 35.9998 12.7682 35.9082 11.0859C35.8626 10.2461 35.7964 9.62318 35.709 9.16992C35.6658 8.94604 35.621 8.78505 35.5811 8.67285C35.5467 8.57641 35.522 8.53469 35.5176 8.52734C35.5134 8.52222 35.484 8.4873 35.4082 8.42578C35.319 8.35317 35.1853 8.26016 34.9912 8.14746C34.598 7.9191 34.0378 7.65589 33.2646 7.3418C31.7157 6.71252 29.5096 5.95643 26.4844 4.9209L25.3389 4.52832C22.1099 3.42301 20.8154 3 19.5 3ZM23.3809 16.501C23.9326 15.8831 24.881 15.8292 25.499 16.3809C26.117 16.9326 26.1707 17.881 25.6191 18.499L18.4756 26.499C18.191 26.8176 17.7844 26.9999 17.3574 27C16.93 27 16.5229 26.8178 16.2383 26.499L13.3809 23.2988C12.8293 22.6808 12.8831 21.7324 13.501 21.1807C14.1189 20.6292 15.0673 20.6829 15.6191 21.3008L17.3574 23.248L23.3809 16.501Z" fill="var(--fill-0, white)" fill-opacity="0.5"/>
</svg>
