<svg preserveAspectRatio="none" width="100%" height="100%" overflow="visible" style="display: block;" viewBox="0 0 22.5 28.4134" fill="none" xmlns="http://www.w3.org/2000/svg">
<path id="Vector" d="M11.25 15.3173C9.88075 15.3173 8.726 14.847 7.78575 13.9065C6.84525 12.9663 6.375 11.8115 6.375 10.4423C6.375 9.073 6.84525 7.91825 7.78575 6.978C8.726 6.0375 9.88075 5.56725 11.25 5.56725C12.6193 5.56725 13.774 6.0375 14.7143 6.978C15.6548 7.91825 16.125 9.073 16.125 10.4423C16.125 11.8115 15.6548 12.9663 14.7143 13.9065C13.774 14.847 12.6193 15.3173 11.25 15.3173ZM11.25 13.0673C11.9963 13.0673 12.6202 12.8163 13.122 12.3143C13.624 11.8125 13.875 11.1885 13.875 10.4423C13.875 9.696 13.624 9.072 13.122 8.57025C12.6202 8.06825 11.9963 7.81725 11.25 7.81725C10.5038 7.81725 9.87975 8.06825 9.378 8.57025C8.876 9.072 8.625 9.696 8.625 10.4423C8.625 11.1885 8.876 11.8125 9.378 12.3143C9.87975 12.8163 10.5038 13.0673 11.25 13.0673ZM11.25 28.4134C8.00575 27.5286 5.31975 25.619 3.192 22.6845C1.064 19.75 0 16.4693 0 12.8423V4.21163L11.25 0L22.5 4.21163V12.8423C22.5 16.4693 21.436 19.75 19.308 22.6845C17.1803 25.619 14.4943 27.5286 11.25 28.4134ZM11.25 2.394L2.25 5.75475V12.8423C2.25 14.2693 2.45438 15.6491 2.86313 16.9819C3.27163 18.3144 3.83937 19.5576 4.56637 20.7116C5.57787 20.1961 6.637 19.7933 7.74375 19.503C8.8505 19.2125 10.0193 19.0673 11.25 19.0673C12.4808 19.0673 13.6495 19.2125 14.7563 19.503C15.863 19.7933 16.9221 20.1961 17.9336 20.7116C18.6606 19.5576 19.2284 18.3144 19.6369 16.9819C20.0456 15.6491 20.25 14.2693 20.25 12.8423V5.75475L11.25 2.394ZM11.25 21.3173C10.2828 21.3173 9.3525 21.422 8.45925 21.6315C7.566 21.8413 6.72225 22.1355 5.928 22.5143C6.67225 23.3413 7.491 24.0563 8.38425 24.6593C9.2775 25.262 10.2328 25.723 11.25 26.0423C12.2673 25.723 13.2201 25.262 14.1086 24.6593C14.9971 24.0563 15.8135 23.3413 16.5577 22.5143C15.7635 22.1355 14.9221 21.8413 14.0336 21.6315C13.1451 21.422 12.2173 21.3173 11.25 21.3173Z" fill="var(--fill-0, #0C6EBF)" fill-opacity="0.5"/>
</svg>
