<svg preserveAspectRatio="none" width="100%" height="100%" overflow="visible" style="display: block;" viewBox="0 0 23.25 27.75" fill="none" xmlns="http://www.w3.org/2000/svg">
<path id="Vector" d="M7.96163 22.5C7.20388 22.5 6.5625 22.2375 6.0375 21.7125C5.5125 21.1875 5.25 20.5461 5.25 19.7884V2.71163C5.25 1.95387 5.5125 1.3125 6.0375 0.7875C6.5625 0.2625 7.20388 0 7.96163 0H20.5384C21.2961 0 21.9375 0.2625 22.4625 0.7875C22.9875 1.3125 23.25 1.95387 23.25 2.71163V19.7884C23.25 20.5461 22.9875 21.1875 22.4625 21.7125C21.9375 22.2375 21.2961 22.5 20.5384 22.5H7.96163ZM7.96163 20.25H20.5384C20.6539 20.25 20.7596 20.2019 20.8556 20.1056C20.9519 20.0096 21 19.9039 21 19.7884V2.71163C21 2.59613 20.9519 2.49037 20.8556 2.39437C20.7596 2.29812 20.6539 2.25 20.5384 2.25H7.96163C7.84613 2.25 7.74038 2.29812 7.64438 2.39437C7.54813 2.49037 7.5 2.59613 7.5 2.71163V19.7884C7.5 19.9039 7.54813 20.0096 7.64438 20.1056C7.74038 20.2019 7.84613 20.25 7.96163 20.25ZM2.71163 27.75C1.95387 27.75 1.3125 27.4875 0.7875 26.9625C0.2625 26.4375 0 25.7961 0 25.0384V5.71163H2.25V25.0384C2.25 25.1539 2.29813 25.2596 2.39438 25.3556C2.49038 25.4519 2.59613 25.5 2.71163 25.5H17.5384V27.75H2.71163Z" fill="var(--fill-0, #0C6EBF)" fill-opacity="0.5"/>
</svg>
