<svg preserveAspectRatio="none" width="100%" height="100%" overflow="visible" style="display: block;" viewBox="0 0 28.5 27.8078" fill="none" xmlns="http://www.w3.org/2000/svg">
<path id="Vector" d="M10.35 16.7164L14.25 12.8306L18.15 16.7164L19.7164 15.15L15.8306 11.25L19.7164 7.35L18.15 5.78362L14.25 9.66937L10.35 5.78362L8.78363 7.35L12.6694 11.25L8.78363 15.15L10.35 16.7164ZM0 27.8078V2.71163C0 1.95387 0.2625 1.3125 0.7875 0.7875C1.3125 0.2625 1.95387 0 2.71163 0H25.7884C26.5461 0 27.1875 0.2625 27.7125 0.7875C28.2375 1.3125 28.5 1.95387 28.5 2.71163V19.7884C28.5 20.5461 28.2375 21.1875 27.7125 21.7125C27.1875 22.2375 26.5461 22.5 25.7884 22.5H5.30775L0 27.8078ZM4.35 20.25H25.7884C25.9039 20.25 26.0096 20.2019 26.1056 20.1056C26.2019 20.0096 26.25 19.9039 26.25 19.7884V2.71163C26.25 2.59613 26.2019 2.49037 26.1056 2.39437C26.0096 2.29812 25.9039 2.25 25.7884 2.25H2.71163C2.59613 2.25 2.49038 2.29812 2.39438 2.39437C2.29813 2.49037 2.25 2.59613 2.25 2.71163V22.3271L4.35 20.25Z" fill="var(--fill-0, #0C6EBF)" fill-opacity="0.5"/>
</svg>
