<svg preserveAspectRatio="none" width="100%" height="100%" overflow="visible" style="display: block;" viewBox="0 0 28.5 22.5" fill="none" xmlns="http://www.w3.org/2000/svg">
<path id="Vector" d="M2.71163 22.5C1.95387 22.5 1.3125 22.2375 0.7875 21.7125C0.2625 21.1875 0 20.5461 0 19.7884V2.71163C0 1.95387 0.2625 1.3125 0.7875 0.7875C1.3125 0.2625 1.95387 0 2.71163 0H25.7884C26.5461 0 27.1875 0.2625 27.7125 0.7875C28.2375 1.3125 28.5 1.95387 28.5 2.71163V19.7884C28.5 20.5461 28.2375 21.1875 27.7125 21.7125C27.1875 22.2375 26.5461 22.5 25.7884 22.5H2.71163ZM14.25 12.0866L2.25 4.41338V19.7884C2.25 19.9231 2.29325 20.0337 2.37975 20.1202C2.46625 20.2067 2.57688 20.25 2.71163 20.25H25.7884C25.9231 20.25 26.0338 20.2067 26.1203 20.1202C26.2068 20.0337 26.25 19.9231 26.25 19.7884V4.41338L14.25 12.0866ZM14.25 9.75L26.0194 2.25H2.48062L14.25 9.75ZM2.25 4.41338V2.25V19.7884C2.25 19.9231 2.29325 20.0337 2.37975 20.1202C2.46625 20.2067 2.57688 20.25 2.71163 20.25H2.25V4.41338Z" fill="var(--fill-0, white)" fill-opacity="0.5"/>
</svg>
