<svg preserveAspectRatio="none" width="100%" height="100%" overflow="visible" style="display: block;" viewBox="0 0 28.5 27.8078" fill="none" xmlns="http://www.w3.org/2000/svg">
<path id="Vector" d="M5.625 16.875H16.875V14.625H5.625V16.875ZM5.625 12.375H22.875V10.125H5.625V12.375ZM5.625 7.875H22.875V5.625H5.625V7.875ZM0 27.8078V2.71163C0 1.95387 0.2625 1.3125 0.7875 0.7875C1.3125 0.2625 1.95387 0 2.71163 0H25.7884C26.5461 0 27.1875 0.2625 27.7125 0.7875C28.2375 1.3125 28.5 1.95387 28.5 2.71163V19.7884C28.5 20.5461 28.2375 21.1875 27.7125 21.7125C27.1875 22.2375 26.5461 22.5 25.7884 22.5H5.30775L0 27.8078ZM4.35 20.25H25.7884C25.9039 20.25 26.0096 20.2019 26.1056 20.1056C26.2019 20.0096 26.25 19.9039 26.25 19.7884V2.71163C26.25 2.59613 26.2019 2.49037 26.1056 2.39437C26.0096 2.29812 25.9039 2.25 25.7884 2.25H2.71163C2.59613 2.25 2.49038 2.29812 2.39438 2.39437C2.29813 2.49037 2.25 2.59613 2.25 2.71163V22.3271L4.35 20.25Z" fill="var(--fill-0, white)" fill-opacity="0.5"/>
</svg>
