<svg preserveAspectRatio="none" width="100%" height="100%" overflow="visible" style="display: block;" viewBox="0 0 30 27.894" fill="none" xmlns="http://www.w3.org/2000/svg">
<path id="Vector" d="M22.8461 27.894H7.06725V9.894L17.0194 0L18.2884 1.269C18.4441 1.42475 18.5735 1.631 18.6765 1.88775C18.7792 2.1445 18.8306 2.38638 18.8306 2.61338V2.994L17.2384 9.894H27.2884C28.0019 9.894 28.6321 10.1676 29.1791 10.7149C29.7264 11.2619 30 11.8921 30 12.6056V15.0285C30 15.1843 29.9798 15.3525 29.9393 15.5333C29.899 15.714 29.8539 15.8824 29.8039 16.0384L25.5056 26.1806C25.2904 26.6614 24.9299 27.0671 24.4241 27.3979C23.9184 27.7286 23.3924 27.894 22.8461 27.894ZM9.31725 25.644H22.8461C22.9519 25.644 23.06 25.6151 23.1705 25.5574C23.2813 25.4996 23.3655 25.4035 23.4233 25.269L27.75 15.144V12.6056C27.75 12.4709 27.7068 12.3603 27.6203 12.2738C27.5338 12.1873 27.4231 12.144 27.2884 12.144H14.3944L16.275 3.92288L9.31725 10.8518V25.644ZM7.06725 9.894V12.144H2.25V25.644H7.06725V27.894H0V9.894H7.06725Z" fill="var(--fill-0, #0C6EBF)" fill-opacity="0.5"/>
</svg>
