<svg preserveAspectRatio="none" width="100%" height="100%" overflow="visible" style="display: block;" viewBox="0 0 34 33.5385" fill="none" xmlns="http://www.w3.org/2000/svg">
<path id="Vector" d="M4.2305 29.5385V32.0385C4.2305 32.4635 4.08683 32.8197 3.7995 33.107C3.51183 33.3947 3.1555 33.5385 2.7305 33.5385H1.5C1.075 33.5385 0.718834 33.3947 0.4315 33.107C0.143834 32.8197 0 32.4635 0 32.0385V16.6925L4.0845 5.0385C4.2335 4.5795 4.50667 4.21483 4.904 3.9445C5.30133 3.67383 5.74367 3.5385 6.231 3.5385H11.923V0H22.154V3.5385H27.846C28.314 3.5385 28.739 3.676 29.121 3.951C29.5027 4.226 29.7675 4.5885 29.9155 5.0385L34 16.6925V32.0385C34 32.4635 33.8562 32.8197 33.5685 33.107C33.2812 33.3947 32.925 33.5385 32.5 33.5385H31.2695C30.8445 33.5385 30.4882 33.3947 30.2005 33.107C29.9132 32.8197 29.7695 32.4635 29.7695 32.0385V29.5385H4.2305ZM4.2155 13.6925H29.7845L27.2615 6.5385H6.7385L4.2155 13.6925ZM7.9275 24.231C8.65517 24.231 9.27233 23.9762 9.779 23.4665C10.2853 22.9572 10.5385 22.3387 10.5385 21.611C10.5385 20.8833 10.2838 20.2662 9.7745 19.7595C9.26483 19.2532 8.64617 19 7.9185 19C7.19083 19 6.57383 19.2547 6.0675 19.764C5.56083 20.2737 5.3075 20.8923 5.3075 21.62C5.3075 22.3477 5.56233 22.9647 6.072 23.471C6.58133 23.9777 7.19983 24.231 7.9275 24.231ZM26.0815 24.231C26.8092 24.231 27.4262 23.9762 27.9325 23.4665C28.4392 22.9572 28.6925 22.3387 28.6925 21.611C28.6925 20.8833 28.4377 20.2662 27.928 19.7595C27.4187 19.2532 26.8002 19 26.0725 19C25.3448 19 24.7277 19.2547 24.221 19.764C23.7147 20.2737 23.4615 20.8923 23.4615 21.62C23.4615 22.3477 23.7162 22.9647 24.2255 23.471C24.7352 23.9777 25.3538 24.231 26.0815 24.231ZM3 26.5385H31V16.6925H3V26.5385Z" fill="var(--fill-0, white)" fill-opacity="0.5"/>
</svg>
