<svg preserveAspectRatio="none" width="100%" height="100%" overflow="visible" style="display: block;" viewBox="0 0 37.5473 38.6155" fill="none" xmlns="http://www.w3.org/2000/svg">
<path id="Vector" d="M8.829 37.594C8.14833 36.9133 7.808 36.0872 7.808 35.1155C7.808 34.1435 8.14833 33.3172 8.829 32.6365C9.50967 31.9558 10.3358 31.6155 11.3075 31.6155C12.2795 31.6155 13.1058 31.9558 13.7865 32.6365C14.4672 33.3172 14.8075 34.1435 14.8075 35.1155C14.8075 36.0872 14.4672 36.9133 13.7865 37.594C13.1058 38.275 12.2795 38.6155 11.3075 38.6155C10.3358 38.6155 9.50967 38.275 8.829 37.594ZM28.2135 37.594C27.5328 36.9133 27.1925 36.0872 27.1925 35.1155C27.1925 34.1435 27.5328 33.3172 28.2135 32.6365C28.8942 31.9558 29.7205 31.6155 30.6925 31.6155C31.6642 31.6155 32.4903 31.9558 33.171 32.6365C33.8517 33.3172 34.192 34.1435 34.192 35.1155C34.192 36.0872 33.8517 36.9133 33.171 37.594C32.4903 38.275 31.6642 38.6155 30.6925 38.6155C29.7205 38.6155 28.8942 38.275 28.2135 37.594ZM9.0305 7L14.1 17.6155H27.7345C27.8498 17.6155 27.9525 17.5867 28.0425 17.529C28.1322 17.4713 28.209 17.3912 28.273 17.2885L33.6385 7.5385C33.7155 7.3975 33.7218 7.2725 33.6575 7.1635C33.5935 7.0545 33.4845 7 33.3305 7H9.0305ZM7.5925 4H35.3615C36.1795 4 36.798 4.34817 37.217 5.0445C37.6363 5.7405 37.6563 6.45133 37.277 7.177L30.869 18.7845C30.541 19.3615 30.1072 19.8108 29.5675 20.1325C29.0275 20.4545 28.4358 20.6155 27.7925 20.6155H13.2L10.8845 24.846C10.7818 25 10.7787 25.1667 10.875 25.346C10.971 25.5257 11.1152 25.6155 11.3075 25.6155H34.192V28.6155H11.3075C9.97417 28.6155 8.97233 28.0405 8.302 26.8905C7.63133 25.7405 7.60767 24.5923 8.231 23.446L11.0845 18.3155L3.808 3H0V0H5.6925L7.5925 4Z" fill="var(--fill-0, white)" fill-opacity="0.5"/>
</svg>
