<svg width="130.285" height="39.8438" viewBox="0 0 130.285 39.8438" fill="none" xmlns="http://www.w3.org/2000/svg">
<g id="Group 1157">
<path id="Vector" d="M121.523 0.569918H113.333C110.856 0.569918 108.951 1.32873 107.809 3.79542L92.1896 39.2753H103.237C103.237 39.2753 105.142 34.5319 105.523 33.3935C106.666 33.3935 117.523 33.3935 119.047 33.3935C119.428 34.7218 120.38 39.0857 120.38 39.0857H130.285L121.523 0.569918ZM108.57 25.4249C109.523 23.1481 112.761 14.61 112.761 14.61C112.761 14.7999 113.714 12.3332 114.094 11.0052L114.856 14.4204C114.856 14.4204 116.952 23.7173 117.333 25.6145H108.57V25.4249Z" fill="var(--fill-0, #3362AB)"/>
<path id="Vector_2" d="M92.9415 26.5625C92.9415 34.5314 85.7034 39.8438 74.4653 39.8438C69.7034 39.8438 65.1319 38.8953 62.6556 37.7569L64.1794 29.0292L65.5128 29.5984C68.9415 31.116 71.2272 31.6852 75.4178 31.6852C78.4653 31.6852 81.7034 30.5468 81.7034 27.8908C81.7034 26.1829 80.3699 25.0446 76.1796 23.1474C72.1797 21.2499 66.8462 18.2143 66.8462 12.7121C66.8462 5.12269 74.2747 0 84.7512 0C88.7512 0 92.1796 0.758813 94.2749 1.70756L92.7511 10.0557L91.9893 9.29693C90.0843 8.53781 87.608 7.779 83.989 7.779C79.989 7.96863 78.0843 9.67619 78.0843 11.1941C78.0843 12.9017 80.3699 14.23 83.989 15.9376C90.0843 18.7835 92.9415 22.009 92.9415 26.5625Z" fill="var(--fill-0, #3362AB)"/>
<path id="Vector_3" d="M0 0.946848L0.190498 0.187727H16.5715C18.8573 0.187727 20.5714 0.946848 21.1429 3.41323L24.762 20.4892C21.1429 11.3822 12.762 3.98241 0 0.946848Z" fill="var(--fill-0, #F9B50B)"/>
<path id="Vector_4" d="M47.8044 0.568645L31.2329 39.0844H19.9948L10.4709 6.83002C17.3282 11.1939 23.0423 18.0241 25.1376 22.7676L26.2804 26.7519L36.5663 0.379017H47.8044V0.568645Z" fill="var(--fill-0, #3362AB)"/>
<path id="Vector_5" d="M52.1808 0.379017H62.657L55.9905 39.0844H45.5143L52.1808 0.379017Z" fill="var(--fill-0, #3362AB)"/>
</g>
</svg>
