<svg preserveAspectRatio="none" width="100%" height="100%" overflow="visible" style="display: block;" viewBox="0 0 17 17" fill="none" xmlns="http://www.w3.org/2000/svg">
<path id="Vector" d="M1.05975 17C0.756917 17 0.504583 16.9 0.30275 16.7C0.100917 16.5 0 16.25 0 15.95V12.7078C0 12.4654 0.0798334 12.2488 0.2395 12.0578C0.399167 11.8668 0.60525 11.7379 0.85775 11.6713L3.6345 11.1058C3.87433 11.0724 4.10542 11.0884 4.32775 11.1538C4.55025 11.2193 4.73975 11.3334 4.89625 11.4963L7.14025 13.7598C7.85692 13.3546 8.52425 12.9168 9.14225 12.4463C9.76025 11.9758 10.3436 11.4661 10.8923 10.9173C11.4488 10.3648 11.9657 9.785 12.4432 9.178C12.9209 8.57083 13.3456 7.92692 13.7173 7.24625L11.4078 4.998C11.2616 4.86467 11.1603 4.69992 11.1038 4.50375C11.0474 4.30758 11.0391 4.073 11.0788 3.8L11.652 0.85775C11.7045 0.615417 11.8273 0.411917 12.0203 0.24725C12.2133 0.082417 12.436 0 12.6885 0H15.95C16.25 0 16.5 0.100916 16.7 0.30275C16.9 0.504583 17 0.756917 17 1.05975C17 2.94425 16.5618 4.83583 15.6855 6.7345C14.8092 8.63333 13.5746 10.3808 11.9818 11.977C10.3888 13.573 8.64133 14.8092 6.7395 15.6855C4.8375 16.5618 2.94425 17 1.05975 17ZM14.4115 5.827C14.7205 5.12567 14.9612 4.42242 15.1337 3.71725C15.3061 3.01225 15.4179 2.31808 15.4693 1.63475C15.4693 1.59625 15.4564 1.56417 15.4307 1.5385C15.4051 1.51283 15.373 1.5 15.3345 1.5H13.2115C13.1602 1.5 13.1185 1.51283 13.0865 1.5385C13.0545 1.56417 13.0321 1.60258 13.0193 1.65375L12.5693 3.8885C12.5564 3.927 12.5548 3.96867 12.5645 4.0135C12.574 4.05833 12.5948 4.09358 12.627 4.11925L14.4115 5.827ZM5.7115 14.4385L3.94625 12.6538C3.91408 12.6218 3.88358 12.6009 3.85475 12.5913C3.82592 12.5818 3.79225 12.5834 3.75375 12.5963L1.65375 13.0385C1.60258 13.0513 1.56417 13.0737 1.5385 13.1057C1.51283 13.1377 1.5 13.1794 1.5 13.2307V15.3345C1.5 15.373 1.51283 15.4051 1.5385 15.4307C1.56417 15.4564 1.59625 15.4693 1.63475 15.4693C2.26025 15.4384 2.93042 15.3362 3.64525 15.1625C4.35992 14.9888 5.04867 14.7475 5.7115 14.4385Z" fill="var(--fill-0, #212020)" fill-opacity="0.2"/>
</svg>
