<svg preserveAspectRatio="none" width="100%" height="100%" overflow="visible" style="display: block;" viewBox="0 0 19.3473 15.8798" fill="none" xmlns="http://www.w3.org/2000/svg">
<path id="Vector" d="M14.6358 14.3798H19.3473V15.8798H13.1358L14.6358 14.3798ZM2.30879 15.8798L0.53979 14.1105C0.188456 13.7592 0.00862295 13.3323 0.00028962 12.8298C-0.00804371 12.3273 0.163456 11.892 0.51479 11.524L11.0915 0.547041C11.4429 0.179207 11.8672 -0.00312612 12.3645 4.05436e-05C12.862 0.00320721 13.2865 0.180458 13.6378 0.531791L18.1703 5.06454C18.5216 5.41571 18.6989 5.84421 18.702 6.35004C18.7052 6.85571 18.5312 7.28421 18.18 7.63554L10.1358 15.8798H2.30879ZM9.49729 14.3798L17.126 6.55104C17.1774 6.49971 17.203 6.42596 17.203 6.32979C17.203 6.23362 17.1774 6.15987 17.126 6.10854L12.6088 1.59129C12.5576 1.54012 12.4855 1.51454 12.3925 1.51454C12.2995 1.51454 12.2274 1.54337 12.176 1.60104L1.56854 12.5585C1.51721 12.6162 1.49154 12.6915 1.49154 12.7845C1.49154 12.8775 1.51721 12.9497 1.56854 13.001L2.94729 14.3798H9.49729Z" fill="var(--fill-0, #0C6EBF)"/>
</svg>
