<svg preserveAspectRatio="none" width="100%" height="100%" overflow="visible" style="display: block;" viewBox="0 0 19 18.5385" fill="none" xmlns="http://www.w3.org/2000/svg">
<path id="Vector" d="M6.9 11.1442L9.5 8.55375L12.1 11.1442L13.1443 10.1L10.5538 7.5L13.1443 4.9L12.1 3.85575L9.5 6.44625L6.9 3.85575L5.85575 4.9L8.44625 7.5L5.85575 10.1L6.9 11.1442ZM0 18.5385V1.80775C0 1.30258 0.175 0.875 0.525 0.525C0.875 0.175 1.30258 0 1.80775 0H17.1923C17.6974 0 18.125 0.175 18.475 0.525C18.825 0.875 19 1.30258 19 1.80775V13.1923C19 13.6974 18.825 14.125 18.475 14.475C18.125 14.825 17.6974 15 17.1923 15H3.5385L0 18.5385ZM2.9 13.5H17.1923C17.2693 13.5 17.3398 13.4679 17.4038 13.4038C17.4679 13.3398 17.5 13.2693 17.5 13.1923V1.80775C17.5 1.73075 17.4679 1.66025 17.4038 1.59625C17.3398 1.53208 17.2693 1.5 17.1923 1.5H1.80775C1.73075 1.5 1.66025 1.53208 1.59625 1.59625C1.53208 1.66025 1.5 1.73075 1.5 1.80775V14.8848L2.9 13.5Z" fill="var(--fill-0, #EC3A2D)"/>
</svg>
