<svg preserveAspectRatio="none" width="100%" height="100%" overflow="visible" style="display: block;" viewBox="0 0 11.3333 11.3333" fill="none" xmlns="http://www.w3.org/2000/svg">
<path id="Vector" d="M0.7065 11.3333C0.504611 11.3333 0.336389 11.2667 0.201833 11.1333C0.0672778 11 0 10.8333 0 10.6333V8.47183C0 8.31028 0.0532222 8.16583 0.159667 8.0385C0.266111 7.91117 0.4035 7.82528 0.571833 7.78083L2.423 7.40383C2.58289 7.38161 2.73694 7.39228 2.88517 7.43583C3.0335 7.4795 3.15983 7.55561 3.26417 7.66417L4.76017 9.17317C5.23794 8.90306 5.68283 8.61117 6.09483 8.2975C6.50683 7.98383 6.89572 7.64406 7.2615 7.27817C7.6325 6.90983 7.97717 6.52333 8.2955 6.11867C8.61394 5.71389 8.89706 5.28461 9.14483 4.83083L7.60517 3.332C7.50772 3.24311 7.44017 3.13328 7.4025 3.0025C7.36494 2.87172 7.35939 2.71533 7.38583 2.53333L7.768 0.571833C7.803 0.410278 7.88483 0.274611 8.0135 0.164834C8.14217 0.0549447 8.29067 0 8.459 0H10.6333C10.8333 0 11 0.0672775 11.1333 0.201833C11.2667 0.336389 11.3333 0.504611 11.3333 0.7065C11.3333 1.96283 11.0412 3.22389 10.457 4.48967C9.87278 5.75556 9.04972 6.92055 7.98783 7.98467C6.92583 9.04867 5.76089 9.87278 4.493 10.457C3.225 11.0412 1.96283 11.3333 0.7065 11.3333ZM9.60767 3.88467C9.81367 3.41711 9.97417 2.94828 10.0892 2.47817C10.2041 2.00817 10.2786 1.54539 10.3128 1.08983C10.3128 1.06417 10.3043 1.04278 10.2872 1.02567C10.2701 1.00856 10.2487 1 10.223 1H8.80767C8.77344 1 8.74567 1.00856 8.72433 1.02567C8.703 1.04278 8.68806 1.06839 8.6795 1.1025L8.3795 2.59233C8.37094 2.618 8.36989 2.64578 8.37633 2.67567C8.38267 2.70556 8.39656 2.72906 8.418 2.74617L9.60767 3.88467ZM3.80767 9.62567L2.63083 8.43583C2.60939 8.4145 2.58906 8.40061 2.56983 8.39417C2.55061 8.38783 2.52817 8.38894 2.5025 8.3975L1.1025 8.69233C1.06839 8.70089 1.04278 8.71583 1.02567 8.73717C1.00856 8.7585 1 8.78628 1 8.8205V10.223C1 10.2487 1.00856 10.2701 1.02567 10.2872C1.04278 10.3043 1.06417 10.3128 1.08983 10.3128C1.50683 10.2923 1.95361 10.2241 2.43017 10.1083C2.90661 9.99255 3.36578 9.83167 3.80767 9.62567Z" fill="var(--fill-0, #0C6EBF)" fill-opacity="0.5"/>
</svg>
