<svg preserveAspectRatio="none" width="100%" height="100%" overflow="visible" style="display: block;" viewBox="0 0 13.9991 14" fill="none" xmlns="http://www.w3.org/2000/svg">
<path id="Subtract" d="M7.00196 1.94791e-05C7.92152 -0.0021569 8.83319 0.17806 9.68262 0.530293C10.532 0.882524 11.303 1.40053 11.9512 2.05275C12.6028 2.70136 13.1192 3.47275 13.4707 4.32229C13.8223 5.17204 14.0019 6.08333 13.999 7.00295C13.9975 10.8612 10.8579 13.9999 7.00001 14H6.99708C5.74079 13.9993 4.50899 13.6621 3.43458 13.0244L3.17872 12.8731L0.529304 13.5684L1.23634 10.9863L1.07032 10.7217C0.369332 9.60625 -0.00189423 8.31452 7.26838e-06 6.99709C0.00149025 3.13923 3.14118 0.000241719 7.00196 1.94791e-05ZM4.01759 3.10842C3.87729 3.10844 3.64972 3.16166 3.45704 3.37209C3.26429 3.5827 2.71973 4.09169 2.71973 5.12697C2.71978 6.16162 3.47334 7.16127 3.57911 7.30275C3.68418 7.44331 5.03495 9.63606 7.17384 10.4795C8.95114 11.1804 9.31328 11.0409 9.69923 11.0059C10.0853 10.9706 10.9437 10.497 11.1191 10.0059C11.2944 9.51452 11.2947 9.09293 11.2422 9.0049C11.1897 8.91688 11.0485 8.86509 10.8379 8.75979C10.6267 8.65421 9.59319 8.14547 9.4004 8.07521C9.20754 8.00494 9.0672 7.97008 8.92677 8.18068C8.78611 8.39147 8.3835 8.86453 8.26075 9.0049C8.13794 9.14534 8.0153 9.16282 7.80469 9.05764C7.5937 8.95239 6.91666 8.72994 6.11329 8.01369C5.48793 7.45607 5.06544 6.76734 4.94239 6.55666C4.81949 6.34622 4.92868 6.2318 5.03419 6.12697C5.12862 6.03266 5.24518 5.88162 5.35059 5.75881C5.45592 5.63609 5.4906 5.54827 5.56055 5.40822C5.6306 5.26801 5.59563 5.14427 5.54298 5.03908C5.48988 4.9327 5.0815 3.89366 4.89454 3.47756C4.73681 3.1272 4.57073 3.11937 4.42091 3.1133L4.01759 3.10842Z" fill="var(--fill-0, white)"/>
</svg>
