<svg preserveAspectRatio="none" width="100%" height="100%" overflow="visible" style="display: block;" viewBox="0 0 32.25 32.25" fill="none" xmlns="http://www.w3.org/2000/svg">
<path id="Union" d="M8.625 0C10.8963 8.22008e-06 12.75 1.85369 12.75 4.125V4.5H21V4.4248C21.0001 2.81366 22.3136 1.50011 23.9248 1.5H29.3252C30.9364 1.50011 32.2499 2.81366 32.25 4.4248V6.8252C32.2499 8.43634 30.9364 9.74989 29.3252 9.75H23.9248C22.3136 9.74989 21.0001 8.43634 21 6.8252V6.75H18V15.75H21V15.6748C21.0001 14.0636 22.3136 12.7501 23.9248 12.75H29.3252C30.9364 12.7501 32.2499 14.0636 32.25 15.6748V18.0752C32.2499 19.6864 30.9364 20.9999 29.3252 21H23.9248C22.3136 20.9999 21.0001 19.6864 21 18.0752V18H18V25.125C18 25.3824 18.0529 25.6284 18.1484 25.8525L20.1562 27H21V26.9248C21.0001 25.3136 22.3136 24.0001 23.9248 24H29.3252C30.9364 24.0001 32.2499 25.3136 32.25 26.9248V29.3252C32.2499 30.9364 30.9364 32.2499 29.3252 32.25H23.9248C22.3136 32.2499 21.0001 30.9364 21 29.3252V29.25H19.875C17.6037 29.25 15.75 27.3963 15.75 25.125V6.75H12.75V7.125C12.75 9.39631 10.8963 11.25 8.625 11.25H4.125C1.85369 11.25 7.81607e-06 9.39631 0 7.125V4.125C8.05918e-06 1.85369 1.85369 8.0593e-06 4.125 0H8.625ZM23.9248 26.25C23.5563 26.2501 23.2501 26.5563 23.25 26.9248V29.3252C23.2501 29.6937 23.5563 29.9999 23.9248 30H29.3252C29.6937 29.9999 29.9999 29.6937 30 29.3252V26.9248C29.9999 26.5563 29.6937 26.2501 29.3252 26.25H23.9248ZM23.9248 15C23.5563 15.0001 23.2501 15.3063 23.25 15.6748V18.0752C23.2501 18.4437 23.5563 18.7499 23.9248 18.75H29.3252C29.6937 18.7499 29.9999 18.4437 30 18.0752V15.6748C29.9999 15.3063 29.6937 15.0001 29.3252 15H23.9248ZM4.125 2.25C3.09633 2.25001 2.25001 3.09633 2.25 4.125V7.125C2.25001 8.15367 3.09633 8.99999 4.125 9H8.625C9.65367 8.99999 10.5 8.15367 10.5 7.125V4.125C10.5 3.09633 9.65367 2.25001 8.625 2.25H4.125ZM23.9248 3.75C23.5563 3.75011 23.2501 4.05627 23.25 4.4248V6.8252C23.2501 7.19373 23.5563 7.49989 23.9248 7.5H29.3252C29.6937 7.49989 29.9999 7.19373 30 6.8252V4.4248C29.9999 4.05627 29.6937 3.75011 29.3252 3.75H23.9248Z" fill="var(--fill-0, #0C6EBF)" fill-opacity="0.5"/>
</svg>
