<svg preserveAspectRatio="none" width="100%" height="100%" overflow="visible" style="display: block;" viewBox="0 0 32.25 32.2488" fill="none" xmlns="http://www.w3.org/2000/svg">
<path id="Vector" fill-rule="evenodd" clip-rule="evenodd" d="M10.0427 7.8584e-07H22.2073C24.2587 -2.92142e-05 25.9122 -5.91427e-05 27.2127 0.174781C28.5628 0.356311 29.6995 0.744646 30.6025 1.64753C31.5054 2.55041 31.8937 3.68721 32.0752 5.03738C32.25 6.33783 32.25 7.99131 32.25 10.0427V16.2074C32.25 18.2588 32.25 19.9122 32.0752 21.2127C31.8937 22.5629 31.5054 23.6995 30.6025 24.6024C29.8555 25.3494 28.9453 25.7469 27.8791 25.9639C27.3358 26.0746 26.7336 26.1418 26.0703 26.1829C26.0736 26.1906 26.077 26.1982 26.0803 26.206C26.4897 27.1665 26.1403 28.2838 25.2105 28.8108C24.931 28.9693 24.6303 29.0263 24.4201 29.059C24.2004 29.0931 23.9259 29.12 23.6211 29.1498L23.5914 29.1527C23.3952 29.1719 23.2839 29.1829 23.2013 29.1948C23.1636 29.2002 23.1437 29.2041 23.1359 29.2059C23.1125 29.2151 23.0965 29.2265 23.0863 29.2362C23.0787 29.2436 23.0731 29.2509 23.0691 29.2585C23.0673 29.2669 23.0647 29.2806 23.0616 29.3008C23.0499 29.3763 23.0386 29.4795 23.0185 29.6688L23.0152 29.6997C22.9843 29.9898 22.956 30.2565 22.9197 30.4712C22.8849 30.678 22.8222 30.9831 22.6479 31.2657C22.0865 32.1759 20.966 32.4574 20.0439 32.0962C19.7562 31.9834 19.5252 31.7997 19.3585 31.6564C19.1878 31.5097 18.9867 31.3168 18.7615 31.101L16.125 28.5734L13.4886 31.101C13.2633 31.3168 13.0622 31.5097 12.8915 31.6564C12.7248 31.7997 12.4939 31.9834 12.2061 32.0962C11.284 32.4574 10.1635 32.1759 9.6021 31.2657C9.42785 30.9831 9.36518 30.678 9.33027 30.4712C9.29408 30.2565 9.26566 29.9896 9.23476 29.6995L9.23148 29.6688C9.21132 29.4795 9.20004 29.3763 9.18832 29.3008C9.18519 29.2806 9.18267 29.2669 9.18097 29.2585C9.17683 29.2509 9.17122 29.2436 9.16362 29.2362C9.1534 29.2265 9.13761 29.2151 9.11421 29.2059C9.10629 29.2041 9.08643 29.2002 9.04882 29.1948C8.96611 29.1829 8.85478 29.1719 8.65866 29.1527L8.62893 29.1498C8.32407 29.12 8.04956 29.0931 7.82988 29.059C7.61966 29.0263 7.31902 28.9693 7.03947 28.8108C6.1096 28.2838 5.76029 27.1665 6.16967 26.206C6.17298 26.1982 6.17636 26.1906 6.17978 26.1828C5.58177 26.1458 5.03571 26.0877 4.53953 25.9967C3.40254 25.7877 2.43492 25.3899 1.64753 24.6025C0.744646 23.6995 0.356311 22.5629 0.174781 21.2127C-5.91427e-05 19.9122 -2.92142e-05 18.2588 7.8584e-07 16.2074V10.0427C-2.92142e-05 7.99131 -5.91427e-05 6.33783 0.174781 5.03738C0.356311 3.68721 0.744646 2.55041 1.64753 1.64753C2.55041 0.744646 3.68721 0.356311 5.03738 0.174781C6.33783 -5.91427e-05 7.99131 -2.92142e-05 10.0427 7.8584e-07ZM8.22435 23.9943L9.44805 22.8212L10.5118 21.7574C10.7012 18.8222 13.142 16.5 16.125 16.5C19.108 16.5 21.5488 18.8222 21.7381 21.7574L22.8019 22.8212L24.0933 24.0591L24.0925 23.9937C25.5726 23.978 26.6275 23.9226 27.4302 23.7593C28.2019 23.6021 28.6635 23.3594 29.0115 23.0115C29.4267 22.5963 29.6973 22.0136 29.8453 20.9129C29.9976 19.7798 30 18.2781 30 16.125V10.125C30 7.97187 29.9976 6.47021 29.8453 5.33718C29.6973 4.23653 29.4267 3.65366 29.0115 3.23852C28.5963 2.82338 28.0135 2.5527 26.9128 2.40473C25.7797 2.25239 24.2781 2.25 22.125 2.25H10.125C7.97187 2.25 6.4702 2.25239 5.33718 2.40473C4.23653 2.5527 3.65366 2.82338 3.23852 3.23852C2.82338 3.65366 2.5527 4.23653 2.40473 5.33718C2.25239 6.47021 2.25 7.97189 2.25 10.125V16.125C2.25 18.2781 2.25239 19.7798 2.40473 20.9129C2.5527 22.0136 2.82338 22.5963 3.23852 23.0115C3.60369 23.3766 4.09581 23.6274 4.94603 23.7836C5.7536 23.9319 6.79593 23.9802 8.22435 23.9943ZM21.2489 24.4492C20.6391 25.7916 19.5171 26.852 18.1326 27.3812L20.2979 29.457C20.4899 29.6411 20.6264 29.7716 20.7329 29.8683C20.7465 29.7546 20.7618 29.6128 20.7812 29.4303C20.7839 29.4055 20.7864 29.3802 20.7891 29.3546C20.8177 29.079 20.8516 28.7527 20.9653 28.4581C21.2173 27.8056 21.7424 27.3128 22.3898 27.0831C22.6812 26.9796 23.0038 26.9487 23.2942 26.9209C23.3203 26.9184 23.3464 26.9158 23.3721 26.9133C23.5332 26.8975 23.6651 26.8846 23.775 26.8728C23.6895 26.7891 23.5845 26.6884 23.4535 26.5629L21.2489 24.4492ZM16.1701 25.4997L16.125 25.4563L16.0799 25.4997C14.2367 25.4755 12.75 23.9739 12.75 22.125C12.75 20.2611 14.2611 18.75 16.125 18.75C17.9889 18.75 19.5 20.2611 19.5 22.125C19.5 23.9739 18.0133 25.4755 16.1701 25.4997ZM14.1174 27.3812L11.9521 29.457C11.7601 29.6411 11.6237 29.7716 11.5172 29.8683C11.5035 29.7546 11.4883 29.6128 11.4688 29.4303C11.4662 29.4055 11.4636 29.3802 11.4609 29.3546C11.4323 29.079 11.3984 28.7527 11.2846 28.4581C11.0327 27.8056 10.5076 27.3128 9.86028 27.0831C9.56877 26.9796 9.24617 26.9487 8.95578 26.9209C8.92956 26.9184 8.9036 26.9158 8.87795 26.9133C8.7168 26.8975 8.585 26.8846 8.47508 26.8728C8.56052 26.7891 8.66543 26.6884 8.79641 26.5629L11.0011 24.4492C11.611 25.7916 12.7328 26.852 14.1174 27.3812ZM10.5 7.125C10.5 6.50369 11.0037 6 11.625 6H20.625C21.2463 6 21.75 6.50369 21.75 7.125C21.75 7.74632 21.2463 8.25 20.625 8.25H11.625C11.0037 8.25 10.5 7.74632 10.5 7.125ZM7.5 12.375C7.5 11.7537 8.00369 11.25 8.625 11.25H23.625C24.2463 11.25 24.75 11.7537 24.75 12.375C24.75 12.9963 24.2463 13.5 23.625 13.5H8.625C8.00369 13.5 7.5 12.9963 7.5 12.375Z" fill="var(--fill-0, #0C6EBF)" fill-opacity="0.5"/>
</svg>
