<svg preserveAspectRatio="none" width="100%" height="100%" overflow="visible" style="display: block;" viewBox="0 0 31.5 31.5" fill="none" xmlns="http://www.w3.org/2000/svg">
<path id="Vector" d="M2.928 31.5V25.0268C2.08175 24.7653 1.38225 24.2869 0.8295 23.5916C0.2765 22.8966 0 22.0851 0 21.1571V6.87975H2.928V1.125C2.928 0.80625 3.03588 0.539125 3.25163 0.323625C3.46738 0.107875 3.73463 0 4.05338 0C4.37238 0 4.6395 0.107875 4.85475 0.323625C5.07025 0.539125 5.178 0.80625 5.178 1.125V6.87975H8.10563V21.1571C8.10563 22.0851 7.82925 22.8966 7.2765 23.5916C6.7235 24.2869 6.024 24.7653 5.178 25.0268V31.5H2.928ZM14.625 31.5V25.0268C13.7788 24.7653 13.0793 24.2869 12.5265 23.5916C11.9735 22.8966 11.697 22.0851 11.697 21.1571V6.87975H14.625V1.125C14.625 0.80625 14.7329 0.539125 14.9486 0.323625C15.1644 0.107875 15.4316 0 15.7504 0C16.0694 0 16.3365 0.107875 16.5518 0.323625C16.7673 0.539125 16.875 0.80625 16.875 1.125V6.87975H19.803V21.1571C19.803 22.0851 19.5265 22.8966 18.9735 23.5916C18.4208 24.2869 17.7213 24.7653 16.875 25.0268V31.5H14.625ZM26.322 31.5V25.0268C25.476 24.7653 24.7765 24.2869 24.2235 23.5916C23.6708 22.8966 23.3944 22.0851 23.3944 21.1571V6.87975H26.322V1.125C26.322 0.80625 26.4299 0.539125 26.6456 0.323625C26.8614 0.107875 27.1288 0 27.4478 0C27.7665 0 28.0336 0.107875 28.2491 0.323625C28.4644 0.539125 28.572 0.80625 28.572 1.125V6.87975H31.5V21.1571C31.5 22.0851 31.2235 22.8966 30.6705 23.5916C30.1178 24.2869 29.4183 24.7653 28.572 25.0268V31.5H26.322ZM2.25 9.12975V15.6491H5.856V9.12975H2.25ZM13.947 9.12975V15.6491H17.553V9.12975H13.947ZM25.644 9.12975V15.6491H29.25V9.12975H25.644ZM4.053 22.9616C4.55475 22.9616 4.98062 22.7888 5.33062 22.443C5.68088 22.0975 5.856 21.6694 5.856 21.1586V17.8991H2.25V21.1586C2.25 21.6694 2.425 22.0975 2.775 22.443C3.125 22.7888 3.551 22.9616 4.053 22.9616ZM15.75 22.9616C16.252 22.9616 16.678 22.7888 17.028 22.443C17.378 22.0975 17.553 21.6694 17.553 21.1586V17.8991H13.947V21.1586C13.947 21.6694 14.122 22.0975 14.472 22.443C14.822 22.7888 15.248 22.9616 15.75 22.9616ZM27.447 22.9616C27.949 22.9616 28.375 22.7888 28.725 22.443C29.075 22.0975 29.25 21.6694 29.25 21.1586V17.8991H25.644V21.1586C25.644 21.6694 25.8191 22.0975 26.1694 22.443C26.5194 22.7888 26.9453 22.9616 27.447 22.9616Z" fill="var(--fill-0, #0C6EBF)" fill-opacity="0.5"/>
</svg>
