<svg preserveAspectRatio="none" width="100%" height="100%" overflow="visible" style="display: block;" viewBox="0 0 445.898 975.51" fill="none" xmlns="http://www.w3.org/2000/svg">
<g id="Vector">
<path d="M397.476 975.51H48.4216C21.6793 975.51 0 953.832 0 927.089V48.4216C0 21.6789 21.6789 0 48.4216 0H397.476C424.219 0 445.898 21.6789 445.898 48.4216V927.088C445.898 953.832 424.219 975.51 397.476 975.51Z" fill="var(--fill-0, white)"/>
<path d="M397.476 975.51H48.4216C21.6793 975.51 0 953.832 0 927.089V48.4216C0 21.6789 21.6789 0 48.4216 0H397.476C424.219 0 445.898 21.6789 445.898 48.4216V927.088C445.898 953.832 424.219 975.51 397.476 975.51Z" fill="var(--fill-1, #0C6EBF)" fill-opacity="0.1"/>
</g>
</svg>
