<svg preserveAspectRatio="none" width="100%" height="100%" overflow="visible" style="display: block;" viewBox="0 0 446 975" fill="none" xmlns="http://www.w3.org/2000/svg">
<g id="Vector">
<path d="M397.568 975H48.4327C21.6843 975 0 953.332 0 926.604V48.3963C0 21.6675 21.6839 0 48.4327 0H397.567C424.316 0 446 21.6675 446 48.3963V926.603C446 953.332 424.317 975 397.568 975Z" fill="var(--fill-0, white)"/>
<path d="M397.568 975H48.4327C21.6843 975 0 953.332 0 926.604V48.3963C0 21.6675 21.6839 0 48.4327 0H397.567C424.316 0 446 21.6675 446 48.3963V926.603C446 953.332 424.317 975 397.568 975Z" fill="var(--fill-1, #0C6EBF)" fill-opacity="0.1"/>
</g>
</svg>
