<svg preserveAspectRatio="none" width="100%" height="100%" overflow="visible" style="display: block;" viewBox="0 0 498.053 1005" fill="none" xmlns="http://www.w3.org/2000/svg">
<path id="Vector" d="M490.27 158.918H489.324V59.6166C489.324 26.6913 462.633 0 429.707 0H68.3466C35.4212 0 8.72997 26.6913 8.72997 59.6166V158.918H7.78348C3.48496 158.918 0 162.403 0 166.701V235.392C0 239.691 3.4845 243.175 7.78348 243.175H8.72997V259.559H7.78348C3.48496 259.559 0 263.043 0 267.342V336.032C0 340.331 3.4845 343.815 7.78348 343.815H8.72997V945.384C8.72997 978.309 35.4212 1005 68.3466 1005H429.707C462.633 1005 489.324 978.309 489.324 945.384V285.304H490.27C494.569 285.304 498.053 281.82 498.053 277.521V166.701C498.053 162.403 494.569 158.918 490.27 158.918Z" fill="url(#paint0_linear_0_26)"/>
<defs>
<linearGradient id="paint0_linear_0_26" x1="249.027" y1="0" x2="249.027" y2="1005" gradientUnits="userSpaceOnUse">
<stop stop-color="#0C6EBF"/>
<stop offset="0.65" stop-color="#7756C2"/>
</linearGradient>
</defs>
</svg>
