<svg preserveAspectRatio="none" width="100%" height="100%" overflow="visible" style="display: block;" viewBox="0 0 48 37.4795" fill="none" xmlns="http://www.w3.org/2000/svg">
<path id="Union" d="M44.29 0C46.3357 0.000223013 48 1.6652 48 3.71094V33.7695C47.9998 35.8151 46.3356 37.4793 44.29 37.4795H3.70996C1.66438 37.4793 0.000171708 35.8151 0 33.7695V3.71094C0 1.6652 1.66428 0.000222819 3.70996 0H44.29ZM1.40918 7.4209V33.7695C1.40935 35.0382 2.44131 36.0701 3.70996 36.0703H44.29C45.5587 36.0701 46.5906 35.0382 46.5908 33.7695V7.4209H1.40918ZM41.2842 10.5205C42.5012 10.5207 43.4912 11.5115 43.4912 12.7285V14.2314C43.491 15.4483 42.501 16.4382 41.2842 16.4385H27.7578C26.5408 16.4385 25.55 15.4485 25.5498 14.2314V14.1846H24.752C24.3117 14.1846 23.9532 14.5422 23.9531 14.9824V21.041H25.5498V20.9941C25.5499 19.777 26.5407 18.7871 27.7578 18.7871H41.2842C42.5011 18.7873 43.4911 19.7772 43.4912 20.9941V22.4971C43.4912 23.7141 42.5012 24.7048 41.2842 24.7051H27.7578C26.5406 24.7051 25.5498 23.7143 25.5498 22.4971V22.4502H23.9531V28.5088C23.9531 28.9491 24.3117 29.3076 24.752 29.3076H25.5498V29.2607C25.5498 28.0436 26.5406 27.0527 27.7578 27.0527H41.2842C42.5012 27.053 43.4912 28.0437 43.4912 29.2607V30.7637C43.491 31.9806 42.5011 32.9705 41.2842 32.9707H27.7578C26.5407 32.9707 25.55 31.9807 25.5498 30.7637V30.7168H24.752C23.5348 30.7168 22.5439 29.726 22.5439 28.5088V22.4502H20.9473V24.752C20.9471 25.969 19.9563 26.959 18.7393 26.959H6.71582C5.49894 26.9588 4.50897 25.9688 4.50879 24.752V18.7402C4.50879 17.5232 5.49882 16.5325 6.71582 16.5322H18.7393C19.9564 16.5322 20.9473 17.523 20.9473 18.7402V21.041H22.5439V14.9824C22.544 13.7653 23.5348 12.7754 24.752 12.7754H25.5498V12.7285C25.5498 11.5113 26.5406 10.5205 27.7578 10.5205H41.2842ZM27.7578 28.4619C27.3175 28.4619 26.959 28.8205 26.959 29.2607V30.7637C26.9592 31.2038 27.3177 31.5615 27.7578 31.5615H41.2842C41.7241 31.5613 42.0819 31.2036 42.082 30.7637V29.2607C42.082 28.8206 41.7243 28.4621 41.2842 28.4619H27.7578ZM6.71582 17.9414C6.27575 17.9416 5.91797 18.3001 5.91797 18.7402V24.752C5.91815 25.1919 6.27586 25.5496 6.71582 25.5498H18.7393C19.1794 25.5498 19.5379 25.1921 19.5381 24.752V18.7402C19.5381 18.3 19.1795 17.9414 18.7393 17.9414H6.71582ZM27.7578 20.1963C27.3176 20.1963 26.9591 20.5539 26.959 20.9941V22.4971C26.959 22.9373 27.3175 23.2959 27.7578 23.2959H41.2842C41.7243 23.2957 42.082 22.9372 42.082 22.4971V20.9941C42.082 20.5541 41.7242 20.1965 41.2842 20.1963H27.7578ZM27.7578 11.9297C27.3175 11.9297 26.959 12.2882 26.959 12.7285V14.2314C26.9592 14.6715 27.3177 15.0293 27.7578 15.0293H41.2842C41.7241 15.0291 42.0818 14.6714 42.082 14.2314V12.7285C42.082 12.2884 41.7243 11.9299 41.2842 11.9297H27.7578ZM3.70996 1.40918C2.4412 1.4094 1.40918 2.44213 1.40918 3.71094V6.01172H46.5908V3.71094C46.5908 2.44213 45.5588 1.4094 44.29 1.40918H3.70996ZM3.70996 3.00586C3.89595 3.00586 4.07744 3.08138 4.20801 3.21289C4.33951 3.34346 4.41504 3.52589 4.41504 3.71094C4.41492 3.89581 4.33937 4.07754 4.20801 4.20801C4.07744 4.33951 3.89501 4.41504 3.70996 4.41504C3.52506 4.41493 3.34336 4.33941 3.21289 4.20801C3.08148 4.07754 3.00597 3.89584 3.00586 3.71094C3.00586 3.52589 3.08138 3.34346 3.21289 3.21289C3.34336 3.08152 3.52415 3.00597 3.70996 3.00586ZM5.96484 3.00586C6.14987 3.00588 6.33234 3.0814 6.46289 3.21289C6.59424 3.34344 6.66895 3.52601 6.66895 3.71094C6.66883 3.89569 6.5941 4.07756 6.46289 4.20801C6.33234 4.3395 6.15081 4.41502 5.96484 4.41504C5.77979 4.41504 5.59736 4.33951 5.4668 4.20801C5.33554 4.07756 5.26086 3.89573 5.26074 3.71094C5.26074 3.52597 5.3354 3.34345 5.4668 3.21289C5.59736 3.08138 5.77979 3.00586 5.96484 3.00586ZM8.21875 3.00586C8.4038 3.00586 8.58623 3.08138 8.7168 3.21289C8.8483 3.34346 8.92383 3.52589 8.92383 3.71094C8.92371 3.89581 8.84817 4.07754 8.7168 4.20801C8.58623 4.33951 8.4038 4.41504 8.21875 4.41504C8.03385 4.41492 7.85215 4.33941 7.72168 4.20801C7.59027 4.07754 7.51476 3.89584 7.51465 3.71094C7.51465 3.52589 7.59017 3.34346 7.72168 3.21289C7.85214 3.08152 8.03388 3.00598 8.21875 3.00586ZM39.7812 3.00586C40.1701 3.00609 40.4854 3.32201 40.4854 3.71094C40.4851 4.09967 40.17 4.41481 39.7812 4.41504H11.2246C10.8359 4.4148 10.5207 4.09967 10.5205 3.71094C10.5205 3.32201 10.8357 3.0061 11.2246 3.00586H39.7812ZM44.29 3.00586C44.6789 3.00608 44.9941 3.322 44.9941 3.71094C44.9939 4.09968 44.6788 4.41482 44.29 4.41504H42.7871C42.3982 4.41504 42.0823 4.09981 42.082 3.71094C42.082 3.32187 42.398 3.00586 42.7871 3.00586H44.29Z" fill="var(--fill-0, white)" fill-opacity="0.8"/>
</svg>
