<svg preserveAspectRatio="none" width="100%" height="100%" overflow="visible" style="display: block;" viewBox="0 0 48 37.4795" fill="none" xmlns="http://www.w3.org/2000/svg">
<path id="Union" d="M44.29 0C46.3357 0.000223013 48 1.6652 48 3.71094V33.7695C47.9998 35.8151 46.3356 37.4793 44.29 37.4795H3.70996C1.66438 37.4793 0.000171708 35.8151 0 33.7695V3.71094C0 1.6652 1.66428 0.000222819 3.70996 0H44.29ZM1.40918 31.4678V33.7695C1.40935 35.0382 2.44131 36.0701 3.70996 36.0703H15.0293V31.4678H1.40918ZM16.4385 31.4678V36.0703H31.5615V31.4678H16.4385ZM32.9707 31.4678V36.0703H44.29C45.5587 36.0701 46.5906 35.0382 46.5908 33.7695V31.4678H32.9707ZM5.96484 33.0645C6.35388 33.0645 6.66895 33.3805 6.66895 33.7695C6.66878 34.1584 6.35378 34.4736 5.96484 34.4736H3.70996C3.32117 34.4734 3.00602 34.1583 3.00586 33.7695C3.00586 33.3806 3.32107 33.0647 3.70996 33.0645H5.96484ZM20.2422 33.0645C20.6313 33.0645 20.9473 33.3805 20.9473 33.7695C20.9471 34.1585 20.6312 34.4736 20.2422 34.4736H18.7393C18.3505 34.4734 18.0353 34.1583 18.0352 33.7695C18.0352 33.3806 18.3504 33.0647 18.7393 33.0645H20.2422ZM26.2549 33.0645C26.6437 33.0647 26.959 33.3806 26.959 33.7695C26.9588 34.1583 26.6436 34.4734 26.2549 34.4736H23.248C22.8593 34.4734 22.5441 34.1583 22.5439 33.7695C22.5439 33.3806 22.8592 33.0647 23.248 33.0645H26.2549ZM35.2725 33.0645C35.4573 33.0646 35.6391 33.1402 35.7695 33.2715C35.901 33.4021 35.9766 33.5845 35.9766 33.7695C35.9765 33.9544 35.9009 34.1361 35.7695 34.2666C35.6391 34.398 35.4574 34.4735 35.2725 34.4736C35.0874 34.4736 34.905 34.3981 34.7744 34.2666C34.643 34.1361 34.5675 33.9544 34.5674 33.7695C34.5674 33.5845 34.6429 33.4021 34.7744 33.2715C34.905 33.14 35.0874 33.0645 35.2725 33.0645ZM38.2783 33.0645C38.4632 33.0646 38.6449 33.1402 38.7754 33.2715C38.9069 33.4021 38.9824 33.5845 38.9824 33.7695C38.9823 33.9544 38.9068 34.1361 38.7754 34.2666C38.6449 34.398 38.4632 34.4735 38.2783 34.4736C38.0933 34.4736 37.9108 34.3981 37.7803 34.2666C37.6489 34.1361 37.5733 33.9544 37.5732 33.7695C37.5732 33.5845 37.6488 33.4021 37.7803 33.2715C37.9108 33.14 38.0933 33.0645 38.2783 33.0645ZM1.40918 25.4561V30.0586H15.0293V25.4561H1.40918ZM16.4385 25.4561V30.0586H31.5615V25.4561H16.4385ZM32.9707 25.4561V30.0586H46.5908V25.4561H32.9707ZM5.96484 27.0527C6.35388 27.0528 6.66895 27.3688 6.66895 27.7578C6.66877 28.1467 6.35377 28.4619 5.96484 28.4619H3.70996C3.32118 28.4617 3.00604 28.1466 3.00586 27.7578C3.00586 27.3689 3.32107 27.053 3.70996 27.0527H5.96484ZM20.2422 27.0527C20.6313 27.0527 20.9473 27.3687 20.9473 27.7578C20.9471 28.1467 20.6311 28.4619 20.2422 28.4619H18.7393C18.3505 28.4617 18.0353 28.1466 18.0352 27.7578C18.0352 27.3689 18.3504 27.053 18.7393 27.0527H20.2422ZM24.752 27.0527C25.1408 27.053 25.4561 27.3689 25.4561 27.7578C25.4559 28.1466 25.1407 28.4617 24.752 28.4619H23.248C22.8593 28.4617 22.5441 28.1466 22.5439 27.7578C22.5439 27.3689 22.8592 27.053 23.248 27.0527H24.752ZM35.2725 27.0527C35.4573 27.0529 35.6391 27.1284 35.7695 27.2598C35.901 27.3903 35.9766 27.5728 35.9766 27.7578C35.9765 27.9427 35.9009 28.1244 35.7695 28.2549C35.6391 28.3863 35.4574 28.4618 35.2725 28.4619C35.0874 28.4619 34.905 28.3864 34.7744 28.2549C34.643 28.1244 34.5675 27.9427 34.5674 27.7578C34.5674 27.5728 34.6429 27.3903 34.7744 27.2598C34.905 27.1283 35.0874 27.0527 35.2725 27.0527ZM38.2783 27.0527C38.4641 27.0529 38.6449 27.1284 38.7754 27.2598C38.9069 27.3903 38.9824 27.5728 38.9824 27.7578C38.9823 27.9427 38.9068 28.1244 38.7754 28.2549C38.6449 28.3863 38.4632 28.4618 38.2783 28.4619C38.0923 28.4619 37.9108 28.3864 37.7803 28.2549C37.6489 28.1244 37.5733 27.9427 37.5732 27.7578C37.5732 27.5728 37.6488 27.3903 37.7803 27.2598C37.9108 27.1283 38.0924 27.0527 38.2783 27.0527ZM41.2842 27.0527C41.469 27.0529 41.6508 27.1284 41.7812 27.2598C41.9128 27.3903 41.9883 27.5728 41.9883 27.7578C41.9882 27.9427 41.9126 28.1244 41.7812 28.2549C41.6508 28.3863 41.4691 28.4618 41.2842 28.4619C41.0991 28.4619 40.9167 28.3864 40.7861 28.2549C40.6548 28.1244 40.5792 27.9436 40.5791 27.7578C40.5791 27.5718 40.6546 27.3903 40.7861 27.2598C40.9167 27.1283 41.0992 27.0527 41.2842 27.0527ZM1.40918 19.4443V24.0469H15.0293V19.4443H1.40918ZM16.4385 19.4443V24.0469H31.5615V19.4443H16.4385ZM32.9707 19.4443V24.0469H46.5908V19.4443H32.9707ZM5.96484 21.041C6.35388 21.0411 6.66895 21.357 6.66895 21.7461C6.66876 22.135 6.35376 22.4502 5.96484 22.4502H3.70996C3.32119 22.45 3.00605 22.1349 3.00586 21.7461C3.00586 21.3572 3.32107 21.0412 3.70996 21.041H5.96484ZM20.2422 21.041C20.6313 21.041 20.9473 21.357 20.9473 21.7461C20.9471 22.135 20.6311 22.4502 20.2422 22.4502H18.7393C18.3505 22.4499 18.0353 22.1349 18.0352 21.7461C18.0352 21.3572 18.3504 21.0413 18.7393 21.041H20.2422ZM28.5088 21.041C28.8979 21.041 29.2129 21.357 29.2129 21.7461C29.2127 22.135 28.8977 22.4502 28.5088 22.4502H23.248C22.8593 22.4499 22.5441 22.1348 22.5439 21.7461C22.5439 21.3572 22.8592 21.0413 23.248 21.041H28.5088ZM35.2725 21.041C35.4573 21.0411 35.6391 21.1167 35.7695 21.248C35.901 21.3786 35.9766 21.561 35.9766 21.7461C35.9765 21.931 35.9009 22.1127 35.7695 22.2432C35.6391 22.3746 35.4574 22.4501 35.2725 22.4502C35.0874 22.4502 34.905 22.3747 34.7744 22.2432C34.643 22.1127 34.5675 21.931 34.5674 21.7461C34.5674 21.561 34.6429 21.3786 34.7744 21.248C34.905 21.1166 35.0874 21.041 35.2725 21.041ZM1.40918 13.4326V18.0352H15.0293V13.4326H1.40918ZM16.4385 13.4326V18.0352H31.5615V13.4326H16.4385ZM32.9707 13.4326V18.0352H46.5908V13.4326H32.9707ZM5.96484 15.0293C6.35388 15.0293 6.66895 15.3453 6.66895 15.7344C6.66874 16.1232 6.35375 16.4384 5.96484 16.4385H3.70996C3.3212 16.4383 3.00606 16.1231 3.00586 15.7344C3.00586 15.3454 3.32107 15.0295 3.70996 15.0293H5.96484ZM20.2422 15.0293C20.6313 15.0293 20.9473 15.3453 20.9473 15.7344C20.9471 16.1233 20.6311 16.4385 20.2422 16.4385H18.7393C18.3505 16.4382 18.0354 16.1231 18.0352 15.7344C18.0352 15.3455 18.3504 15.0295 18.7393 15.0293H20.2422ZM26.2549 15.0293C26.6437 15.0296 26.959 15.3455 26.959 15.7344C26.9588 16.1231 26.6436 16.4382 26.2549 16.4385H23.248C22.8593 16.4382 22.5441 16.1231 22.5439 15.7344C22.5439 15.3455 22.8592 15.0296 23.248 15.0293H26.2549ZM35.2725 15.0293C35.4573 15.0294 35.6391 15.105 35.7695 15.2363C35.901 15.3669 35.9766 15.5493 35.9766 15.7344C35.9765 15.9193 35.9009 16.101 35.7695 16.2314C35.6391 16.3628 35.4574 16.4384 35.2725 16.4385C35.0874 16.4385 34.905 16.363 34.7744 16.2314C34.643 16.101 34.5675 15.9193 34.5674 15.7344C34.5674 15.5493 34.6429 15.3669 34.7744 15.2363C34.905 15.1048 35.0874 15.0293 35.2725 15.0293ZM38.2783 15.0293C38.4641 15.0294 38.6449 15.105 38.7754 15.2363C38.9069 15.3669 38.9824 15.5493 38.9824 15.7344C38.9823 15.9193 38.9068 16.101 38.7754 16.2314C38.6449 16.3628 38.4632 16.4384 38.2783 16.4385C38.0933 16.4385 37.9108 16.363 37.7803 16.2314C37.6489 16.101 37.5733 15.9193 37.5732 15.7344C37.5732 15.5493 37.6488 15.3669 37.7803 15.2363C37.9108 15.1048 38.0923 15.0293 38.2783 15.0293ZM1.40918 7.4209V12.0234H31.5615V7.4209H1.40918ZM32.9707 7.4209V12.0234H46.5908V7.4209H32.9707ZM19.4912 9.01758C19.8803 9.01759 20.1953 9.33359 20.1953 9.72266C20.1951 10.1115 19.8801 10.4267 19.4912 10.4268H3.70996C3.3212 10.4265 3.00607 10.1114 3.00586 9.72266C3.00586 9.33372 3.32107 9.01779 3.70996 9.01758H19.4912ZM25.5029 9.01758C25.892 9.01758 26.207 9.33358 26.207 9.72266C26.2068 10.1115 25.8919 10.4268 25.5029 10.4268H22.4971C22.1081 10.4268 21.7932 10.1115 21.793 9.72266C21.793 9.33358 22.108 9.01758 22.4971 9.01758H25.5029ZM44.29 9.01758C44.6789 9.01781 44.9941 9.33373 44.9941 9.72266C44.9939 10.1114 44.6788 10.4265 44.29 10.4268H35.2725C34.8835 10.4268 34.5676 10.1115 34.5674 9.72266C34.5674 9.33358 34.8834 9.01758 35.2725 9.01758H44.29ZM3.70996 1.40918C2.4412 1.4094 1.40918 2.44213 1.40918 3.71094V6.01172H46.5908V3.71094C46.5908 2.44213 45.5588 1.4094 44.29 1.40918H3.70996ZM34.5205 3.00586C34.9096 3.00586 35.2246 3.32187 35.2246 3.71094C35.2244 4.09981 34.9094 4.41504 34.5205 4.41504H13.4795C13.0906 4.41504 12.7756 4.09981 12.7754 3.71094C12.7754 3.32187 13.0904 3.00586 13.4795 3.00586H34.5205Z" fill="var(--fill-0, white)" fill-opacity="0.8"/>
</svg>
