<svg preserveAspectRatio="none" width="100%" height="100%" overflow="visible" style="display: block;" viewBox="0 0 39.929 48" fill="none" xmlns="http://www.w3.org/2000/svg">
<path id="Union" d="M30.7627 25.5498C31.5655 25.5498 32.2187 26.203 32.2188 27.0059V27.5234C33.5481 27.9473 34.7694 28.6499 35.7979 29.584L36.2412 29.3281C36.5781 29.1337 36.9701 29.0822 37.3457 29.1826C37.7213 29.2833 38.036 29.5245 38.2305 29.8613L39.7334 32.4639C39.9277 32.8004 39.9794 33.1928 39.8789 33.5684C39.7782 33.944 39.537 34.2587 39.2002 34.4531L38.7539 34.7109C38.9056 35.4003 38.9824 36.0927 38.9824 36.7754C38.9824 37.4581 38.9057 38.1505 38.7539 38.8398L39.2002 39.0967C39.5368 39.291 39.7772 39.6052 39.8779 39.9805C39.9785 40.3561 39.9269 40.7492 39.7324 41.0859L38.2295 43.6885C37.828 44.3837 36.9362 44.6229 36.2412 44.2217L35.7979 43.9658C34.7693 44.8999 33.548 45.6025 32.2188 46.0264V46.5439C32.2187 47.3467 31.5655 48 30.7627 48H27.7568C26.9542 47.9998 26.3018 47.3466 26.3018 46.5439V46.0264C24.9724 45.6025 23.7511 44.8999 22.7227 43.9658L22.2793 44.2217C21.584 44.6231 20.6915 44.3846 20.29 43.6895L18.7871 41.0859C18.5928 40.7493 18.5412 40.3569 18.6416 39.9814C18.7423 39.6058 18.9835 39.2911 19.3203 39.0967L19.7666 38.8389C19.6149 38.1495 19.5381 37.4571 19.5381 36.7744C19.5381 36.0918 19.6148 35.3993 19.7666 34.71L19.3203 34.4531C18.9835 34.2586 18.7423 33.944 18.6416 33.5684C18.5411 33.1929 18.5927 32.8004 18.7871 32.4639L20.29 29.8604C20.4845 29.5237 20.7991 29.2833 21.1748 29.1826C21.5502 29.082 21.9426 29.1337 22.2793 29.3281L22.7227 29.584C23.7512 28.6499 24.9725 27.9473 26.3018 27.5234V27.0059C26.3018 26.2032 26.9542 25.55 27.7568 25.5498H30.7627ZM27.7578 26.959C27.7319 26.959 27.7109 26.9799 27.7109 27.0059V28.0527C27.7109 28.3741 27.4927 28.6551 27.1816 28.7354C25.7169 29.1132 24.3857 29.8795 23.332 30.9521C23.1069 31.1813 22.7547 31.2299 22.4766 31.0693L21.5752 30.5479C21.5528 30.5349 21.5236 30.543 21.5107 30.5654L20.0078 33.1689C20.0053 33.1734 19.9981 33.1858 20.0029 33.2041C20.0079 33.2229 20.0213 33.23 20.0254 33.2324L20.9307 33.7559C21.2085 33.9165 21.3426 34.2444 21.2568 34.5537C21.0512 35.2958 20.9473 36.0436 20.9473 36.7754C20.9473 37.507 21.0513 38.2542 21.2568 38.9961C21.3426 39.3055 21.2086 39.6344 20.9307 39.7949L20.0254 40.3174C20.0212 40.3198 20.008 40.327 20.0029 40.3457C19.9979 40.3644 20.0054 40.3777 20.0078 40.3818L21.5107 42.9844C21.5238 43.0068 21.5527 43.0149 21.5752 43.002L22.4766 42.4814C22.5866 42.4179 22.7085 42.3867 22.8291 42.3867C23.0134 42.3868 23.196 42.4591 23.332 42.5977C24.3856 43.6702 25.7168 44.4366 27.1816 44.8145C27.4927 44.8947 27.71 45.1757 27.71 45.4971V46.5439C27.71 46.5699 27.7319 46.5908 27.7578 46.5908H30.7637C30.7894 46.5906 30.8105 46.5697 30.8105 46.5439V45.4971C30.8105 45.1757 31.0278 44.8947 31.3389 44.8145C32.8037 44.4367 34.1348 43.6703 35.1885 42.5977C35.4135 42.3684 35.7657 42.3198 36.0439 42.4805L36.9453 43.002C36.9679 43.015 36.9968 43.0068 37.0098 42.9844L38.5127 40.3809C38.5153 40.3765 38.5224 40.3641 38.5176 40.3457C38.5125 40.327 38.4993 40.3197 38.4951 40.3174L37.5898 39.7949C37.3118 39.6344 37.1779 39.3055 37.2637 38.9961C37.4692 38.2542 37.5732 37.507 37.5732 36.7754C37.5732 36.0436 37.4693 35.2957 37.2637 34.5537C37.1779 34.2444 37.3118 33.9155 37.5898 33.7549L38.4961 33.2324C38.5006 33.2298 38.5127 33.2223 38.5176 33.2041C38.5224 33.1857 38.5152 33.1734 38.5127 33.1689L37.0098 30.5654C36.9967 30.543 36.9679 30.5347 36.9453 30.5479L36.0439 31.0684C35.7656 31.2288 35.4135 31.1813 35.1885 30.9521C34.1349 29.8796 32.8037 29.1131 31.3389 28.7354C31.0278 28.6551 30.8105 28.3741 30.8105 28.0527V27.0059C30.8105 26.9801 30.7894 26.9592 30.7637 26.959H27.7578ZM24.8223 0.00390625C24.8391 0.00559526 24.8556 0.00787134 24.8721 0.0107422C24.878 0.0117755 24.8847 0.0124507 24.8906 0.0136719C24.9102 0.0175979 24.9293 0.0228286 24.9482 0.0283203C24.9511 0.0290718 24.9542 0.029428 24.957 0.0302734C24.9763 0.0361474 24.9951 0.0433302 25.0137 0.0507812C25.0161 0.0517892 25.019 0.0527161 25.0215 0.0537109C25.039 0.0609939 25.0563 0.0694449 25.0732 0.078125C25.0767 0.0799097 25.0806 0.0821057 25.084 0.0839844C25.0996 0.092411 25.115 0.10188 25.1299 0.111328C25.1343 0.114045 25.1393 0.116221 25.1436 0.119141C25.1577 0.128589 25.1712 0.138947 25.1846 0.149414C25.1891 0.153009 25.1937 0.156483 25.1982 0.160156C25.2161 0.174687 25.2338 0.18984 25.25 0.206055L32.7646 7.7207C32.7809 7.73692 32.7959 7.75475 32.8105 7.77246C32.8142 7.77699 32.8177 7.78152 32.8213 7.78613C32.8317 7.7995 32.8421 7.81303 32.8516 7.82715C32.8545 7.83156 32.8575 7.83631 32.8604 7.84082C32.8699 7.85573 32.8793 7.87106 32.8877 7.88672C32.8895 7.89012 32.8908 7.89407 32.8926 7.89746C32.9013 7.91426 32.9097 7.93158 32.917 7.94922C32.918 7.9516 32.9189 7.95457 32.9199 7.95703C32.9274 7.97558 32.9346 7.99438 32.9404 8.01367C32.9413 8.01648 32.9415 8.01965 32.9424 8.02246C32.9479 8.04137 32.9531 8.06052 32.957 8.08008C32.9582 8.086 32.9589 8.09272 32.96 8.09863C32.9628 8.11511 32.9651 8.13159 32.9668 8.14844C32.9691 8.17159 32.9707 8.19532 32.9707 8.21875V23.248C32.9707 23.637 32.6555 23.9529 32.2666 23.9531C31.8775 23.9531 31.5615 23.6371 31.5615 23.248V8.92383H27.7578C25.7119 8.92383 24.0469 7.25876 24.0469 5.21289V1.40918H3.70996C2.44134 1.4094 1.4094 2.44134 1.40918 3.70996V39.7812C1.40941 41.0499 2.44134 42.0818 3.70996 42.082H17.2363C17.6254 42.082 17.9414 42.398 17.9414 42.7871C17.9412 43.176 17.6253 43.4912 17.2363 43.4912H3.70996C1.66442 43.491 0.000232315 41.8268 0 39.7812V3.70996C0.000222812 1.66441 1.66441 0.000222618 3.70996 0H24.752C24.7754 1.6648e-05 24.7991 0.00157404 24.8223 0.00390625ZM29.2598 30.8105C32.5488 30.8105 35.2246 33.4864 35.2246 36.7754C35.2244 40.0642 32.5486 42.7393 29.2598 42.7393C25.9711 42.739 23.2961 40.064 23.2959 36.7754C23.2959 33.4865 25.971 30.8108 29.2598 30.8105ZM29.2598 32.2188C26.7479 32.219 24.7041 34.2635 24.7041 36.7754C24.7043 39.2871 26.748 41.3308 29.2598 41.3311C31.7717 41.3311 33.8162 39.2873 33.8164 36.7754C33.8164 34.2633 31.7718 32.2188 29.2598 32.2188ZM4.71484 26.5078C4.98982 26.2327 5.43579 26.2329 5.71094 26.5078L7.21387 28.0107C7.489 28.2858 7.489 28.7317 7.21387 29.0068L5.71094 30.5098C5.57344 30.6473 5.39307 30.7158 5.21289 30.7158C5.03276 30.7157 4.85227 30.6472 4.71484 30.5098C4.43997 30.2348 4.43996 29.7887 4.71484 29.5137L5.71973 28.5088L4.71484 27.5039C4.43997 27.2289 4.43996 26.7829 4.71484 26.5078ZM11.9766 29.3076C12.3656 29.3077 12.6807 29.6227 12.6807 30.0117C12.6807 30.4008 12.3656 30.7158 11.9766 30.7158H8.9707C8.58163 30.7158 8.2666 30.4008 8.2666 30.0117C8.26662 29.6227 8.58164 29.3076 8.9707 29.3076H11.9766ZM6.71582 23.2959C7.10489 23.2959 7.4209 23.6109 7.4209 24C7.4209 24.3891 7.10489 24.7041 6.71582 24.7041H5.21289C4.824 24.7039 4.50879 24.3889 4.50879 24C4.50879 23.6111 4.824 23.2961 5.21289 23.2959H6.71582ZM17.9883 23.2959C18.3773 23.2959 18.6924 23.6109 18.6924 24C18.6924 24.3891 18.3773 24.7041 17.9883 24.7041H9.72168C9.33279 24.7039 9.01758 24.3889 9.01758 24C9.01758 23.6111 9.33279 23.2961 9.72168 23.2959H17.9883ZM6.71582 19.5381C7.10473 19.5381 7.42064 19.8533 7.4209 20.2422C7.4209 20.6313 7.10489 20.9473 6.71582 20.9473H5.21289C4.824 20.947 4.50879 20.6311 4.50879 20.2422C4.50905 19.8535 4.82416 19.5383 5.21289 19.5381H6.71582ZM11.9766 19.5381C12.3654 19.5381 12.6804 19.8534 12.6807 20.2422C12.6807 20.6312 12.3656 20.9472 11.9766 20.9473H9.72168C9.33279 20.947 9.01758 20.6311 9.01758 20.2422C9.01784 19.8535 9.33295 19.5383 9.72168 19.5381H11.9766ZM27.7568 19.5381C28.1457 19.5381 28.4617 19.8533 28.4619 20.2422C28.4619 20.6313 28.1459 20.9473 27.7568 20.9473H14.9824C14.5933 20.9473 14.2783 20.6313 14.2783 20.2422C14.2786 19.8533 14.5935 19.5381 14.9824 19.5381H27.7568ZM6.71582 15.7812C7.10489 15.7812 7.4209 16.0963 7.4209 16.4854C7.42088 16.8744 7.10488 17.1895 6.71582 17.1895H5.21289C4.82401 17.1892 4.5088 16.8743 4.50879 16.4854C4.50879 16.0964 4.824 15.7815 5.21289 15.7812H6.71582ZM15.7334 15.7812C16.1225 15.7812 16.4385 16.0963 16.4385 16.4854C16.4385 16.8744 16.1225 17.1895 15.7334 17.1895H9.72168C9.3328 17.1892 9.01759 16.8743 9.01758 16.4854C9.01758 16.0964 9.33279 15.7815 9.72168 15.7812H15.7334ZM24 15.7812C24.389 15.7813 24.7041 16.0963 24.7041 16.4854C24.7041 16.8744 24.389 17.1894 24 17.1895H18.7393C18.3504 17.1892 18.0352 16.8743 18.0352 16.4854C18.0352 16.0964 18.3504 15.7815 18.7393 15.7812H24ZM6.71582 12.0234C7.10474 12.0234 7.42066 12.3387 7.4209 12.7275C7.4209 13.1166 7.10489 13.4326 6.71582 13.4326H5.21289C4.824 13.4324 4.50879 13.1165 4.50879 12.7275C4.50903 12.3388 4.82415 12.0237 5.21289 12.0234H6.71582ZM11.2246 12.0234C11.6135 12.0234 11.9294 12.3387 11.9297 12.7275C11.9297 13.1166 11.6137 13.4326 11.2246 13.4326H9.72168C9.33279 13.4324 9.01758 13.1165 9.01758 12.7275C9.01782 12.3388 9.33294 12.0237 9.72168 12.0234H11.2246ZM21.7451 12.0234C22.134 12.0234 22.45 12.3387 22.4502 12.7275C22.4502 13.1166 22.1342 13.4326 21.7451 13.4326H14.2305C13.8416 13.4324 13.5264 13.1165 13.5264 12.7275C13.5266 12.3388 13.8417 12.0237 14.2305 12.0234H21.7451ZM25.4561 5.21289C25.4561 6.48184 26.4889 7.51465 27.7578 7.51465H30.5654L25.4561 2.40527V5.21289Z" fill="var(--fill-0, white)" fill-opacity="0.8"/>
</svg>
