<svg preserveAspectRatio="none" width="100%" height="100%" overflow="visible" style="display: block;" viewBox="0 0 48 48" fill="none" xmlns="http://www.w3.org/2000/svg">
<path id="Union" d="M35.2314 0C36.9811 0.000167169 38.4004 1.41921 38.4004 3.16895V8.7998H44.7754C46.5562 8.79985 47.9997 10.2437 48 12.0244V23.1748C48 24.9558 46.5564 26.4003 44.7754 26.4004H38.4004V44.8311C38.4004 46.5807 36.9811 47.9998 35.2314 48H14.3701C12.6196 48 11.2002 46.5811 11.2002 44.8311V34.4004H3.22461C1.44364 34.4003 0 32.9558 0 31.1748V20.0244C0.000203127 18.2436 1.44377 16.8001 3.22461 16.7998H11.2002V12.7998C10.7584 12.7998 10.4005 12.4418 10.4004 12V11.2002C10.4004 10.7584 10.7584 10.4004 11.2002 10.4004V9.59961C10.7584 9.59961 10.4004 9.24165 10.4004 8.7998V8C10.4004 7.55817 10.7584 7.2002 11.2002 7.2002V3.16895C11.2002 1.41911 12.6193 0 14.3691 0H35.2314ZM12.7998 44.8311C12.7998 45.6973 13.5033 46.3994 14.3701 46.3994H22.6846C22.02 45.8131 21.5997 44.956 21.5996 44C21.5996 43.0438 22.0199 42.1859 22.6846 41.5996H12.7998V44.8311ZM26.916 41.5996C27.5806 42.1859 28 43.0439 28 44C27.9999 44.9559 27.5804 45.8132 26.916 46.3994H35.2314C36.0974 46.3992 36.7998 45.6971 36.7998 44.8311V41.5996H26.916ZM24.7998 42.3994C23.9161 42.3995 23.2002 43.1163 23.2002 44C23.2003 44.8836 23.9162 45.5995 24.7998 45.5996C25.6835 45.5996 26.4003 44.8837 26.4004 44C26.4004 43.1162 25.6836 42.3994 24.7998 42.3994ZM12.7998 16.7998H17.5752C19.3561 16.7998 20.7996 18.2435 20.7998 20.0244V31.1748C20.7998 32.7643 19.6502 34.086 18.1367 34.3516L16.7178 37.8975C16.5836 38.2322 16.2797 38.3993 15.9756 38.3994C15.6713 38.3994 15.3667 38.2324 15.2324 37.8975L13.833 34.3994H12.7998V40H36.7998V26.4004H34.167L32.7676 29.8975C32.6334 30.2322 32.3295 30.3992 32.0254 30.3994C31.7211 30.3994 31.4165 30.2324 31.2822 29.8975L29.8633 26.3516C28.3499 26.0859 27.2002 24.7643 27.2002 23.1748V12.0244C27.2004 10.2992 28.555 8.89008 30.2588 8.80371L30.4248 8.7998H36.7998V6.40039H12.7998V16.7998ZM3.22461 18.4004C2.32745 18.4005 1.59981 19.1273 1.59961 20.0244V31.1748C1.59961 32.0721 2.32732 32.7996 3.22461 32.7998H14.375C14.7021 32.7998 14.9967 32.999 15.1182 33.3027L15.9756 35.4453L16.832 33.3027C16.9535 32.999 17.2481 32.7998 17.5752 32.7998C18.4725 32.7998 19.2002 32.0721 19.2002 31.1748V20.0244C19.2 19.1272 18.4724 18.4004 17.5752 18.4004H3.22461ZM14.6338 20.2344C14.9463 19.922 15.4533 19.922 15.7656 20.2344C16.078 20.5468 16.0779 21.0529 15.7656 21.3652L6.16602 30.9658C5.85357 31.2782 5.34665 31.2781 5.03418 30.9658C4.72181 30.6534 4.72181 30.1464 5.03418 29.834L14.6338 20.2344ZM13.5996 26.4004C14.9246 26.4004 15.9999 27.4748 16 28.7998C16 30.1248 14.9247 31.2002 13.5996 31.2002C12.2747 31.2 11.2002 30.1248 11.2002 28.7998C11.2003 27.4749 12.2747 26.4006 13.5996 26.4004ZM13.5996 28C13.1584 28.0002 12.7999 28.3586 12.7998 28.7998C12.7998 29.2411 13.1584 29.5994 13.5996 29.5996C14.041 29.5996 14.3994 29.2412 14.3994 28.7998C14.3993 28.3585 14.0409 28 13.5996 28ZM30.4248 10.4004C29.5276 10.4005 28.8 11.1273 28.7998 12.0244V23.1748C28.7998 24.0721 29.5275 24.7997 30.4248 24.7998C30.7519 24.7998 31.0465 24.999 31.168 25.3027L32.0254 27.4453L32.8818 25.3027C32.9881 25.037 33.2268 24.8509 33.5039 24.8086L33.625 24.7998H44.7754C45.6727 24.7998 46.4004 24.0721 46.4004 23.1748V12.0244C46.4002 11.1272 45.6726 10.4004 44.7754 10.4004H30.4248ZM7.2002 20C8.52518 20.0001 9.59961 21.0754 9.59961 22.4004C9.59936 23.7252 8.52502 24.7997 7.2002 24.7998C5.87529 24.7998 4.80005 23.7252 4.7998 22.4004C4.7998 21.0753 5.87514 20 7.2002 20ZM7.2002 21.5996C6.75882 21.5996 6.4003 21.959 6.40039 22.4004C6.40064 22.8416 6.75898 23.2002 7.2002 23.2002C7.64134 23.2001 7.99975 22.8415 8 22.4004C8 21.9591 7.64149 21.5997 7.2002 21.5996ZM42.042 12.085C42.5739 11.819 43.2001 12.2053 43.2002 12.7998V22.4004C43.1999 22.9948 42.5738 23.3811 42.042 23.1152L37.4111 20.7998H32.7998C32.3581 20.7997 32 20.4418 32 20V15.2002C32 14.7584 32.358 14.4005 32.7998 14.4004H37.4111L42.042 12.085ZM37.958 15.916C37.8469 15.9716 37.7238 16 37.5996 16H33.5996V19.2002H37.5996C37.7238 19.2002 37.8469 19.2287 37.958 19.2842L41.5996 21.1055V14.0947L37.958 15.916ZM14.3691 1.59961C13.503 1.59961 12.7998 2.30279 12.7998 3.16895V4.7998H36.7998V3.16895C36.7998 2.3029 36.0975 1.59978 35.2314 1.59961H14.3691ZM21.5996 2.40039C22.0415 2.40039 22.3994 2.75835 22.3994 3.2002C22.3993 3.64197 22.0414 4 21.5996 4H20.7998C20.3582 3.99991 20.0001 3.64182 20 3.2002C20 2.7585 20.358 2.40048 20.7998 2.40039H21.5996ZM28 2.40039C28.4418 2.40039 28.7998 2.75835 28.7998 3.2002C28.7997 3.64197 28.4418 4 28 4H24C23.5583 3.99991 23.2003 3.64182 23.2002 3.2002C23.2002 2.7585 23.5582 2.40048 24 2.40039H28Z" fill="var(--fill-0, white)" fill-opacity="0.8"/>
</svg>
