<svg preserveAspectRatio="none" width="100%" height="100%" overflow="visible" style="display: block;" viewBox="0 0 10 12.7948" fill="none" xmlns="http://www.w3.org/2000/svg">
<path id="Vector" d="M0 10.923V9.92317H1.20517V4.94867C1.20517 4.05211 1.48189 3.25939 2.03533 2.5705C2.58867 1.88161 3.29911 1.441 4.16667 1.24867V0.833333C4.16667 0.601889 4.24761 0.405111 4.4095 0.243C4.57139 0.0810003 4.76794 0 4.99917 0C5.2305 0 5.42733 0.0810003 5.58967 0.243C5.75211 0.405111 5.83333 0.601889 5.83333 0.833333V1.24867C6.70089 1.441 7.41133 1.88161 7.96467 2.5705C8.51811 3.25939 8.79483 4.05211 8.79483 4.94867V9.92317H10V10.923H0ZM4.99883 12.7948C4.66717 12.7948 4.38361 12.6768 4.14817 12.4408C3.91261 12.2048 3.79483 11.9211 3.79483 11.5897H6.20517C6.20517 11.9222 6.08706 12.2062 5.85083 12.4417C5.61461 12.6771 5.33061 12.7948 4.99883 12.7948ZM2.20517 9.92317H7.79483V4.94867C7.79483 4.17689 7.522 3.51817 6.97633 2.9725C6.43056 2.42672 5.77178 2.15383 5 2.15383C4.22822 2.15383 3.56944 2.42672 3.02367 2.9725C2.478 3.51817 2.20517 4.17689 2.20517 4.94867V9.92317Z" fill="var(--fill-0, #0C6EBF)"/>
</svg>
