<svg preserveAspectRatio="none" width="100%" height="100%" overflow="visible" style="display: block;" viewBox="0 0 12.6667 12.359" fill="none" xmlns="http://www.w3.org/2000/svg">
<path id="Vector" d="M4.6 7.4295L6.33333 5.7025L8.06667 7.4295L8.76283 6.73333L7.03583 5L8.76283 3.26667L8.06667 2.5705L6.33333 4.2975L4.6 2.5705L3.90383 3.26667L5.63083 5L3.90383 6.73333L4.6 7.4295ZM0 12.359V1.20517C0 0.868389 0.116667 0.583333 0.35 0.35C0.583333 0.116667 0.868389 0 1.20517 0H11.4615C11.7983 0 12.0833 0.116667 12.3167 0.35C12.55 0.583333 12.6667 0.868389 12.6667 1.20517V8.79483C12.6667 9.13161 12.55 9.41667 12.3167 9.65C12.0833 9.88333 11.7983 10 11.4615 10H2.359L0 12.359ZM1.93333 9H11.4615C11.5128 9 11.5598 8.97861 11.6025 8.93583C11.6453 8.89317 11.6667 8.84617 11.6667 8.79483V1.20517C11.6667 1.15383 11.6453 1.10683 11.6025 1.06417C11.5598 1.02139 11.5128 1 11.4615 1H1.20517C1.15383 1 1.10683 1.02139 1.06417 1.06417C1.02139 1.10683 1 1.15383 1 1.20517V9.92317L1.93333 9Z" fill="var(--fill-0, #EC3A2D)"/>
</svg>
