<svg preserveAspectRatio="none" width="100%" height="100%" overflow="visible" style="display: block;" viewBox="0 0 20.6828 15" fill="none" xmlns="http://www.w3.org/2000/svg">
<path id="Vector" d="M1.75 15C1.26417 15 0.851 14.8298 0.5105 14.4895C0.170167 14.149 0 13.7358 0 13.25V1.80775C0 1.32192 0.179833 0.899167 0.5395 0.5395C0.899167 0.179834 1.32192 0 1.80775 0H7.298L9.298 2H17.1923C17.6398 2 18.0257 2.14458 18.35 2.43375C18.6743 2.72275 18.8622 3.07817 18.9135 3.5H8.6845L6.6845 1.5H1.80775C1.71792 1.5 1.64417 1.52883 1.5865 1.5865C1.52883 1.64417 1.5 1.71792 1.5 1.80775V13.1923C1.5 13.2628 1.51767 13.3204 1.553 13.3652C1.58817 13.4102 1.63458 13.4487 1.69225 13.4807L4.025 5.69225H20.6828L18.2615 13.7578C18.1473 14.1333 17.9336 14.4342 17.6203 14.6605C17.3068 14.8868 16.959 15 16.577 15H1.75ZM3.2635 13.5H16.7693L18.6557 7.19225H5.15L3.2635 13.5Z" fill="var(--fill-0, #0C6EBF)"/>
</svg>
