<svg preserveAspectRatio="none" width="100%" height="100%" overflow="visible" style="display: block;" viewBox="0 0 19 18" fill="none" xmlns="http://www.w3.org/2000/svg">
<path id="Vector" d="M13.5 8.3845C13.7448 8.3845 13.9535 8.29833 14.126 8.126C14.2983 7.9535 14.3845 7.74483 14.3845 7.5C14.3845 7.25517 14.2983 7.0465 14.126 6.874C13.9535 6.70167 13.7448 6.6155 13.5 6.6155C13.2552 6.6155 13.0465 6.70167 12.874 6.874C12.7017 7.0465 12.6155 7.25517 12.6155 7.5C12.6155 7.74483 12.7017 7.9535 12.874 8.126C13.0465 8.29833 13.2552 8.3845 13.5 8.3845ZM5.5 6.25H10.5V4.75H5.5V6.25ZM2.375 18C1.84683 16.1768 1.319 14.3628 0.7915 12.5578C0.263833 10.7526 0 8.9 0 7C0 5.60767 0.48525 4.42625 1.45575 3.45575C2.42625 2.48525 3.60767 2 5 2H10.25C10.7077 1.39867 11.2568 0.915001 11.8973 0.549001C12.5376 0.183001 13.2385 0 14 0C14.2757 0 14.5113 0.0977495 14.7068 0.29325C14.9023 0.48875 15 0.724333 15 1C15 1.068 14.9907 1.13592 14.972 1.20375C14.9535 1.27175 14.934 1.33458 14.9135 1.39225C14.8212 1.63325 14.7426 1.88008 14.6777 2.13275C14.6131 2.38525 14.5577 2.64033 14.5115 2.898L17.1135 5.5H19V11.6095L16.271 12.5058L14.625 18H10V16H7V18H2.375ZM3.5 16.5H5.5V14.5H11.5V16.5H13.5L15.05 11.35L17.5 10.525V7H16.5L13 3.5C13 3.16667 13.0208 2.84583 13.0625 2.5375C13.1042 2.22917 13.1731 1.91983 13.2693 1.6095C12.7859 1.74283 12.3641 1.97525 12.0038 2.30675C11.6436 2.63808 11.3673 3.03583 11.175 3.5H5C4.03333 3.5 3.20833 3.84167 2.525 4.525C1.84167 5.20833 1.5 6.03333 1.5 7C1.5 8.63333 1.725 10.2292 2.175 11.7875C2.625 13.3458 3.06667 14.9167 3.5 16.5Z" fill="var(--fill-0, #0C6EBF)"/>
</svg>
