<svg preserveAspectRatio="none" width="100%" height="100%" overflow="visible" style="display: block;" viewBox="0 0 30 29.231" fill="none" xmlns="http://www.w3.org/2000/svg">
<path id="Vector" d="M15 14C13.075 14 11.4272 13.3147 10.0565 11.944C8.6855 10.573 8 8.925 8 7C8 5.075 8.6855 3.42717 10.0565 2.0565C11.4272 0.6855 13.075 0 15 0C16.925 0 18.5728 0.6855 19.9435 2.0565C21.3145 3.42717 22 5.075 22 7C22 8.925 21.3145 10.573 19.9435 11.944C18.5728 13.3147 16.925 14 15 14ZM0 29.231V24.7845C0 23.8052 0.266 22.8982 0.798 22.0635C1.33 21.2288 2.041 20.5872 2.931 20.1385C4.90767 19.1695 6.90183 18.4427 8.9135 17.958C10.9252 17.4733 12.954 17.231 15 17.231C17.046 17.231 19.0748 17.4733 21.0865 17.958C23.0982 18.4427 25.0923 19.1695 27.069 20.1385C27.959 20.5872 28.67 21.2288 29.202 22.0635C29.734 22.8982 30 23.8052 30 24.7845V29.231H0ZM3 26.231H27V24.7845C27 24.3795 26.8827 24.0045 26.648 23.6595C26.4133 23.3148 26.0948 23.0335 25.6925 22.8155C23.9692 21.9668 22.2122 21.3238 20.4215 20.8865C18.6305 20.4495 16.8233 20.231 15 20.231C13.1767 20.231 11.3695 20.4495 9.5785 20.8865C7.78783 21.3238 6.03083 21.9668 4.3075 22.8155C3.90517 23.0335 3.58667 23.3148 3.352 23.6595C3.11733 24.0045 3 24.3795 3 24.7845V26.231ZM15 11C16.1 11 17.0417 10.6083 17.825 9.825C18.6083 9.04167 19 8.1 19 7C19 5.9 18.6083 4.95833 17.825 4.175C17.0417 3.39167 16.1 3 15 3C13.9 3 12.9583 3.39167 12.175 4.175C11.3917 4.95833 11 5.9 11 7C11 8.1 11.3917 9.04167 12.175 9.825C12.9583 10.6083 13.9 11 15 11Z" fill="var(--fill-0, white)" fill-opacity="0.5"/>
</svg>
