<svg preserveAspectRatio="none" width="100%" height="100%" overflow="visible" style="display: block;" viewBox="0 0 42 42" fill="none" xmlns="http://www.w3.org/2000/svg">
<path id="Vector" d="M3.904 42V33.369C2.77567 33.0203 1.843 32.3825 1.106 31.4555C0.368667 30.5288 0 29.4468 0 28.2095V9.173H3.904V1.5C3.904 1.075 4.04783 0.718834 4.3355 0.4315C4.62317 0.143834 4.9795 0 5.4045 0C5.82983 0 6.186 0.143834 6.473 0.4315C6.76033 0.718834 6.904 1.075 6.904 1.5V9.173H10.8075V28.2095C10.8075 29.4468 10.439 30.5288 9.702 31.4555C8.96467 32.3825 8.032 33.0203 6.904 33.369V42H3.904ZM19.5 42V33.369C18.3717 33.0203 17.439 32.3825 16.702 31.4555C15.9647 30.5288 15.596 29.4468 15.596 28.2095V9.173H19.5V1.5C19.5 1.075 19.6438 0.718834 19.9315 0.4315C20.2192 0.143834 20.5755 0 21.0005 0C21.4258 0 21.782 0.143834 22.069 0.4315C22.3563 0.718834 22.5 1.075 22.5 1.5V9.173H26.404V28.2095C26.404 29.4468 26.0353 30.5288 25.298 31.4555C24.561 32.3825 23.6283 33.0203 22.5 33.369V42H19.5ZM35.096 42V33.369C33.968 33.0203 33.0353 32.3825 32.298 31.4555C31.561 30.5288 31.1925 29.4468 31.1925 28.2095V9.173H35.096V1.5C35.096 1.075 35.2398 0.718834 35.5275 0.4315C35.8152 0.143834 36.1717 0 36.597 0C37.022 0 37.3782 0.143834 37.6655 0.4315C37.9525 0.718834 38.096 1.075 38.096 1.5V9.173H42V28.2095C42 29.4468 41.6313 30.5288 40.894 31.4555C40.157 32.3825 39.2243 33.0203 38.096 33.369V42H35.096ZM3 12.173V20.8655H7.808V12.173H3ZM18.596 12.173V20.8655H23.404V12.173H18.596ZM34.192 12.173V20.8655H39V12.173H34.192ZM5.404 30.6155C6.073 30.6155 6.64083 30.385 7.1075 29.924C7.5745 29.4633 7.808 28.8925 7.808 28.2115V23.8655H3V28.2115C3 28.8925 3.23333 29.4633 3.7 29.924C4.16667 30.385 4.73467 30.6155 5.404 30.6155ZM21 30.6155C21.6693 30.6155 22.2373 30.385 22.704 29.924C23.1707 29.4633 23.404 28.8925 23.404 28.2115V23.8655H18.596V28.2115C18.596 28.8925 18.8293 29.4633 19.296 29.924C19.7627 30.385 20.3307 30.6155 21 30.6155ZM36.596 30.6155C37.2653 30.6155 37.8333 30.385 38.3 29.924C38.7667 29.4633 39 28.8925 39 28.2115V23.8655H34.192V28.2115C34.192 28.8925 34.4255 29.4633 34.8925 29.924C35.3592 30.385 35.927 30.6155 36.596 30.6155Z" fill="var(--fill-0, white)" fill-opacity="0.5"/>
</svg>
