<svg preserveAspectRatio="none" width="100%" height="100%" overflow="visible" style="display: block;" viewBox="0 0 31 42.615" fill="none" xmlns="http://www.w3.org/2000/svg">
<path id="Vector" d="M1.8345 28.5615C1.2295 27.4358 0.7725 26.2737 0.4635 25.075C0.1545 23.876 0 22.6535 0 21.4075C0 17.0818 1.50517 13.4005 4.5155 10.3635C7.52583 7.32617 11.1873 5.8075 15.5 5.8075H17.0615L13.3615 2.1075L15.469 0L22.777 7.3075L15.469 14.615L13.3615 12.5075L17.0615 8.8075H15.5C12.0257 8.8075 9.07367 10.0305 6.644 12.4765C4.21467 14.9228 3 17.8998 3 21.4075C3 22.2358 3.09033 23.0633 3.271 23.89C3.452 24.717 3.72317 25.5242 4.0845 26.3115L1.8345 28.5615ZM15.531 42.615L8.223 35.3075L15.531 28L17.6385 30.1075L13.9385 33.8075H15.5C18.9743 33.8075 21.9263 32.5845 24.356 30.1385C26.7853 27.6922 28 24.7152 28 21.2075C28 20.3792 27.9097 19.5517 27.729 18.725C27.548 17.898 27.2768 17.0908 26.9155 16.3035L29.1655 14.0535C29.7705 15.1792 30.2275 16.3413 30.5365 17.54C30.8455 18.739 31 19.9615 31 21.2075C31 25.5332 29.4948 29.2145 26.4845 32.2515C23.4742 35.2888 19.8127 36.8075 15.5 36.8075H13.9385L17.6385 40.5075L15.531 42.615Z" fill="var(--fill-0, white)" fill-opacity="0.5"/>
</svg>
