<svg preserveAspectRatio="none" width="100%" height="100%" overflow="visible" style="display: block;" viewBox="0 0 38 34" fill="none" xmlns="http://www.w3.org/2000/svg">
<path id="Vector" d="M10.5 22.192H12.8845V15.1925H10.5V17.5H7.5V19.8845H10.5V22.192ZM14.8845 19.8845H30.5V17.5H14.8845V19.8845ZM25.1155 14.8075H27.5V12.5H30.5V10.1155H27.5V7.808H25.1155V14.8075ZM7.5 12.5H23.1155V10.1155H7.5V12.5ZM12 34V30H3.6155C2.60517 30 1.75 29.65 1.05 28.95C0.35 28.25 0 27.3948 0 26.3845V3.6155C0 2.60517 0.35 1.75 1.05 1.05C1.75 0.35 2.60517 0 3.6155 0H34.3845C35.3948 0 36.25 0.35 36.95 1.05C37.65 1.75 38 2.60517 38 3.6155V26.3845C38 27.3948 37.65 28.25 36.95 28.95C36.25 29.65 35.3948 30 34.3845 30H26V34H12ZM3.6155 27H34.3845C34.5385 27 34.6795 26.9358 34.8075 26.8075C34.9358 26.6795 35 26.5385 35 26.3845V3.6155C35 3.4615 34.9358 3.3205 34.8075 3.1925C34.6795 3.06417 34.5385 3 34.3845 3H3.6155C3.4615 3 3.3205 3.06417 3.1925 3.1925C3.06417 3.3205 3 3.4615 3 3.6155V26.3845C3 26.5385 3.06417 26.6795 3.1925 26.8075C3.3205 26.9358 3.4615 27 3.6155 27Z" fill="var(--fill-0, white)" fill-opacity="0.5"/>
</svg>
