<svg preserveAspectRatio="none" width="100%" height="100%" overflow="visible" style="display: block;" viewBox="0 0 17.8078 20.3078" fill="none" xmlns="http://www.w3.org/2000/svg">
<path id="Vector" d="M13.3078 15.8078C13.7244 15.8078 14.0786 15.6619 14.3703 15.3703C14.6619 15.0786 14.8078 14.7244 14.8078 14.3078C14.8078 13.8911 14.6619 13.5369 14.3703 13.2453C14.0786 12.9536 13.7244 12.8078 13.3078 12.8078C12.8911 12.8078 12.5369 12.9536 12.2453 13.2453C11.9536 13.5369 11.8078 13.8911 11.8078 14.3078C11.8078 14.7244 11.9536 15.0786 12.2453 15.3703C12.5369 15.6619 12.8911 15.8078 13.3078 15.8078ZM13.3078 18.8078C13.8078 18.8078 14.2744 18.6911 14.7078 18.4578C15.1411 18.2244 15.4994 17.8994 15.7828 17.4828C15.3994 17.2494 14.9994 17.0786 14.5828 16.9703C14.1661 16.8619 13.7411 16.8078 13.3078 16.8078C12.8744 16.8078 12.4494 16.8619 12.0328 16.9703C11.6161 17.0786 11.2161 17.2494 10.8328 17.4828C11.1161 17.8994 11.4744 18.2244 11.9078 18.4578C12.3411 18.6911 12.8078 18.8078 13.3078 18.8078ZM4.5 6.5H10.5V4.5C10.5 3.66667 10.2083 2.95833 9.625 2.375C9.04167 1.79167 8.33333 1.5 7.5 1.5C6.66667 1.5 5.95833 1.79167 5.375 2.375C4.79167 2.95833 4.5 3.66667 4.5 4.5V6.5ZM7.9615 19.5H1.80775C1.30258 19.5 0.875 19.325 0.525 18.975C0.175 18.625 0 18.1974 0 17.6923V8.30775C0 7.80258 0.175 7.375 0.525 7.025C0.875 6.675 1.30258 6.5 1.80775 6.5H3V4.5C3 3.25133 3.43783 2.18917 4.3135 1.3135C5.18917 0.437833 6.25133 0 7.5 0C8.74867 0 9.81083 0.437833 10.6865 1.3135C11.5622 2.18917 12 3.25133 12 4.5V6.5H13.1923C13.6974 6.5 14.125 6.675 14.475 7.025C14.825 7.375 15 7.80258 15 8.30775V9.55C14.7833 9.47567 14.5509 9.41992 14.3027 9.38275C14.0547 9.34558 13.7872 9.327 13.5 9.327V8.30775C13.5 8.21792 13.4712 8.14417 13.4135 8.0865C13.3558 8.02883 13.2821 8 13.1923 8H1.80775C1.71792 8 1.64417 8.02883 1.5865 8.0865C1.52883 8.14417 1.5 8.21792 1.5 8.30775V17.6923C1.5 17.7821 1.52883 17.8558 1.5865 17.9135C1.64417 17.9712 1.71792 18 1.80775 18H7.223C7.318 18.2975 7.41933 18.5584 7.527 18.7828C7.63467 19.0071 7.7795 19.2462 7.9615 19.5ZM13.3078 20.3078C12.0589 20.3078 10.9967 19.8699 10.1212 18.9943C9.24558 18.1186 8.80775 17.0564 8.80775 15.8078C8.80775 14.5589 9.24558 13.4968 10.1212 12.6213C10.9967 11.7456 12.0589 11.3078 13.3078 11.3078C14.5564 11.3078 15.6186 11.7456 16.4943 12.6213C17.3699 13.4968 17.8078 14.5589 17.8078 15.8078C17.8078 17.0564 17.3699 18.1186 16.4943 18.9943C15.6186 19.8699 14.5564 20.3078 13.3078 20.3078ZM1.5 10.8848V18V8V10.8848Z" fill="var(--fill-0, #ED5A20)"/>
</svg>
