<svg preserveAspectRatio="none" width="100%" height="100%" overflow="visible" style="display: block;" viewBox="0 0 15.3333 6.98717" fill="none" xmlns="http://www.w3.org/2000/svg">
<path id="Vector" d="M0 6.98717V6.17433C0 5.73078 0.231611 5.36644 0.694833 5.08133C1.15817 4.79633 1.76206 4.65383 2.5065 4.65383C2.6295 4.65383 2.75339 4.65767 2.87817 4.66533C3.00294 4.673 3.12861 4.68794 3.25517 4.71017C3.12528 4.91794 3.02889 5.13356 2.966 5.357C2.90322 5.58056 2.87183 5.80983 2.87183 6.04483V6.98717H0ZM4 6.98717V6.0705C4 5.75839 4.08761 5.47311 4.26283 5.21467C4.43806 4.95611 4.69061 4.73072 5.0205 4.5385C5.35039 4.34617 5.74017 4.20194 6.18983 4.10583C6.63939 4.00961 7.13083 3.9615 7.66417 3.9615C8.20772 3.9615 8.70428 4.00961 9.15383 4.10583C9.60339 4.20194 9.99311 4.34617 10.323 4.5385C10.653 4.73072 10.9039 4.95611 11.0757 5.21467C11.2474 5.47311 11.3333 5.75839 11.3333 6.0705V6.98717H4ZM12.4615 6.98717V6.04683C12.4615 5.79606 12.4318 5.55972 12.3725 5.33783C12.3131 5.11606 12.2239 4.90683 12.1052 4.71017C12.2359 4.68794 12.3609 4.673 12.4802 4.66533C12.5994 4.65767 12.7171 4.65383 12.8333 4.65383C13.5778 4.65383 14.1806 4.79467 14.6417 5.07633C15.1028 5.35789 15.3333 5.72389 15.3333 6.17433V6.98717H12.4615ZM5.05133 5.98717H10.2923V5.91667C10.224 5.64744 9.94022 5.42094 9.441 5.23717C8.94189 5.05339 8.35044 4.9615 7.66667 4.9615C6.98289 4.9615 6.39144 5.05339 5.89233 5.23717C5.39311 5.42094 5.11278 5.64744 5.05133 5.91667V5.98717ZM2.50467 4.00633C2.19044 4.00633 1.922 3.89461 1.69933 3.67117C1.47667 3.44772 1.36533 3.17911 1.36533 2.86533C1.36533 2.54744 1.47711 2.27889 1.70067 2.05967C1.92411 1.84044 2.19272 1.73083 2.5065 1.73083C2.82439 1.73083 3.094 1.84044 3.31533 2.05967C3.53678 2.27889 3.6475 2.54811 3.6475 2.86733C3.6475 3.17711 3.53794 3.44439 3.31883 3.66917C3.09983 3.89394 2.82844 4.00633 2.50467 4.00633ZM12.8333 4.00633C12.5222 4.00633 12.2543 3.89394 12.0295 3.66917C11.8047 3.44439 11.6923 3.17711 11.6923 2.86733C11.6923 2.54811 11.8047 2.27889 12.0295 2.05967C12.2543 1.84044 12.5226 1.73083 12.8345 1.73083C13.1559 1.73083 13.4263 1.84044 13.6455 2.05967C13.8647 2.27889 13.9743 2.54744 13.9743 2.86533C13.9743 3.17911 13.865 3.44772 13.6463 3.67117C13.4277 3.89461 13.1567 4.00633 12.8333 4.00633ZM7.669 3.4615C7.18878 3.4615 6.77989 3.29322 6.44233 2.95667C6.10478 2.62022 5.936 2.21161 5.936 1.73083C5.936 1.24039 6.10422 0.829333 6.44067 0.497666C6.77722 0.165889 7.18589 0 7.66667 0C8.157 0 8.56805 0.165667 8.89983 0.497C9.2315 0.828222 9.39733 1.23872 9.39733 1.7285C9.39733 2.20861 9.23172 2.6175 8.9005 2.95517C8.56917 3.29272 8.15867 3.4615 7.669 3.4615ZM7.66983 2.4615C7.87372 2.4615 8.04594 2.39017 8.1865 2.2475C8.32717 2.10472 8.3975 1.93139 8.3975 1.7275C8.3975 1.52372 8.32744 1.3515 8.18733 1.21083C8.04722 1.07028 7.87367 1 7.66667 1C7.465 1 7.29278 1.07006 7.15 1.21017C7.00722 1.35017 6.93583 1.52372 6.93583 1.73083C6.93583 1.9325 7.00722 2.10472 7.15 2.2475C7.29278 2.39017 7.46606 2.4615 7.66983 2.4615Z" fill="var(--fill-0, #0C6EBF)" fill-opacity="0.5"/>
</svg>
