<svg preserveAspectRatio="none" width="100%" height="100%" overflow="visible" style="display: block;" viewBox="0 0 11.334 11.334" fill="none" xmlns="http://www.w3.org/2000/svg">
<path id="Union" d="M5.41016 1H1.20508C1.15391 1.00011 1.10701 1.02179 1.06445 1.06445C1.02179 1.10701 1.00011 1.15391 1 1.20508V10.1289C1.00011 10.1801 1.02179 10.227 1.06445 10.2695C1.10701 10.3122 1.15391 10.3339 1.20508 10.334H10.1289C10.1801 10.3339 10.227 10.3122 10.2695 10.2695C10.3122 10.227 10.3339 10.1801 10.334 10.1289V5.92383H11.334V10.1289C11.3339 10.4655 11.2166 10.7502 10.9834 10.9834C10.7502 11.2166 10.4655 11.3339 10.1289 11.334H1.20508C0.868481 11.3339 0.583824 11.2166 0.350586 10.9834C0.117348 10.7502 9.56633e-05 10.4655 0 10.1289V1.20508C9.55625e-05 0.868481 0.117348 0.583824 0.350586 0.350586C0.583824 0.117348 0.868481 9.55625e-05 1.20508 0H5.41016V1ZM11.334 0.703125L5.14648 6.88965H7.77734V7.88965H3.44434V3.55664H4.44434V6.1875L10.6309 0L11.334 0.703125Z" fill="var(--fill-0, #ED5A20)"/>
</svg>
