<svg preserveAspectRatio="none" width="100%" height="100%" overflow="visible" style="display: block;" viewBox="0 0 17 17" fill="none" xmlns="http://www.w3.org/2000/svg">
<path id="Union" d="M8.11523 1.5H1.80762C1.73067 1.50004 1.66064 1.53255 1.59668 1.59668C1.53255 1.66064 1.50004 1.73067 1.5 1.80762V15.1924C1.50004 15.2693 1.53255 15.3394 1.59668 15.4033C1.66064 15.4675 1.73067 15.5 1.80762 15.5H15.1924C15.2693 15.5 15.3394 15.4675 15.4033 15.4033C15.4675 15.3394 15.5 15.2693 15.5 15.1924V8.88477H17V15.1924C17 15.6975 16.8246 16.1246 16.4746 16.4746C16.1246 16.8246 15.6975 17 15.1924 17H1.80762C1.30251 17 0.87536 16.8246 0.525391 16.4746C0.175421 16.1246 3.06122e-05 15.6975 0 15.1924V1.80762C3.06673e-05 1.30251 0.175421 0.87536 0.525391 0.525391C0.87536 0.175421 1.30251 3.06673e-05 1.80762 0H8.11523V1.5ZM17 1.05371L7.71973 10.335H11.665V11.835H5.16504V5.33496H6.66504V9.28027L15.9463 0L17 1.05371Z" fill="var(--fill-0, #ED5A20)"/>
</svg>
