<svg preserveAspectRatio="none" width="100%" height="100%" overflow="visible" style="display: block;" viewBox="0 0 17 17" fill="none" xmlns="http://www.w3.org/2000/svg">
<path id="Vector" d="M1.80775 17C1.30258 17 0.875 16.825 0.525 16.475C0.175 16.125 0 15.6974 0 15.1923V1.80775C0 1.30258 0.175 0.875 0.525 0.525C0.875 0.175 1.30258 0 1.80775 0H8.11525V1.5H1.80775C1.73075 1.5 1.66025 1.53208 1.59625 1.59625C1.53208 1.66025 1.5 1.73075 1.5 1.80775V15.1923C1.5 15.2693 1.53208 15.3398 1.59625 15.4038C1.66025 15.4679 1.73075 15.5 1.80775 15.5H15.1923C15.2693 15.5 15.3398 15.4679 15.4038 15.4038C15.4679 15.3398 15.5 15.2693 15.5 15.1923V8.88475H17V15.1923C17 15.6974 16.825 16.125 16.475 16.475C16.125 16.825 15.6974 17 15.1923 17H1.80775ZM6.21925 11.8345L5.1655 10.7808L14.4462 1.5H10.5V0H17V6.5H15.5V2.55375L6.21925 11.8345Z" fill="var(--fill-0, #ED5A20)"/>
</svg>
