<svg preserveAspectRatio="none" width="100%" height="100%" overflow="visible" style="display: block;" viewBox="0 0 10 12.6282" fill="none" xmlns="http://www.w3.org/2000/svg">
<path id="Vector" d="M3.6 8.3845L5 6.9845L6.4 8.3845L7.1025 7.682L5.7025 6.282L7.1025 4.882L6.4 4.1795L5 5.5795L3.6 4.1795L2.8975 4.882L4.2975 6.282L2.8975 7.682L3.6 8.3845ZM5 12.6282C3.55811 12.2349 2.36433 11.3862 1.41867 10.082C0.472889 8.77778 0 7.31967 0 5.70767V1.87183L5 0L10 1.87183V5.70767C10 7.31967 9.52711 8.77778 8.58133 10.082C7.63567 11.3862 6.44189 12.2349 5 12.6282ZM5 11.5743C6.15556 11.2077 7.11111 10.4743 7.86667 9.37433C8.62222 8.27433 9 7.05211 9 5.70767V2.55767L5 1.064L1 2.55767V5.70767C1 7.05211 1.37778 8.27433 2.13333 9.37433C2.88889 10.4743 3.84444 11.2077 5 11.5743Z" fill="var(--fill-0, #ED5A20)"/>
</svg>
