<svg preserveAspectRatio="none" width="100%" height="100%" overflow="visible" style="display: block;" viewBox="0 0 12.5332 12.5332" fill="none" xmlns="http://www.w3.org/2000/svg">
<path id="Vector" d="M8.24733 5.6615L7.5345 4.94867L9.91783 1.91533H4.50117L3.50117 0.915333H10.9447C11.1541 0.915333 11.3061 1.00767 11.4005 1.19233C11.4949 1.37689 11.4781 1.55467 11.3498 1.72567L8.24733 5.6615ZM11.8203 12.5332L7.61783 8.33067V10.3255C7.61783 10.4931 7.56139 10.6332 7.4485 10.746C7.33572 10.8589 7.19556 10.9153 7.028 10.9153H6.20767C6.04011 10.9153 5.89994 10.8589 5.78717 10.746C5.67428 10.6332 5.61783 10.4931 5.61783 10.3255V6.33067L0 0.712833L0.7025 0L12.5332 11.8307L11.8203 12.5332Z" fill="var(--fill-0, #ED5A20)"/>
</svg>
