<svg preserveAspectRatio="none" width="100%" height="100%" overflow="visible" style="display: block;" viewBox="0 0 43 43" fill="none" xmlns="http://www.w3.org/2000/svg">
<path id="Union" d="M21.5 0C33.374 1.08153e-05 43 9.62588 43 21.5C43 33.374 33.374 43 21.5 43C9.62588 43 1.0816e-05 33.374 0 21.5C9.90122e-06 9.62589 9.62589 9.89607e-06 21.5 0ZM21.5 3C11.2827 3.00001 3.00001 11.2827 3 21.5C3.00001 31.7172 11.2827 40 21.5 40C31.7172 40 40 31.7172 40 21.5C40 11.2827 31.7172 3.00001 21.5 3ZM25.4824 9.90527C26.0336 9.78212 26.7358 9.79148 27.3613 10.2188C27.9874 10.6464 28.2511 11.298 28.3359 11.8574C28.4196 12.4096 28.3543 12.9942 28.2168 13.5566C28.2165 13.5579 28.2161 13.5593 28.2158 13.5605L26.6758 19.7861L28.5283 20.2461C29.4471 20.4788 30.6428 21.0755 30.8809 22.3848C31.1183 23.6918 30.2114 24.6701 29.4385 25.21C29.4371 25.2109 29.4359 25.212 29.4346 25.2129L19.0781 32.3906C18.6033 32.7217 18.0825 32.9935 17.5381 33.1152C16.9871 33.2384 16.2848 33.2288 15.6592 32.8018C15.033 32.3741 14.7684 31.7225 14.6836 31.1631C14.5999 30.6109 14.6653 30.0263 14.8027 29.4639L16.3438 23.2344L14.498 22.7764C14.4959 22.7758 14.4934 22.775 14.4912 22.7744C13.5725 22.5416 12.3776 21.9448 12.1396 20.6357C11.9021 19.3286 12.8081 18.3504 13.5811 17.8105L13.5859 17.8076L23.9453 10.627C24.4192 10.297 24.9393 10.0267 25.4824 9.90527ZM15.709 19.9854L18.5215 20.6846C19.3248 20.8842 19.8149 21.6965 19.6162 22.5L17.8643 29.5811L27.3105 23.0352L24.498 22.3359C23.6948 22.1362 23.2055 21.323 23.4043 20.5195L25.1553 13.4385L15.709 19.9854Z" fill="var(--fill-0, white)" fill-opacity="0.5"/>
</svg>
