<svg preserveAspectRatio="none" width="100%" height="100%" overflow="visible" style="display: block;" viewBox="0 0 46 46" fill="none" xmlns="http://www.w3.org/2000/svg">
<path id="Union" d="M44.2305 42.791C45.2076 42.791 46 43.5093 46 44.3955C45.9999 45.2816 45.2075 46 44.2305 46H1.76954C0.792504 46 0.00015907 45.2816 6.79125e-06 44.3955C6.79125e-06 43.5093 0.79241 42.791 1.76954 42.791H44.2305ZM6.59278 14.9766C7.61375 14.9765 8.55004 14.9765 9.31153 15.0693C10.1501 15.1716 11.0367 15.4121 11.7656 16.0732C12.4944 16.7343 12.7593 17.5384 12.8721 18.2988C12.9745 18.9895 12.9747 19.8385 12.9746 20.7647V33.793C12.9747 34.7189 12.9744 35.5682 12.8721 36.2588C12.7593 37.0193 12.4944 37.8233 11.7656 38.4844C11.0367 39.1456 10.15 39.386 9.31153 39.4883C8.55005 39.5811 7.61376 39.5813 6.59278 39.5811H6.38184C5.36088 39.5813 4.42458 39.5811 3.66309 39.4883C2.82453 39.386 1.93796 39.1457 1.20899 38.4844C0.480175 37.8233 0.21527 37.0193 0.102546 36.2588C0.000198035 35.5682 -0.000111145 34.7189 6.79125e-06 33.793V20.7647C-0.000111151 19.8385 0.000170569 18.9895 0.102546 18.2988C0.215291 17.5383 0.480109 16.7344 1.20899 16.0732C1.93796 15.4121 2.82453 15.1716 3.66309 15.0693C4.42457 14.9765 5.36087 14.9765 6.38184 14.9766H6.59278ZM23.1055 6.41895C24.1264 6.41885 25.0628 6.41789 25.8242 6.51075C26.6628 6.613 27.5494 6.8545 28.2783 7.51563C29.0071 8.17671 29.272 8.98082 29.3848 9.74122C29.4871 10.4317 29.4875 11.2804 29.4873 12.2061V33.793C29.4875 34.7189 29.4871 35.5682 29.3848 36.2588C29.272 37.0193 29.0072 37.8233 28.2783 38.4844C27.5495 39.1457 26.6628 39.386 25.8242 39.4883C25.0628 39.5811 24.1264 39.5813 23.1055 39.5811H22.8945C21.8736 39.5813 20.9373 39.5811 20.1758 39.4883C19.3372 39.386 18.4507 39.1457 17.7217 38.4844C16.9929 37.8233 16.728 37.0193 16.6152 36.2588C16.5129 35.5682 16.5126 34.7189 16.5127 33.793V12.2061C16.5126 11.2804 16.5129 10.4317 16.6152 9.74122C16.728 8.98078 16.993 8.17673 17.7217 7.51563C18.4507 6.85447 19.3372 6.613 20.1758 6.51075C20.9372 6.4179 21.8734 6.41885 22.8945 6.41895H23.1055ZM39.6182 6.83137e-06C40.6391 -0.000100145 41.5754 -7.56126e-05 42.3369 0.0927803C43.1755 0.195037 44.0621 0.435558 44.791 1.09669C45.52 1.7578 45.7847 2.56181 45.8975 3.32227C45.9998 4.01292 46.0002 4.86211 46 5.78809V33.793C46.0002 34.7189 45.9998 35.5682 45.8975 36.2588C45.7847 37.0193 45.5199 37.8233 44.791 38.4844C44.0621 39.1457 43.1755 39.386 42.3369 39.4883C41.5754 39.5811 40.6391 39.5813 39.6182 39.5811H39.4072C38.386 39.5813 37.45 39.5811 36.6885 39.4883C35.8499 39.386 34.9633 39.1457 34.2344 38.4844C33.5055 37.8233 33.2407 37.0193 33.1279 36.2588C33.0256 35.5682 33.0254 34.7189 33.0254 33.793V5.78809C33.0254 4.86211 33.0256 4.01293 33.1279 3.32227C33.2407 2.5618 33.5054 1.7578 34.2344 1.09669C34.9633 0.435546 35.8499 0.195034 36.6885 0.0927803C37.45 -7.56126e-05 38.386 -0.000100145 39.4072 6.83137e-06H39.6182ZM6.48731 18.1856C5.32548 18.1856 4.63183 18.1894 4.13477 18.25C3.90699 18.2778 3.7926 18.3109 3.74122 18.3301C3.72942 18.3345 3.72134 18.3377 3.7168 18.3399L3.71094 18.3428L3.70801 18.3477C3.70563 18.3518 3.70216 18.3593 3.69727 18.3701C3.67614 18.4167 3.63999 18.52 3.60938 18.7266C3.54255 19.1774 3.53809 19.8064 3.53809 20.8604V33.6973C3.53809 34.751 3.54259 35.3803 3.60938 35.8311C3.64 36.0377 3.67614 36.1421 3.69727 36.1885L3.70997 36.2139L3.7168 36.2178C3.72136 36.2201 3.72933 36.2242 3.74122 36.2285C3.79262 36.2478 3.90708 36.2798 4.13477 36.3076C4.63184 36.3681 5.32544 36.3721 6.48731 36.3721C7.64925 36.3721 8.34279 36.3682 8.83985 36.3076C9.06759 36.2798 9.18203 36.2478 9.23341 36.2285C9.2452 36.2243 9.25327 36.2201 9.25782 36.2178L9.2627 36.2158L9.26661 36.21L9.27735 36.1885C9.29849 36.1421 9.33462 36.0377 9.36524 35.8311C9.43203 35.3803 9.43555 34.751 9.43555 33.6973V20.8604C9.43555 19.8064 9.43207 19.1774 9.36524 18.7266C9.33466 18.5202 9.29849 18.4168 9.27735 18.3701C9.27244 18.3593 9.26899 18.3518 9.26661 18.3477L9.2627 18.3428L9.25782 18.3399C9.2533 18.3377 9.24508 18.3344 9.23341 18.3301C9.18203 18.3109 9.06762 18.2778 8.83985 18.25C8.34279 18.1894 7.64925 18.1856 6.48731 18.1856ZM23 9.62794C21.8381 9.62794 21.1445 9.63082 20.6475 9.69141C20.4196 9.71918 20.3053 9.75232 20.2539 9.77149L20.2383 9.77735L20.2295 9.78126L20.2236 9.78419L20.21 9.81153C20.1888 9.85809 20.1527 9.9617 20.1221 10.168C20.0553 10.6188 20.0508 11.2488 20.0508 12.3027V33.6973C20.0508 34.751 20.0554 35.3803 20.1221 35.8311C20.1527 36.0377 20.1887 36.1421 20.21 36.1885C20.2146 36.199 20.2184 36.2059 20.2207 36.21L20.2246 36.2158L20.2295 36.2178C20.234 36.2201 20.2419 36.2243 20.2539 36.2285C20.3053 36.2478 20.4196 36.2798 20.6475 36.3076C21.1445 36.3682 21.838 36.3721 23 36.3721C24.162 36.3721 24.8555 36.3682 25.3525 36.3076C25.5804 36.2798 25.6949 36.2478 25.7461 36.2285C25.7502 36.2271 25.7538 36.2259 25.7568 36.2246C25.7629 36.2221 25.7677 36.2193 25.7705 36.2178L25.7764 36.2158L25.79 36.1885C25.8113 36.1421 25.8473 36.0377 25.8779 35.8311C25.9447 35.3803 25.9482 34.751 25.9482 33.6973V12.3027C25.9482 11.2488 25.9447 10.6188 25.8779 10.168C25.8473 9.96169 25.8113 9.8581 25.79 9.81153L25.7764 9.78419L25.7705 9.78126C25.7661 9.77911 25.758 9.77587 25.7461 9.77149C25.6949 9.75232 25.5804 9.71918 25.3525 9.69141C24.8555 9.6308 24.162 9.62794 23 9.62794ZM39.5127 3.20899C38.3507 3.20899 37.6572 3.21284 37.1602 3.27344C36.9323 3.30122 36.818 3.33338 36.7666 3.35255C36.7546 3.35696 36.7467 3.36113 36.7422 3.36329L36.7363 3.36622L36.7334 3.3711C36.731 3.37524 36.7274 3.38283 36.7227 3.39356C36.7014 3.4403 36.6654 3.54383 36.6348 3.75001C36.568 4.20084 36.5645 4.82996 36.5645 5.8838V33.6973C36.5645 34.751 36.5681 35.3803 36.6348 35.8311C36.6654 36.0377 36.7014 36.1421 36.7227 36.1885L36.7363 36.2158L36.7422 36.2178L36.75 36.2217C36.7542 36.2236 36.7598 36.2262 36.7666 36.2285C36.818 36.2478 36.9323 36.2798 37.1602 36.3076C37.6572 36.3682 38.3507 36.3721 39.5127 36.3721C40.6747 36.3721 41.3682 36.3682 41.8652 36.3076C42.0931 36.2798 42.2076 36.2478 42.2588 36.2285C42.2707 36.2243 42.2787 36.2201 42.2832 36.2178L42.2891 36.2158L42.3027 36.1885C42.324 36.1421 42.36 36.0377 42.3906 35.8311C42.4574 35.3803 42.4609 34.751 42.4609 33.6973V5.8838C42.4609 4.82997 42.4574 4.20084 42.3906 3.75001C42.36 3.54386 42.324 3.4403 42.3027 3.39356C42.2981 3.38285 42.2946 3.37524 42.292 3.3711L42.2891 3.36622L42.2832 3.36329C42.2787 3.36114 42.2708 3.35695 42.2588 3.35255C42.2076 3.33338 42.0931 3.30122 41.8652 3.27344C41.3682 3.21283 40.6747 3.20899 39.5127 3.20899Z" fill="var(--fill-0, white)" fill-opacity="0.5"/>
</svg>
