<svg preserveAspectRatio="none" width="100%" height="100%" overflow="visible" style="display: block;" viewBox="0 0 46.1172 44.9102" fill="none" xmlns="http://www.w3.org/2000/svg">
<path id="Union" d="M23.5283 0.34771C26.9939 -0.965789 30.7 1.60582 30.7002 5.3106V11.4102H34.9805C39.9487 11.4105 44 15.4625 44 20.4307V22.1163C45.2446 22.6662 46.117 23.8991 46.1172 25.3506V29.4708C46.1172 30.9222 45.2444 32.1541 44 32.7042V33.8907C44 38.8589 39.9487 42.91 34.9805 42.9102H15.3037C13.6975 44.1784 11.6817 44.9102 9.5 44.9102C6.03579 44.9102 3.01863 43.0591 1.37695 40.3067C0.496898 38.8751 0 37.1869 0 35.4102C0.00012258 32.6894 1.14357 30.2194 3 28.4874V13.0909C3 10.0902 4.84333 7.40947 7.64941 6.34771L23.5283 0.34771ZM9.5 28.9102C7.97694 28.9102 6.56273 29.4445 5.43457 30.3438L5.43262 30.3458C3.94237 31.5282 3.00013 33.3595 3 35.4102C3 36.6099 3.33062 37.7418 3.90918 38.6983L3.93652 38.7432L3.94922 38.7637C5.06884 40.646 7.12826 41.9102 9.5 41.9102C11.1454 41.9102 12.6292 41.3108 13.7568 40.296L13.7764 40.2784C13.7828 40.2728 13.7894 40.2673 13.7959 40.2618C14.2818 39.8542 14.7099 39.3471 15.0439 38.7745L15.0635 38.7432C15.6591 37.7772 16 36.6289 16 35.4102C15.9998 31.9312 13.2705 29.0931 9.83496 28.919L9.5 28.9102ZM12.0195 14.4102C8.70818 14.4105 6.00001 17.1193 6 20.4307V26.5821C6.03711 26.5673 6.07497 26.5544 6.1123 26.5401C6.19041 26.5101 6.2686 26.4802 6.34766 26.4522C6.41339 26.4289 6.47953 26.4067 6.5459 26.3848C6.61945 26.3606 6.69327 26.337 6.76758 26.3145C6.81911 26.2989 6.87096 26.2843 6.92285 26.2696C7.00675 26.2458 7.09098 26.2227 7.17578 26.2012C7.23701 26.1857 7.29867 26.1716 7.36035 26.1573C7.4298 26.1411 7.49933 26.125 7.56934 26.1104C7.64004 26.0957 7.71098 26.0816 7.78223 26.0684C7.85809 26.0544 7.93428 26.0415 8.01074 26.0294C8.06985 26.0199 8.12902 26.0103 8.18848 26.002C8.28338 25.9887 8.37886 25.9782 8.47461 25.9678C8.52401 25.9625 8.57343 25.9568 8.62305 25.9522C8.71772 25.9434 8.81278 25.9367 8.9082 25.9307C8.9521 25.928 8.99599 25.9241 9.04004 25.9219L9.08301 25.92C9.22129 25.9139 9.36032 25.9102 9.5 25.9102C14.7483 25.9102 18.9998 30.162 19 35.4102C19 35.6217 18.9914 35.8323 18.9775 36.0411C18.9753 36.0743 18.9733 36.1075 18.9707 36.1407C18.965 36.2148 18.9586 36.2887 18.9512 36.3624C18.9477 36.3969 18.9433 36.4314 18.9395 36.4659C18.9316 36.5364 18.9235 36.6067 18.9141 36.6768C18.9089 36.7153 18.9031 36.7537 18.8975 36.792C18.8892 36.8481 18.8813 36.9042 18.8721 36.96C18.8629 37.0149 18.8519 37.0694 18.8418 37.1241C18.834 37.1664 18.8267 37.2089 18.8184 37.251C18.8077 37.3046 18.7967 37.358 18.7852 37.4112C18.7699 37.4815 18.7532 37.5514 18.7363 37.6211C18.7318 37.64 18.7283 37.659 18.7236 37.6778C18.7046 37.7547 18.684 37.8311 18.6631 37.9073C18.6557 37.9342 18.6492 37.9615 18.6416 37.9883C18.5278 38.3882 18.3867 38.7773 18.2227 39.1544C18.2054 39.1939 18.1877 39.2332 18.1699 39.2725C18.1453 39.327 18.1213 39.3817 18.0957 39.4356C18.0784 39.4719 18.0607 39.5079 18.043 39.544C18.0172 39.5964 17.9906 39.6484 17.9639 39.7002C17.9397 39.7473 17.9156 39.7943 17.8906 39.8409C17.8782 39.864 17.8661 39.8872 17.8535 39.9102H34.9805C38.2918 39.91 41 37.2021 41 33.8907V33.0108H38.6973C35.8756 33.0106 33.137 30.9455 32.8828 27.8956L32.8623 27.5743C32.808 25.9756 33.452 24.4977 34.5166 23.4512C35.1922 22.7622 36.0332 22.2689 36.9629 22.0127C37.4371 21.8818 37.9342 21.812 38.4443 21.8106H41V20.4307C41 17.1193 38.2918 14.4105 34.9805 14.4102H29.2197C29.2132 14.4103 29.2067 14.4112 29.2002 14.4112C29.1937 14.4112 29.1871 14.4103 29.1807 14.4102H12.0195ZM11.6045 32.3487C12.2125 31.7863 13.1611 31.823 13.7236 32.4307C14.2861 33.0388 14.2496 33.9883 13.6416 34.5508L9.38086 38.4913C8.78937 39.0379 7.87131 39.0198 7.30176 38.4502L5.32227 36.4708C4.7365 35.885 4.7365 34.9345 5.32227 34.3487C5.908 33.7632 6.85763 33.7632 7.44336 34.3487L8.40332 35.3086L11.6045 32.3487ZM38.4307 24.8116C38.232 24.8135 38.0407 24.8391 37.8574 24.8819C37.3896 24.9915 36.9772 25.225 36.6543 25.5567C36.6455 25.5658 36.637 25.5752 36.6279 25.584C36.1041 26.0954 35.8079 26.8202 35.8701 27.5919L35.875 27.6465C35.9811 28.9163 37.2022 30.0108 38.7002 30.0108H42.5801C42.905 29.9913 43.1172 29.7379 43.1172 29.4708V25.3506C43.117 25.0836 42.9049 24.83 42.5801 24.8106H38.46C38.4502 24.8106 38.4404 24.8115 38.4307 24.8116ZM27.5 19.9102C28.3283 19.9102 28.9998 20.582 29 21.4102C29 22.2386 28.3284 22.9102 27.5 22.9102H13.5C12.6716 22.9102 12 22.2386 12 21.4102C12.0002 20.582 12.6717 19.9102 13.5 19.9102H27.5ZM27.7002 5.3106C27.7 3.69575 26.0859 2.58717 24.5918 3.15337L24.5898 3.15435L8.71094 9.15337C7.07704 9.77162 6 11.3315 6 13.0909V13.7237C7.59847 12.2871 9.70965 11.4103 12.0195 11.4102H27.7002V5.3106Z" fill="var(--fill-0, white)" fill-opacity="0.5"/>
</svg>
