<svg preserveAspectRatio="none" width="100%" height="100%" overflow="visible" style="display: block;" viewBox="0 0 43 43.9264" fill="none" xmlns="http://www.w3.org/2000/svg">
<path id="Vector" fill-rule="evenodd" clip-rule="evenodd" d="M13.3903 1.04779e-06H29.6098C32.345 -3.89522e-05 34.5496 -7.88569e-05 36.2836 0.233041C38.0838 0.475081 39.5994 0.992861 40.8034 2.1967C42.0072 3.40054 42.525 4.91628 42.767 6.7165C43 8.45044 43 10.6551 43 13.3903V21.6098C43 24.345 43 26.5496 42.767 28.2836C42.525 30.0838 42.0072 31.5994 40.8034 32.8032C39.8074 33.7992 38.5938 34.3292 37.1722 34.6186C35.7918 34.8996 34.1266 34.9704 32.1552 34.9914L32.144 34.9916L31.6952 34.9928C31.5016 35.6012 31.187 36.18 30.751 36.6916C30.4888 36.9992 30.3304 37.3816 30.2982 37.7846C30.106 40.1932 28.1932 42.106 25.7846 42.2982C25.3818 42.3304 24.9992 42.4888 24.6916 42.751C22.8524 44.3182 20.1476 44.3182 18.3084 42.751C18.0008 42.4888 17.6184 42.3304 17.2154 42.2982C14.8067 42.106 12.894 40.1932 12.7018 37.7846C12.6697 37.3818 12.5112 36.9992 12.2491 36.6916C11.8136 36.1806 11.4992 35.6028 11.3057 34.9954C9.22504 34.9814 7.4834 34.925 6.0527 34.6622C4.53672 34.3836 3.24656 33.8532 2.1967 32.8034C0.992861 31.5994 0.475081 30.0838 0.233041 28.2836C-7.88569e-05 26.5496 -3.89522e-05 24.345 1.04779e-06 21.6098V13.3903C-3.89522e-05 10.6551 -7.88569e-05 8.45044 0.233041 6.7165C0.475081 4.91628 0.992861 3.40054 2.1967 2.1967C3.40054 0.992861 4.91628 0.475081 6.7165 0.233041C8.45044 -7.88569e-05 10.6551 -3.89522e-05 13.3903 1.04779e-06ZM11.3087 31.9952C11.5024 31.3912 11.8159 30.8168 12.2491 30.3084C12.5112 30.0008 12.6697 29.6184 12.7018 29.2154C12.894 26.8068 14.8067 24.894 17.2154 24.7018C17.6184 24.6696 18.0008 24.5112 18.3084 24.249C20.1476 22.6818 22.8524 22.6818 24.6916 24.249C24.9992 24.5112 25.3818 24.6696 25.7846 24.7018C28.1932 24.894 30.106 26.8068 30.2982 29.2154C30.3304 29.6184 30.4888 30.0008 30.751 30.3084C31.1836 30.816 31.4968 31.3896 31.6906 31.9928L32.1288 31.9914C34.0994 31.9704 35.5044 31.8966 36.5736 31.679C37.6026 31.4694 38.218 31.1458 38.682 30.682C39.2356 30.1284 39.5964 29.3514 39.7938 27.8838C39.9968 26.373 40 24.3708 40 21.5V13.5C40 10.6292 39.9968 8.62694 39.7938 7.11624C39.5964 5.6487 39.2356 4.87154 38.682 4.31802C38.1284 3.7645 37.3514 3.4036 35.8838 3.2063C34.373 3.00318 32.3708 3 29.5 3H13.5C10.6292 3 8.62694 3.00318 7.11624 3.2063C5.6487 3.4036 4.87154 3.7645 4.31802 4.31802C3.7645 4.87154 3.4036 5.6487 3.2063 7.11624C3.00318 8.62694 3 10.6292 3 13.5V21.5C3 24.3708 3.00318 26.373 3.2063 27.8838C3.4036 29.3514 3.7645 30.1284 4.31802 30.682C4.80492 31.1688 5.46108 31.5032 6.5947 31.7114C7.73506 31.921 9.2265 31.9808 11.3087 31.9952ZM14 9.5C14 8.67158 14.6716 8 15.5 8H27.5C28.3284 8 29 8.67158 29 9.5C29 10.3284 28.3284 11 27.5 11H15.5C14.6716 11 14 10.3284 14 9.5ZM10 16.5C10 15.6716 10.6716 15 11.5 15H31.5C32.3284 15 33 15.6716 33 16.5C33 17.3284 32.3284 18 31.5 18H11.5C10.6716 18 10 17.3284 10 16.5ZM22.7458 26.5324C22.028 25.9206 20.972 25.9206 20.2542 26.5324C19.4662 27.204 18.4862 27.61 17.4541 27.6922C16.5139 27.7674 15.7673 28.5138 15.6923 29.454C15.6099 30.4862 15.204 31.4662 14.5324 32.2542C13.9207 32.972 13.9207 34.028 14.5324 34.7458C15.204 35.5338 15.6099 36.5138 15.6923 37.546C15.7673 38.4862 16.5139 39.2326 17.4541 39.3078C18.4862 39.39 19.4662 39.796 20.2542 40.4676C20.972 41.0794 22.028 41.0794 22.7458 40.4676C23.5338 39.796 24.5138 39.39 25.546 39.3078C26.4862 39.2326 27.2326 38.4862 27.3078 37.546C27.39 36.5138 27.796 35.5338 28.4676 34.7458C29.0794 34.028 29.0794 32.972 28.4676 32.2542C27.796 31.4662 27.39 30.4862 27.3078 29.454C27.2326 28.5138 26.4862 27.7674 25.546 27.6922C24.5138 27.61 23.5338 27.204 22.7458 26.5324ZM23.4766 30.4034C24.0822 29.8382 25.0314 29.8708 25.5966 30.4766C26.1618 31.0822 26.1292 32.0314 25.5234 32.5966L21.2378 36.5966C20.6614 37.1344 19.7672 37.1344 19.1908 36.5966L17.4765 34.9966C16.8709 34.4314 16.8382 33.4822 17.4034 32.8766C17.9686 32.2708 18.9178 32.2382 19.5234 32.8034L20.2142 33.4482L23.4766 30.4034Z" fill="var(--fill-0, white)" fill-opacity="0.5"/>
</svg>
