<svg preserveAspectRatio="none" width="100%" height="100%" overflow="visible" style="display: block;" viewBox="0 0 103.637 120" fill="none" xmlns="http://www.w3.org/2000/svg">
<path id="Union" d="M51.8184 92.7275C53.3237 92.7275 54.5459 93.9497 54.5459 95.4551V103.637H60C63.551 103.637 66.5517 105.924 67.6807 109.091H84.5459C86.054 109.091 87.2727 110.313 87.2725 111.818C87.2724 113.324 86.054 114.545 84.5459 114.545H67.6807C66.5517 117.711 63.551 120 60 120H43.6367C40.0857 120 37.086 117.711 35.957 114.545H19.0918C17.5865 114.545 16.3643 113.324 16.3643 111.818C16.3643 110.313 17.5864 109.091 19.0918 109.091H35.957C37.0861 105.925 40.0858 103.637 43.6367 103.637H49.0918V95.4551C49.0918 93.9497 50.313 92.7276 51.8184 92.7275ZM43.6367 109.091C42.1341 109.091 40.9092 110.316 40.9092 111.818C40.9093 113.321 42.134 114.545 43.6367 114.545H60C61.5028 114.545 62.7275 113.321 62.7275 111.818C62.7275 110.316 61.5028 109.091 60 109.091H43.6367ZM95.4551 0C99.9657 0.000124956 103.637 3.67101 103.637 8.18164V19.0908C103.637 20.5962 102.417 21.8184 100.909 21.8184C99.4011 21.8182 98.1817 20.5963 98.1816 19.0908V8.18164C98.1816 6.67921 96.9603 5.4552 95.4551 5.45508H8.18164C6.67929 5.45529 5.45516 6.67903 5.45508 8.18164V27.2754L100.909 27.2725C101.635 27.2725 102.325 27.5623 102.838 28.0723C103.35 28.5822 103.637 29.2774 103.637 30V57.2725C103.637 58.7779 102.417 60 100.909 60L5.45508 60.0029V79.0908C5.45508 80.5933 6.67901 81.8181 8.18164 81.8184L95.4551 81.8154C96.9604 81.8153 98.1816 80.5906 98.1816 79.0879V68.1816C98.1817 66.6763 99.401 65.4551 100.909 65.4551C102.417 65.4551 103.637 66.6763 103.637 68.1816V79.0879C103.637 83.5985 99.9659 87.2693 95.4551 87.2695L8.18164 87.2725C3.67093 87.2724 0 83.6018 0 79.0908V57.2754C0.000125735 55.7701 1.22223 54.5488 2.72754 54.5488L98.1816 54.5459V32.7275L5.45508 32.7305V46.3643C5.45484 47.8694 4.23273 49.0908 2.72754 49.0908C1.22229 49.0908 0.000234011 47.8694 0 46.3643V8.18164C8.45387e-05 3.67106 3.67109 0.000211906 8.18164 0H95.4551ZM16.3633 68.1816C17.8695 68.1816 19.0908 69.403 19.0908 70.9092C19.0907 72.4153 17.8694 73.6357 16.3633 73.6357C14.8573 73.6355 13.6368 72.4152 13.6367 70.9092C13.6367 69.4031 14.8573 68.1818 16.3633 68.1816ZM27.2734 68.1816C28.7795 68.1818 30 69.4031 30 70.9092C29.9999 72.4152 28.7794 73.6356 27.2734 73.6357C25.7673 73.6357 24.546 72.4153 24.5459 70.9092C24.5459 69.403 25.7673 68.1816 27.2734 68.1816ZM87.2734 68.1816C88.7815 68.1818 90 69.4039 90 70.9092C89.9999 72.4144 88.7814 73.6356 87.2734 73.6357H49.0918C47.5865 73.6357 46.3644 72.4145 46.3643 70.9092C46.3643 69.4038 47.5864 68.1816 49.0918 68.1816H87.2734ZM16.3633 40.9092C17.8695 40.9092 19.0908 42.1305 19.0908 43.6367C19.0907 45.1428 17.8694 46.3633 16.3633 46.3633C14.8574 46.3631 13.6369 45.1426 13.6367 43.6367C13.6367 42.1307 14.8573 40.9094 16.3633 40.9092ZM27.2734 40.9092C28.7795 40.9094 30 42.1307 30 43.6367C29.9998 45.1426 28.7794 46.3631 27.2734 46.3633C25.7674 46.3633 24.5461 45.1428 24.5459 43.6367C24.5459 42.1305 25.7673 40.9092 27.2734 40.9092ZM87.2734 40.9092C88.7815 40.9094 90 42.1314 90 43.6367C89.9998 45.1419 88.7814 46.3631 87.2734 46.3633H49.0918C47.5865 46.3633 46.3644 45.142 46.3643 43.6367C46.3643 42.1313 47.5864 40.9092 49.0918 40.9092H87.2734ZM16.3633 13.6367C17.8694 13.6367 19.0907 14.8572 19.0908 16.3633C19.0908 17.8695 17.8695 19.0908 16.3633 19.0908C14.8573 19.0906 13.6367 17.8693 13.6367 16.3633C13.6369 14.8574 14.8574 13.6369 16.3633 13.6367ZM27.2734 13.6367C28.7794 13.6369 29.9998 14.8574 30 16.3633C30 17.8693 28.7795 19.0906 27.2734 19.0908C25.7673 19.0908 24.5459 17.8695 24.5459 16.3633C24.5461 14.8572 25.7674 13.6367 27.2734 13.6367ZM87.2734 13.6367C88.7814 13.6369 89.9998 14.8581 90 16.3633C90 17.8686 88.7815 19.0906 87.2734 19.0908H49.0918C47.5864 19.0908 46.3643 17.8687 46.3643 16.3633C46.3644 14.858 47.5865 13.6367 49.0918 13.6367H87.2734Z" fill="var(--fill-0, white)" fill-opacity="0.5"/>
</svg>
