<svg preserveAspectRatio="none" width="100%" height="100%" overflow="visible" style="display: block;" viewBox="0 0 116.25 116.25" fill="none" xmlns="http://www.w3.org/2000/svg">
<path id="Union" d="M40.3672 0C45.8552 0.000108482 50.8298 2.84634 53.6104 7.5H75C77.0681 7.5 78.75 9.18187 78.75 11.25V15C78.75 17.0681 77.0681 18.75 75 18.75V36.3828C76.7325 35.9028 78.5512 35.625 80.4355 35.625C85.8955 35.625 91.0271 37.7516 94.8877 41.6104L96.6016 43.3242C101.572 44.8092 105 49.3724 105 54.6055V71.25C105 75.3863 101.636 78.75 97.5 78.75H96.3955C95.4243 81.1406 93.8568 83.2236 91.875 84.8154V88.5898L106.763 92.8838C112.348 94.4964 116.25 99.6808 116.25 105.495V116.25H48.75V105.495C48.75 99.6808 52.6518 94.4964 58.2373 92.8838L73.125 88.5898V84.8154C71.1432 83.2236 69.5757 81.1406 68.6045 78.75H67.5C63.3637 78.75 60 75.3863 60 71.25V67.5H41.25V88.3916C44.4768 89.2298 46.875 92.1394 46.875 95.625C46.875 99.7613 43.5113 103.125 39.375 103.125C35.2387 103.125 31.875 99.7613 31.875 95.625C31.875 92.1394 34.2732 89.2298 37.5 88.3916V67.5H3.75V18.75C1.68187 18.75 0 17.0681 0 15V11.25C0 9.18187 1.68187 7.5 3.75 7.5H25.1416C27.9222 2.84632 32.8949 8.10845e-05 38.3848 0H40.3672ZM59.2764 96.4873C55.2864 97.6404 52.5 101.344 52.5 105.495V112.5H60V101.25H63.75V112.5H80.625V101.402L72.3711 108.002L66.5381 94.3916L59.2764 96.4873ZM92.627 108.004L84.375 101.402V112.5H101.25V101.25H105V112.5H112.5V105.495C112.5 101.344 109.714 97.6386 105.722 96.4893L98.46 94.3936L92.627 108.004ZM85.3047 97.3467L91.1211 101.998L94.8301 93.3447L90.542 92.1094L85.3047 97.3467ZM70.168 93.3428L73.877 101.996L79.6934 97.3447L74.4561 92.1074L70.168 93.3428ZM39.375 91.875C37.3069 91.875 35.625 93.5569 35.625 95.625C35.625 97.6931 37.3069 99.375 39.375 99.375C41.4431 99.375 43.125 97.6931 43.125 95.625C43.125 93.5569 41.4431 91.875 39.375 91.875ZM88.125 87.0205C86.3869 87.7274 84.4894 88.125 82.5 88.125C80.5106 88.125 78.6131 87.7274 76.875 87.0205V89.2236L82.5 94.8486L88.125 89.2236V87.0205ZM89.1709 61.875C88.6798 61.875 88.1923 61.9538 87.7236 62.1094L82.5 63.8516L77.2744 62.1094C76.8057 61.9538 76.3202 61.875 75.8271 61.875C73.3034 61.875 71.25 63.9284 71.25 66.4521V73.125C71.25 79.3294 76.2956 84.375 82.5 84.375C88.7044 84.375 93.75 79.3294 93.75 73.125V66.4521C93.75 63.9284 91.6965 61.875 89.1709 61.875ZM67.5 67.5C65.4319 67.5 63.75 69.1819 63.75 71.25C63.75 73.3181 65.4319 75 67.5 75H67.6289C67.552 74.385 67.5 73.7606 67.5 73.125V67.5ZM97.5 73.125C97.5 73.7606 97.448 74.385 97.3711 75H97.5C99.5681 75 101.25 73.3181 101.25 71.25C101.25 69.1819 99.5681 67.5 97.5 67.5V73.125ZM80.4355 39.375C71.235 39.375 63.75 46.86 63.75 56.0605V64.793C64.8581 64.148 66.1275 63.75 67.5 63.75H67.9893C69.118 60.4875 72.1859 58.125 75.8271 58.125C76.7251 58.125 77.6118 58.2697 78.4629 58.5527L82.5 59.8984L86.5371 58.5527C87.3882 58.2697 88.2729 58.125 89.1709 58.125C92.8121 58.125 95.882 60.4875 97.0107 63.75H97.5C98.8725 63.75 100.142 64.148 101.25 64.793V54.6055C101.25 50.9155 98.7502 47.7145 95.1709 46.8164L94.665 46.6914L92.2354 44.2617C89.0835 41.1117 84.8924 39.375 80.4355 39.375ZM7.5 63.75H60V56.0625C60 48.0994 64.5882 41.2033 71.25 37.832V18.75H7.5V63.75ZM22.5 56.25V60H11.25V56.25H22.5ZM39.375 22.5C49.7137 22.5 58.125 30.9113 58.125 41.25C58.125 51.5887 49.7137 60 39.375 60C29.0363 60 20.625 51.5887 20.625 41.25C20.625 30.9113 29.0363 22.5 39.375 22.5ZM45.8828 50.4092C44.0435 51.7198 41.8012 52.5 39.375 52.5C36.9488 52.5 34.7065 51.7198 32.8672 50.4111L30.1914 53.085C32.732 55.0612 35.9138 56.25 39.375 56.25C42.8362 56.25 46.018 55.0611 48.5586 53.083L45.8828 50.4092ZM27.54 32.0684C25.5638 34.609 24.375 37.7888 24.375 41.25C24.375 44.7112 25.5638 47.891 27.54 50.4316L30.2158 47.7578C28.9052 45.9185 28.125 43.6762 28.125 41.25C28.125 38.8238 28.9052 36.5815 30.2158 34.7422L27.54 32.0684ZM48.5342 34.7422C49.8448 36.5815 50.625 38.8238 50.625 41.25C50.625 43.6762 49.8448 45.9185 48.5342 47.7578L51.21 50.4316C53.1862 47.891 54.375 44.7112 54.375 41.25C54.375 37.7888 53.1862 34.609 51.21 32.0684L48.5342 34.7422ZM39.375 33.75C35.2387 33.75 31.875 37.1137 31.875 41.25C31.875 45.3863 35.2387 48.75 39.375 48.75C43.5113 48.75 46.875 45.3863 46.875 41.25C46.875 37.1137 43.5113 33.75 39.375 33.75ZM39.375 26.25C35.9138 26.25 32.732 27.4389 30.1914 29.417L32.8672 32.0908C34.7065 30.7802 36.9488 30 39.375 30C41.8012 30 44.0435 30.7802 45.8828 32.0889L48.5586 29.415C46.018 27.4388 42.8362 26.25 39.375 26.25ZM22.5 26.25H11.25V22.5H22.5V26.25ZM38.3848 3.75C33.928 3.75009 29.9189 6.22671 27.9258 10.2129L27.4092 11.25H3.75V15H75V11.25H51.3408L50.8242 10.2129C48.833 6.22673 44.8239 3.75012 40.3672 3.75H38.3848ZM45 11.25H33.75V7.5H45V11.25Z" fill="var(--fill-0, white)" fill-opacity="0.5"/>
</svg>
