<svg preserveAspectRatio="none" width="100%" height="100%" overflow="visible" style="display: block;" viewBox="0 0 75 79.999" fill="none" xmlns="http://www.w3.org/2000/svg">
<path id="Union" d="M12.9248 54.999C13.755 54.999 14.6192 55.0672 15.5166 55.2041C16.4142 55.3297 17.3178 55.5586 18.2266 55.8896C19.1465 56.2093 20.0331 56.66 20.8857 57.2422L18.7988 61.1807C17.9686 60.6441 17.0821 60.244 16.1396 59.9814C15.2084 59.7189 14.2265 59.5879 13.1943 59.5879C11.949 59.5879 10.8267 59.7705 9.82812 60.1357C8.82967 60.501 7.98268 61.0322 7.28711 61.7285C6.59153 62.4134 6.05871 63.2468 5.68848 64.2285C5.31824 65.2102 5.13282 66.3118 5.13281 67.5332C5.13281 69.291 5.49747 70.7692 6.22656 71.9678C6.95585 73.155 7.95483 74.0574 9.22266 74.6738C10.4905 75.2788 11.9215 75.5811 13.5146 75.5811C14.21 75.581 14.8548 75.5181 15.4492 75.3926C16.0438 75.267 16.5488 75.1185 16.9639 74.9473V70.1875H11.9824V66.1123H21.3564V77.9951C20.6833 78.4061 19.8697 78.766 18.916 79.0742C17.9626 79.3709 16.9812 79.599 15.9717 79.7588C14.9733 79.9186 14.0587 79.999 13.2285 79.999C11.3997 79.999 9.68255 79.7134 8.07812 79.1426C6.47377 78.5604 5.06521 77.7332 3.85352 76.6602C2.65307 75.5757 1.71074 74.2627 1.02637 72.7217C0.342024 71.1807 5.67949e-05 69.4456 0 67.5166C0 65.6102 0.325817 63.8858 0.976562 62.3447C1.63851 60.8038 2.55835 59.4855 3.73633 58.3896C4.9144 57.2938 6.28323 56.4543 7.84277 55.8721C9.41338 55.29 11.1074 54.9991 12.9248 54.999ZM35.8457 55.0166C37.5623 55.0166 39.1553 55.2734 40.625 55.7871C42.1059 56.2893 43.3066 56.9795 44.2266 57.8584L41.7695 61.54C41.3208 61.0835 40.7762 60.6894 40.1367 60.3584C39.5085 60.0275 38.8243 59.7705 38.084 59.5879C37.3435 59.3938 36.5974 59.2969 35.8457 59.2969C35.0379 59.2969 34.3251 59.4113 33.708 59.6396C33.1023 59.8565 32.6315 60.1763 32.2949 60.5986C31.9584 61.0095 31.7901 61.5058 31.79 62.0879C31.79 62.5331 31.9079 62.9157 32.1436 63.2354C32.3904 63.5435 32.8 63.8345 33.3721 64.1084C33.9555 64.3823 34.7521 64.6681 35.7617 64.9648L37.9834 65.6328C40.3169 66.3291 42.0108 67.2141 43.0654 68.2871C44.12 69.3601 44.6475 70.7526 44.6475 72.4648C44.6475 73.9488 44.2776 75.2618 43.5371 76.4033C42.8078 77.5334 41.753 78.4184 40.373 79.0576C39.0042 79.6855 37.3771 79.999 35.4922 79.999C33.7532 79.999 32.0648 79.7422 30.4268 79.2285C28.7887 78.7148 27.4027 77.9671 26.2695 76.9854L28.6426 73.1836C29.1587 73.7087 29.7923 74.1604 30.5439 74.5371C31.3069 74.9138 32.1151 75.2047 32.9678 75.4102C33.8316 75.6042 34.6786 75.7012 35.5088 75.7012C36.7876 75.7012 37.8255 75.473 38.6221 75.0166C39.4187 74.56 39.8174 73.8917 39.8174 73.0127C39.8174 72.305 39.5366 71.7171 38.9756 71.249C38.4146 70.7696 37.3714 70.3126 35.8457 69.8789L33.6914 69.2627C31.3242 68.5892 29.6186 67.6763 28.5752 66.5234C27.5318 65.3705 27.0098 63.9718 27.0098 62.3281C27.0098 61.2552 27.2285 60.2731 27.666 59.3828C28.1036 58.4924 28.7156 57.722 29.501 57.0713C30.2976 56.4206 31.2344 55.9183 32.3115 55.5645C33.3998 55.1992 34.5779 55.0166 35.8457 55.0166ZM62.4551 69.2139L70.2373 55.5127H75V79.4854H70.1699L70.2441 63.9277L63.9434 74.7598H60.543L53.9707 63.7969L54.0469 79.4854H49.4863V55.5127H54.2832L62.4551 69.2139ZM37.6768 40.7764C38.3561 40.7764 39.008 41.0459 39.4883 41.5264C39.9689 42.0066 40.2392 42.6585 40.2393 43.3379C40.2393 44.0173 39.9689 44.6691 39.4883 45.1494C39.008 45.63 38.3562 45.9004 37.6768 45.9004C36.9974 45.9003 36.3455 45.63 35.8652 45.1494C35.3847 44.6691 35.1152 44.0172 35.1152 43.3379C35.1153 42.6585 35.3847 42.0066 35.8652 41.5264C36.3455 41.0458 36.9974 40.7764 37.6768 40.7764ZM37.6943 27.1064C41.4915 27.1065 45.1826 28.3576 48.1982 30.665C48.4674 30.8669 48.6947 31.1199 48.8662 31.4092C49.0373 31.6984 49.1495 32.0196 49.1973 32.3525C49.2447 32.6855 49.2262 33.0245 49.1426 33.3506C49.0592 33.6764 48.9128 33.9829 48.7109 34.252C48.2979 34.7881 47.6913 35.1417 47.0215 35.2373C46.3516 35.3329 45.6706 35.1626 45.124 34.7637C42.9884 33.1377 40.3785 32.2569 37.6943 32.2568C35.0102 32.2568 32.3999 33.1378 30.2646 34.7637C29.818 35.0898 29.2805 35.2691 28.7275 35.2764C28.3298 35.2764 27.9368 35.1838 27.5811 35.0059C27.2255 34.8283 26.9163 34.5701 26.6777 34.252C26.4714 33.9845 26.3204 33.6781 26.2344 33.3516C26.1484 33.0251 26.1291 32.6845 26.1768 32.3506C26.2245 32.0162 26.3387 31.6946 26.5127 31.4053C26.6866 31.1158 26.9167 30.8641 27.1895 30.665C30.205 28.3575 33.8971 27.1065 37.6943 27.1064ZM37.7793 13.4365C45.1213 13.4365 52.2031 16.1549 57.6602 21.0664C58.165 21.519 58.4732 22.1514 58.5176 22.8281C58.5622 23.5046 58.3402 24.1712 57.8994 24.6865C57.6498 24.9529 57.3483 25.1666 57.0137 25.3135C56.6793 25.46 56.3177 25.5379 55.9521 25.541C55.3326 25.543 54.7343 25.311 54.2783 24.8916C49.7426 20.8298 43.8678 18.584 37.7793 18.584C31.6908 18.584 25.816 20.8298 21.2803 24.8916C21.0292 25.116 20.7359 25.289 20.418 25.4004C20.1 25.5117 19.7631 25.5592 19.4268 25.54C19.0906 25.5209 18.7613 25.4365 18.458 25.29C18.1546 25.1435 17.8833 24.9379 17.6592 24.6865C17.2184 24.1712 16.9964 23.5046 17.041 22.8281C17.0857 22.1514 17.3936 21.519 17.8984 21.0664C23.3556 16.1549 30.4373 13.4365 37.7793 13.4365ZM37.6436 0C48.4455 0.000120682 58.8373 4.14067 66.6797 11.5693C67.0531 11.9153 67.3148 12.3649 67.4316 12.8604C67.5488 13.3561 67.5156 13.8759 67.3359 14.3525C67.1563 14.8291 66.8388 15.2419 66.4238 15.5371C66.0089 15.8322 65.515 15.9964 65.0059 16.0098C64.3604 16.0066 63.7391 15.7633 63.2637 15.3271C56.3583 8.74474 47.1836 5.07239 37.6436 5.07227C28.1033 5.07227 18.9281 8.74462 12.0225 15.3271C11.7874 15.6065 11.4955 15.8329 11.166 15.9902C10.8364 16.1476 10.4765 16.2321 10.1113 16.2393C9.74617 16.2461 9.38326 16.1757 9.04785 16.0312C8.71246 15.8866 8.41167 15.6716 8.16602 15.4014C7.92043 15.1312 7.73604 14.8113 7.62402 14.4639C7.51198 14.1162 7.47486 13.7477 7.5166 13.3848C7.55834 13.0221 7.67738 12.6724 7.86523 12.3594C8.05317 12.0463 8.30598 11.7768 8.60645 11.5693C16.4489 4.14056 26.8412 7.3111e-06 37.6436 0Z" fill="var(--fill-0, white)" fill-opacity="0.5"/>
</svg>
