<svg preserveAspectRatio="none" width="100%" height="100%" overflow="visible" style="display: block;" viewBox="0 0 120 120" fill="none" xmlns="http://www.w3.org/2000/svg">
<path id="Union" d="M88.0781 0C92.4525 0.000155487 95.9999 3.54747 96 7.92188V22H111.938C116.391 22.0001 120 25.6094 120 30.0615V57.9385C120 62.3909 116.391 65.9999 111.938 66H96V112.078C95.9999 116.452 92.4525 120 88.0781 120H35.9238C31.5478 120 28.0001 116.453 28 112.078V86H8.06152C3.60911 85.9998 0 82.39 0 77.9375V50.0615C0.000242701 45.6093 3.60925 42.0007 8.06152 42H28V31.999C26.8956 31.9989 26.0002 31.1044 26 30V28C26 26.8954 26.8955 26.0001 28 26V24C26.8955 23.9999 26 23.1045 26 22V20C26 18.8955 26.8955 18.0001 28 18V7.92188C28.0001 3.54749 31.5475 0.000180459 35.9219 0H88.0781ZM32 112.077C32 114.243 33.7569 115.999 35.9238 115.999H56.7109C55.0494 114.533 54 112.389 54 109.999C54.0001 107.609 55.0495 105.466 56.7109 104H32V112.077ZM67.2891 104C68.9505 105.466 69.9999 107.609 70 109.999C70 112.389 68.9506 114.533 67.2891 115.999H88.0781C90.2434 115.999 92 114.242 92 112.077V104H67.2891ZM62 105.999C59.7907 105.999 58.0003 107.79 58 109.999C58 112.208 59.7906 114 62 114C64.2094 114 66 112.208 66 109.999C65.9997 107.79 64.2093 105.999 62 105.999ZM32 42H43.9385C48.3909 42.0001 51.9998 45.6092 52 50.0615V77.9375C52 81.9115 49.1248 85.2142 45.3408 85.8779L41.7949 94.7422C41.4595 95.5803 40.6985 96 39.9375 96C39.1766 95.9998 38.4164 95.5801 38.0811 94.7422L34.584 86H32V99.999H92V66H85.417L81.9199 74.7422C81.5846 75.5802 80.8234 75.9999 80.0625 76C79.3015 76 78.5405 75.5803 78.2051 74.7422L74.6592 65.8779C70.8753 65.2141 68 61.9115 68 57.9375V30.0615C68.0002 25.6092 71.6092 22.0002 76.0615 22H92V16H32V42ZM8.06152 46C5.81846 46.0002 4.00024 47.8185 4 50.0615V77.9375C4 80.1808 5.81831 81.9995 8.06152 82H35.9385C36.756 82.0001 37.4912 82.4977 37.7949 83.2568L39.9375 88.6143L42.0811 83.2568C42.3848 82.4977 43.12 82.0001 43.9375 82C46.1809 82 48 80.1809 48 77.9375V50.0615C47.9998 47.8183 46.1808 46 43.9375 46H8.06152ZM36.5859 50.5859C37.3671 49.805 38.6331 49.805 39.4141 50.5859C40.1951 51.3671 40.1952 52.6332 39.4141 53.4141L15.4141 77.4141C14.6329 78.1948 13.3671 78.1949 12.5859 77.4141C11.805 76.6329 11.8051 75.3669 12.5859 74.5859L36.5859 50.5859ZM34 66C37.3126 66.0001 40 68.6874 40 72C40 75.3123 37.3125 77.9999 34 78C30.6874 78 28 75.3126 28 72C28 68.6874 30.6874 66 34 66ZM34 70C32.8966 70 32 70.8966 32 72C32 73.1034 32.8966 74 34 74C35.1033 73.9999 36 73.1034 36 72C36 70.8966 35.1034 70.0001 34 70ZM76.0625 26C73.8192 26 72.0012 27.8183 72.001 30.0615V57.9375C72.001 60.1809 73.8191 62 76.0625 62C76.8801 62 77.6151 62.4976 77.9189 63.2568L80.0625 68.6143L82.2051 63.2568C82.4899 62.5449 83.1544 62.0632 83.9102 62.0059L84.0625 62H111.938C114.182 61.9999 116 60.1808 116 57.9375V30.0615C116 27.8184 114.182 26.0001 111.938 26H76.0625ZM18 50C21.3126 50 24 52.6874 24 56C24 59.3126 21.3126 62 18 62C14.6874 62 12 59.3126 12 56C12 52.6874 14.6874 50 18 50ZM105.105 30.2109C106.435 29.5463 108 30.5135 108 32V56C108 57.4865 106.435 58.4538 105.105 57.7891L93.5273 52H82C80.8954 52 80 51.1046 80 50V38C80 36.8954 80.8954 36 82 36H93.5273L105.105 30.2109ZM18 54C16.8966 54 15.9998 54.8966 16 56C16 57.1034 16.8966 58 18 58C19.1034 58 20 57.1034 20 56C20 54.8966 19.1034 54 18 54ZM94.8945 39.7891C94.6168 39.928 94.3105 40 94 40H84V48H94C94.3105 48 94.6168 48.0722 94.8945 48.2109L104 52.7637V35.2363L94.8945 39.7891ZM35.9219 4C33.7567 4.00018 32.0001 5.75669 32 7.92188V12H92V7.92188C91.9999 5.75668 90.2433 4.00016 88.0781 4H35.9219ZM54 6C55.1044 6.0001 55.9999 6.89557 56 8C56 9.10454 55.1045 9.9999 54 10H52C50.8956 10 50 9.10437 50 8C50.0001 6.89574 50.8955 6 52 6H54ZM70 6C71.1045 6 71.9999 6.89551 72 8C72 9.1046 71.1046 10 70 10H60C58.8956 9.99978 58.001 9.10423 58.001 8C58.0011 6.89588 58.8957 6.00022 60 6H70Z" fill="var(--fill-0, white)" fill-opacity="0.5"/>
</svg>
