<svg preserveAspectRatio="none" width="100%" height="100%" overflow="visible" style="display: block;" viewBox="0 0 11.547 120" fill="none" xmlns="http://www.w3.org/2000/svg">
<path id="Vector 13" d="M5.7735 120L11.547 110H0L5.7735 120ZM5.7735 0H4.7735V2H5.7735H6.7735V0H5.7735ZM5.7735 6H4.7735V10H5.7735H6.7735V6H5.7735ZM5.7735 14H4.7735V18H5.7735H6.7735V14H5.7735ZM5.7735 22H4.7735V26H5.7735H6.7735V22H5.7735ZM5.7735 30H4.7735V34H5.7735H6.7735V30H5.7735ZM5.7735 38H4.7735V42H5.7735H6.7735V38H5.7735ZM5.7735 46H4.7735V50H5.7735H6.7735V46H5.7735ZM5.7735 54H4.7735V58H5.7735H6.7735V54H5.7735ZM5.7735 62H4.7735V66H5.7735H6.7735V62H5.7735ZM5.7735 70H4.7735V74H5.7735H6.7735V70H5.7735ZM5.7735 78H4.7735V82H5.7735H6.7735V78H5.7735ZM5.7735 86H4.7735V90H5.7735H6.7735V86H5.7735ZM5.7735 94H4.7735V98H5.7735H6.7735V94H5.7735ZM5.7735 102H4.7735V106H5.7735H6.7735V102H5.7735ZM5.7735 110H4.7735V114H5.7735H6.7735V110H5.7735Z" fill="var(--stroke-0, white)" fill-opacity="0.5"/>
</svg>
