<svg preserveAspectRatio="none" width="100%" height="100%" overflow="visible" style="display: block;" viewBox="0 0 43 23" fill="none" xmlns="http://www.w3.org/2000/svg">
<path id="Vector" d="M3.5 23C2.52833 23 1.702 22.6597 1.021 21.979C0.340333 21.298 0 20.4717 0 19.5C0 18.5283 0.340333 17.702 1.021 17.021C1.702 16.3403 2.52833 16 3.5 16C3.72567 16 3.9295 16.0097 4.1115 16.029C4.2935 16.048 4.47433 16.1102 4.654 16.2155L14.2155 6.654C14.1102 6.47433 14.048 6.2935 14.029 6.1115C14.0097 5.9295 14 5.72567 14 5.5C14 4.52833 14.3403 3.702 15.021 3.021C15.702 2.34033 16.5283 2 17.5 2C18.4717 2 19.298 2.34033 19.979 3.021C20.6597 3.702 21 4.52833 21 5.5C21 5.618 20.941 5.98983 20.823 6.6155L26.3845 12.177C26.5642 12.0973 26.7385 12.048 26.9075 12.029C27.0768 12.0097 27.2743 12 27.5 12C27.7257 12 27.9263 12.0097 28.102 12.029C28.2777 12.048 28.4488 12.1102 28.6155 12.2155L36.2155 4.6155C36.1102 4.44883 36.048 4.27767 36.029 4.102C36.0097 3.92633 36 3.72567 36 3.5C36 2.52833 36.3403 1.702 37.021 1.021C37.702 0.340332 38.5283 0 39.5 0C40.4717 0 41.298 0.340332 41.979 1.021C42.6597 1.702 43 2.52833 43 3.5C43 4.47167 42.6597 5.298 41.979 5.979C41.298 6.65967 40.4717 7 39.5 7C39.2743 7 39.0737 6.99033 38.898 6.971C38.7223 6.952 38.5512 6.88983 38.3845 6.7845L30.7845 14.3845C30.8898 14.5512 30.952 14.7223 30.971 14.898C30.9903 15.0737 31 15.2743 31 15.5C31 16.4717 30.6597 17.298 29.979 17.979C29.298 18.6597 28.4717 19 27.5 19C26.5283 19 25.702 18.6597 25.021 17.979C24.3403 17.298 24 16.4717 24 15.5C24 15.2743 24.0097 15.0705 24.029 14.8885C24.048 14.7065 24.1102 14.5257 24.2155 14.346L18.654 8.7845C18.4743 8.88983 18.2935 8.952 18.1115 8.971C17.9295 8.99033 17.7257 9 17.5 9C17.382 9 17.0102 8.941 16.3845 8.823L6.823 18.3845C6.90267 18.5642 6.952 18.7385 6.971 18.9075C6.99033 19.0768 7 19.2743 7 19.5C7 20.4717 6.65967 21.298 5.979 21.979C5.298 22.6597 4.47167 23 3.5 23Z" fill="var(--fill-0, white)" fill-opacity="0.5"/>
</svg>
