<svg preserveAspectRatio="none" width="100%" height="100%" overflow="visible" style="display: block;" viewBox="0 0 18.6155 18.1538" fill="none" xmlns="http://www.w3.org/2000/svg">
<path id="Vector" d="M18.6155 18.1538L15.077 14.6152H5.30775C4.82125 14.6152 4.40475 14.442 4.05825 14.0955C3.71175 13.7492 3.5385 13.3327 3.5385 12.846V12.2308H14.4233C14.9203 12.2308 15.3457 12.0537 15.6997 11.6997C16.0537 11.3457 16.2307 10.9202 16.2307 10.423V3.5H16.8462C17.3327 3.5 17.7493 3.67325 18.0958 4.01975C18.4423 4.36625 18.6155 4.78275 18.6155 5.26925V18.1538ZM1.5 10.1463L2.9155 8.73075H12.4233C12.5129 8.73075 12.5866 8.70192 12.6443 8.64425C12.7019 8.58658 12.7307 8.51283 12.7307 8.423V1.80775C12.7307 1.71792 12.7019 1.64417 12.6443 1.5865C12.5866 1.52883 12.5129 1.5 12.4233 1.5H1.80775C1.71808 1.5 1.64433 1.52883 1.5865 1.5865C1.52883 1.64417 1.5 1.71792 1.5 1.80775V10.1463ZM0 13.7693V1.80775C0 1.31058 0.177 0.885 0.531 0.531C0.885 0.177 1.31058 0 1.80775 0H12.4233C12.9202 0 13.3457 0.177 13.6997 0.531C14.0537 0.885 14.2307 1.31058 14.2307 1.80775V8.423C14.2307 8.92017 14.0537 9.34575 13.6997 9.69975C13.3457 10.0537 12.9202 10.2308 12.4233 10.2308H3.5385L0 13.7693Z" fill="var(--fill-0, #0C6EBF)"/>
</svg>
