<svg preserveAspectRatio="none" width="100%" height="100%" overflow="visible" style="display: block;" viewBox="0 0 30 37.8845" fill="none" xmlns="http://www.w3.org/2000/svg">
<path id="Vector" d="M15 37.8845C10.6743 36.7048 7.093 34.1587 4.256 30.246C1.41867 26.3333 0 21.959 0 17.123V5.6155L15 0L30 5.6155V17.123C30 21.959 28.5813 26.3333 25.744 30.246C22.907 34.1587 19.3257 36.7048 15 37.8845ZM15 34.723C18.4667 33.623 21.3333 31.423 23.6 28.123C25.8667 24.823 27 21.1563 27 17.123V7.673L15 3.192L3 7.673V17.123C3 21.1563 4.13333 24.823 6.4 28.123C8.66667 31.423 11.5333 33.623 15 34.723Z" fill="var(--fill-0, white)" fill-opacity="0.5"/>
</svg>
